<?xml version="1.0" standalone="no"?>
<!DOCTYPE svg PUBLIC "-//W3C//DTD SVG 20010904//EN" "http://www.w3.org/TR/2001/REC-SVG-20010904/DTD/svg10.dtd">
<svg version="1.0" xmlns="http://www.w3.org/2000/svg" width="200pt" height="133pt" viewBox="0 0 200 133" preserveAspectRatio="xMidYMid meet">
<g fill="#fff" stroke="none">
<path d="M89.000000,131.793302 C89.000000,131.356986 89.450000,131.000000 90.000000,131.000000C91.742869,131.000000 91.078725,129.159762 89.110393,128.535037C87.047215,127.880210 85.673016,123.320121 87.245913,122.348018C87.783644,122.015681 88.657554,122.363921 89.187934,123.121885C89.933696,124.187649 90.267220,124.216686 90.659464,123.250000C91.184179,121.956842 97.619037,121.532844 100.418213,122.606989C101.356213,122.966933 102.000000,124.391432 102.000000,126.106989C102.000000,127.698145 102.397516,129.000000 102.883369,129.000000C104.292624,129.000000 104.990288,124.850370 103.917917,122.846626C103.293526,121.679941 103.279445,119.835538 103.879069,117.758299L104.819623,114.500000 104.909812,118.750000 C105.004199,123.197875 106.121735,124.021123 108.642857,121.500000C109.467857,120.675000 109.713174,120.000000 109.188006,120.000000C107.777492,120.000000 107.010661,114.701512 108.211103,113.250000C109.638365,111.524230 112.000000,111.680057 112.000000,113.500000C112.000000,114.325000 111.325000,115.000000 110.500000,115.000000C108.485424,115.000000 108.578769,118.624381 110.613454,119.405163C111.581929,119.776801 112.034618,120.759617 111.745885,121.863737C111.364468,123.322275 111.858656,123.720054 114.132431,123.784702C115.709594,123.829545 117.000000,123.446331 117.000000,122.933117C117.000000,122.419903 118.153787,122.000000 119.563970,122.000000C121.850135,122.000000 122.093922,122.348918 121.813970,125.220303C121.571728,127.704909 121.924064,128.525928 123.356220,128.814083C124.377141,129.019496 125.727141,128.644782 126.356220,127.981386C127.238357,127.051127 126.985306,126.930713 125.250000,127.454993C123.344821,128.030596 123.000000,127.760079 123.000000,125.689832C123.000000,121.611297 125.005478,120.786474 131.118361,122.350874C134.078262,123.108367 136.556250,124.239305 136.625000,124.864068C136.693750,125.488830 136.806250,126.840616 136.875000,127.868035C136.977344,129.397496 137.745241,129.706955 141.111762,129.575434C143.688780,129.474756 145.689528,128.777499 146.472005,127.707399C148.188436,125.360039 148.904821,125.569006 148.332160,128.250000C147.885101,130.342974 147.952236,130.377095 149.294132,128.738910C150.454418,127.322434 150.946953,127.231156 151.811149,128.272449C152.402094,128.984494 152.569329,130.078807 152.182781,130.704254C151.182498,132.322747 146.000000,133.499729 146.000000,132.108408C146.000000,131.498784 145.523442,131.000000 144.940983,131.000000C144.358524,131.000000 144.111149,131.370827 144.391262,131.824059C145.124331,133.010190 140.644255,132.696349 139.765313,131.500000C139.310316,130.880693 139.024796,130.975867 139.015313,131.750000C139.004440,132.637528 136.825167,133.000000 131.500000,133.000000C126.108194,133.000000 124.070273,132.655308 124.250000,131.773741C124.387500,131.099299 123.375000,130.388889 122.000000,130.195052C119.559702,129.851039 119.547761,129.879563 121.500000,131.389508C123.402360,132.860874 123.304720,132.936393 119.500000,132.936393C115.768208,132.936393 115.630157,132.837948 117.441130,131.468197C119.013774,130.278709 119.081541,130.000000 117.798118,130.000000C116.926841,130.000000 115.952632,130.681056 115.633210,131.513457C115.149596,132.773734 112.873339,132.990085 102.026221,132.806759C94.861799,132.685674 89.000000,132.229619 89.000000,131.793302 Z"/>
<path d="M70.000000,121.919260 C70.000000,121.259934 69.212500,120.085076 68.250000,119.308464C66.655803,118.022155 66.722576,117.957399 69.000000,118.581122C71.448793,119.251777 71.462920,119.224257 69.689722,117.237553C68.057997,115.409358 64.695997,114.230960 59.725240,113.744953C58.749123,113.649514 58.155484,113.037198 58.406044,112.384250C58.656603,111.731302 58.058686,110.987104 57.077338,110.730475C55.599211,110.343936 55.352017,110.798870 55.636628,113.381939C55.825585,115.096873 55.647145,116.050000 55.240093,115.500000C54.833042,114.950000 53.600000,114.465426 52.500000,114.423168C51.400000,114.380910 49.490331,114.013984 48.256292,113.607777C46.468608,113.019327 46.134673,113.187378 46.613281,114.434609C47.584351,116.965178 45.347131,116.229829 43.009233,113.250000C41.822565,111.737500 41.111492,111.021891 41.429071,111.659758C42.265629,113.340006 41.017794,116.000000 39.393011,116.000000C38.626855,116.000000 38.000000,115.759168 38.000000,115.464817C38.000000,114.169277 41.337996,110.000000 42.375228,110.000000C43.005093,110.000000 44.712674,108.894495 46.169854,107.543322C48.281849,105.584969 48.932657,105.382124 49.378251,106.543322C49.704812,107.394328 49.351134,108.000000 48.527632,108.000000C47.752353,108.000000 46.874683,108.393750 46.577254,108.875000C46.279825,109.356250 47.204446,109.750000 48.631966,109.750000C50.059486,109.750000 51.570030,110.304293 51.988729,110.981763C52.489055,111.791308 52.969212,111.858833 53.389521,111.178759C53.741257,110.609638 53.168730,109.870940 52.117237,109.537210C50.811675,109.122840 50.368398,108.307249 50.719348,106.965213C51.002001,105.884346 51.657336,105.000000 52.175648,105.000000C52.693960,105.000000 52.839919,105.450000 52.500000,106.000000C52.160081,106.550000 52.321024,107.000000 52.857650,107.000000C53.394276,107.000000 54.100823,106.437500 54.427755,105.750000C54.754687,105.062500 54.853928,105.437500 54.648292,106.583333C54.243401,108.839441 56.901803,109.592112 58.234687,107.598746C58.687354,106.921769 58.975252,107.171762 58.984687,108.250000C58.993109,109.212500 59.417004,110.000000 59.926676,110.000000C60.436348,110.000000 61.059147,109.212500 61.310674,108.250000C61.684674,106.818846 61.789132,106.875938 61.883999,108.563354C61.961440,109.940829 63.163433,111.083203 65.500000,112.000000C67.425000,112.755311 69.000000,113.739302 69.000000,114.186646C69.000000,114.633991 69.465833,115.000000 70.035184,115.000000C70.737034,115.000000 70.725705,114.355992 70.000000,113.000000C69.274295,111.644008 69.262966,111.000000 69.964816,111.000000C70.534167,111.000000 71.000000,111.435877 71.000000,111.968615C71.000000,112.501354 71.675000,112.678209 72.500000,112.361626C73.449843,111.997137 74.000000,112.375419 74.000000,113.393011C74.000000,114.276855 73.519676,115.000000 72.932612,115.000000C72.335929,115.000000 72.133373,115.844862 72.473290,116.915843C72.807725,117.969557 72.605709,119.125651 72.024365,119.484941C71.443021,119.844232 71.207057,120.526008 71.500000,121.000000C71.792943,121.473992 71.575283,122.144455 71.016312,122.489919C70.457340,122.835382 70.000000,122.578586 70.000000,121.919260 Z"/>
<path d="M90.717014,120.266312 C90.485364,119.844840 90.229617,116.476756 90.148688,112.781681C90.026111,107.185040 90.251852,106.159414 91.500772,106.638670C92.325347,106.955089 93.000000,107.615833 93.000000,108.106989C93.000000,108.598145 93.969744,109.000000 95.154988,109.000000C97.219938,109.000000 97.237062,109.080568 95.564855,110.928336C94.450133,112.160090 94.057254,113.605031 94.477255,114.928336C94.862027,116.140645 94.692008,117.000000 94.067388,117.000000C93.480324,117.000000 93.000000,117.648442 93.000000,118.440983C93.000000,120.092329 91.347548,121.413523 90.717014,120.266312 Z"/>
<path d="M117.417895,119.646633 C117.101063,118.820983 117.022089,117.100225 117.242396,115.822726C117.636535,113.537219 117.661442,113.544065 118.796726,116.250000C120.251383,119.717154 121.389744,119.819146 120.740755,116.424177C120.425992,114.777605 120.594859,114.194859 121.208842,114.808842C122.704874,116.304874 121.697730,120.441882 119.746976,120.813691C118.782813,120.997458 117.734726,120.472282 117.417895,119.646633 Z"/>
<path d="M51.944819,118.170877 C49.601846,116.897122 49.652968,116.862732 53.171994,117.345348C55.782911,117.703421 57.001943,117.437319 57.390610,116.424471C58.361472,113.894444 60.768958,114.757789 60.254055,117.451327C59.881516,119.400140 59.232393,119.861382 57.087546,119.701327C55.603697,119.590597 53.289469,118.901895 51.944819,118.170877 Z"/>
<path d="M123.210573,114.398517 L121.921147,113.000000 123.210573,112.984687 C124.229171,112.972591 124.219842,112.791782 123.166154,112.123851C122.068796,111.428236 122.083942,111.181766 123.251583,110.733700C124.486963,110.259640 131.000000,113.507999 131.000000,114.598201C131.000000,114.819191 129.875000,115.000000 128.500000,115.000000C126.823688,115.000000 125.967158,114.423419 125.900320,113.250000C125.823856,111.907580 125.649179,112.000395 125.150320,113.648517C124.600124,115.466246 124.301479,115.581717 123.210573,114.398517 Z"/>
<path d="M35.475287,112.077865 C35.808624,111.027612 35.613050,109.878886 35.040677,109.525140C34.468305,109.171394 34.000000,108.403424 34.000000,107.818538C34.000000,106.158452 36.701822,108.751763 37.281427,110.968176C37.572582,112.081554 37.175454,113.102430 36.324101,113.429125C35.258875,113.837891 35.031540,113.475987 35.475287,112.077865 Z"/>
<path d="M96.613129,112.183046 C95.890356,111.013575 98.530022,108.700070 103.000000,106.585345C106.401045,104.976327 106.433317,104.979985 104.141426,106.714756C102.844211,107.696640 100.747007,109.534730 99.480974,110.799399C98.214941,112.064069 96.924410,112.686710 96.613129,112.183046 Z"/>
<path d="M77.223434,107.250000 C77.376419,104.788379 77.888676,104.000000 79.335152,104.000000C80.919314,104.000000 81.032658,103.744277 80.000000,102.500000C79.315311,101.675000 78.183356,101.000000 77.484544,101.000000C76.785733,101.000000 75.947509,100.305594 75.621825,99.456876C75.164497,98.265098 74.587883,98.150191 73.089312,98.952202C71.841448,99.620038 70.319366,99.658051 68.824475,99.058712C66.520692,98.135068 66.523975,98.126208 69.193296,98.063386C70.790981,98.025785 72.519847,97.095902 73.443296,95.777494C74.299483,94.555115 75.000000,94.070500 75.000000,94.700571C75.000000,96.538468 81.049291,102.068516 82.734617,101.771284C83.580628,101.622078 84.396617,102.287500 84.547926,103.250000C84.861368,105.243861 83.393717,105.647094 82.728070,103.750000C82.486842,103.062500 82.280592,103.745917 82.269737,105.268704C82.253792,107.505487 82.514164,107.818172 83.625000,106.896259C84.473099,106.192399 85.000000,106.144234 85.000000,106.770566C85.000000,108.345301 81.896085,109.158648 80.453974,107.961802C79.496719,107.167351 78.883894,107.357421 78.091449,108.694549C77.194733,110.207618 77.054163,109.973682 77.223434,107.250000 Z"/>
<path d="M112.605028,108.830061 C113.104792,108.021426 112.736990,107.867622 111.414045,108.332027C109.871612,108.873481 109.958347,108.615250 111.860784,107.001966C113.949863,105.230408 117.303670,104.029663 115.709191,105.624142C115.365913,105.967420 116.078413,107.077449 117.292525,108.090873L119.500000,109.933461 115.690983,109.966731 C113.031533,109.989959 112.100187,109.646911 112.605028,108.830061 Z"/>
<path d="M90.379371,103.234687 C89.559918,102.697452 89.615246,101.156218 90.585238,97.500000C91.314811,94.750000 91.931594,92.218750 91.955867,91.875000C92.044165,90.624545 98.305472,90.008630 99.643160,91.118813C100.389422,91.738155 101.000000,91.829992 101.000000,91.322896C101.000000,90.815800 104.437209,90.423200 108.638242,90.450451L116.276484,90.500000 117.594109,95.500000 C119.311285,102.016178 119.213617,104.272792 117.377706,100.500000L115.917850,97.500000 116.320253,100.250000 C116.707104,102.893713 116.552879,103.000000 112.329943,103.000000C109.347800,103.000000 107.752395,102.518326 107.361626,101.500000C107.045044,100.675000 106.336022,100.000000 105.786022,100.000000C105.236022,100.000000 105.045044,100.675000 105.361626,101.500000C106.053642,103.303365 104.415696,103.533634 103.583333,101.750000L103.000000,100.500000 102.416667,101.750000 C101.607333,103.484286 100.000000,103.318011 100.000000,101.500000C100.000000,99.846827 98.442906,99.474346 97.552786,100.914590C97.241900,101.417614 97.552843,102.057088 98.243769,102.335642C98.934696,102.614197 98.487500,102.877632 97.250000,102.921053C96.012500,102.964474 95.000000,102.517857 95.000000,101.928571C95.000000,101.339286 94.292857,101.564286 93.428571,102.428571C91.617213,104.239930 91.827774,104.184264 90.379371,103.234687 Z"/>
<path d="M120.541893,98.813097 C118.761991,94.364684 118.573911,92.000000 120.000000,92.000000C120.550000,92.000000 121.000000,92.450000 121.000000,93.000000C121.000000,93.550000 121.900000,94.900000 123.000000,96.000000C125.341169,98.341169 125.692763,102.666667 123.541893,102.666667C122.739934,102.666667 121.389934,100.932560 120.541893,98.813097 Z"/>
<path d="M148.745240,99.337074 C146.461565,98.134398 146.164910,97.560379 147.010494,95.980391C148.275894,93.615970 150.366613,94.314450 151.864550,97.602065C153.675545,101.576767 153.346040,101.760043 148.745240,99.337074 Z"/>
<path d="M82.500000,89.000000 C78.341408,87.941818 82.434435,87.894855 87.500000,88.942631C90.863126,89.638269 91.022345,89.769474 88.500000,89.766686C86.850000,89.764862 84.150000,89.419854 82.500000,89.000000 Z"/>
<path d="M92.558551,86.000000 C93.579930,79.578298 93.995303,78.518176 96.672495,75.500342C98.348556,73.611021 99.487750,72.963251 99.750114,73.750342C100.022672,74.568016 101.952688,74.937692 105.333333,74.819752L110.500000,74.639504 105.750000,74.264961 C103.137500,74.058962 101.000000,73.513219 101.000000,73.052198C101.000000,72.591177 100.365613,71.970540 99.590251,71.673006C98.717923,71.338263 97.136421,72.638644 95.441697,75.084131C93.935355,77.257783 92.480617,78.813950 92.208946,78.542279C91.937275,78.270608 92.293249,77.351583 93.000000,76.500000C93.706751,75.648417 93.971408,74.638075 93.588128,74.254794C93.204847,73.871514 92.446958,74.219889 91.903929,75.028960C91.098720,76.228662 90.970409,76.150229 91.208302,74.603744C91.368736,73.560803 90.937194,72.510701 90.249320,72.270184C89.423296,71.981362 89.200670,72.455447 89.593652,73.666440C90.070634,75.136282 89.984674,75.211921 89.160315,74.047746C87.761059,72.071690 88.625275,71.000000 91.618034,71.000000C92.993034,71.000000 93.859136,71.418906 93.542705,71.930902C93.226274,72.442898 93.354025,73.100765 93.826595,73.392830C94.299166,73.684895 96.877661,71.022144 99.556586,67.475607C102.758734,63.236391 104.765250,61.365250 105.413679,62.013679C106.893336,63.493336 109.708877,63.201037 110.361626,61.500000C110.678209,60.675000 110.388854,59.993109 109.718615,59.984687C108.914699,59.974585 108.988573,59.660218 109.935698,59.060903C111.004704,58.384464 111.089652,57.812950 110.268293,56.823273C109.461575,55.851237 109.478852,54.957540 110.332595,53.497058C111.802443,50.982616 114.699286,50.442186 116.847962,52.281563C118.785155,53.939898 121.820921,55.676749 120.797619,54.541278C119.974679,53.628130 122.342089,51.000000 123.987588,51.000000C124.609333,51.000000 124.839919,50.550000 124.500000,50.000000C124.147537,49.429704 125.017393,49.000000 126.524316,49.000000C130.124721,49.000000 129.206363,51.391554 125.422881,51.868318C122.843840,52.193308 122.735275,52.332086 124.500000,53.048033C126.399248,53.818554 126.386654,53.862970 124.250000,53.929715C123.012500,53.968372 122.000000,54.348434 122.000000,54.774299C122.000000,55.200163 126.896706,55.527241 132.881568,55.501140C141.296198,55.464441 143.652377,55.742317 143.274579,56.726841C143.005873,57.427078 142.132610,58.000000 141.333994,58.000000C140.535379,58.000000 140.160081,58.450000 140.500000,59.000000C140.839919,59.550000 140.641476,60.000000 140.059017,60.000000C139.476558,60.000000 139.000000,59.523442 139.000000,58.940983C139.000000,58.358524 138.559300,58.154334 138.020667,58.487227C137.482033,58.820121 136.096870,58.587027 134.942526,57.969241C133.788182,57.351455 132.091382,57.173249 131.171859,57.573228C127.756973,59.058656 125.759403,59.069369 126.323548,57.599231C126.760311,56.461045 126.283342,56.345146 123.934635,57.018747C122.320586,57.481650 121.000000,57.481058 121.000000,57.017432C121.000000,56.553806 119.650000,56.387237 118.000000,56.647281C116.310596,56.913534 115.000000,56.672361 115.000000,56.095227C115.000000,55.531554 114.100000,54.588702 113.000000,54.000000C111.644008,53.274295 111.000000,53.262966 111.000000,53.964816C111.000000,54.534167 111.730100,55.000000 112.622445,55.000000C113.929544,55.000000 114.009993,55.283033 113.036355,56.456195C111.714768,58.048610 112.421827,60.008951 114.309017,59.984687C115.036166,59.975338 114.927096,59.607059 114.028960,59.039060C111.928131,57.710454 113.025942,57.085558 116.341950,57.722459C118.388948,58.115624 118.808529,58.506221 117.841950,59.118842C116.843367,59.751747 116.819840,59.973293 117.750000,59.984687C118.437500,59.993109 119.000000,60.649126 119.000000,61.442502C119.000000,62.412851 117.608910,63.010298 114.750000,63.267795C112.412500,63.478330 115.900000,63.779127 122.500000,63.936234C129.100000,64.093340 137.522860,64.330300 141.217467,64.462811C144.912075,64.595321 147.701203,64.325553 147.415530,63.863324C147.129857,63.401096 147.607907,63.296045 148.477863,63.629879C149.489888,64.018229 149.844505,64.914559 149.462413,66.118425C149.132362,67.158326 149.342693,68.000000 149.932612,68.000000C150.519676,68.000000 151.000000,68.465395 151.000000,69.034210C151.000000,70.143675 147.265114,69.929451 145.319098,68.708367C144.669602,68.300822 143.855545,68.424717 143.510081,68.983688C143.164618,69.542660 143.583524,70.000000 144.440983,70.000000C145.333333,70.000000 146.000000,70.855240 146.000000,72.000000C146.000000,73.100000 145.487109,74.000000 144.860243,74.000000C144.233376,74.000000 143.071640,74.787500 142.278608,75.750000C141.049898,77.241279 140.911219,77.259157 141.340575,75.870929C141.737377,74.587961 141.186285,74.274958 138.746635,74.397655C137.042853,74.483342 135.465359,75.103924 135.241092,75.776725C135.016825,76.449526 133.858333,76.968372 132.666667,76.929715C131.074426,76.878063 130.897679,76.679224 132.000000,76.179715C134.477700,75.056962 134.248778,71.582343 131.528751,69.027010C129.443212,67.067748 129.000000,66.944827 129.000000,68.325686C129.000000,69.246559 128.339123,70.000000 127.531385,70.000000C126.625871,70.000000 126.287225,70.584922 126.648168,71.525523C127.079221,72.648829 127.574791,72.767856 128.527755,71.976965C129.433066,71.225624 130.017981,71.220077 130.474354,71.958505C130.833180,72.539096 130.425827,73.283101 129.569126,73.611848C128.712424,73.940595 128.245922,74.588893 128.532454,75.052511C128.818985,75.516129 128.141401,75.719814 127.026710,75.505144C124.673676,75.051991 124.163369,77.741724 126.436858,78.614144C127.270046,78.933868 127.628343,79.865978 127.289679,80.832759C126.814119,82.190334 126.955862,82.267830 128.052821,81.250000C129.667936,79.751391 132.000000,79.603687 132.000000,81.000000C132.000000,81.550000 131.373145,82.000000 130.606989,82.000000C129.204545,82.000000 128.149926,83.652266 128.377319,85.493213C128.444793,86.039481 129.068523,86.355871 129.763384,86.196303C131.043187,85.902409 132.664966,88.668368 131.749570,89.583763C131.475941,89.857392 129.620349,89.118535 127.626032,87.941859C125.622757,86.759898 124.000000,86.294183 124.000000,86.901224C124.000000,87.505551 123.126558,88.000000 122.059017,88.000000C120.991476,88.000000 119.839919,88.450000 119.500000,89.000000C118.405585,90.770801 117.246538,90.070012 116.720764,87.319602C116.438949,85.845383 116.719735,83.820383 117.344733,82.819602C118.206773,81.439257 118.173444,80.507375 117.206670,78.959323C116.505736,77.836950 116.205939,76.475801 116.540453,75.934546C116.874966,75.393292 116.552711,75.074096 115.824330,75.225223C115.006529,75.394904 114.611568,74.735041 114.791698,73.500000C114.999668,72.074073 114.830057,71.873604 114.200795,72.801592C113.554384,73.754870 112.167973,72.579725 109.020001,68.410266L104.721807,62.717349 102.832454,65.108675 C100.066219,68.609856 98.815329,71.000000 99.749209,71.000000C100.199976,71.000000 101.389389,69.610829 102.392349,67.912953L104.215912,64.825906 106.107956,67.937122 C108.291993,71.528483 108.388670,72.000000 106.940983,72.000000C106.358524,72.000000 106.203052,71.480471 106.595492,70.845492C107.041119,70.124452 106.869424,69.962667 106.138197,70.414590C104.541695,71.401282 105.692963,73.000000 108.000000,73.000000C110.222275,73.000000 111.564575,74.804061 111.162183,77.250000C110.970387,78.415834 111.523951,79.000000 112.820510,79.000000C115.109149,79.000000 116.537136,82.993125 114.712400,84.290352C113.767725,84.961933 113.776027,85.264263 114.750000,85.659464C117.219006,86.661293 115.932082,88.000000 112.500000,88.000000C109.433333,88.000000 109.000000,87.690476 109.000000,85.500000C109.000000,83.944444 108.433333,83.000000 107.500000,83.000000C106.576338,83.000000 106.000000,83.937887 106.000000,85.440983C106.000000,86.783524 105.550000,88.160081 105.000000,88.500000C104.416577,88.860575 104.000000,87.843718 104.000000,86.059017C104.000000,83.910921 103.519529,83.000000 102.386501,83.000000C101.172873,83.000000 100.879067,83.722669 101.200979,85.915999C101.617971,88.757146 101.505398,88.840571 96.815415,89.165999L92.001873,89.500000 Z"/>
<path d="M58.884650,86.250000 C58.821208,84.737500 58.664749,83.050000 58.536965,82.500000C58.409180,81.950000 58.236087,80.910942 58.152314,80.190983C58.068541,79.471024 57.581094,79.140864 57.069098,79.457295C56.557102,79.773726 55.874762,79.606378 55.552786,79.085410C55.230811,78.564443 55.460594,77.833371 56.063415,77.460807C57.242689,76.731976 61.965669,81.114417 63.848167,84.684259C65.365671,87.561950 65.301808,88.053045 63.500000,87.361626C62.675000,87.045044 62.000000,87.284167 62.000000,87.893011C62.000000,90.450923 58.994370,88.865777 58.884650,86.250000 Z"/>
<path d="M146.654988,84.171259 C145.744744,83.165452 145.000000,81.841290 145.000000,81.228677C145.000000,80.616064 144.087980,80.290474 142.973290,80.505144C141.844573,80.722515 141.210570,80.468307 141.542388,79.931414C141.870083,79.401193 142.518668,79.202520 142.983688,79.489919C143.448708,79.777317 144.037132,79.447157 144.291297,78.756231C144.545461,78.065304 145.082679,78.737500 145.485115,80.250000C146.354107,83.515990 147.611933,83.798051 148.521905,80.930985C149.150263,78.951203 149.238054,78.940421 150.557489,80.680985C152.363716,83.063713 152.360875,84.352458 150.550928,83.657916C149.582406,83.286260 149.286260,83.582406 149.657916,84.550928C150.438334,86.584663 148.632460,86.356341 146.654988,84.171259 Z"/>
<path d="M69.263631,75.531468 C68.942276,74.964160 69.043659,74.829663 69.488926,75.232585C69.934193,75.635506 72.291504,73.385506 74.727394,70.232585C79.603217,63.921509 82.242572,61.103599 79.654172,64.972506C77.762314,67.800285 77.494269,69.430593 79.082597,68.448952C80.249567,67.727725 77.898838,72.414296 75.695813,75.201074C74.254703,77.024045 70.226324,77.230966 69.263631,75.531468 Z"/>
<path d="M78.107202,74.664063 C78.776925,73.194179 79.544464,72.211131 79.812843,72.479510C80.081222,72.747889 81.415434,71.764767 82.777757,70.294796L85.254710,67.622120 84.503276,70.061060 C83.799629,72.344900 80.000000,76.863549 80.000000,75.416510C80.000000,75.052741 79.300143,75.335941 78.444761,76.045844C77.060806,77.194425 77.023629,77.042245 78.107202,74.664063 Z"/>
<path d="M61.000000,72.760579 C59.439725,71.454571 59.157808,70.906534 60.250000,71.302608C61.552172,71.774829 62.000000,71.415180 62.000000,69.897187C62.000000,68.170744 62.225249,68.060276 63.465296,69.178571C64.271209,69.905357 65.650813,71.107896 66.531082,71.850880C67.411352,72.593864 67.887844,73.445490 67.589952,73.743381C67.292061,74.041272 66.400055,73.746979 65.607717,73.089397C64.468086,72.143587 64.097414,72.202940 63.833551,73.373482C63.563104,74.573232 63.027030,74.457278 61.000000,72.760579 Z"/>
<path d="M95.562339,67.100866 C95.188134,66.495390 95.327226,66.000000 95.871432,66.000000C96.415638,66.000000 97.004696,65.111540 97.180449,64.025645C97.420249,62.544032 97.874356,62.286245 99.000000,62.992725C100.288356,63.801326 100.199656,64.235228 98.371356,66.067946C96.969765,67.472923 96.010326,67.825724 95.562339,67.100866 Z"/>
<path d="M72.674309,63.404559 C71.299445,61.921830 70.408426,60.099233 70.694267,59.354344C70.998521,58.561470 70.547769,58.000000 69.606989,58.000000C68.723145,58.000000 68.000000,57.463992 68.000000,56.808870C68.000000,56.153749 67.339312,56.491249 66.531803,57.558870C65.265298,59.233340 65.059238,59.270831 65.031803,57.831787C65.014312,56.914271 64.696876,55.373647 64.326391,54.408179C63.807169,53.055106 64.036106,52.799878 65.325278,53.294579C66.245150,53.647567 68.010774,53.529215 69.248886,53.031574C70.879162,52.376309 71.033642,52.109291 69.809017,52.063386C68.878976,52.028524 67.821318,51.519903 67.458665,50.933118C67.063851,50.294295 67.532697,49.993377 68.627206,50.183118C70.400991,50.490617 70.511969,50.143624 70.125000,45.500000C69.925971,43.111652 68.276510,43.762162 67.589356,46.500000C67.244253,47.875000 66.562598,49.000000 66.074568,49.000000C65.586537,49.000000 65.409314,48.150787 65.680738,47.112859C65.952162,46.074931 65.681581,44.921240 65.079447,44.549101C64.330187,44.086033 64.463398,43.393745 65.501520,42.355622C66.335795,41.521348 66.726974,40.367252 66.370809,39.790964C65.971272,39.144500 65.356149,39.399113 64.764851,40.455705C64.095611,41.651570 63.081411,41.986265 61.403233,41.565069C60.021019,41.218155 59.000000,41.403151 59.000000,42.000505C59.000000,43.191558 54.950565,42.650559 52.293698,41.104553C50.691541,40.172273 50.766964,40.044925 53.000000,39.911988C54.375000,39.830131 55.950000,39.851940 56.500000,39.960451C57.050000,40.068962 56.600000,39.274541 55.500000,38.195070C54.400000,37.115600 53.060683,36.292607 52.523741,36.366198C51.986799,36.439789 51.381080,35.396531 51.177699,34.047848C50.854130,31.902151 51.007380,31.761236 52.403958,32.920292C53.281781,33.648821 54.014312,33.852289 54.031803,33.372445C54.049295,32.892600 54.627113,33.240604 55.315843,34.145786C56.004573,35.050969 58.299425,36.764011 60.415514,37.952547C64.091217,40.017066 64.240488,40.027631 63.759741,38.189250C63.190919,36.014070 65.945800,35.637439 67.276447,37.708467C68.112988,39.010465 71.310747,38.311816 70.502277,37.003685C70.234848,36.570975 71.474932,35.985681 73.258021,35.703032C75.041109,35.420384 78.075000,34.880608 80.000000,34.503532C84.346527,33.652118 85.235902,33.600511 91.750000,33.821719C97.383804,34.013033 97.947352,34.862160 96.363622,40.773296C95.800377,42.875560 95.659076,42.916017 94.485489,41.311042C93.386146,39.807600 92.991155,39.762451 91.531997,40.973445C90.087022,42.172667 89.718424,42.167301 88.939097,40.935698C88.439438,40.146064 88.023735,38.685942 88.015313,37.690983C88.005097,36.484127 87.583917,36.149046 86.750000,36.684330C86.062500,37.125630 84.600000,37.535392 83.500000,37.594912C80.544375,37.754838 78.583463,38.384515 77.840751,39.412179C76.950367,40.644171 79.713576,43.295054 81.036134,42.477668C81.614446,42.120252 82.630398,42.268137 83.293805,42.806302C83.957212,43.344466 85.400000,43.988566 86.500000,44.237633C88.461511,44.681769 88.462665,44.706546 86.559970,45.525152C85.296876,46.068579 84.482704,45.948113 84.226637,45.179910C83.682372,43.547115 81.439092,43.703766 79.642857,45.500000C78.309524,46.833333 77.968254,46.825397 76.571429,45.428571C75.548196,44.405339 75.000000,44.277537 75.000000,45.062222C75.000000,46.312511 79.931437,50.996631 81.250000,50.998779C81.662500,50.999450 82.000000,50.550000 82.000000,50.000000C82.000000,49.450000 82.787500,48.968372 83.750000,48.929715C85.246439,48.869613 85.210215,48.734905 83.500000,48.000000C82.211563,47.446340 82.033672,47.131611 83.000000,47.115389C83.825000,47.101539 85.850000,47.740449 87.500000,48.535188C89.229626,49.368280 89.582127,49.755182 88.332433,49.448860C86.322291,48.956139 85.908868,50.093757 87.041910,53.000000C87.149123,53.275000 87.183553,53.837500 87.118421,54.250000C87.053289,54.662500 87.450000,55.000000 88.000000,55.000000C88.550000,55.000000 89.000000,54.325000 89.000000,53.500000C89.000000,52.675000 89.450000,52.000000 90.000000,52.000000C90.550000,52.000000 90.993109,53.462500 90.984687,55.250000C90.976265,57.037500 90.638765,58.022282 90.234687,57.438404C89.722591,56.698444 88.791508,56.739743 87.161544,57.574718C85.864502,58.239147 85.277051,59.053193 85.842445,59.402626C86.403092,59.749125 87.148992,59.567943 87.500000,59.000000C88.213781,57.845078 90.000000,58.601733 90.000000,60.059017C90.000000,60.576558 87.975000,61.000000 85.500000,61.000000C82.166667,61.000000 81.000000,60.611111 81.000000,59.500000C81.000000,58.675000 80.501855,58.000000 79.893011,58.000000C79.284167,58.000000 79.045044,58.675000 79.361626,59.500000C79.678209,60.325000 79.501354,61.000000 78.968615,61.000000C78.435877,61.000000 78.000000,61.619900 78.000000,62.377555C78.000000,63.135211 77.364164,64.282808 76.587031,64.927771C75.462735,65.860853 74.663357,65.549658 72.674309,63.404559 Z"/>
<path d="M120.863153,62.133467 L122.226305,61.242102 120.863153,60.664332 C120.113419,60.346558 121.975000,60.359730 125.000000,60.693602C134.544254,61.747011 141.094317,61.450109 142.164796,59.915554C142.883876,58.884737 143.285026,58.824473 143.640739,59.693823C143.909401,60.350426 144.872901,60.602267 145.781850,60.253470C147.243919,59.692422 147.265296,59.801671 145.967243,61.200907C144.793254,62.466406 142.001657,62.806734 132.000000,62.903675C124.372807,62.977602 120.031390,62.677356 120.863153,62.133467 Z"/>
<path d="M99.664853,59.488154 C99.308204,58.381639 98.846737,56.019139 98.639372,54.238154C98.337981,51.649613 98.622545,51.000000 100.057848,51.000000C101.045375,51.000000 102.059147,51.787500 102.310674,52.750000L102.767997,54.500000 102.883999,52.750000 C102.947799,51.787500 103.683573,51.000000 104.519052,51.000000C105.642123,51.000000 105.873691,51.655075 105.407385,53.512986C105.045638,54.954299 105.302957,56.660115 106.010777,57.512986C107.056934,58.773527 106.782032,59.000000 104.205778,59.000000C102.534267,59.000000 100.974661,59.562500 100.739987,60.250000C100.484167,60.999451 100.053641,60.694378 99.664853,59.488154 Z"/>
<path d="M99.000000,48.000000 C99.000000,47.450000 99.478494,47.000000 100.063321,47.000000C100.755114,47.000000 101.033718,43.867935 100.860692,38.035962C100.714420,33.105741 100.910926,28.755741 101.297371,28.369295C101.683817,27.982850 102.058027,30.329167 102.128948,33.583333C102.355453,43.976271 102.562506,45.206928 104.298088,46.476017C106.848384,48.340839 106.378797,49.000000 102.500000,49.000000C100.575000,49.000000 99.000000,48.550000 99.000000,48.000000 Z"/>
<path d="M105.716961,42.250000 C106.025792,40.318128 105.874064,39.901874 105.206954,40.850833C104.525664,41.819963 104.058491,40.875716 103.553648,37.509183C103.166623,34.928317 103.119225,32.547442 103.448318,32.218348C103.777412,31.889255 106.253713,31.737137 108.951210,31.880309C112.028451,32.043636 114.720911,31.578522 116.177875,30.631925C117.727792,29.624937 120.994079,29.126134 126.000000,29.131965C133.161719,29.140307 133.364687,29.202926 130.500000,30.520276C127.650352,31.830711 127.800704,31.873504 133.500000,31.374144C136.800000,31.085005 139.935938,30.424101 140.468750,29.905469C141.077984,29.312448 140.287988,29.192402 138.340030,29.581994C136.437974,29.962405 134.965970,29.753955 134.525880,29.041874C133.999408,28.190026 135.493289,28.016238 140.154599,28.387067C143.644570,28.664711 148.187500,28.916202 150.250000,28.945937C152.312500,28.975672 154.000000,29.498145 154.000000,30.106989C154.000000,30.715833 153.367059,30.971095 152.593464,30.674239C151.701602,30.332000 150.742420,31.207640 149.972144,33.067250C149.304012,34.680263 148.418203,36.000000 148.003680,36.000000C147.589156,36.000000 146.974035,37.379824 146.636745,39.066276C146.253017,40.984913 145.602971,41.872656 144.899941,41.438160C144.281990,41.056245 143.383595,41.363921 142.903509,42.121885C142.295153,43.082362 142.025985,43.128688 142.015313,42.274751C142.004209,41.386313 141.322501,41.307086 139.535402,41.986540C136.585134,43.108230 135.144044,41.596748 137.728968,40.091869C138.703035,39.524791 138.992600,39.047133 138.372445,39.030409C137.752289,39.013684 136.736897,39.612093 136.116018,40.360207C134.835469,41.903174 129.275235,41.752853 126.170658,40.091333C123.092065,38.443720 121.427093,38.764011 120.147544,41.250000C119.067478,43.348421 119.025254,43.357193 119.520790,41.380212C119.961026,39.623852 119.491182,39.148236 116.780304,38.606061C114.433877,38.136775 113.196485,38.378387 112.405367,39.460305C111.798651,40.290039 111.009241,40.675908 110.651123,40.317790C110.293005,39.959672 110.000000,40.416667 110.000000,41.333333C110.000000,42.250000 109.325000,43.000000 108.500000,43.000000C107.675000,43.000000 107.000000,43.450000 107.000000,44.000000C107.000000,44.550000 106.612402,45.000000 106.138672,45.000000C105.664941,45.000000 105.475172,43.762500 105.716961,42.250000 Z"/>
<path d="M155.800000,36.800000 C156.460000,36.140000 157.000000,34.565000 157.000000,33.300000C157.000000,31.982353 157.605072,31.000000 158.416667,31.000000C159.195833,31.000000 160.081142,30.437500 160.384018,29.750000C160.686895,29.062500 160.662111,30.252552 160.328941,32.394559C159.899871,35.153131 160.051896,36.085960 160.850135,35.592622C161.575693,35.144202 161.761486,35.457983 161.371763,36.473586C160.872250,37.775293 160.491080,37.828075 159.191259,36.775523C157.973553,35.789467 157.786509,35.783675 158.367059,36.750000C158.879363,37.602731 158.400084,38.000000 156.859017,38.000000C155.102004,38.000000 154.866667,37.733333 155.800000,36.800000 Z"/>
<path d="M103.553194,25.278025 C102.987140,23.802911 102.758958,23.767072 101.961518,25.028025C101.449527,25.837611 101.030626,26.050000 101.030626,25.500000C101.030626,24.950000 101.466844,23.825000 102.000000,23.000000C102.646250,22.000000 102.974479,21.916667 102.984687,22.750000C102.993628,23.479846 104.299322,24.000000 106.122445,24.000000C108.784569,24.000000 109.061364,24.221135 108.000000,25.500000C106.342047,27.497711 104.367137,27.399128 103.553194,25.278025 Z"/>
<path d="M93.007802,17.372445 C93.012093,16.342600 94.136790,14.979981 95.507129,14.344403C98.521728,12.946198 99.324883,13.835211 97.411324,16.452158C96.635096,17.513714 96.000000,18.016151 96.000000,17.568685C96.000000,17.121219 95.325000,17.315311 94.500000,18.000000C93.257338,19.031318 93.001338,18.923656 93.007802,17.372445 Z"/>
<path d="M102.000000,15.989740 C102.000000,14.891166 105.656010,11.000000 106.688193,11.000000C107.421165,11.000000 105.097329,14.674335 103.554596,15.954689C102.326135,16.974221 102.000000,16.981575 102.000000,15.989740 Z"/>
</g></svg>
