<?xml version="1.0" standalone="no"?>
<!DOCTYPE svg PUBLIC "-//W3C//DTD SVG 20010904//EN" "http://www.w3.org/TR/2001/REC-SVG-20010904/DTD/svg10.dtd">
<svg version="1.0" xmlns="http://www.w3.org/2000/svg" width="200pt" height="133pt" viewBox="0 0 200 133" preserveAspectRatio="xMidYMid meet">
<g fill="#fff" stroke="none">
<path d="M115.000000,107.266852 C110.937021,106.114841 110.970472,106.158913 112.166592,103.533717C112.801533,102.140172 113.698798,101.000000 114.160515,101.000000C115.425690,101.000000 115.167916,97.567916 113.800000,96.200000C112.407876,94.807876 105.000000,94.560706 105.000000,95.906380C105.000000,96.404890 104.082010,96.572701 102.960023,96.279295C101.057464,95.781765 101.030428,95.623859 102.558670,93.935171C103.846967,92.511618 104.732642,92.328052 106.701345,93.076551C108.845737,93.891847 109.700845,93.547363 112.654832,90.678161C115.408076,88.003942 116.749686,87.402539 119.302134,87.698381C121.060960,87.902238 123.287500,88.149927 124.250000,88.248801C125.212500,88.347675 126.000000,89.205585 126.000000,90.155269C126.000000,91.104952 126.369730,92.110471 126.821621,92.389756C127.881865,93.045023 131.047828,89.381162 130.175311,88.508645C129.812099,88.145432 130.636567,87.952387 132.007463,88.079654C136.483153,88.495156 140.129814,88.019061 139.558021,87.093880C139.250014,86.595514 138.098456,86.422998 136.999004,86.710511C134.776650,87.291670 134.365472,86.034528 136.183333,84.216667C136.834167,83.565833 137.022374,82.689041 136.601572,82.268239C136.180770,81.847437 135.257512,82.294927 134.549887,83.262662C133.491901,84.709544 133.065904,84.784335 132.152364,83.683588C131.282691,82.635696 131.880882,81.873199 134.906870,80.172498C137.032862,78.977624 139.461039,78.000000 140.302821,78.000000C141.144603,78.000000 142.091679,77.437500 142.407436,76.750000C142.723192,76.062500 142.742387,76.474629 142.450092,77.665843C141.709308,80.684815 143.852790,81.655185 145.636621,79.108409C147.061530,77.074065 149.124675,76.210389 148.881579,77.750000C148.816447,78.162500 148.826330,79.625000 148.903541,81.000000C149.023200,83.130937 149.353401,82.835687 151.140298,79.000000C154.100138,72.646514 154.247501,69.892452 151.768800,67.253943C149.324942,64.652524 149.982357,63.550756 154.083333,63.375000C159.533695,63.141413 159.860816,63.000577 160.180449,60.750000C160.381949,59.331216 161.097219,58.597235 162.116598,58.763202C163.005727,58.907964 164.268945,58.380867 164.923749,57.591877C165.901923,56.413249 165.762311,56.249396 164.141109,56.673350C162.339849,57.144390 162.240116,56.869228 162.996515,53.515452C164.040611,48.886065 164.335946,48.616517 167.495298,49.409464C169.821775,49.993372 169.928469,50.214388 168.549539,51.593318C167.705730,52.437127 166.561890,52.847267 166.007671,52.504741C165.453452,52.162215 165.000000,52.583524 165.000000,53.440983C165.000000,54.298442 165.362566,54.887500 165.805702,54.750000C166.744671,54.458649 172.000000,59.885124 172.000000,61.146023C172.000000,61.615710 171.262109,62.000000 170.360243,62.000000C168.107869,62.000000 166.070054,64.942478 166.031803,68.250000C166.014312,69.762500 165.623661,71.000000 165.163691,71.000000C164.703721,71.000000 164.366221,72.884423 164.413691,75.187607C164.489272,78.854687 164.189246,79.452534 162.000000,79.997253C160.370623,80.402667 159.117054,80.109369 158.400368,79.155044C157.488298,77.940550 157.032308,78.228871 155.727012,80.845398C154.799803,82.704033 154.582923,84.000000 155.199089,84.000000C155.870868,84.000000 155.828787,84.501372 155.081427,85.401887C153.755477,86.999559 149.346799,88.425231 146.750000,88.096092C144.723328,87.839216 144.472472,89.072472 146.200000,90.800000C147.133333,91.733333 147.022222,92.000000 145.700000,92.000000C143.725541,92.000000 143.417850,93.598431 145.250000,94.337719C145.937500,94.615132 145.185433,94.877632 143.578741,94.921053C141.972048,94.964474 139.820921,95.757076 138.798459,96.682392C137.348709,97.994398 136.340678,98.151652 134.219718,97.396680C131.226927,96.331373 126.018246,98.180877 125.977764,100.323242C125.909207,103.951397 118.913296,108.376422 115.000000,107.266852 Z"/>
<path d="M91.875000,99.041667 C90.981250,98.056250 89.999036,96.631250 89.692301,95.875000C89.307190,94.925513 88.922950,95.196294 88.450670,96.750000C87.560532,99.678373 86.434624,99.592953 84.368947,96.440332C83.272800,94.767400 82.446958,94.276807 81.985057,95.024178C81.501455,95.806662 81.081215,95.654026 80.654000,94.540722C80.171106,93.282319 79.598246,93.144645 78.125220,93.932984C76.623409,94.736729 76.126129,94.587281 75.773140,93.226108C74.989055,90.202579 76.073282,89.000000 79.583333,89.000000C81.462500,89.000000 83.000000,88.550000 83.000000,88.000000C83.000000,87.450000 83.939089,87.000000 85.086864,87.000000C86.483127,87.000000 87.545123,87.983936 88.296012,89.973269C89.571397,93.352150 90.867653,94.108876 93.984167,93.293890C95.507938,92.895414 96.014770,92.164483 95.673147,90.858115C95.327038,89.534590 95.812642,88.865969 97.342529,88.559573C100.474059,87.932410 102.987566,88.211101 102.423986,89.122993C102.155566,89.557305 101.201541,89.630833 100.303930,89.286387C99.272167,88.890463 98.918438,89.059012 99.342186,89.744651C99.710837,90.341142 99.447157,91.057088 98.756231,91.335642C97.757922,91.738121 97.756643,91.858314 98.750000,91.921053C100.582604,92.036796 100.325732,97.937775 98.456872,98.654923C96.318595,99.475457 95.232426,98.117337 97.028960,96.869496C98.313942,95.976971 98.310279,95.902930 97.000000,96.284101C96.158234,96.528979 95.604532,97.659443 95.738210,98.860232C96.024592,101.432712 94.124556,101.521947 91.875000,99.041667 Z"/>
<path d="M158.336834,89.564608 C158.639781,88.775142 158.350426,87.927009 157.693823,87.679867C156.931266,87.392845 157.462030,86.235063 159.163073,84.474914C160.819401,82.761035 162.426066,81.949519 163.413073,82.328269C165.459441,83.113535 165.481382,86.000000 163.440983,86.000000C162.583524,86.000000 162.160081,86.450000 162.500000,87.000000C162.839919,87.550000 162.416476,88.000000 161.559017,88.000000C160.701558,88.000000 160.000000,88.675000 160.000000,89.500000C160.000000,90.325000 159.501855,91.000000 158.893011,91.000000C158.284167,91.000000 158.033888,90.354073 158.336834,89.564608 Z"/>
<path d="M58.826636,88.322572 C56.948019,87.828936 53.410283,83.000000 54.927257,83.000000C55.462606,83.000000 56.329431,83.766243 56.853533,84.702762C57.657051,86.138568 58.056787,86.197760 59.403223,85.080317C60.281451,84.351454 61.000000,82.667469 61.000000,81.338129C61.000000,79.354092 61.241592,79.146828 62.348726,80.181045C63.090525,80.873989 63.487414,82.244128 63.230701,83.225798C62.973989,84.207468 63.322163,85.683256 64.004420,86.505326C64.757475,87.412702 64.835987,88.000000 64.204232,88.000000C63.631871,88.000000 62.564271,88.171512 61.831787,88.381137C61.099304,88.590763 59.746986,88.564408 58.826636,88.322572 Z"/>
<path d="M49.742221,71.011905 C48.784000,69.892783 48.000000,68.068159 48.000000,66.957184C48.000000,64.436808 45.472058,63.363337 43.463099,65.030625C42.631812,65.720532 41.679391,66.012724 41.346608,65.679941C40.395631,64.728965 45.696548,62.669577 47.406431,63.325721C48.250115,63.649473 49.248099,65.171129 49.624173,66.707180C50.000247,68.243231 50.743505,69.785456 51.275857,70.134346C51.808209,70.483236 52.072921,71.281237 51.864106,71.907682C51.634938,72.595187 50.793843,72.240109 49.742221,71.011905 Z"/>
<path d="M107.368272,70.482683 C107.666529,69.705437 106.632288,68.931011 104.676304,68.466969C101.730339,67.768062 101.935108,67.649355 107.500000,66.830038C112.795329,66.050409 117.309729,64.909973 121.914045,63.188737C122.770959,62.868395 123.060031,63.093852 122.647733,63.760963C122.273537,64.366425 122.494245,65.187426 123.138197,65.585410C123.782148,65.983394 124.068557,65.901988 123.774662,65.404508C123.480767,64.907029 124.814145,62.925000 126.737725,61.000000C130.231544,57.503602 130.272763,58.184779 126.865579,63.112878C125.872010,64.549961 125.345795,66.012461 125.696212,66.362878C126.046629,66.713295 125.133333,67.000000 123.666667,67.000000C119.771748,67.000000 119.806707,66.990863 116.000000,69.003806C111.475932,71.396082 106.704036,72.213652 107.368272,70.482683 Z"/>
<path d="M94.748521,65.528506 C93.641275,64.005815 93.374522,62.886567 94.023298,62.485601C94.587738,62.136758 94.925904,62.447289 94.774777,63.175670C94.623649,63.904052 95.075022,64.383326 95.777826,64.240725C96.480630,64.098123 97.305371,64.632209 97.610584,65.427582C97.921572,66.238002 98.898429,66.640207 99.832759,66.342525C101.262696,65.886942 101.286500,65.964916 100.000000,66.890355C97.781617,68.486141 96.694137,68.204128 94.748521,65.528506 Z"/>
<path d="M88.606989,61.418213 C87.371816,58.199403 88.063435,53.530829 90.250000,50.327539C92.217417,47.445298 96.100367,44.410551 94.492921,47.011454C94.156896,47.555154 94.358524,48.000000 94.940983,48.000000C95.523442,48.000000 96.000000,47.298442 96.000000,46.440983C96.000000,45.511128 96.469074,45.171870 97.162331,45.600326C97.964882,46.096330 97.668512,46.850004 96.204856,48.035201C95.038962,48.979284 94.403413,50.130245 94.792525,50.592890C95.181636,51.055536 94.772205,50.880851 93.882679,50.204701C91.700190,48.545741 89.554290,51.020333 90.524516,54.077242C91.020099,55.638687 90.874519,56.040482 90.007366,55.504552C89.066080,54.922806 89.064459,55.251926 90.000000,57.000000C90.852637,58.593166 90.869898,59.037626 90.059687,58.536888C89.263870,58.045047 89.115566,58.612270 89.568326,60.416211C90.276394,63.237377 89.582574,63.960546 88.606989,61.418213 Z"/>
<path d="M101.094600,46.239867 C98.676709,45.362218 107.030395,42.000000 111.628871,42.000000C114.564747,42.000000 116.190378,42.517769 116.827185,43.655681C117.400465,44.680075 118.937926,45.277693 120.859500,45.223058C122.567662,45.174491 124.163341,45.455274 124.405454,45.847021C124.647566,46.238767 123.642885,46.470006 122.172829,46.360885C120.702773,46.251764 118.010942,46.125924 116.190983,46.081242C114.256188,46.033739 113.138633,45.584704 113.500000,45.000000C113.859116,44.418938 112.941230,44.029445 111.309017,44.070285C108.957653,44.129119 108.817121,44.264671 110.446448,44.902281C112.266537,45.614543 112.239812,45.704025 110.034775,46.280655C108.737808,46.619820 106.918345,46.491483 105.991523,45.995463C105.064701,45.499443 103.899954,45.466296 103.403196,45.921804C102.906438,46.377312 101.867570,46.520440 101.094600,46.239867 Z"/>
<path d="M151.500000,38.771503 C149.566650,37.642736 149.583313,37.583104 152.000000,36.982109C154.523171,36.354633 158.000000,37.734286 158.000000,39.362992C158.000000,39.848035 157.325000,39.684689 156.500000,39.000000C155.463637,38.139896 155.000000,38.102049 155.000000,38.877555C155.000000,40.287656 154.047428,40.258793 151.500000,38.771503 Z"/>
<path d="M119.365071,23.491025 C119.704574,22.606293 119.128303,21.472564 117.972059,20.750478C115.288291,19.074437 115.494524,18.000000 118.500000,18.000000C120.690476,18.000000 121.000000,18.433333 121.000000,21.500000C121.000000,23.425000 120.501855,25.000000 119.893011,25.000000C119.284167,25.000000 119.046594,24.320961 119.365071,23.491025 Z"/>
<path d="M131.631483,16.298150 C131.284167,15.950834 131.000000,15.261777 131.000000,14.766911C131.000000,13.376136 136.312714,14.332871 136.597881,15.775000C136.736547,16.476250 136.622448,16.592345 136.344330,16.032990C136.014773,15.370181 135.215993,15.349220 134.050813,15.972806C133.067497,16.499060 131.978799,16.645465 131.631483,16.298150 Z"/>
</g></svg>
