<?xml version="1.0" standalone="no"?>
<!DOCTYPE svg PUBLIC "-//W3C//DTD SVG 20010904//EN" "http://www.w3.org/TR/2001/REC-SVG-20010904/DTD/svg10.dtd">
<svg version="1.0" xmlns="http://www.w3.org/2000/svg" width="150pt" height="150pt" viewBox="0 0 150 150" preserveAspectRatio="xMidYMid meet">
<g fill="#fff" stroke="none">
<path d="M33.537563,114.250000 C33.950910,113.287500 34.320484,111.712500 34.358837,110.750000C34.454055,108.360474 36.000000,108.518927 36.000000,110.918213C36.000000,113.621844 34.963911,116.000000 33.786022,116.000000C33.214007,116.000000 33.107670,115.251027 33.537563,114.250000 Z"/>
<path d="M53.148948,110.510552 C49.905596,107.305353 49.867394,107.176863 51.960303,106.512599C54.064577,105.844729 60.976950,109.470011 60.993167,111.250000C61.005909,112.648597 59.618452,112.008636 56.815150,109.322902C53.367441,106.019787 51.766428,107.058020 55.000000,110.500000C58.553443,114.282467 56.974868,114.291466 53.148948,110.510552 Z"/>
<path d="M86.606989,100.418213 C85.745938,98.174350 85.786417,98.108209 87.922262,98.269097C89.108099,98.358424 89.792780,99.100821 89.709458,100.206948C89.542525,102.423034 87.431474,102.566787 86.606989,100.418213 Z"/>
<path d="M107.617471,96.734927 C103.282081,95.004311 100.174380,93.441873 100.711470,93.262843C101.248559,93.083814 103.820505,93.851434 106.426904,94.968667C109.033303,96.085900 112.253503,97.000000 113.582905,97.000000C115.064767,97.000000 116.000000,97.580387 116.000000,98.500000C116.000000,99.325000 115.887500,99.973338 115.750000,99.940751C115.612500,99.908164 111.952862,98.465543 107.617471,96.734927 Z"/>
<path d="M0.079900,88.750000 L0.159799,80.500000 2.038072,87.966834 C3.476784,93.686248 3.633604,95.613363 2.708173,96.201521C0.305129,97.728774 0.001285,96.867335 0.079900,88.750000 Z"/>
<path d="M5.542186,95.118527 C6.068984,94.625122 8.975000,93.501623 12.000000,92.621864C15.025000,91.742104 19.541071,90.392828 22.035714,89.623472C26.308821,88.305633 26.571429,88.333936 26.571429,90.112322C26.571429,92.252103 25.429184,92.630430 24.646155,90.750000C24.276967,89.863402 23.671296,90.064329 22.562821,91.441130C21.703270,92.508751 21.000000,92.877663 21.000000,92.260935C21.000000,91.101480 20.964386,91.108369 10.042186,94.380531C7.040388,95.279835 5.015388,95.611933 5.542186,95.118527 Z"/>
<path d="M86.664869,74.826459 C85.960490,72.132909 86.944831,70.304855 88.109687,72.143237C89.236522,73.921613 89.240923,77.000000 88.116631,77.000000C87.630779,77.000000 86.977485,76.021906 86.664869,74.826459 Z"/>
<path d="M74.500000,75.000000 C74.839919,74.450000 75.991476,74.000000 77.059017,74.000000C78.126558,74.000000 79.000000,73.501855 79.000000,72.893011C79.000000,72.284167 78.325000,72.045044 77.500000,72.361626C75.639912,73.075409 75.508294,71.393112 77.338679,70.299690C78.074953,69.859861 79.087453,68.747620 79.588679,67.828045C80.371922,66.391069 80.760141,66.346671 82.350994,67.512136C84.338149,68.967935 84.135863,69.441887 79.561439,74.048007C77.589973,76.033133 73.371064,76.826656 74.500000,75.000000 Z"/>
<path d="M94.666667,73.719679 C93.658333,72.682189 93.157440,71.533333 93.553571,71.166667C93.949702,70.800000 94.474702,71.062500 94.720238,71.750000C94.965774,72.437500 95.605724,73.000000 96.142350,73.000000C96.678976,73.000000 96.874683,72.606250 96.577254,72.125000C95.767237,70.814364 101.382422,71.056155 102.234687,72.368610C103.777187,74.744001 102.999740,76.444641 101.409340,74.174028C99.868087,71.973580 99.767142,71.960551 98.159340,73.754534C96.544979,75.555838 96.450305,75.554893 94.666667,73.719679 Z"/>
<path d="M101.384781,69.234687 C99.413860,67.936278 97.092820,57.321298 99.043437,58.526845C99.569547,58.851999 100.000000,60.005930 100.000000,61.091136C100.000000,62.176342 100.652038,64.624784 101.448973,66.532119C102.245909,68.439453 102.808409,69.993109 102.698973,69.984687C102.589538,69.976265 101.998152,69.638765 101.384781,69.234687 Z"/>
<path d="M96.435181,55.293128 C95.988638,54.306908 95.556507,52.825000 95.474890,52.000000C95.011238,47.313320 93.623978,43.930316 92.364037,44.413800C91.613817,44.701687 91.000000,44.474796 91.000000,43.909598C91.000000,43.344401 90.550000,43.160081 90.000000,43.500000C89.450000,43.839919 89.000000,43.564410 89.000000,42.887758C89.000000,42.211106 88.283579,40.865845 87.407953,39.898290C85.936358,38.272195 85.964098,38.177851 87.774609,38.651310C91.958267,39.745361 95.534758,44.334186 96.874998,50.327587C98.180206,56.164327 97.959234,58.659103 96.435181,55.293128 Z"/>
<path d="M37.500000,48.120412 C39.520369,45.716588 47.859047,41.525714 48.783070,42.449737C49.058070,42.724737 47.081879,43.893212 44.391535,45.046349C41.701191,46.199486 38.600000,47.898295 37.500000,48.821481L35.500000,50.500000 Z"/>
<path d="M77.595192,44.790898 C75.824120,36.036083 75.840239,35.924263 78.772309,36.624806C82.502452,37.516027 83.139030,37.966028 82.388197,39.180902C82.033762,39.754390 82.363921,40.616405 83.121885,41.096491C84.250572,41.811389 84.219462,41.972146 82.950000,41.984687C82.097500,41.993109 80.812591,41.437500 80.094647,40.750000C79.028042,39.728624 78.910721,40.077010 79.453193,42.654800C79.837060,44.478908 79.682964,46.077905 79.087863,46.445698C78.521787,46.795552 77.850085,46.050892 77.595192,44.790898 Z"/>
<path d="M83.574206,37.332783 C83.222332,36.415813 83.399187,35.200813 83.967217,34.632783C85.846457,32.753543 85.043020,32.041811 81.750000,32.668640C79.962500,33.008893 78.836780,32.923363 79.248400,32.478574C79.660020,32.033785 81.123085,31.549785 82.499655,31.403019C85.492023,31.083981 88.120395,34.632834 85.606266,35.597595C84.792276,35.909953 84.371016,36.803276 84.670131,37.582759C84.969247,38.362241 84.988978,39.000000 84.713978,39.000000C84.438978,39.000000 83.926080,38.249752 83.574206,37.332783 Z"/>
<path d="M73.666667,33.333333 C72.367856,32.034523 73.024634,30.872998 74.750000,31.417437C76.191873,31.872420 76.514760,31.318891 76.583827,28.273678C76.657046,25.045423 76.542797,24.857523 75.681012,26.788854C74.588815,29.236562 72.722681,29.886257 73.638374,27.500000C74.033162,26.471197 73.578284,26.000000 72.190322,26.000000C71.077312,26.000000 69.939693,25.437500 69.662281,24.750000C69.384868,24.062498 69.122369,24.364564 69.078947,25.421259C69.035526,26.477952 69.691047,28.106117 70.535660,29.039404C71.946942,30.598853 71.865080,30.696865 69.524939,30.249518C67.897709,29.938454 66.762814,28.903157 66.380871,27.381373C66.014794,25.922806 65.050173,25.000000 63.891592,25.000000C62.851216,25.000000 62.000000,24.516085 62.000000,23.924634C62.000000,23.333182 63.237770,22.979101 64.750601,23.137788C67.982818,23.476827 70.000000,22.448766 70.000000,20.462422C70.000000,19.320654 69.522776,19.260315 67.561201,20.154069C65.627171,21.035272 64.809130,20.951987 63.608820,19.751677C62.776350,18.919207 62.373810,17.959524 62.714286,17.619048C63.054762,17.278571 62.781776,17.000000 62.107650,17.000000C61.433524,17.000000 61.122783,16.610349 61.417116,16.134109C61.711448,15.657870 62.975506,15.461969 64.226133,15.698775C65.615670,15.961883 67.358786,15.326362 68.708187,14.064665C70.914424,12.001823 72.557425,11.289051 71.623700,12.799849C71.351817,13.239765 72.000259,14.143579 73.064683,14.808323C74.129108,15.473066 75.000000,15.772302 75.000000,15.473291C75.000000,14.372695 71.567468,9.445629 69.564420,7.671042C67.513963,5.854455 67.520291,5.846483 70.500000,6.492365C74.299152,7.315871 79.010923,11.738275 78.964565,14.437091C78.932111,16.326422 78.808879,16.289644 77.500000,14.000000C75.779415,10.990151 75.678923,11.398649 77.006366,16.006602C78.218979,20.215942 78.519173,28.788872 77.559801,31.811583C76.883060,33.943806 75.009484,34.676150 73.666667,33.333333 Z"/>
<path d="M57.893309,11.272918 C59.227608,8.694592 62.572631,6.651352 64.305439,7.356199C65.082823,7.672412 64.995264,7.869676 64.054719,7.921053C63.259814,7.964474 61.288990,9.237500 59.675109,10.750000C57.102289,13.161201 56.882772,13.225624 57.893309,11.272918 Z"/>
</g></svg>
