<?xml version="1.0" standalone="no"?>
<!DOCTYPE svg PUBLIC "-//W3C//DTD SVG 20010904//EN" "http://www.w3.org/TR/2001/REC-SVG-20010904/DTD/svg10.dtd">
<svg version="1.0" xmlns="http://www.w3.org/2000/svg" width="300pt" height="300pt" viewBox="0 0 300 300" preserveAspectRatio="xMidYMid meet">
<g fill="lightblue" stroke="none">
<path d="M67.435351,243.383480 C67.712641,241.854319 67.305194,240.162337 66.454908,239.312051C64.741844,237.598987 64.541362,234.401488 66.087118,233.446158C66.685033,233.076626 66.956489,231.941614 66.690353,230.923909C66.424217,229.906203 66.840563,228.547284 67.615566,227.904089C68.682765,227.018392 68.749325,226.402881 67.889886,225.367321C67.009438,224.306446 67.118736,224.000000 68.377555,224.000000C69.269900,224.000000 69.946711,223.662500 69.881579,223.250000C69.531430,221.032393 70.115632,218.000000 70.893011,218.000000C72.818460,218.000000 72.824588,221.204021 70.910291,227.035259C69.809010,230.389927 69.182127,233.998469 69.517216,235.054243C70.311496,237.556797 69.038494,246.000000 67.866899,246.000000C67.368592,246.000000 67.174395,244.822566 67.435351,243.383480 Z"/>
<path d="M115.690844,231.204218 C115.367140,229.585699 114.036525,227.822323 112.530879,227.016526C111.086736,226.243644 110.154029,225.040989 110.433651,224.312308C110.742468,223.507541 110.187997,223.000000 109.000000,223.000000C107.603982,223.000000 107.241165,222.535109 107.701324,221.335955C108.122421,220.238593 107.952349,219.911416 107.201914,220.375210C106.573057,220.763866 104.689736,219.765237 102.992281,218.143059L99.920612,215.207607 102.672795,213.042739 C104.467344,211.631147 106.133939,211.101188 107.462489,211.519669C108.583120,211.872658 110.481257,212.396624 111.680571,212.684039C114.827999,213.438316 122.554181,222.845819 121.166170,224.233830C119.875901,225.524099 117.000000,223.552416 117.000000,221.377555C117.000000,220.619900 116.560752,220.112500 116.023894,220.250000C115.487036,220.387500 114.024536,219.301282 112.773894,217.836183C110.090863,214.693070 106.000000,213.136244 106.000000,215.258298C106.000000,216.024489 107.105397,217.689839 108.456438,218.959076C109.807480,220.228313 112.169980,223.119255 113.706438,225.383390C115.242897,227.647526 117.131249,229.994233 117.902775,230.598296C118.674301,231.202359 118.985244,232.214859 118.593758,232.848296C117.400196,234.779521 116.278893,234.144466 115.690844,231.204218 Z"/>
<path d="M229.471157,200.046669 C229.795212,199.522337 228.265769,198.610108 226.072396,198.019494C223.879022,197.428880 221.813886,196.507879 221.483205,195.972825C221.152524,195.437771 220.117443,195.000000 219.183026,195.000000C218.248610,195.000000 215.462667,193.940434 212.992043,192.645409C210.521420,191.350384 206.341613,189.481271 203.703584,188.491825C200.827409,187.413057 199.270949,186.329051 199.815827,185.784173C200.617709,184.982291 215.706500,190.182682 221.427238,193.232601C222.487219,193.797713 225.082017,194.343858 227.193455,194.446256C232.075805,194.683034 233.576285,196.054685 232.057457,198.892641C231.437153,200.051688 230.468908,201.000000 229.905799,201.000000C229.342691,201.000000 229.147102,200.571001 229.471157,200.046669 Z"/>
<path d="M0.096084,176.317388 L0.192168,158.500000 2.007777,167.217414 C3.006363,172.011991 4.308207,177.411991 4.900766,179.217414C5.493324,181.022836 6.372869,184.626280 6.855309,187.225067C7.802034,192.324840 8.175798,191.854705 1.750000,193.646735C0.128026,194.099071 0.007029,192.831293 0.096084,176.317388 Z"/>
<path d="M12.000000,189.642257 C13.375000,188.859606 19.900000,186.607600 26.500000,184.637801C33.100000,182.668002 41.838469,179.919638 45.918820,178.530327C53.401494,175.982566 55.870862,175.911507 52.550387,178.339498C51.077312,179.416636 50.953739,180.045043 51.876092,181.768477C52.591981,183.106127 52.649065,184.098856 52.032021,184.480210C51.496658,184.811082 50.771657,183.938392 50.420909,182.540898C49.781922,179.994972 48.134459,179.491935 44.786622,180.820525C43.548682,181.311802 43.336319,181.916640 44.021310,183.000239C45.266521,184.970061 45.255706,187.000000 44.000000,187.000000C43.450000,187.000000 43.000000,186.085877 43.000000,184.968615C43.000000,183.851354 42.437500,182.723230 41.750000,182.461673C41.062500,182.200117 35.100000,183.732197 28.500000,185.866296C21.900000,188.000395 14.925000,190.043202 13.000000,190.405868C9.568344,191.052384 9.548817,191.037473 12.000000,189.642257 Z"/>
<path d="M205.389084,158.625738 C205.954973,154.357574 204.250987,149.342587 201.499467,147.178241C200.162063,146.126239 199.389356,144.943978 199.782339,144.550994C200.175323,144.158010 199.597563,143.144841 198.498428,142.299508C196.595377,140.835891 196.643178,140.795076 199.500000,141.444319C201.150000,141.819299 203.320400,142.930628 204.323110,143.913939C206.520533,146.068847 207.472297,154.227843 206.024604,158.500000L205.008003,161.500000 Z"/>
<path d="M175.598928,155.160069 C175.172213,154.469629 173.981373,154.188524 172.915843,154.526710C171.844862,154.866627 171.000000,154.664071 171.000000,154.067388C171.000000,153.480324 171.931298,153.000000 173.069551,153.000000C174.650801,153.000000 175.058104,152.469123 174.795810,150.750000C174.606999,149.512500 173.900701,148.612500 173.226259,148.750000C171.647582,149.071848 171.717109,147.138218 173.392922,144.114900C174.998060,141.219089 175.563959,141.954304 178.050112,150.165508C179.375180,154.541911 179.501082,155.830825 178.524322,155.020185C177.542543,154.205381 177.086095,154.241715 176.780331,155.159008C176.450604,156.148188 176.209753,156.148404 175.598928,155.160069 Z"/>
<path d="M149.000000,151.046880 C149.000000,150.536015 149.457340,149.835382 150.016312,149.489919C150.575283,149.144455 150.773726,148.442898 150.457295,147.930902C150.140864,147.418906 150.358524,147.000000 150.940983,147.000000C151.523442,147.000000 152.000000,147.450000 152.000000,148.000000C152.000000,149.768425 154.859547,149.067132 156.994997,146.774995C158.936013,144.691559 158.954398,144.509124 157.283952,143.907697C156.219883,143.524590 155.164776,143.839529 154.669278,144.688153C154.022551,145.795779 153.524201,145.850012 152.419278,144.933007C150.532378,143.367019 150.619867,142.000000 152.606989,142.000000C153.624581,142.000000 154.002863,141.449843 153.638374,140.500000C153.321791,139.675000 153.461146,139.000000 153.948051,139.000000C154.434956,139.000000 155.003769,139.511308 155.212080,140.136240C155.881396,142.144187 159.797913,138.943221 159.247426,136.838155C158.981515,135.821311 159.309790,134.331653 159.976925,133.527804C161.020564,132.270296 161.655733,132.437958 164.526746,134.728794L167.863594,137.391327 164.931797,140.730460 C162.036857,144.027615 161.609329,145.060635 161.923215,148.000000C162.019176,148.898623 161.765990,149.099082 161.291698,148.500000C159.993751,146.860552 157.691220,146.752949 158.308122,148.360570C158.651483,149.255353 158.033689,150.076725 156.680803,150.524132C152.970871,151.751029 149.000000,152.021282 149.000000,151.046880 Z"/>
<path d="M206.727900,141.501168 C205.753245,140.161378 203.165745,138.583175 200.977900,137.994049C198.790055,137.404924 197.000000,136.666473 197.000000,136.353048C197.000000,136.039623 198.135871,136.068270 199.524159,136.416707C201.854763,137.001652 201.951339,136.894943 200.783612,135.025115C200.088024,133.911302 199.177152,133.000000 198.759453,133.000000C198.341754,133.000000 198.000000,131.597540 198.000000,129.883423C198.000000,127.023113 197.773875,126.809948 195.250000,127.291025L192.500000,127.815204 195.250000,125.620038 C197.858195,123.538066 199.088890,119.000000 197.045313,119.000000C196.520235,119.000000 195.788414,117.389073 195.419044,115.420161C195.049674,113.451250 194.157698,111.614009 193.436874,111.337403C192.716050,111.060796 192.371016,110.196724 192.670131,109.417241C192.969247,108.637759 192.677138,108.000000 192.021000,108.000000C191.255286,108.000000 190.936466,106.656942 191.130811,104.250000C191.435774,100.473060 187.458620,88.000000 185.949343,88.000000C185.518871,88.000000 184.752192,89.237500 184.245612,90.750000L183.324558,93.500000 182.616966,89.750000 C181.371681,83.150410 180.061270,85.685503 180.549332,93.750000C180.807298,98.012500 181.317341,102.850000 181.682760,104.500000C182.444473,107.939405 182.353740,115.979593 181.544077,116.789256C181.244835,117.088499 181.000000,114.558333 181.000000,111.166667C181.000000,107.775000 180.600000,105.000000 180.111111,105.000000C179.622222,105.000000 179.243113,104.437500 179.268645,103.750000C179.294178,103.062500 179.244178,98.360685 179.157534,93.301522C179.016117,85.044120 178.749476,83.832723 176.551269,81.460819C175.204467,80.007595 173.629467,79.110968 173.051269,79.468314C172.473071,79.825660 172.000000,79.416476 172.000000,78.559017C172.000000,75.135435 178.950748,77.805474 185.631867,83.795520C189.310457,87.093608 190.096314,88.651879 192.795389,98.000000C194.462799,103.775000 196.133372,109.992812 196.507772,111.817360C196.882172,113.641908 197.818315,116.341908 198.588089,117.817360C199.357863,119.292812 199.990451,121.765446 199.993839,123.312103C200.004521,128.187864 203.184828,136.395046 206.147977,139.193629C207.716590,140.675125 209.000000,142.362625 209.000000,142.943629C209.000000,144.428697 208.735367,144.260693 206.727900,141.501168 Z"/>
<path d="M68.000000,102.233962 C68.000000,99.976764 80.631483,90.924579 87.997575,87.902965C95.279633,84.915823 104.842554,79.532366 112.000000,74.390774C115.256513,72.051440 115.539891,71.411243 116.073413,65.188265L116.646826,58.500000 116.808100,67.000000 C116.896801,71.675000 116.617684,74.946362 116.187841,74.269693C115.201479,72.716940 109.124587,76.634719 106.641681,80.424111C105.598379,82.016391 104.030602,83.000000 102.535964,83.000000C101.206103,83.000000 99.831052,83.464346 99.480297,84.031880C98.801289,85.130539 93.604074,87.607571 85.609003,90.643044C82.918955,91.664370 79.143509,93.962500 77.219124,95.750000C75.294739,97.537500 73.350717,99.000000 72.899076,99.000000C72.447435,99.000000 71.160380,99.984853 70.038955,101.188561C68.917530,102.392270 68.000000,102.862700 68.000000,102.233962 Z"/>
<path d="M155.245065,92.783622 C155.504701,91.014614 155.105775,88.104067 154.358565,86.315740C153.611354,84.527414 153.000000,81.287284 153.000000,79.115452C153.000000,76.943620 152.564421,75.016667 152.032046,74.833333C151.491192,74.647080 151.425701,73.918066 151.883621,73.181140C152.553658,72.102855 153.687886,72.165745 158.101575,73.525907C161.070709,74.440903 164.081906,75.365213 164.793124,75.579931C165.737478,75.865033 165.814395,76.478288 165.078308,77.853681C164.523941,78.889525 164.392035,80.092900 164.785184,80.527847C165.178333,80.962793 164.712500,81.036084 163.750000,80.690714C161.503357,79.884561 161.442874,81.572233 163.687538,82.433591C164.711175,82.826398 165.714259,82.475075 166.237228,81.540580C167.558407,79.179765 169.270534,79.625986 168.000000,82.000000C166.517979,84.769182 163.367445,84.499523 160.452251,81.353977C158.654474,79.414143 158.000000,79.132123 158.000000,80.297273C158.000000,81.171399 159.012500,82.628772 160.250000,83.535881C162.367798,85.088264 162.377862,85.149587 160.421281,84.579560C158.600023,84.048958 158.394929,84.330746 158.765366,86.854695C159.153759,89.500984 156.734354,96.000000 155.360820,96.000000C155.037520,96.000000 154.985430,94.552630 155.245065,92.783622 Z"/>
<path d="M166.070318,72.684900 C165.481643,71.136596 165.000000,69.239928 165.000000,68.470084C165.000000,66.710215 161.986018,65.099341 160.000000,65.797749C158.771344,66.229821 158.724551,66.053061 159.741324,64.820612C160.424052,63.993065 160.686552,63.019886 160.324657,62.657991C159.962762,62.296096 160.191667,62.000000 160.833333,62.000000C161.475000,62.000000 162.000000,62.476558 162.000000,63.059017C162.000000,63.641476 162.402307,63.869395 162.894015,63.565502C163.385724,63.261610 164.507080,64.810052 165.385918,67.006485C166.264756,69.202918 167.287450,71.000000 167.658570,71.000000C168.029690,71.000000 168.049166,70.715833 167.701850,70.368517C167.354535,70.021201 167.552904,68.835407 168.142671,67.733417C169.006297,66.119718 169.385683,65.999350 170.092174,67.114900C170.641508,67.982299 170.975098,68.063364 170.984687,67.331787C171.022349,64.458543 169.827183,63.310380 167.301275,63.793238C165.503460,64.136912 164.922320,63.934707 165.415314,63.137026C165.807223,62.502902 167.204440,62.179292 168.520240,62.417892C171.422203,62.944119 175.057429,64.926141 173.200310,64.969591C172.290218,64.990885 172.176080,65.492220 172.819548,66.642033C174.013111,68.774812 173.111619,72.782888 171.876575,70.834535C171.234410,69.821482 171.026937,69.935782 171.015313,71.309017C171.006891,72.303976 170.577657,72.857012 170.061460,72.537985C169.545264,72.218957 168.676907,72.754900 168.131779,73.728968C167.248184,75.307828 167.024498,75.194538 166.070318,72.684900 Z"/>
<path d="M150.200000,68.800000 C149.540000,68.140000 149.000000,67.029123 149.000000,66.331385C149.000000,65.540000 148.341681,65.309487 147.250000,65.718616C145.662739,66.313472 145.639491,66.200148 147.000000,64.500000C148.352587,62.809751 148.335978,62.686938 146.830989,63.250306C145.880427,63.606134 144.275236,63.106007 143.102011,62.088474L141.042044,60.301874 143.552378,59.158089 C145.866119,58.103878 145.981731,58.165618 145.028652,59.946464C144.291790,61.323302 144.327185,62.084178 145.151804,62.593820C145.869744,63.037531 146.038166,62.870771 145.595492,62.154508C145.203052,61.519529 145.139630,61.000000 145.454552,61.000000C146.550486,61.000000 150.468222,63.509892 151.698225,65.000000C152.740021,66.262101 152.932297,66.024203 152.910567,63.500000C152.896362,61.850000 152.565315,58.700000 152.174907,56.500000L151.465073,52.500000 149.755538,54.939668 C147.687501,57.890950 147.645117,57.844397 146.356288,51.206034C145.446547,46.520236 145.510643,45.989332 146.914236,46.584630C147.786406,46.954539 149.538600,47.481773 150.807999,47.756261C152.315723,48.082282 152.922827,48.758725 152.558891,49.707128C151.832868,51.599115 152.948203,56.000000 154.153721,56.000000C155.194126,56.000000 154.271199,49.535115 152.833191,46.750000C152.254112,45.628448 152.301381,45.000000 152.964816,45.000000C155.437122,45.000000 153.692658,41.769531 150.500000,40.435553C148.575000,39.631237 147.000000,38.529199 147.000000,37.986580C147.000000,36.608999 145.714705,36.756910 143.478876,38.391787C142.054192,39.433542 141.845629,40.125163 142.649598,41.141787C143.240355,41.888804 144.002260,44.637500 144.342720,47.250000C144.900017,51.526375 144.764226,52.000000 142.980870,52.000000C141.503773,52.000000 141.000000,51.324786 141.000000,49.345012C141.000000,46.753367 140.952285,46.733207 139.000000,48.500000C136.205427,51.029054 136.437287,54.422581 139.500000,55.818046C142.382083,57.131211 142.818154,58.890552 140.250000,58.843938C139.287500,58.826468 137.439348,59.062870 136.142995,59.369277C134.163217,59.837218 133.869874,59.605605 134.310119,57.922106C134.725953,56.331952 134.454799,56.038265 132.997775,56.500706C131.441284,56.994717 131.231535,56.637949 131.621975,54.160569C132.020430,51.632330 131.706416,51.143131 129.296918,50.538386C127.764767,50.153840 125.946171,49.370289 125.255594,48.797161C122.662131,46.644778 124.107321,45.912227 129.750000,46.518998C135.009002,47.084510 135.734825,46.914513 138.250000,44.528185C139.762500,43.093168 141.000000,41.037273 141.000000,39.959531C141.000000,37.553455 141.209680,37.548638 135.332905,40.089715C129.196687,42.742973 126.179202,43.420798 127.823409,41.776591C129.683599,39.916401 129.211035,39.000000 126.391592,39.000000C124.086237,39.000000 123.858510,38.699879 124.431520,36.416822C124.948963,34.355168 124.668011,33.725944 123.039928,33.300191C121.917968,33.006791 121.000000,32.417366 121.000000,31.990357C121.000000,30.682288 124.047049,29.958334 125.822442,30.844585C128.370302,32.116440 132.737273,31.547740 134.807149,29.674528C135.824832,28.753538 137.634548,28.000000 138.828741,28.000000C140.022933,28.000000 141.000000,27.501855 141.000000,26.893011C141.000000,26.284167 140.325000,26.045044 139.500000,26.361626C137.462970,27.143308 137.605564,26.019905 139.750000,24.392046C142.299879,22.456412 143.000000,22.695090 143.000000,25.500000C143.000000,26.875000 143.434167,28.000000 143.964816,28.000000C145.430171,28.000000 147.034873,24.439833 146.036770,23.403196C145.558478,22.906438 145.017040,21.600000 144.833574,20.500000C144.210707,16.765497 139.689892,13.992598 134.263569,14.016754C128.782131,14.041154 120.176894,18.745940 116.287990,23.844635C114.479595,26.215599 113.000000,27.517959 113.000000,26.738768C113.000000,24.005919 118.548565,18.110892 123.514353,15.567881C127.504579,13.524462 129.975128,13.000000 135.610715,13.000000C143.420682,13.000000 147.636373,14.545539 152.439838,19.169825C154.056749,20.726421 155.672017,22.000000 156.029323,22.000000C157.321080,22.000000 158.603525,26.561461 158.058077,29.215970C157.516266,31.852780 157.399904,31.773143 154.065695,26.483608C152.176827,23.487026 150.507720,21.158947 150.356568,21.310098C150.205417,21.461250 151.151876,23.805306 152.459812,26.519111C153.767748,29.232917 154.646136,31.763548 154.411785,32.142735C154.177434,32.521923 154.491035,34.107430 155.108676,35.666084C156.792852,39.916199 157.137726,52.561644 155.792780,60.750000C154.766678,66.997159 154.318263,68.002118 152.550980,68.015313C150.860401,68.027935 150.763582,68.200965 152.000000,69.000000C152.825000,69.533156 153.027500,69.976265 152.450000,69.984687C151.872500,69.993109 150.860000,69.460000 150.200000,68.800000 Z"/>
</g></svg>
