<?xml version="1.0" standalone="no"?>
<!DOCTYPE svg PUBLIC "-//W3C//DTD SVG 20010904//EN" "http://www.w3.org/TR/2001/REC-SVG-20010904/DTD/svg10.dtd">
<svg version="1.0" xmlns="http://www.w3.org/2000/svg" width="300pt" height="300pt" viewBox="0 0 300 300" preserveAspectRatio="xMidYMid meet">
<g fill="lightblue" stroke="none">
<path d="M259.048781,298.558778 C258.400973,297.778217 258.012485,295.420671 258.185474,293.319788C258.440515,290.222425 258.878254,289.522342 260.500000,289.618133C263.423471,289.790812 268.164533,290.831199 268.765195,291.431862C269.804247,292.470914 266.694300,295.000000 264.377555,295.000000C262.690764,295.000000 262.000000,295.563924 262.000000,296.940983C262.000000,299.512205 260.515448,300.326004 259.048781,298.558778 Z"/>
<path d="M285.500000,298.000000 C283.733620,297.240960 283.709538,297.132361 285.293837,297.070285C286.280447,297.031628 287.014630,296.437500 286.925354,295.750000C286.566174,292.984000 287.070625,291.813124 288.401464,292.323815C289.244947,292.647489 290.011804,292.062862 290.327556,290.855424C290.655536,289.601228 291.535849,288.961850 292.676092,289.149662C293.679242,289.314894 295.021891,289.122355 295.659758,288.721797C297.379261,287.642012 299.956809,288.948980 299.329869,290.582759C299.030753,291.362241 297.709167,292.000000 296.393011,292.000000C294.932557,292.000000 294.000000,292.584550 294.000000,293.500000C294.000000,294.960834 293.264592,295.274029 289.833840,295.274282C288.746894,295.274363 288.292392,295.921976 288.526423,297.137203C288.918434,299.172753 288.504056,299.290887 285.500000,298.000000 Z"/>
<path d="M-0.000000,271.780131 C-0.000000,257.977599 0.285356,253.928452 1.235739,254.245246C3.022739,254.840913 3.949307,261.697106 4.242516,276.494072C4.497230,289.348357 4.475795,289.489429 2.250000,289.607536L-0.000000,289.726928 Z"/>
<path d="M178.485052,280.234687 C177.920669,279.826149 177.622875,276.810276 177.814239,273.441094C178.089461,268.595469 178.578372,267.119894 180.255769,266.072342C183.498277,264.047363 185.026383,266.980283 184.876572,274.941130L184.753144,281.500000 183.826016,275.000000 C183.316096,271.425000 182.510848,268.111710 182.036576,267.637132C180.376869,265.976354 179.000000,268.155191 179.000000,272.442386C179.000000,275.925733 179.388962,276.868453 181.000000,277.289749C183.459788,277.932998 183.667697,281.005842 181.250000,280.984687C180.287500,280.976265 179.043273,280.638765 178.485052,280.234687 Z"/>
<path d="M102.606989,277.418213 C102.273145,276.548229 102.000000,272.948229 102.000000,269.418213C102.000000,265.567621 101.576338,263.000000 100.940983,263.000000C100.358524,263.000000 100.134145,262.591966 100.442363,262.093259C100.750581,261.594551 100.102139,261.422035 99.001380,261.709890C97.881960,262.002625 97.000000,261.741190 97.000000,261.116631C97.000000,260.502484 97.435877,260.000000 97.968615,260.000000C98.501354,260.000000 98.731081,259.437500 98.479120,258.750000C98.227159,258.062500 98.451468,256.825000 98.977584,256.000000C100.613825,253.434218 103.870203,257.755295 104.640650,263.514650C105.007448,266.256592 105.800855,268.830609 106.403778,269.234687C107.159106,269.740908 107.111286,269.974136 106.250000,269.984687C105.437454,269.994641 105.000000,271.574833 105.000000,274.500000C105.000000,278.963114 103.773685,280.458573 102.606989,277.418213 Z"/>
<path d="M112.368076,272.213458 C112.703262,271.671115 112.082567,270.993349 110.988753,270.707310C109.554908,270.332351 109.000000,269.340515 109.000000,267.152637C109.000000,263.876699 110.640249,261.942957 111.174318,264.589264C111.444227,265.926661 111.961121,265.774781 114.192696,263.702363L116.885393,261.201712 117.567895,264.309123 C118.001951,266.285368 117.840800,267.553067 117.125198,267.791601C116.506339,267.997887 116.000000,268.788334 116.000000,269.548150C116.000000,270.307965 115.045695,271.440361 113.879323,272.064584C112.712950,272.688808 112.032889,272.755801 112.368076,272.213458 Z"/>
<path d="M57.000000,250.761917 C57.000000,250.342862 57.848562,250.000000 58.885693,250.000000C61.655657,250.000000 66.350106,247.318742 67.157723,245.275389C67.543662,244.298925 67.891058,242.064058 67.929715,240.309017C67.968372,238.553976 68.457340,236.835382 69.016312,236.489919C69.575283,236.144455 69.779474,235.452198 69.470068,234.951568C69.160662,234.450939 69.326063,233.244533 69.837626,232.270667C70.349190,231.296800 71.071569,228.475000 71.442915,226.000000C71.964333,222.524770 71.858496,221.841590 70.978161,223.000000C70.073756,224.190082 69.970159,223.900053 70.476755,221.596259C71.171161,218.438383 69.313266,212.688357 67.883944,213.571726C67.397775,213.872196 67.000000,213.641476 67.000000,213.059017C67.000000,211.563202 62.255599,211.735664 61.746118,213.250000C61.122697,215.102998 60.984599,207.795004 61.604392,205.750000C62.417447,203.067326 65.372592,203.667872 67.284392,206.904292C68.227977,208.501653 69.000000,210.333074 69.000000,210.974117C69.000000,211.615160 70.350000,214.101807 72.000000,216.500000C74.793703,220.560509 76.156895,225.833034 74.081372,224.550291C72.701215,223.697307 71.597282,229.997282 72.898837,231.298837C73.504476,231.904476 73.965765,233.997500 73.923922,235.950000L73.847844,239.500000 72.468062,236.000000 L71.088280,232.500000 71.222851,237.750000 C71.298718,240.709775 71.824755,243.013786 72.428711,243.031601C73.017920,243.048982 72.375000,244.061482 71.000000,245.281601C69.625000,246.501721 68.500000,248.175000 68.500000,249.000000C68.500000,250.100068 66.966926,250.636488 62.750000,251.011917C59.587500,251.293471 57.000000,251.180971 57.000000,250.761917 Z"/>
<path d="M261.916667,245.591208 C261.192005,244.880242 238.284216,241.007220 233.796940,240.837003C229.608568,240.678125 229.638965,240.656977 235.000000,240.000000C240.207269,239.361867 240.287104,239.311144 236.500000,239.046995C234.300000,238.893546 233.342909,238.551531 234.373131,238.286962C236.097513,237.844126 249.497489,239.414806 254.743089,240.674630C255.976788,240.970924 256.740916,241.610189 256.441151,242.095219C256.141387,242.580249 256.594496,242.709101 257.448062,242.381557C258.301628,242.054013 259.000000,241.321277 259.000000,240.753254C259.000000,239.324975 262.145029,237.070283 264.190983,237.031803C266.909269,236.980679 267.337369,238.938785 264.814245,239.882565C263.405042,240.409680 262.255578,240.364620 261.875000,239.767344C261.490410,239.163772 260.960309,239.255204 260.496885,240.005041C260.082671,240.675252 260.302340,241.568822 260.985037,241.990753C261.950978,242.587737 261.923943,242.878143 260.863153,243.300002C260.077996,243.612246 260.454032,243.875580 261.750000,243.921053C262.987500,243.964474 264.000000,244.450000 264.000000,245.000000C264.000000,245.998091 262.705746,246.365374 261.916667,245.591208 Z"/>
<path d="M105.764263,241.332965 C107.778276,240.521887 101.303245,232.984706 98.665971,233.070285C96.568266,233.138355 96.563035,233.167658 98.500000,234.000000C100.271541,234.761257 100.294619,234.867458 98.702034,234.929715C96.356804,235.021393 92.072040,230.116842 92.031601,227.294409C91.999799,225.074763 94.678233,220.547975 99.210026,215.162245C102.341461,211.440746 108.258379,209.139620 110.312529,210.844413C112.228994,212.434938 117.193411,210.667596 116.426085,208.667976C116.059950,207.713843 116.916719,207.066656 119.132685,206.623463C121.759870,206.098026 122.125993,205.740222 121.062500,204.737500C120.019270,203.753884 119.655969,203.756448 119.291667,204.750000C119.039583,205.437500 118.394276,206.000000 117.857650,206.000000C117.321024,206.000000 117.160081,205.550000 117.500000,205.000000C117.839919,204.450000 117.678976,204.000000 117.142350,204.000000C116.605724,204.000000 115.908321,204.562500 115.592564,205.250000C115.276808,205.937500 115.295210,205.375000 115.633459,204.000000C116.456888,200.652710 116.689056,200.497050 118.552049,202.043197C119.889047,203.152806 120.319988,203.135114 121.170548,201.935698C121.997136,200.770084 122.085075,200.823186 121.638006,202.217975C121.335144,203.162861 121.479260,204.178165 121.958264,204.474206C122.437267,204.770246 123.010030,204.469910 123.231069,203.806792C123.480325,203.059024 123.888203,203.266278 124.305025,204.352499C124.706868,205.399686 124.579619,205.858224 123.988546,205.492921C123.444846,205.156896 123.000000,205.610081 123.000000,206.500000C123.000000,207.511410 122.531357,207.848342 121.750000,207.398692C121.023755,206.980757 120.849170,207.060780 121.333333,207.589675C121.791667,208.090354 122.466667,208.537707 122.833333,208.583794C124.129334,208.746690 129.000000,210.956526 129.000000,211.381630C129.000000,211.618752 128.070432,211.569673 126.934293,211.272566C124.453770,210.623895 120.000000,212.805349 120.000000,214.668980C120.000000,215.401041 119.550000,216.000000 119.000000,216.000000C117.301755,216.000000 117.895027,214.082505 120.000000,212.767927C122.693231,211.085977 122.520214,210.000000 119.559017,210.000000C116.411695,210.000000 115.740684,211.187748 117.006744,214.517739C117.771385,216.528896 118.463776,217.023729 119.763898,216.488202C123.447958,214.970719 125.310004,214.689387 124.654992,215.749218C124.236699,216.426030 124.756632,216.614897 126.083155,216.268004C127.668882,215.853326 127.849058,215.519672 126.834535,214.876575C125.811989,214.228392 125.909117,214.027046 127.250000,214.015313C129.308975,213.997296 129.491943,215.069999 127.750000,216.946704C126.907071,217.854845 126.884569,218.077493 127.680902,217.630393C128.330398,217.265734 129.112836,217.373556 129.419654,217.869998C129.726472,218.366440 129.082567,219.006651 127.988753,219.292690C126.894939,219.578729 126.000000,219.329890 126.000000,218.739714C126.000000,218.149538 125.703904,217.962762 125.342009,218.324657C124.980114,218.686552 124.069240,218.472427 123.317843,217.848823C122.566447,217.225220 121.638075,217.028592 121.254794,217.411872C120.871514,217.795153 121.039914,218.421778 121.629016,218.804373C122.218119,219.186968 122.910427,220.153522 123.167480,220.952271C123.424532,221.751021 124.800363,222.466803 126.224882,222.542899C128.014136,222.638478 128.655861,222.266763 128.300469,221.340627C127.932662,220.382135 128.753086,220.000000 131.178725,220.000000C133.834269,220.000000 134.571429,220.409058 134.571429,221.882648C134.571429,223.625425 134.397968,223.651640 132.236665,222.235499C130.952545,221.394111 129.984175,221.109420 130.084732,221.602852C130.392503,223.113086 128.793087,229.000000 128.075000,229.000000C127.703750,229.000000 126.841262,228.441262 126.158359,227.758359C125.281623,226.881623 124.708539,226.837171 124.208359,227.607105C123.818762,228.206818 122.719644,228.690556 121.765876,228.682079C120.489078,228.670731 120.306359,228.335786 121.073027,227.412008C121.861819,226.461572 121.643857,226.280373 120.174122,226.664717C118.900098,226.997882 117.686655,226.390725 116.639972,224.896375C115.763288,223.644734 114.822723,222.843944 114.549826,223.116841C114.276929,223.389737 115.391579,225.077861 117.026825,226.868227C118.662071,228.658592 120.000000,230.572221 120.000000,231.120735C120.000000,231.669250 120.453178,231.837954 121.007063,231.495635C122.168715,230.777694 123.587333,233.746000 122.569166,234.764168C122.196314,235.137019 121.472613,234.780111 120.960940,233.971040C120.146280,232.682877 120.014000,232.686477 119.896892,234.000000C119.823338,234.825000 119.807244,235.809890 119.861127,236.188644C119.969470,236.950213 116.563839,236.466506 114.996241,235.497677C114.448308,235.159036 114.000000,234.206966 114.000000,233.381966C114.000000,232.556966 113.588435,232.136327 113.085410,232.447214C112.582386,232.758100 111.942912,232.447157 111.664358,231.756231C111.374679,231.037712 111.124102,230.968705 111.078947,231.595012C111.035526,232.197269 111.900000,233.504514 113.000000,234.500000C115.608668,236.860812 115.550173,239.690606 112.875154,240.539625C110.079098,241.427058 108.590201,239.110304 110.558686,236.935153C111.843593,235.515347 111.790148,235.120062 110.107373,233.597171C108.858545,232.466997 107.970944,232.237997 107.540260,232.934857C107.168064,233.537083 107.668174,234.006655 108.690983,234.015313C110.224791,234.028296 110.271802,234.178098 109.000000,235.000000C107.910034,235.704390 107.857828,235.973560 108.809017,235.984687C109.528976,235.993109 109.826180,236.472230 109.469470,237.049399C109.076681,237.684945 107.889120,237.093387 106.458201,235.549399C103.027434,231.847541 102.323982,232.424913 105.381311,236.433278C108.436513,240.438854 108.688552,242.031062 106.250000,241.921053C105.181088,241.872831 104.992042,241.643951 105.764263,241.332965 Z"/>
<path d="M230.500000,209.884794 C226.100000,208.213218 221.185039,206.343633 219.577864,205.730161C217.970689,205.116689 217.185993,204.438002 217.834095,204.221968C218.482196,204.005935 218.714686,203.347370 218.350740,202.758492C217.680737,201.674405 221.569858,202.113228 225.250000,203.536958C226.449007,204.000816 227.000000,203.732386 227.000000,202.684405C227.000000,201.352320 212.156706,193.000000 209.789398,193.000000C209.349836,193.000000 206.742400,191.915629 203.995097,190.590286C201.247794,189.264943 199.000000,188.589943 199.000000,189.090286C199.000000,190.638211 195.615292,190.029641 193.250000,188.056438C190.463975,185.732245 190.357216,184.000000 193.000000,184.000000C194.100000,184.000000 195.000000,184.505100 195.000000,185.122445C195.000000,185.901624 195.455377,185.866960 196.489038,185.009097C198.526066,183.318514 203.784507,184.413884 213.000000,188.448445C222.598256,192.650580 230.717680,194.479194 232.651514,192.874255C233.419764,192.236664 234.337457,192.004124 234.690833,192.357499C235.044208,192.710875 234.808333,193.000000 234.166667,193.000000C233.525000,193.000000 233.000000,193.701558 233.000000,194.559017C233.000000,196.699319 234.922320,195.334514 236.036932,192.402861C237.089456,189.634513 238.235162,189.373500 240.000000,191.500000C241.638172,193.473877 239.442031,196.348856 236.819857,195.663142C234.307724,195.006205 234.471712,197.646902 237.028008,199.014990C238.185089,199.634240 238.750638,200.594459 238.344923,201.250919C237.816553,202.105841 237.530449,202.091347 237.231505,201.194515C237.010226,200.530678 236.348085,200.284871 235.760081,200.648278C235.172077,201.011684 234.971401,200.855291 235.314135,200.300736C235.656868,199.746182 234.797729,198.773239 233.404937,198.138640C231.921899,197.462923 231.130620,197.402331 231.495310,197.992412C231.837808,198.546585 231.341476,199.000000 230.392350,199.000000C229.443224,199.000000 228.950834,199.284167 229.298150,199.631483C229.645465,199.978799 229.398911,201.216299 228.750252,202.381483C227.245807,205.083911 227.173800,206.315674 228.466542,207.234687C229.972303,208.305136 231.217779,208.161391 230.500000,207.000000C229.642737,205.612920 233.338629,205.738629 234.744365,207.144365C235.603519,208.003519 236.626545,207.983117 238.849091,207.062509C241.296141,206.048907 242.302807,206.103630 244.654726,207.378106C247.233758,208.775652 247.294983,208.923671 245.309017,208.959962C244.103976,208.981983 242.845614,209.440785 242.512657,209.979521C242.130134,210.598456 241.204837,210.520360 239.999118,209.767376C237.414560,208.153293 236.003530,209.798195 238.442702,211.581761C241.308256,213.677105 239.420852,213.273859 230.500000,209.884794 Z"/>
<path d="M126.966407,208.958076 C125.890355,208.277511 126.431694,207.995670 129.000000,207.899311C130.925000,207.827089 131.712500,207.562202 130.750000,207.310674C129.787500,207.059147 129.000000,206.409790 129.000000,205.867659C129.000000,205.325528 128.581094,205.140864 128.069098,205.457295C126.564448,206.387220 125.655952,203.934964 127.033837,202.662868C127.998228,201.772518 128.129682,201.790253 127.594767,202.738546C127.125983,203.569601 127.406723,203.781156 128.448062,203.381557C130.325507,202.661114 130.362797,202.311567 128.750000,200.551260C127.697308,199.402286 127.223769,199.433413 125.750000,200.748454C123.574625,202.689536 123.426917,201.715940 125.571429,199.571429C128.135541,197.007316 131.554872,197.700346 135.151098,201.513036C138.034420,204.569911 138.555235,204.797145 139.162056,203.263036C139.665039,201.991441 139.859429,201.918121 139.859429,203.000000C139.859429,203.825000 139.472686,205.400000 139.000000,206.500000C138.328917,208.061695 138.125167,208.139930 138.070285,206.856989C137.981213,204.774813 135.000000,203.487666 135.000000,205.531385C135.000000,206.339123 134.501855,207.000000 133.893011,207.000000C133.284167,207.000000 133.001248,207.562500 133.264302,208.250000C133.847151,209.773296 129.099358,210.307094 126.966407,208.958076 Z"/>
<path d="M176.000000,206.000000 C175.207165,204.900000 173.784381,204.000000 172.838258,204.000000C170.506372,204.000000 169.497563,202.130034 171.429503,201.388679C172.531473,200.965813 172.800400,200.052910 172.350755,198.261382C171.757069,195.895948 171.920240,195.761295 174.857870,196.192448C176.586041,196.446089 178.000000,196.254993 178.000000,195.767790C178.000000,195.280587 178.411565,195.136327 178.914590,195.447214C179.417614,195.758100 179.999377,195.501869 180.207396,194.877812C180.415415,194.253755 181.086729,195.375952 181.699206,197.371582C182.311682,199.367212 182.430757,201.000000 181.963817,201.000000C181.496877,201.000000 181.297522,201.948618 181.520807,203.108040C181.913544,205.147361 180.030846,208.000000 178.292188,208.000000C177.824320,208.000000 176.792835,207.100000 176.000000,206.000000 Z"/>
<path d="M0.422831,198.083333 C0.190274,197.854167 -0.000000,188.516667 -0.000000,177.333333C-0.000000,157.821112 0.978202,151.680902 2.482595,161.750000C2.872921,164.362500 4.274015,170.668125 5.596139,175.762500C6.918263,180.856875 8.000000,186.144375 8.000000,187.512500C8.000000,188.880625 8.183084,190.000000 8.406854,190.000000C8.898770,190.000000 41.561840,179.538017 48.250000,177.238238C50.862500,176.339908 53.013842,175.131306 53.030759,174.552456C53.255179,166.873718 54.375446,158.362751 55.998458,152.006038C57.096859,147.704028 59.541470,136.352044 61.430928,126.779406C63.320385,117.206768 65.638406,107.444939 66.582085,105.086452C68.652975,99.910790 78.469008,91.438409 85.678052,88.604408C94.436813,85.161185 104.351839,79.898266 107.825103,76.848700C109.706694,75.196641 112.229617,73.396871 113.431599,72.849212C115.412796,71.946518 115.576138,71.276260 115.179538,65.676734C114.938923,62.279530 114.412883,59.275000 114.010560,59.000000C113.608238,58.725000 112.431361,56.925000 111.395279,55.000000C109.906551,52.234002 109.551576,49.676352 109.702621,42.804152C109.884529,34.527801 111.402620,26.078936 112.901670,25.000000C113.283749,24.725000 114.592573,23.072958 115.810167,21.328795C118.931075,16.858199 126.264038,13.046259 133.122039,12.329456C139.224376,11.691635 147.955791,13.317249 149.206208,15.324005C149.763240,16.217969 150.425939,16.198188 151.969487,15.241526C153.781519,14.118463 154.001648,14.226061 154.015313,16.241526C154.027955,18.106061 154.213808,18.238359 155.080819,17.000000C155.903748,15.824604 155.994593,15.985207 155.500612,17.742146C155.028349,19.421840 155.567604,20.584164 157.650285,22.375611C160.205461,24.573481 160.410347,25.273678 160.182976,31.031063C159.931828,37.390530 159.408117,39.372729 158.180902,38.608732C157.806406,38.375591 157.642986,42.671180 157.817748,48.154486C157.992509,53.637791 157.715793,60.091986 157.202823,62.497141C156.608315,65.284603 156.622677,67.222677 157.242435,67.842435C157.872147,68.472147 157.384133,69.260533 155.857359,70.080024L153.500000,71.345329 156.500000,72.627561 C158.150000,73.332788 160.737500,73.930089 162.250000,73.954896C164.452923,73.991027 164.996954,73.552392 164.984687,71.750000C164.960278,68.163363 163.511544,66.654794 160.755792,67.346444C157.361274,68.198414 156.764577,67.207123 158.699866,63.930940C161.072870,59.913765 168.470210,58.451790 171.000000,61.500000C171.684689,62.325000 172.857135,63.000000 173.605434,63.000000C174.645510,63.000000 174.908230,64.632051 174.720808,69.928848C174.585965,73.739714 174.649339,76.683994 174.861640,76.471693C175.604777,75.728556 182.538912,79.916157 186.815741,83.690907C190.814555,87.220279 191.383677,88.378596 194.565741,99.464261C196.454583,106.044605 198.000000,112.247937 198.000000,113.249444C198.000000,114.250952 198.639934,116.067034 199.422075,117.285183C200.204216,118.503332 201.168223,121.750000 201.564312,124.500000C202.624963,131.863965 204.590857,136.743162 207.512962,139.264084C210.626720,141.950347 212.125229,147.814493 211.275391,153.987673L210.654197,158.500000 209.286023,155.500000 C208.070021,152.833666 207.963726,152.778055 208.330329,155.000000C208.557192,156.375000 209.109930,158.400000 209.558635,159.500000C210.284835,161.280279 210.189102,161.349223 208.687231,160.127555C207.689045,159.315600 207.000000,159.189402 207.000000,159.818538C207.000000,160.403424 207.450000,161.160081 208.000000,161.500000C209.638654,162.512744 209.134615,163.848802 207.250000,163.488027C206.287500,163.303775 205.162500,163.118592 204.750000,163.076511C204.337500,163.034430 204.000000,161.901558 204.000000,160.559017C204.000000,159.216476 203.550000,157.839919 203.000000,157.500000C202.450000,157.160081 202.052201,155.671024 202.116001,154.190983C202.188985,152.497924 202.401596,152.148970 202.689326,153.250000C203.210983,155.246185 205.016342,155.642293 204.968197,153.750000C204.950705,153.062500 204.257936,151.602192 203.428712,150.504871C202.213837,148.897217 201.756201,148.776441 201.072318,149.882987C200.605527,150.638271 199.835795,151.015478 199.361803,150.721225C198.887812,150.426971 198.500000,152.281819 198.500000,154.843109C198.500000,158.184308 198.101545,159.500000 197.089669,159.500000C195.531470,159.500000 191.111857,152.451326 191.043372,149.856989C190.973444,147.207974 188.003219,146.649376 187.982723,149.281385C187.973221,150.501623 186.913629,152.496779 185.628074,153.715065L183.290700,155.930131 183.649947,153.215065 C183.847533,151.721779 183.744626,151.062500 183.421264,151.750000C183.097902,152.437500 182.258236,153.000000 181.555339,153.000000C180.721591,153.000000 180.448377,153.894703 180.769366,155.573849C181.170436,157.671913 180.913735,158.087834 179.380694,157.823849C178.089041,157.601431 177.404263,158.171529 177.194331,159.644065C177.000132,161.006244 175.988574,161.960192 174.420464,162.259955C171.270380,162.862132 170.134937,161.105718 172.538253,159.348370C174.000169,158.279391 174.546440,158.259032 175.175716,159.250074C175.703370,160.081072 175.974507,159.744610 175.984687,158.246194C175.997797,156.316662 175.533756,156.028905 172.759459,156.246194C169.619968,156.492085 169.529247,156.390859 169.850158,153.000000C170.191702,149.391122 173.758458,142.000000 175.158461,142.000000C176.312759,142.000000 179.000000,147.561437 179.000000,149.950340C179.000000,152.583287 181.025003,152.620391 181.710251,150.000000C182.300593,147.742529 183.581865,147.376795 184.337719,149.250000C184.639036,149.996741 184.873890,149.795438 184.921053,148.750000C184.969473,147.676677 184.274001,147.000000 183.122445,147.000000C182.089789,147.000000 180.627289,146.238619 179.872445,145.308042C179.117600,144.377464 179.019693,143.927566 179.654874,144.308267C180.486234,144.806551 180.653695,143.836991 180.252672,140.847143C179.799834,137.470984 179.957971,136.843487 181.097798,137.493621C182.231946,138.140517 182.261042,138.035965 181.250000,136.946704C179.698374,135.275040 179.602497,131.000000 181.116631,131.000000C181.758474,131.000000 181.999881,131.892452 181.684385,133.098914C181.382501,134.253316 181.383589,134.949745 181.686801,134.646533C182.289395,134.043938 185.423568,136.854873 185.625000,138.178571C185.693750,138.630357 185.806250,139.469839 185.875000,140.044086C186.018281,141.240872 199.981174,140.950012 199.992759,139.750000C199.996742,139.337500 199.325000,139.000000 198.500000,139.000000C197.675000,139.000000 197.000000,138.325000 197.000000,137.500000C197.000000,136.675000 197.765000,136.000000 198.700000,136.000000C200.022222,136.000000 200.133333,135.733333 199.200000,134.800000C198.540000,134.140000 198.000000,132.331427 198.000000,130.780948C198.000000,128.273303 197.723837,128.031208 195.500000,128.589356C192.488504,129.345194 192.266540,127.973747 195.000000,125.500000C196.915856,123.766175 197.892873,120.330140 196.166667,121.396994C195.708333,121.680260 195.333333,121.276612 195.333333,120.500000C195.333333,119.723388 195.711748,119.321850 196.174255,119.607695C197.217309,120.252339 195.024307,114.945203 193.565446,113.294298C192.782615,112.408414 192.449982,113.041993 192.311433,115.682865C192.207721,117.659713 191.645221,119.754779 191.061433,120.338567C190.477645,120.922355 189.936143,122.772500 189.858095,124.450000C189.735281,127.089654 189.634377,126.961842 189.108095,123.500000C188.603059,120.177912 188.122236,119.513074 186.271014,119.577143C184.679063,119.632239 184.319338,119.320147 185.012338,118.485134C185.546008,117.842100 185.686552,117.019886 185.324657,116.657991C184.683492,116.016826 186.364639,115.628455 188.622637,115.896106C190.204707,116.083637 192.383311,110.415930 191.346320,108.810357C190.880844,108.089661 190.451896,105.700000 190.393102,103.500000C190.334309,101.300000 189.464071,97.273212 188.459242,94.551581C186.669412,89.703738 186.613998,89.658007 185.732806,92.301581C184.703692,95.388925 183.357882,95.808311 182.689326,93.250000C182.437798,92.287500 182.179802,94.222500 182.116001,97.550000C182.052201,100.877500 182.412086,104.027500 182.915746,104.550000C184.079501,105.757287 184.777681,118.004263 183.682612,118.001822C183.233049,118.000820 183.150874,118.900000 183.500000,120.000000C184.080966,121.830461 183.304091,122.434697 181.250000,121.750000C180.837500,121.612500 180.500000,118.125000 180.500000,114.000000L180.500000,106.500000 176.500000,106.183174 C170.866393,105.736955 169.535452,104.000000 174.827144,104.000000L179.054288,104.000000 178.777144,94.250000 C178.598366,87.960547 178.117149,84.568462 177.421326,84.692891C176.159680,84.918502 176.200082,82.118704 177.489299,79.982419C178.211263,78.786094 178.105631,78.724828 176.941958,79.664963C175.575117,80.769239 175.000021,80.979583 173.250000,81.015313C172.837500,81.023735 173.175000,81.466844 174.000000,82.000000L175.500000,82.969374 174.000000,83.000000 L172.500000,83.030626 174.000000,83.986846 C175.160720,84.726782 175.249570,85.345333 174.392817,86.721533C172.839483,89.216650 169.962110,89.569639 169.376080,87.336974C169.048710,86.089755 167.867538,85.445872 165.696956,85.331401C163.118580,85.195424 162.886981,85.326942 164.500000,86.011116C165.721462,86.529207 165.939013,86.886789 165.058870,86.929715C163.976352,86.982510 164.072803,87.332750 165.446470,88.337200C166.452272,89.072660 167.023806,90.310160 166.716547,91.087200C166.316138,92.099812 166.135532,91.985209 166.078947,90.682612C166.020269,89.331830 165.486510,89.028200 164.000000,89.500000C162.808013,89.878322 162.000000,89.679700 162.000000,89.008371C162.000000,88.388848 161.501957,88.189774 160.893237,88.565983C160.103649,89.053976 160.096741,89.441755 160.869134,89.919120C162.060019,90.655128 161.953325,96.994824 160.750000,96.998013C159.268489,97.001938 160.036818,103.383789 161.750000,105.304160C163.446331,107.205642 163.423330,107.242374 161.000000,106.501907C159.625000,106.081765 158.140139,105.121959 157.700310,104.369006C156.517715,102.344498 155.058593,102.707960 155.484765,104.920891C155.955686,107.366186 153.731381,108.255284 151.402754,106.552550C149.685811,105.297091 149.691030,105.122753 151.527939,102.371234C152.582195,100.792055 153.333546,99.129052 153.197607,98.675670C153.061669,98.222289 153.440297,98.154085 154.039003,98.524105C154.783245,98.984072 154.932519,98.137749 154.510935,95.848435C154.171791,94.006796 153.724095,91.150000 153.516055,89.500000C153.308015,87.850000 153.076425,86.500000 153.001411,86.500000C152.926397,86.500000 152.663582,84.940690 152.417377,83.034866C152.171173,81.129043 151.499882,79.104043 150.925621,78.534866C150.201672,77.817328 150.098124,78.113273 150.587933,79.500000C151.119194,81.004085 151.001777,81.231516 150.114396,80.417217C148.802940,79.213769 149.695719,75.693910 151.093330,76.557681C151.579399,76.858088 151.706902,76.399773 151.376670,75.539203C151.046438,74.678633 151.331693,73.305261 152.010569,72.487265C153.716020,70.432323 152.528818,70.614039 150.410714,72.732143C149.116329,74.026528 148.811401,74.089709 149.204158,72.982143C149.846913,71.169588 148.336171,68.000000 146.829487,68.000000C146.224407,68.000000 144.686727,66.875000 143.412420,65.500000C142.138113,64.125000 140.759011,63.000000 140.347749,63.000000C139.936487,63.000000 140.140000,63.540000 140.800000,64.200000C142.461998,65.861998 142.301466,66.772847 140.250000,67.320679C138.767937,67.716455 138.844490,67.898645 140.750000,68.510634C143.723134,69.465510 144.035817,75.000000 141.116631,75.000000C140.056709,75.000000 138.998012,75.899599 138.695203,77.057543C138.218713,78.879643 137.912807,78.965465 136.021873,77.807543C134.578098,76.923441 134.021978,75.771350 134.304629,74.250000C134.534544,73.012500 134.361616,72.000000 133.920345,72.000000C132.286039,72.000000 132.142789,73.721334 133.551178,76.436007C135.378854,79.958857 135.374281,80.000000 133.154988,80.000000C130.835617,80.000000 127.621178,76.549239 128.318431,74.807864C128.664647,73.943197 128.868858,74.081101 128.921053,75.214816C128.964474,76.157965 129.900000,77.411298 131.000000,78.000000C133.561321,79.370777 133.519723,78.588314 130.793625,74.118034C129.274689,71.627269 129.092872,70.906007 130.210074,71.803104C131.555824,72.883720 131.889847,72.862065 132.166449,71.676270C132.419935,70.589571 133.094315,70.469132 134.975928,71.174518C136.985175,71.927753 137.173662,72.274695 135.975928,73.015188C134.699318,73.804445 134.736330,74.164063 136.250000,75.678122C137.675798,77.104286 138.021938,77.157300 138.118421,75.964286C138.183553,75.158929 138.164387,74.105004 138.075831,73.622231C137.987276,73.139458 138.860188,72.991682 140.015637,73.293838C141.603766,73.709143 142.031883,73.435272 141.769912,72.171607C141.579314,71.252223 140.657955,70.561693 139.722447,70.637095C138.786939,70.712498 138.270203,70.371819 138.574144,69.880032C138.878085,69.388245 138.434300,68.720151 137.587955,68.395378C135.742134,67.687070 133.198095,62.905715 133.763897,61.208310C133.985420,60.543739 135.366667,60.028524 136.833333,60.063386C139.425334,60.124998 139.437001,60.152095 137.250000,61.031162C134.862080,61.990988 134.336846,63.472114 136.016312,64.510081C136.575283,64.855545 136.713902,65.669602 136.324353,66.319098C135.920865,66.991836 136.344164,66.909412 137.308042,66.127555C139.272431,64.534126 139.464917,63.896685 137.875000,64.250000C137.256250,64.387500 136.543750,63.937500 136.291667,63.250000C136.000237,62.455191 136.769982,62.000000 138.405465,62.000000C140.517214,62.000000 140.941631,61.565432 140.776657,59.572093C140.666140,58.236745 140.151683,57.406255 139.633418,57.726560C139.115153,58.046865 137.633442,58.425037 136.340726,58.566941C134.023649,58.821292 134.014123,58.784676 135.668682,55.983730C136.591774,54.421060 138.168949,52.927576 139.173516,52.664876C140.514715,52.314144 141.000000,51.232438 141.000000,48.593620C141.000000,46.617129 140.564123,45.000000 140.031385,45.000000C139.498646,45.000000 139.323750,45.680103 139.642725,46.511341C140.042805,47.553932 139.762485,47.846087 138.738919,47.453308C137.658593,47.038748 137.318992,47.511492 137.489930,49.191968C137.619056,50.461385 137.536723,50.761146 137.306967,49.858103C137.051998,48.855958 136.197731,48.397037 135.114526,48.680302C134.138438,48.935554 131.800862,48.515604 129.919911,47.747078L126.500000,46.349758 129.972861,43.174879 C132.466424,40.895272 134.416828,40.000000 136.889528,40.000000C142.125066,40.000000 139.642054,41.482081 133.500000,42.023169C131.797751,42.173129 131.872189,42.318556 134.000000,43.000000C136.299997,43.736588 136.219996,43.809840 133.000000,43.915633C130.619696,43.993838 129.936091,44.306914 130.863153,44.894262L132.226305,45.757898 130.863153,46.300002 C129.912744,46.677964 130.029876,46.866009 131.250000,46.921053C132.212500,46.964474 133.000000,46.550000 133.000000,46.000000C133.000000,45.450000 133.701558,45.000000 134.559017,45.000000C135.516142,45.000000 135.845435,45.482589 135.411949,46.250000C134.361595,48.109470 138.301625,43.886884 140.284990,41.027494C141.228246,39.667615 142.000000,39.131673 142.000000,39.836511C142.000000,40.541349 142.409716,40.864816 142.910479,40.555327C143.411243,40.245838 145.661243,39.920510 147.910479,39.832376C152.412203,39.655981 152.614705,39.396808 150.468197,36.558870C148.337659,33.742048 148.660900,32.698075 151.447081,33.397362C153.167554,33.829173 154.229223,33.490202 155.022586,32.255770C155.900424,30.889900 156.042710,30.855963 155.663319,32.102948C155.395089,32.984569 156.036112,34.442665 157.087814,35.343160C158.898832,36.893802 159.000000,36.845553 159.000000,34.431196C159.000000,33.029119 158.597153,32.130939 158.104785,32.435239C157.612416,32.739540 156.940595,32.287576 156.611848,31.430874C156.246375,30.478468 155.525685,30.178041 154.757063,30.657688C152.585645,32.012730 149.896876,32.067434 150.198623,30.750431C150.356195,30.062694 149.250966,27.882524 147.742559,25.905609C144.590541,21.774582 144.277261,20.000000 146.700000,20.000000C147.906785,20.000000 148.089767,19.689767 147.330699,18.930699C146.127388,17.727388 143.901211,17.195911 139.500000,17.061198C137.181758,16.990242 136.840879,16.749082 138.000000,16.000000C139.122070,15.274862 138.594268,15.026767 135.905158,15.015313C130.827230,14.993683 119.999508,20.697921 117.500000,24.711480C116.400000,26.477794 114.951623,27.940294 114.281385,27.961480C113.560094,27.984280 113.323367,28.679107 113.701324,29.664045C114.155340,30.847194 113.970813,31.099996 113.062805,30.538816C112.116523,29.953981 111.960449,30.300024 112.460254,31.874771C112.860446,33.135663 112.700666,34.000000 112.067388,34.000000C111.480324,34.000000 111.000000,34.701558 111.000000,35.559017C111.000000,36.416476 111.450000,36.839919 112.000000,36.500000C112.583423,36.139425 113.000000,37.156282 113.000000,38.940983C113.000000,40.889023 113.505915,42.000000 114.393011,42.000000C116.057258,42.000000 117.298165,44.697690 116.002315,45.498569C115.501629,45.808010 113.946282,45.773638 112.545989,45.422186C111.145695,45.070735 110.000000,45.116685 110.000000,45.524297C110.000000,46.854625 114.339967,50.066488 114.927732,49.171145C115.242479,48.691690 116.625000,47.756633 118.000000,47.093241C120.464855,45.904031 120.471732,45.912470 118.489177,47.693537C116.487785,49.491527 116.258847,51.463108 117.553668,55.750000C118.026258,57.314650 117.816987,58.004664 116.866631,58.015313C115.832010,58.026905 115.797518,58.219643 116.724651,58.808664C118.068442,59.662392 118.746431,73.983233 117.535795,75.942082C117.146409,76.572122 117.429061,77.812060 118.163910,78.697500C118.898760,79.582939 119.387500,80.463227 119.250000,80.653695C119.112500,80.844163 119.281869,80.971648 119.626375,80.936995C119.970881,80.902343 120.758381,81.867887 121.376375,83.082650C121.994369,84.297413 123.625000,85.675906 125.000000,86.145967C127.373604,86.957413 127.401860,86.924770 125.558870,85.500312C124.153196,84.413857 124.015272,83.991227 125.058870,83.968197C126.166409,83.943755 126.094912,83.628887 124.750000,82.607954C123.787500,81.877312 123.000000,80.827310 123.000000,80.274616C123.000000,79.721922 122.048698,78.060333 120.885996,76.582196C119.723293,75.104060 118.997956,73.668710 119.274136,73.392531C120.206426,72.460240 130.000000,86.167182 130.000000,88.404292C130.000000,88.731931 128.244449,89.000000 126.098776,89.000000C122.700244,89.000000 121.931460,88.549008 120.132501,85.500000C118.996723,83.575000 117.602274,82.000000 117.033725,82.000000C116.465176,82.000000 116.000000,80.425000 116.000000,78.500000C116.000000,74.478504 114.792472,74.030500 112.556704,77.222506C111.125129,79.266366 110.468293,78.968409 110.963964,76.500000C111.074407,75.950000 110.002697,76.590941 108.582385,77.924314C106.014562,80.334958 105.193018,81.616776 106.886693,80.570027C108.016805,79.871580 110.519807,82.813527 109.588128,83.745206C109.204847,84.128486 108.489930,83.792723 107.999422,82.999065C107.238757,81.768284 107.016641,81.793059 106.489212,83.167517C106.099791,84.182333 105.142066,84.588406 103.902536,84.264262C102.819971,83.981165 101.161533,84.439609 100.217118,85.283027C99.272703,86.126445 96.925000,87.534544 95.000000,88.412137C91.860116,89.843585 91.779834,89.970778 94.219738,89.648336C95.776944,89.442546 96.686849,89.697672 96.348458,90.245201C96.023398,90.771159 94.536315,90.957263 93.043829,90.658766C91.551343,90.360269 89.079481,90.764934 87.550802,91.558022C86.022123,92.351110 84.121267,93.000000 83.326676,93.000000C82.489282,93.000000 82.181913,93.485324 82.595492,94.154508C83.043533,94.879455 82.869156,95.037168 82.126829,94.578384C80.774527,93.742616 75.000000,99.436557 75.000000,101.605755C75.000000,102.372590 74.564123,103.000000 74.031385,103.000000C73.498646,103.000000 73.321791,102.325000 73.638374,101.500000C74.663521,98.828510 73.024958,99.910851 70.989040,103.250000C69.899180,105.037500 68.998903,105.825000 68.988425,105.000000C68.971986,103.705645 68.843943,103.698258 68.054463,104.946118C67.487130,105.842849 67.537143,107.135145 68.186109,108.347748C69.060181,109.980967 68.957715,110.197751 67.564396,109.663085C66.598653,109.292494 66.148977,109.432033 66.496566,109.994444C67.247833,111.210019 66.012741,118.125436 65.140351,117.588045C64.788158,117.371095 64.468264,119.512533 64.429474,122.346795C64.346023,128.444496 61.184376,143.231984 60.106530,142.565839C59.693781,142.310746 59.290192,144.216576 59.209666,146.801017C58.968196,154.550841 58.671756,155.972471 57.500000,155.000000C56.799781,154.418870 56.428571,154.793103 56.428571,156.080156C56.428571,157.375185 56.917248,157.861996 57.855729,157.501867C58.988776,157.067077 59.039055,157.248016 58.099706,158.379862C57.181502,159.486230 57.205217,159.901739 58.205599,160.235200C59.039498,160.513166 58.701133,161.089581 57.247337,161.867629C56.011302,162.529135 55.035526,163.842035 55.078947,164.785184C55.126962,165.828103 55.355523,166.010226 55.662281,165.250000C55.939693,164.562500 56.634267,164.000000 57.205778,164.000000C57.890952,164.000000 57.912437,164.425770 57.268856,165.250000C54.954119,168.214469 54.125454,175.104121 55.585800,179.243184C56.583419,182.070737 56.699404,183.657270 55.972523,184.533107C55.142157,185.533638 30.777023,194.000000 28.727986,194.000000C28.430575,194.000000 28.409146,192.987500 28.680366,191.750000C29.043932,190.091151 28.917343,189.862077 28.198550,190.878115C27.662331,191.636079 26.788301,191.987197 26.256260,191.658378C25.691033,191.309048 25.485171,192.087177 25.761034,193.530262C26.530703,197.556526 23.350861,196.622147 22.349339,192.527755C21.679047,189.787486 21.184815,189.252142 20.004871,189.988269C18.721782,190.788745 18.792693,191.150938 20.504871,192.542150C21.895879,193.672398 22.017378,194.014796 20.906124,193.672930C19.678389,193.295230 19.418022,193.735911 19.772701,195.591295C20.228557,197.975951 18.691852,198.928458 17.500000,197.000000C16.721864,195.740949 14.000000,195.683927 14.000000,196.926676C14.000000,197.436348 14.787500,198.059147 15.750000,198.310674C16.926835,198.618214 16.681193,198.800975 15.000000,198.868686C13.625000,198.924065 12.050000,198.638765 11.500000,198.234687C10.102698,197.208107 9.690699,194.000000 10.956163,194.000000C11.530273,194.000000 12.000000,193.592129 12.000000,193.093620C12.000000,191.732689 7.681435,193.028386 6.250000,194.818790C5.533959,195.714397 5.000000,195.886855 5.000000,195.222514C5.000000,194.584655 4.325000,194.321791 3.500000,194.638374C2.675000,194.954956 2.000000,195.615833 2.000000,196.106989C2.000000,197.414559 5.403089,197.196911 6.800000,195.800000C7.733333,194.866667 8.000000,195.050006 8.000000,196.625026C8.000000,198.294978 7.372769,198.636897 4.422831,198.575026C2.455388,198.533762 0.655388,198.312500 0.422831,198.083333 Z"/>
<path d="M132.363830,197.505744 C132.048460,196.683903 131.425346,196.237122 130.979131,196.512898C130.532917,196.788673 128.929906,196.543649 127.416885,195.968400C125.441799,195.217473 124.470140,195.239297 123.971706,196.045780C123.550284,196.727655 123.039344,196.258455 122.671491,194.851781C121.995369,192.266287 123.619924,189.792691 124.791641,191.623578C125.181238,192.232351 126.512500,193.046414 127.750000,193.432606C129.424985,193.955327 130.000000,193.734210 130.000000,192.567388C130.000000,191.572280 129.108756,191.000000 127.559017,191.000000C126.216476,191.000000 124.839919,190.550000 124.500000,190.000000C124.160081,189.450000 124.358524,189.000000 124.940983,189.000000C125.523442,189.000000 126.000000,188.325000 126.000000,187.500000C126.000000,186.675000 126.476558,186.000000 127.059017,186.000000C127.641476,186.000000 127.839919,185.550000 127.500000,185.000000C127.160081,184.450000 127.406669,184.000000 128.047972,184.000000C128.689275,184.000000 128.967837,183.358569 128.666999,182.574597C128.366161,181.790625 128.564168,179.540625 129.107014,177.574597C129.819648,174.993648 130.650696,174.000000 132.096664,174.000000C133.198125,174.000000 135.398468,173.328185 136.986315,172.507077C138.574162,171.685969 140.531297,171.266647 141.335504,171.575251C142.139711,171.883854 143.094774,171.655669 143.457866,171.068174C143.844423,170.442713 143.264659,170.000000 142.059017,170.000000C140.926558,170.000000 140.000000,169.662500 140.000000,169.250000C140.000000,168.837500 141.125000,168.500000 142.500000,168.500000C144.214286,168.500000 145.000000,169.050000 145.000000,170.250000C145.000000,171.212500 144.494900,172.000000 143.877555,172.000000C143.102049,172.000000 143.139896,172.463637 144.000000,173.500000C144.860104,174.536363 144.897951,175.000000 144.122445,175.000000C143.505100,175.000000 143.000000,174.589150 143.000000,174.086999C143.000000,173.584849 141.569159,173.247349 139.820354,173.336999C137.257722,173.468370 136.498131,174.034272 135.905966,176.253261C135.330553,178.409472 135.610482,179.314191 137.196843,180.425321L139.222464,181.844121 137.181350,183.118818 C135.642901,184.079595 135.369904,184.822654 136.072822,186.136069C137.087489,188.031992 135.605336,189.788472 134.500000,188.000000C134.148992,187.432057 133.435557,187.230811 132.914590,187.552786C132.393622,187.874762 132.238457,188.576815 132.569778,189.112903C132.901099,189.648992 132.592642,190.855398 131.884318,191.793805C130.793205,193.239342 130.810607,193.309036 131.998228,192.250000C132.769203,191.562500 134.227742,191.000000 135.239427,191.000000C136.762493,191.000000 136.857086,191.239931 135.789427,192.395040C135.080242,193.162311 134.162500,193.585754 133.750000,193.336023C133.337500,193.086291 133.000000,193.358524 133.000000,193.940983C133.000000,194.957625 134.280925,195.376554 136.583333,195.112919C137.179167,195.044694 137.666667,195.626724 137.666667,196.406319C137.666667,197.469580 137.095585,197.606640 135.381199,196.954832C133.573772,196.267649 133.212681,196.390663 133.654855,197.542949C133.962372,198.344327 133.926709,199.000000 133.575604,199.000000C133.224499,199.000000 132.679200,198.327585 132.363830,197.505744 Z"/>
<path d="M140.666667,198.333333 C139.411915,197.078581 139.998452,195.785429 141.551938,196.381557C142.489548,196.741351 142.847577,196.562392 142.456405,195.929462C142.100297,195.353266 141.826240,192.647737 141.847391,189.917175C141.870037,186.993668 141.491471,185.196254 140.926612,185.545356C140.399032,185.871418 140.223089,186.551948 140.535626,187.057644C140.848163,187.563340 140.440297,187.722452 139.629257,187.411227C137.484758,186.588306 136.905030,184.323708 138.500000,183.000000C139.259615,182.369576 139.652188,181.257192 139.372385,180.528038C139.092582,179.798883 139.288081,178.939990 139.806826,178.619388C140.325572,178.298786 140.750000,179.129161 140.750000,180.464666C140.750000,181.800171 141.540619,183.683476 142.506932,184.649789C144.182841,186.325698 144.229781,186.299335 143.524798,184.078131C142.949826,182.266556 143.087055,181.930981 144.142866,182.566729C145.125316,183.158304 145.085873,182.871896 144.000000,181.529337L142.500000,179.674757 144.000000,180.174590 C145.184090,180.569154 145.449082,182.235604 145.258229,188.087211C145.108235,192.686097 145.330059,194.758566 145.842591,193.546808C146.552635,191.868079 146.763235,192.066173 147.341306,194.956530C147.711227,196.806133 147.785764,198.547569 147.506944,198.826389C147.228125,199.105208 147.000000,198.583333 147.000000,197.666667C147.000000,195.595340 145.643282,195.519967 144.000000,197.500000C142.645377,199.132220 141.701519,199.368185 140.666667,198.333333 Z"/>
<path d="M162.000000,187.500000 C159.525000,186.174706 156.600000,185.063150 155.500000,185.029875C153.948819,184.982951 153.813084,184.771129 154.895147,184.085964C156.019303,183.374147 155.922184,183.093314 154.395147,182.640154C153.352816,182.330833 154.219456,182.311645 156.321014,182.597512C158.422571,182.883379 160.858891,183.392357 161.735059,183.728574C162.784700,184.131359 163.083865,183.944713 162.612107,183.181393C162.136428,182.411728 162.445139,182.233585 163.531908,182.650618C164.431589,182.995858 164.792461,183.553203 164.333846,183.889163C162.539965,185.203277 163.140604,186.781564 165.284187,186.386352C166.502884,186.161661 166.934696,186.246248 166.243769,186.574322C165.552843,186.902396 165.241900,187.582386 165.552786,188.085410C166.552507,189.702992 168.000000,189.060987 168.000000,187.000000C168.000000,185.888889 168.666667,185.000000 169.500000,185.000000C170.433333,185.000000 171.000000,185.944444 171.000000,187.500000C171.000000,190.764294 168.096103,190.764294 162.000000,187.500000 Z"/>
<path d="M173.486972,178.300797 C173.893936,177.310359 174.425054,175.820655 174.667233,174.990345C175.306173,172.799747 169.763080,167.018254 166.910801,166.900320L164.500000,166.800640 167.000000,166.000000 C170.590812,164.850021 172.210726,164.850021 171.500000,166.000000C171.160081,166.550000 171.552881,167.000000 172.372889,167.000000C173.192896,167.000000 174.864232,168.462500 176.086968,170.250000C177.309703,172.037500 179.007373,174.066901 179.859567,174.759780C181.213800,175.860845 181.225761,176.191668 179.954505,177.385630C179.154527,178.136968 177.205583,179.055425 175.623519,179.426646C173.124839,180.012945 172.844222,179.865074 173.486972,178.300797 Z"/>
<path d="M142.000000,166.893011 C142.000000,166.284167 141.418649,166.009108 140.708108,166.281768C139.514918,166.739638 135.113495,164.345323 136.073001,163.760332C139.057533,161.940725 143.037339,160.143809 145.250000,159.616839C147.391040,159.106927 148.000000,159.321967 148.000000,160.587937C148.000000,161.676210 147.464059,162.008318 146.379482,161.592127C145.100469,161.101323 144.880911,161.436602 145.337631,163.183102C145.910728,165.374628 144.569904,168.000000 142.877555,168.000000C142.394900,168.000000 142.000000,167.501855 142.000000,166.893011 Z"/>
<path d="M151.440622,161.133332 C150.400706,160.931664 149.076133,160.118796 148.497127,159.326958C147.262823,157.638946 139.366660,155.655358 137.781438,156.635079C137.128684,157.038503 136.977387,156.845605 137.404508,156.154508C137.796948,155.519529 137.641476,155.000000 137.059017,155.000000C136.476558,155.000000 136.000000,154.550000 136.000000,154.000000C136.000000,153.450000 136.701558,153.000000 137.559017,153.000000C138.416476,153.000000 138.860967,152.584057 138.546774,152.075682C138.232581,151.567307 138.768523,150.944508 139.737757,150.691683C141.402772,150.257365 141.403447,150.225603 139.750000,150.116001C137.874055,149.991652 137.142284,145.000000 139.000000,145.000000C139.550000,145.000000 140.000000,145.666427 140.000000,146.480948C140.000000,147.295469 141.237500,148.222651 142.750000,148.541351C144.262500,148.860051 146.287500,149.547438 147.250000,150.068877C148.212500,150.590316 149.000000,150.725244 149.000000,150.368716C149.000000,150.012189 148.212500,149.085076 147.250000,148.308464C145.637147,147.007102 145.676332,146.944966 147.750000,147.515609C149.033894,147.868917 150.000000,147.689936 150.000000,147.098772C150.000000,146.528971 150.729836,146.342834 151.621857,146.685135C152.975896,147.204728 152.939197,146.951849 151.399616,145.153750C150.385362,143.969187 148.894518,143.000000 148.086630,143.000000C147.009209,143.000000 147.135064,143.391284 148.558870,144.468197C150.893696,146.234170 149.757811,146.490209 147.060775,144.805881C145.288334,143.698974 145.271067,143.518712 146.824343,142.337685C148.345168,141.181332 148.299799,141.060668 146.333333,141.031803C144.070976,140.998595 142.969654,139.383658 143.754296,137.250000C144.007121,136.562500 144.670933,136.000000 145.229434,136.000000C145.787934,136.000000 145.627289,136.748674 144.872445,137.663720C143.619510,139.182566 143.709850,139.215589 145.909903,138.042958C148.050806,136.901855 148.132176,136.653473 146.638871,135.817778C145.714356,135.300394 145.218957,134.454736 145.537985,133.938540C145.857012,133.422343 145.528976,132.984054 144.809017,132.964565C144.089058,132.945075 144.580625,132.330283 145.901388,131.598361C147.222151,130.866438 147.796134,130.094884 147.176905,129.883796C145.496621,129.311007 146.963043,125.011628 148.866631,124.929715C150.283831,124.868731 150.268888,124.767913 148.753725,124.167935C147.141440,123.529499 147.160623,123.380783 149.003725,122.229747C150.188278,121.489981 151.000000,121.393116 151.000000,121.991526C151.000000,122.546187 151.761008,123.000000 152.691130,123.000000C154.246683,123.000000 154.241652,123.102815 152.628379,124.282469C150.964829,125.498886 150.968330,125.572006 152.696367,125.702175C153.698395,125.777655 155.189133,125.988044 156.009118,126.169706C157.181904,126.429528 157.453487,125.539876 157.281997,122.000000C157.130925,118.881600 157.350103,117.960533 157.995879,119.000000C158.643812,120.042939 158.862593,119.161592 158.713882,116.107562C158.560628,112.960224 158.925197,111.567671 160.000000,111.194941C161.275109,110.752747 161.298417,110.918988 160.155459,112.303756C159.415962,113.199706 159.042936,114.510386 159.326512,115.216378C159.669951,116.071405 159.868465,115.954627 159.921053,114.866631C159.991170,113.415952 163.240500,111.602076 165.250000,111.891849C166.934947,112.134821 165.850309,109.880177 163.942788,109.174539C161.920174,108.426326 161.917763,108.384399 163.799406,106.681535C165.468962,105.170608 165.868502,105.136628 166.929714,106.415311C167.900384,107.584896 167.743400,108.791659 166.152825,112.387419C165.056472,114.865906 164.379589,117.930163 164.648639,119.196879C164.917690,120.463596 164.263931,119.700000 163.195841,117.500000L161.253860,113.500000 160.485603,116.381158 C159.901636,118.571186 160.111067,119.482652 161.358674,120.180848C162.587612,120.868596 163.000000,122.563647 163.000000,126.927245C163.000000,130.887619 163.480663,133.154025 164.500000,134.000000C165.708944,135.003335 166.012299,134.978584 166.063386,133.872445C166.098249,133.117600 166.544442,133.541410 167.054928,134.814245C167.565413,136.087079 168.431735,136.851207 168.980087,136.512307C170.604574,135.508319 168.889157,139.221683 166.250574,142.420887C163.893163,145.279178 163.723654,148.510320 165.665624,153.571014C166.052520,154.579248 165.463751,155.000000 163.666006,155.000000C162.264621,155.000000 160.880094,154.615006 160.589279,154.144457C160.298464,153.673908 161.142001,153.495651 162.463806,153.748330C164.526643,154.142666 164.786016,153.897726 164.294780,152.019240C163.980011,150.815561 163.112501,149.596665 162.366980,149.310582C161.621459,149.024499 161.260460,148.387584 161.564761,147.895215C161.869061,147.402847 161.564410,147.000000 160.887758,147.000000C160.211106,147.000000 158.909548,146.323130 157.995407,145.495844C156.569786,144.205674 156.333333,144.197771 156.333333,145.440288C156.333333,146.237019 156.751579,146.801389 157.262767,146.694444C157.773956,146.587500 158.584195,147.511798 159.063299,148.748439C159.766475,150.563447 159.468234,151.302321 157.516162,152.581367C156.040911,153.547989 154.201451,153.913000 152.798963,153.517421C151.010138,153.012874 150.832849,153.102024 152.000000,153.919181C152.825000,154.496787 154.554022,154.976265 155.842271,154.984687C157.130520,154.993109 159.380520,155.965544 160.842271,157.145653L163.500000,159.291305 161.000000,158.695390 C158.721893,158.152365 158.659601,158.218917 160.298182,159.445211C161.909813,160.651336 161.641706,160.827728 157.713871,161.145474C155.303500,161.340463 152.480538,161.334999 151.440622,161.133332 Z"/>
<path d="M117.770644,43.811931 C117.533397,43.100190 117.912290,41.944853 118.612628,41.244515C119.328442,40.528701 119.837983,37.864481 119.776372,35.159680C119.659600,30.033197 120.383706,27.990559 122.309017,28.015313C123.036166,28.024662 122.927096,28.392941 122.028960,28.960940C119.565922,30.518613 121.410679,31.018381 124.228064,29.556704C126.485415,28.385576 126.786565,28.392628 126.321060,29.605715C125.601164,31.481733 128.717913,30.404689 131.660789,27.760483C132.849223,26.692662 134.649223,26.032517 135.660789,26.293494C137.313663,26.719924 137.296415,26.779750 135.490547,26.883999C134.385348,26.947799 132.946025,27.856780 132.292053,28.903957C131.289397,30.509464 131.369255,30.762958 132.801506,30.521120C133.735678,30.363384 134.387500,29.731603 134.250000,29.117163C134.112500,28.502724 134.481298,28.000000 135.069551,28.000000C135.657804,28.000000 135.995304,29.012500 135.819551,30.250000C135.553649,32.122253 134.828450,32.526658 131.500000,32.658783C129.300000,32.746113 126.959094,32.371435 126.297988,31.826164C125.636881,31.280894 124.174381,31.127266 123.047988,31.484769C121.374927,32.015778 120.994178,32.992025 120.968197,36.817388C120.936474,41.488052 118.657642,46.472925 117.770644,43.811931 Z"/>
<path d="M-0.000000,22.122837 L-0.000000,3.245674 4.750000,3.705619 C11.672900,4.375965 12.234544,4.831059 6.250000,4.921053L1.000000,5.000000 1.000000,14.426676 C1.000000,22.563577 1.239438,23.915923 2.750000,24.310674C4.416667,24.746220 4.416667,24.773521 2.750000,24.883999C1.687506,24.954428 1.000000,25.808906 1.000000,27.059017C1.000000,28.191476 1.450000,28.839919 2.000000,28.500000C2.577101,28.143332 2.993524,29.069897 2.984687,30.690983C2.972589,32.910389 2.756757,33.185151 1.956427,32.000000C1.204952,30.887196 1.015307,31.506381 1.221740,34.398723C1.557952,39.109413 3.961062,41.129921 6.982975,39.242705C8.077413,38.559217 9.563568,38.000000 10.285543,38.000000C11.729228,38.000000 14.057900,32.478485 13.900320,29.429002C13.821925,27.911905 13.629677,28.033832 13.000000,30.000000C12.322603,32.115173 12.184016,31.838797 12.099680,28.204545C12.026549,25.053171 11.340187,23.249278 9.522727,21.431818C8.160227,20.069318 6.697727,18.898329 6.272727,18.829619C3.701213,18.413884 2.000000,16.196087 2.000000,13.259453C2.000000,10.449370 2.344667,10.000000 4.500000,10.000000C6.333333,10.000000 7.000000,10.533333 7.000000,12.000000C7.000000,13.466667 7.666667,14.000000 9.500000,14.000000C11.680287,14.000000 12.000000,13.561778 12.000000,10.573324C12.000000,8.150708 11.487228,7.012647 10.250000,6.689326C8.696187,6.283272 8.711855,6.218998 10.389757,6.116001C12.944656,5.959171 14.958036,8.849659 14.836555,12.500000C14.738194,15.455647 14.725826,15.448255 14.000000,12.000000L13.263282,8.500000 13.131641,11.750000 C13.057926,13.569915 12.449967,15.030927 11.750000,15.070285C11.062500,15.108942 11.400000,15.527314 12.500000,16.000000C14.288762,16.768657 14.217092,16.866853 11.821429,16.929715C8.933498,17.005494 6.000000,14.737306 6.000000,12.428571C6.000000,11.642857 5.325000,11.000000 4.500000,11.000000C3.566667,11.000000 3.000000,11.944444 3.000000,13.500000C3.000000,14.889119 3.579694,16.000000 4.304583,16.000000C5.987941,16.000000 13.000000,22.406019 13.000000,23.943887C13.000000,24.589668 13.450000,24.839919 14.000000,24.500000C15.414374,23.625869 15.262371,30.190830 13.756521,35.015749C12.752122,38.233962 12.031123,39.013513 10.006521,39.070285C7.710346,39.134672 7.667839,39.212694 9.500000,40.000000C10.938949,40.618337 9.886977,40.879146 5.750000,40.929715L0.000000,41.000000 Z"/>
</g></svg>
