<?xml version="1.0" standalone="no"?>
<!DOCTYPE svg PUBLIC "-//W3C//DTD SVG 20010904//EN" "http://www.w3.org/TR/2001/REC-SVG-20010904/DTD/svg10.dtd">
<svg version="1.0" xmlns="http://www.w3.org/2000/svg" width="194pt" height="150pt" viewBox="0 0 194 150" preserveAspectRatio="xMidYMid meet">
<g fill="#fff" stroke="none">
<path d="M2.666667,125.333333 C2.300000,124.966667 2.000000,123.590109 2.000000,122.274316C2.000000,120.934060 1.560226,120.153761 1.000000,120.500000C0.338345,120.908926 0.000041,103.927081 0.000120,70.309017L0.000241,19.500000 27.349585,19.471964 C51.870514,19.446827 54.877011,19.265846 56.420893,17.721964C58.531164,15.611693 64.000000,15.388107 64.000000,17.412102C64.000000,18.287324 65.615847,19.113622 68.250000,19.585431C74.201169,20.651359 111.895448,20.177170 116.055638,18.984043C117.942775,18.442819 121.402267,18.000000 123.743398,18.000000C126.084529,18.000000 128.000000,17.550000 128.000000,17.000000C128.000000,16.450000 130.475000,16.000000 133.500000,16.000000C136.525000,16.000000 139.000000,16.450000 139.000000,17.000000C139.000000,18.824162 143.172218,18.057439 143.673329,16.141189C144.089557,14.549531 145.836706,14.121589 155.829710,13.163637C162.248369,12.548330 172.694735,11.831269 179.043855,11.570169C185.392975,11.309069 191.355475,10.800822 192.293855,10.440732C193.889897,9.828273 194.000000,13.508703 194.000000,67.472466L194.000000,125.158911 191.250000,124.559315 C185.612403,123.330125 182.343525,123.241249 176.516813,124.158744C172.423568,124.803282 170.423024,124.769071 170.183480,124.050439C169.651835,122.455506 168.000000,122.795606 168.000000,124.500000C168.000000,126.301945 166.035843,126.537644 165.916667,124.750000C165.870833,124.062500 165.605637,122.375000 165.327341,121.000000C165.049046,119.625000 164.601306,112.788709 164.332363,105.808243C163.966397,96.309536 163.505267,93.038936 162.499457,92.808243C161.431477,92.563290 161.525029,91.745158 162.955085,88.823663C164.752472,85.151740 164.751670,85.144750 162.286668,83.001459C160.929288,81.821232 159.184496,81.098961 158.409352,81.396411C157.634208,81.693862 157.000000,81.501354 157.000000,80.968615C157.000000,79.450527 160.618223,79.835061 162.000000,81.500000C162.684689,82.325000 163.658021,83.000000 164.162959,83.000000C165.579307,83.000000 164.331851,69.840549 162.814267,68.772605C161.775170,68.041379 161.763196,67.741051 162.757076,67.338177C163.681095,66.963622 163.468222,66.061927 161.953617,63.934860C159.792242,60.899489 159.073605,58.663513 158.502647,53.197459C158.312915,51.381062 157.684996,49.325370 157.107272,48.629255C156.529548,47.933140 155.506415,44.919283 154.833643,41.931795L153.610421,36.500000 152.940177,41.538665 C152.571542,44.309930 151.474718,48.115104 150.502789,49.994606C149.433314,52.062743 149.141569,53.547190 149.763818,53.754606C150.882821,54.127607 147.968261,63.128391 145.935262,65.578005C145.091113,66.595142 145.074683,67.000000 145.877555,67.000000C146.494900,67.000000 147.000000,67.660877 147.000000,68.468615C147.000000,69.427555 147.577499,69.715623 148.664045,69.298676C149.825111,68.853134 150.096800,69.034358 149.562894,69.898235C149.142037,70.579197 148.239909,70.922303 147.558166,70.660694C145.821711,69.994354 143.047770,71.968764 144.750000,72.659464C146.439562,73.345024 146.439562,81.994615 144.750000,82.015313C143.902544,82.025694 143.983053,82.372247 145.000000,83.091444C145.829541,83.678105 146.053027,84.341046 145.500000,84.574624C144.873363,84.839291 144.619033,90.971361 144.818812,100.998493C145.126223,116.427784 145.066265,117.000000 143.142136,117.000000C142.044618,117.000000 140.940853,116.212500 140.689326,115.250000L140.232003,113.500000 140.116001,115.250000 C139.910476,118.350556 138.246545,117.112958 137.427032,113.250000C136.757472,110.093885 136.567096,109.882025 136.224929,111.912240C135.840947,114.190565 133.823502,117.000000 132.571429,117.000000C132.257143,117.000000 131.964474,116.212500 131.921053,115.250000C131.873890,114.204562 131.639036,114.003259 131.337719,114.750000C131.060307,115.437500 130.169276,116.000000 129.357650,116.000000C128.546024,116.000000 128.140864,115.581094 128.457295,115.069098C128.773726,114.557102 128.564134,113.848654 127.991535,113.494769C127.418937,113.140883 127.074096,113.391039 127.225223,114.050670C127.376351,114.710302 126.937500,115.456250 126.250000,115.708333C125.551303,115.964522 124.965181,115.358089 124.921053,114.333333C124.875789,113.282222 124.626901,113.033333 124.337719,113.750000C123.628189,115.508401 121.000000,115.311546 121.000000,113.500000C121.000000,112.675000 120.550000,112.000000 120.000000,112.000000C119.450000,112.000000 119.000000,112.450000 119.000000,113.000000C119.000000,114.785164 116.002481,114.055000 115.921053,112.250000C115.873890,111.204562 115.639036,111.003259 115.337719,111.750000C114.583369,113.619476 111.213818,113.257034 110.689326,111.250000C110.276678,109.670957 110.220671,109.681408 110.116001,111.356989C110.037125,112.619671 109.493768,113.019718 108.418213,112.606989C107.548229,112.273145 106.648229,112.000000 106.418213,112.000000C106.188196,112.000000 106.000000,111.325000 106.000000,110.500000C106.000000,109.675000 105.550000,109.000000 105.000000,109.000000C104.450000,109.000000 104.000000,109.723145 104.000000,110.606989C104.000000,111.661510 103.456196,112.005300 102.418213,111.606989C101.548229,111.273145 100.648229,111.000000 100.418213,111.000000C100.188196,111.000000 100.000000,106.076558 100.000000,100.059017C100.000000,88.343307 98.533289,84.499152 97.380090,93.192398C96.773582,97.764478 96.551714,98.162461 95.688207,96.227269C95.141597,95.002271 94.313138,94.000000 93.847186,94.000000C93.381234,94.000000 92.955144,92.987500 92.900320,91.750000C92.805691,89.614015 92.765353,89.626683 92.104280,92.000000C91.497118,94.179774 91.318655,94.267723 90.711023,92.686618C90.327730,91.689258 89.569652,91.147936 89.026406,91.483680C88.469728,91.827726 87.756269,90.327981 87.391535,88.047062C86.563918,82.871431 85.434247,82.882905 84.603937,88.075376C84.191852,90.652417 83.501465,91.998260 82.726129,91.735981C82.051758,91.507856 80.998176,92.486437 80.384835,93.910604C79.313848,96.397418 79.239575,96.308844 78.510017,91.674818C77.561039,85.647076 76.212747,86.767809 75.807284,93.921397C75.625237,97.133238 74.990547,99.510684 74.250000,99.754731C73.518180,99.995901 73.000000,99.303033 73.000000,98.083333C73.000000,96.937500 72.550000,96.000000 72.000000,96.000000C71.450000,96.000000 71.000000,96.707996 71.000000,97.573324C71.000000,98.531401 70.315664,99.016960 69.250000,98.815008C68.026977,98.583234 67.406540,97.356634 67.189635,94.741683C66.797243,90.011110 65.000000,89.812737 65.000000,94.500000C65.000000,96.944444 64.547619,98.000000 63.500000,98.000000C62.628205,98.000000 62.000000,98.907407 62.000000,100.166667C62.000000,103.404964 61.277542,102.019544 60.705571,97.684407C60.102038,93.110061 59.000000,91.590937 59.000000,95.333333C59.000000,98.556547 57.049798,98.939986 56.880800,95.750000C56.771140,93.680071 54.566355,102.517643 53.461882,109.454252C52.568358,115.066008 49.000000,115.455267 49.000000,109.940983C49.000000,108.323442 48.528513,107.000000 47.952251,107.000000C46.485143,107.000000 42.000000,101.992086 42.000000,100.353977C42.000000,99.609290 41.439128,99.112500 40.753617,99.250000C38.920155,99.617756 37.147616,102.221107 37.718232,103.708108C37.990892,104.418649 37.770933,105.000000 37.229434,105.000000C35.769719,105.000000 34.252478,102.830921 33.732000,100.000000C33.343977,97.889511 33.251146,98.006365 33.136182,100.750000C33.061282,102.537500 33.397516,104.000000 33.883369,104.000000C34.369221,104.000000 35.002093,104.900000 35.289749,106.000000C35.775701,107.858285 38.526077,108.623146 42.750000,108.074646C44.341036,107.868041 44.372701,110.227299 42.800000,111.800000C41.866667,112.733333 42.081914,113.000000 43.768615,113.000000C45.285430,113.000000 45.764227,112.549159 45.361626,111.500000C45.008648,110.580152 45.362466,110.000000 46.276434,110.000000C47.096160,110.000000 47.961324,111.012500 48.199019,112.250000C48.609623,114.387709 48.365818,114.482899 43.313841,114.157349C40.389298,113.968890 38.165970,113.518890 38.373113,113.157349C38.580256,112.795807 38.387674,111.600000 37.945153,110.500000C37.181655,108.602126 37.136982,108.614892 37.070285,110.750000C37.020972,112.328644 36.388421,113.000000 34.950340,113.000000C33.823027,113.000000 31.541184,113.703023 29.879577,114.562273C27.520266,115.782320 27.103013,116.419196 27.974801,117.469637C28.871731,118.550372 28.089827,119.029469 23.996343,119.907364C17.330989,121.336827 16.954329,121.308050 15.392046,119.250000C13.790588,117.140342 13.599893,115.634686 15.047467,116.529336C15.623575,116.885390 18.358947,116.633579 21.126072,115.969756C25.910554,114.821976 26.043048,114.703067 23.828605,113.544303C22.547872,112.874127 21.050000,112.664229 20.500000,113.077864C19.172816,114.075989 17.883063,114.007785 15.668043,112.822342C14.280136,112.079557 13.499188,112.285253 12.446200,113.670954C11.681763,114.676929 11.254521,116.062500 11.496773,116.750000C12.111691,118.495112 10.977773,121.104297 9.895215,120.435239C9.402847,120.130939 9.000000,120.792691 9.000000,121.905799C9.000000,124.644352 4.443575,127.110242 2.666667,125.333333 Z"/>
<path d="M148.250000,79.337719 C146.827695,78.763807 146.611025,75.161983 147.878515,73.162326C148.991499,71.406426 155.592561,71.037194 155.250000,72.750000C155.112500,73.437500 155.458573,74.000000 156.019052,74.000000C156.606697,74.000000 156.772474,72.941646 156.410644,71.500000C155.898531,69.459581 156.149635,69.000000 157.776582,69.000000C160.317338,69.000000 163.034382,73.104129 162.883999,76.714817C162.815347,78.363139 162.583071,78.794740 162.314948,77.772191C161.896145,76.174988 161.678142,76.164784 159.430949,77.637201C157.274374,79.050243 157.000000,79.057144 157.000000,77.698343C157.000000,76.855921 157.562500,75.939693 158.250000,75.662281C159.015932,75.353220 158.841548,75.127322 157.799690,75.078947C156.864520,75.035526 155.739520,75.609307 155.299690,76.354015C154.589625,77.556280 150.637965,80.126640 149.815741,79.921053C149.642084,79.877632 148.937500,79.615132 148.250000,79.337719 Z"/>
<path d="M157.000000,65.785714 C157.000000,65.353571 156.212500,64.971476 155.250000,64.936614C153.972535,64.890343 154.142352,64.616148 155.878907,63.921152C157.495093,63.274330 158.697411,63.333911 159.628907,64.106983C161.555568,65.705970 161.334710,66.571429 159.000000,66.571429C157.900000,66.571429 157.000000,66.217857 157.000000,65.785714 Z"/>
</g></svg>
