<?xml version="1.0" standalone="no"?>
<!DOCTYPE svg PUBLIC "-//W3C//DTD SVG 20010904//EN" "http://www.w3.org/TR/2001/REC-SVG-20010904/DTD/svg10.dtd">
<svg version="1.0" xmlns="http://www.w3.org/2000/svg" width="388pt" height="300pt" viewBox="0 0 388 300" preserveAspectRatio="xMidYMid meet">
<g fill="white" stroke="none">
<path d="M0.223387,273.000000 C-0.009010,241.263652 0.260423,238.374533 3.510428,237.753256C5.464750,237.379663 5.874568,237.829703 6.383915,240.908759C6.710656,242.883942 6.982941,245.998255 6.988994,247.829455C6.999664,251.057143 7.099339,251.138129 10.250000,250.479015C14.928853,249.500205 16.355696,247.710202 16.173030,243.048453C16.028403,239.357462 16.234501,239.000000 18.507198,239.000000C19.878239,239.000000 21.037500,238.437500 21.083333,237.750000C21.129167,237.062500 21.277426,235.508371 21.412797,234.296380C21.548169,233.084389 21.285669,232.323447 20.829464,232.605397C20.373259,232.887347 20.000000,232.389919 20.000000,231.500000C20.000000,230.610081 20.402847,230.130939 20.895215,230.435239C21.387584,230.739540 22.048460,230.316097 22.363830,229.494256C22.679200,228.672415 23.738854,227.986316 24.718615,227.969591C26.402255,227.940851 26.404359,227.883468 24.756955,226.923793C23.130447,225.976292 23.123671,225.740887 24.655608,223.402856C25.803527,221.650911 26.613525,221.213525 27.348653,221.948653C27.926894,222.526894 29.435000,223.000000 30.700000,223.000000C32.117324,223.000000 33.000000,223.598825 33.000000,224.560365C33.000000,225.751963 33.886252,226.047381 36.750000,225.810365C39.095085,225.616276 40.406339,225.031695 40.250000,224.250000C40.112500,223.562500 40.675000,223.000000 41.500000,223.000000C42.325000,223.000000 43.000000,223.387598 43.000000,223.861328C43.000000,224.335059 44.125000,224.507599 45.500000,224.244751C47.273666,223.905693 48.000000,224.205432 48.000000,225.276434C48.000000,227.623824 50.764875,228.125081 54.682929,226.488014C58.215785,225.011892 58.248917,224.942325 57.773825,219.997949C57.509693,217.249077 57.677528,215.000000 58.146793,215.000000C58.616057,215.000000 59.000000,217.706614 59.000000,221.014698C59.000000,226.696548 58.824677,227.136017 55.831844,228.956067C53.674512,230.268020 51.710558,230.692112 49.676353,230.285271C47.370910,229.824182 46.873909,229.986964 47.499018,230.998410C48.045866,231.883230 47.919712,232.068413 47.110704,231.568419C46.451631,231.161089 45.257102,231.371661 44.456195,232.036355C43.314840,232.983596 42.670465,232.971399 41.475834,231.979944C40.637543,231.284224 39.638075,231.028592 39.254794,231.411872C38.871514,231.795153 39.219889,232.563756 40.028960,233.119880C41.127370,233.874882 40.898328,233.960626 39.124771,233.458373C37.355627,232.957369 36.948757,233.108070 37.530262,234.048964C38.127285,235.014969 37.509700,235.158151 34.905491,234.657496C32.831930,234.258856 32.030647,234.344472 32.856763,234.876397C33.810270,235.490349 33.882295,235.954712 33.099092,236.438758C32.079346,237.068995 29.000000,234.914982 29.000000,233.571429C29.000000,233.257143 30.542857,233.000000 32.428571,233.000000C34.314286,233.000000 36.564286,232.292857 37.428571,231.428571C39.387014,229.470129 39.400841,229.000000 37.500000,229.000000C36.675000,229.000000 36.112500,229.506250 36.250000,230.125000C36.387500,230.743750 35.865793,231.480152 35.090650,231.761450C34.160149,232.099127 33.873681,231.771566 34.247514,230.797373C34.707849,229.597759 33.869848,229.370069 29.766059,229.579731C24.920610,229.827285 23.049205,230.983344 23.015313,233.750000C23.006891,234.437500 23.435877,235.000000 23.968615,235.000000C24.501354,235.000000 24.678209,234.325000 24.361626,233.500000C24.045044,232.675000 24.247363,232.000000 24.811224,232.000000C25.375084,232.000000 26.521573,231.737084 27.358976,231.415742C28.524631,230.968439 28.814565,231.459552 28.595859,233.510871C28.438741,234.984534 27.677897,236.590559 26.905095,237.079816C25.916005,237.706004 26.462224,237.973908 28.750000,237.984687C31.673755,237.998463 32.000000,238.294142 32.000000,240.930194C32.000000,243.772628 32.097339,243.830714 35.250000,242.869594C37.037500,242.324657 39.400000,241.739118 40.500000,241.568396C46.258218,240.674710 50.074635,239.688255 50.512041,238.980517C50.781514,238.544501 51.901544,238.422998 53.000996,238.710511C54.100448,238.998025 55.002018,238.843279 55.004484,238.366631C55.006950,237.889984 56.554826,237.421380 58.444208,237.325289C60.852280,237.202818 61.734359,237.528674 61.394215,238.415075C61.127337,239.110548 61.604461,240.256769 62.454491,240.962231C63.798656,242.077789 64.000000,241.786908 64.000000,238.729434C64.000000,235.179182 65.315997,233.912564 68.831787,234.078947C69.783812,234.124001 69.319385,234.589092 67.750000,235.162281C65.482563,235.990420 65.000000,236.766215 65.000000,239.583333C65.000000,243.244619 63.991608,243.899741 62.017440,241.521013C61.130417,240.452217 60.286795,240.311328 58.975665,241.013024C57.780735,241.652531 57.045785,241.637356 56.822858,240.968573C56.623102,240.369305 55.122509,240.225498 53.161527,240.617695C50.769169,241.096166 50.211301,241.533160 51.169340,242.178232C52.005926,242.741528 51.014801,242.870787 48.500000,242.526358C45.559750,242.123659 45.029875,242.227677 46.500000,242.918972C48.359979,243.793588 48.324974,243.865422 46.000000,243.945028C42.840330,244.053212 40.552171,245.466380 41.376648,246.800412C42.047497,247.885869 40.202676,247.883720 38.467077,246.797024C37.898969,246.441319 34.687057,246.399386 31.329495,246.703839L25.224836,247.257390 25.762312,251.378695 C26.057924,253.645413 26.794836,255.830609 27.399894,256.234687C28.042928,256.664126 27.622785,256.975737 26.388672,256.984687C24.640607,256.997365 24.364663,256.543220 24.784852,254.345142C25.228242,252.025696 25.021214,251.761190 23.146180,252.251522C21.965781,252.560203 21.000000,252.437885 21.000000,251.979705C21.000000,251.521524 21.787500,250.940853 22.750000,250.689326C24.066910,250.345181 23.943170,250.203295 22.250000,250.116001C19.950078,249.997426 19.400949,248.492003 20.834064,246.234249C21.394635,245.351116 23.581573,245.095025 28.068751,245.387065C31.605938,245.617276 33.536146,245.599441 32.358103,245.347431C30.812647,245.016823 30.357813,244.347726 30.724734,242.944615C31.093542,241.534292 30.720397,240.995793 29.366631,240.984687C27.795481,240.971798 27.737445,240.815926 29.000000,240.000000C30.164698,239.247314 29.872088,239.027203 27.690983,239.015313C26.146024,239.006891 25.136327,239.411565 25.447214,239.914590C25.758100,240.417614 25.447157,241.058355 24.756231,241.338459C23.803180,241.724828 23.862011,242.123023 25.000000,242.988387C26.189668,243.893049 25.730098,244.054479 22.778651,243.768663C18.987689,243.401550 18.000000,244.247085 18.000000,247.859547C18.000000,250.578069 14.712404,252.644218 10.099143,252.824984C7.746142,252.917183 5.341068,253.289209 4.754534,253.651706C4.024114,254.103130 3.869057,252.607682 4.262408,248.905396C4.578272,245.932428 4.473007,242.600000 4.028486,241.500000C3.287190,239.665607 3.122021,239.748410 2.033782,242.500000C1.239315,244.508793 0.955125,250.759275 1.173649,261.417783C1.544537,279.507874 0.897980,278.463303 10.788076,276.950747C13.935748,276.469354 15.748983,276.606897 16.250000,277.365061C16.781841,278.169871 17.286424,278.063682 17.984687,277.000000C18.834450,275.705534 18.971473,275.731703 18.984687,277.190983C19.006095,279.555073 17.588116,280.174100 14.682181,279.069265C13.315072,278.549491 9.691911,278.382721 6.630711,278.698665L1.064893,279.273108 0.744828,289.886554 C0.568792,295.723949 0.334144,288.125000 0.223387,273.000000 Z"/>
<path d="M73.312397,285.683792 C73.185636,281.121695 73.503374,278.977689 74.313341,278.929715C74.966004,278.891058 74.664621,278.530874 73.643601,278.129306C71.094240,277.126640 69.252190,272.147289 70.081357,268.500000C70.740798,265.599290 70.772681,265.632386 71.044682,269.500000C71.313917,273.328290 71.356991,273.263899 72.048086,268.000000L72.770178,262.500000 72.635089,269.157663 C72.560790,272.819377 72.837500,275.605320 73.250000,275.348646C73.662500,275.091972 74.000000,275.385081 74.000000,276.000000C74.000000,276.614919 74.450000,276.839919 75.000000,276.500000C75.567158,276.149477 76.000000,276.989616 76.000000,278.440983C76.000000,279.848442 75.437500,281.031628 74.750000,281.070285C74.062500,281.108942 74.400000,281.527314 75.500000,282.000000C77.295528,282.771565 77.314197,282.866615 75.682612,282.929715C74.282409,282.983866 74.013684,283.516491 74.511959,285.250000C76.020895,290.499613 76.161845,291.544611 75.166784,290.104853C74.380094,288.966588 74.137701,289.046461 73.850333,290.538644C73.656611,291.544561 73.414540,289.359877 73.312397,285.683792 Z"/>
<path d="M86.750000,282.294267 C87.987500,282.055914 89.000000,281.190638 89.000000,280.371432C89.000000,279.552226 89.411565,279.136327 89.914590,279.447214C90.417614,279.758100 91.282088,278.772157 91.835642,277.256231C92.389197,275.740304 92.877632,275.033205 92.921053,275.684900C92.964474,276.336596 92.561138,278.024096 92.024751,279.434900C91.066365,281.955645 92.336306,283.224924 93.340536,280.750000C93.722226,279.809324 94.110248,279.871189 94.908556,281.000000C95.766797,282.213555 95.972299,281.990765 95.984687,279.833333C95.993109,278.366667 95.449106,276.983035 94.775790,276.758597C94.101325,276.533775 94.452312,276.114980 95.557393,275.825995C97.332263,275.361856 97.523353,275.715870 97.217085,278.900732C96.954116,281.635314 97.123025,282.139641 97.920170,281.000000L98.969374,279.500000 99.054972,281.000000 C99.112636,282.010486 99.421039,281.847314 100.000000,280.500000C100.767147,278.714752 100.866976,278.694245 100.929715,280.309017C100.969265,281.326964 101.467105,281.829347 102.068174,281.457866C102.655669,281.094774 102.914337,280.219150 102.642992,279.512034C102.303863,278.628278 102.797684,278.395838 104.222678,278.768483C106.091333,279.257147 106.134785,279.428274 104.663404,280.504175C103.765630,281.160643 103.324092,281.990759 103.682210,282.348877C104.040328,282.706995 99.870833,282.938718 94.416667,282.863818C88.962500,282.788918 85.512500,282.532620 86.750000,282.294267 Z"/>
<path d="M244.000000,279.833997 C244.000000,279.035918 250.488720,278.689109 263.567432,278.788157L269.634864,278.834107 269.875123,274.192696 C270.007265,271.639921 270.314420,269.352247 270.557690,269.108976C271.345309,268.321357 270.994815,278.459956 270.190665,279.725738C269.291109,281.141696 244.000000,281.246237 244.000000,279.833997 Z"/>
<path d="M375.395341,277.386166 C374.787778,277.135400 374.488401,275.895926 374.730058,274.631780C375.038946,273.015934 374.698799,272.333333 373.584717,272.333333C372.713123,272.333333 372.000000,272.708333 372.000000,273.166667C372.000000,273.625000 371.523442,274.000000 370.940983,274.000000C370.358524,274.000000 370.160081,273.550000 370.500000,273.000000C370.839919,272.450000 370.641476,272.000000 370.059017,272.000000C369.476558,272.000000 369.000000,272.914123 369.000000,274.031385C369.000000,276.594496 366.276047,277.716219 364.494508,275.886744C363.035141,274.388110 363.568015,269.000000 365.175594,269.000000C365.693936,269.000000 365.832483,269.462032 365.483476,270.026737C365.070222,270.695395 366.491742,270.900004 369.559462,270.613423C374.975867,270.107431 376.798085,271.278576 376.302280,274.947056L375.957243,277.500000 377.025330,275.036625 C378.404767,271.855170 378.423316,271.841475 380.351128,272.581246C381.251690,272.926824 381.727357,273.632129 381.408167,274.148590C381.088976,274.665051 381.371661,275.742898 382.036355,276.543805C382.782159,277.442444 382.847029,278.000000 382.205778,278.000000C381.634267,278.000000 380.734649,276.762500 380.206627,275.250000L379.246586,272.500000 378.514885,275.250000 C377.781558,278.006110 377.449035,278.233812 375.395341,277.386166 Z"/>
<path d="M212.114999,275.343620 C212.050464,274.694681 211.122362,274.416747 210.000000,274.710251C208.122882,275.201128 208.010605,274.780648 208.172599,267.866631L208.345198,260.500000 208.922599,266.500000 C209.269762,270.107512 209.998435,272.599687 210.750000,272.750000C211.708179,272.941636 212.000000,269.278470 212.000000,257.059017C212.000000,247.770856 212.407357,240.866274 212.976077,240.514785C214.158857,239.783787 214.197912,266.569981 213.022711,272.500000C212.586719,274.700000 212.178249,275.979629 212.114999,275.343620 Z"/>
<path d="M79.879928,268.250000 C79.842901,265.087500 79.742270,259.934795 79.656303,256.799545C79.559272,253.260761 79.993423,250.606288 80.801186,249.799545C81.869297,248.732781 81.980738,249.306062 81.423326,253.000000C80.743952,257.502180 82.228481,257.900474 83.286934,253.500000C83.551519,252.400000 83.820198,253.385942 83.883999,255.690983C83.947799,257.996024 83.550000,260.160081 83.000000,260.500000C82.450000,260.839919 82.000000,264.016476 82.000000,267.559017C82.000000,271.296681 81.569224,274.000000 80.973625,274.000000C80.398598,274.000000 79.917646,271.471443 79.879928,268.250000 Z"/>
<path d="M331.074252,251.328796 C330.234397,249.006217 330.136100,247.463900 330.786480,246.813520C331.436860,246.163140 332.003765,246.197075 332.446149,246.912868C332.815686,247.510790 333.568034,248.000000 334.118034,248.000000C334.668034,248.000000 334.912841,247.662500 334.662050,247.250000C334.411259,246.837500 335.235978,245.728243 336.494760,244.784985C338.694199,243.136853 338.887182,243.166102 341.443249,245.534985C344.682173,248.536719 347.991507,248.748483 348.710251,246.000000C349.289622,243.784482 351.792263,243.294653 352.542155,245.250000C352.899376,246.181454 356.140542,246.415653 365.260771,246.169017C375.836998,245.883006 378.105423,246.111528 381.955744,247.850877C384.406404,248.957940 386.768904,249.642825 387.205744,249.372843C388.239924,248.733685 388.204089,251.130089 387.154738,252.783870C386.279825,254.162733 383.000000,253.412884 383.000000,251.833994C383.000000,251.310379 383.519529,251.203052 384.154508,251.595492C384.875548,252.041119 385.037333,251.869424 384.585410,251.138197C384.187426,250.494245 383.392586,250.257368 382.819098,250.611803C382.245610,250.966238 381.393136,250.636079 380.924710,249.878115C380.352768,248.952650 377.939780,248.471435 373.578257,248.413033C370.006133,248.365201 367.274368,248.634920 367.507669,249.012409C367.740969,249.389897 365.610289,249.239721 362.772823,248.678684C358.939294,247.920700 357.513533,247.959400 357.223564,248.829308C357.008937,249.473189 356.195833,250.000000 355.416667,250.000000C354.637500,250.000000 354.000000,250.387998 354.000000,250.862219C354.000000,251.336439 351.531374,251.614724 348.514165,251.480629C345.496955,251.346534 343.217263,251.542522 343.448182,251.916156C343.679100,252.289791 343.438585,253.249006 342.913702,254.047746C342.117999,255.258606 341.630307,255.107591 339.979685,253.139216C338.224795,251.046501 337.519882,251.361504 337.831329,254.099249C337.868822,254.428836 336.650819,254.734000 335.124655,254.777393C332.827687,254.842701 332.130136,254.248791 331.074252,251.328796 Z"/>
<path d="M331.289749,243.000000 C331.629671,241.700137 331.320431,241.000000 330.406380,241.000000C329.236939,241.000000 329.000000,236.956610 329.000000,217.000000C329.000000,193.909912 328.926411,193.000000 327.059017,193.000000C325.991476,193.000000 324.880094,192.615006 324.589279,192.144457C324.298464,191.673908 325.171907,191.501368 326.530262,191.761034L329.000000,192.233154 329.000000,183.057560 C329.000000,177.649194 328.617799,174.118179 328.069098,174.457295C327.557102,174.773726 326.812574,174.505755 326.414590,173.861803C326.016606,173.217852 326.119497,172.955819 326.643237,173.279508C327.166977,173.603198 328.156934,173.521044 328.843141,173.096944C330.014157,172.373217 326.143359,169.089762 319.609920,165.264742C318.448640,164.584868 318.109714,164.022856 318.856096,164.014742C319.601948,164.006634 321.924809,165.356418 324.018008,167.014263C326.669788,169.114511 327.979065,169.645163 328.335781,168.764263C328.725454,167.801977 329.096391,167.858285 329.888751,169.000000C330.561954,169.970021 330.752462,176.683094 330.427944,188.000000C329.937333,205.109073 331.172560,236.779095 332.543859,242.250000C333.016588,244.135993 332.845700,245.000000 331.999946,245.000000C331.259067,245.000000 330.975537,244.201547 331.289749,243.000000 Z"/>
<path d="M293.250000,236.220281 C290.654447,235.805704 290.387280,234.753402 292.444172,233.046333C293.238467,232.387127 294.062821,230.194527 294.276069,228.173888C294.628102,224.838197 294.679268,224.929586 294.831897,229.166667C294.937625,232.101762 294.536186,234.020486 293.750000,234.337719C293.062500,234.615132 294.187500,234.877632 296.250000,234.921053L300.000000,235.000000 300.106299,229.250000 C300.164764,226.087500 300.312791,222.825000 300.435249,222.000000C300.557707,221.175000 300.734872,219.262500 300.828950,217.750000C301.116746,213.123058 303.000000,214.698103 303.000000,219.565741C303.000000,222.076899 303.474825,225.114399 304.055166,226.315741C305.074451,228.425723 305.057448,228.433991 303.555166,226.558870C302.087177,224.726553 301.991169,224.866693 301.842466,229.058870C301.755822,231.501492 301.710822,234.092500 301.742466,234.816667C301.774110,235.540833 301.586127,235.919460 301.324727,235.658060C301.063327,235.396660 299.645827,235.497085 298.174727,235.881225C296.703627,236.265366 294.487500,236.417941 293.250000,236.220281 Z"/>
<path d="M276.250000,235.269359 C275.408685,234.975891 275.000000,232.517453 275.000000,227.750000C275.000000,223.854167 274.662500,221.004167 274.250000,221.416667C273.347502,222.319165 273.322539,222.482340 272.975168,229.750000C272.823358,232.926145 272.513859,234.269026 272.283746,232.750000C271.763218,229.313886 270.000000,229.120868 270.000000,232.500000C270.000000,234.500000 269.500000,235.000000 267.500000,235.000000C266.125000,235.000000 265.000000,234.519676 265.000000,233.932612C265.000000,233.320300 264.147311,233.135858 263.000000,233.500000L261.000000,234.134775 259.000000,233.500000 C257.591540,233.052972 256.965006,231.923904 256.881685,229.682612L256.763370,226.500000 256.097304,229.500000 C255.373692,232.759183 255.734863,232.706840 246.000000,230.963370C240.354553,229.952295 236.822654,229.431349 233.750000,229.156524C232.787500,229.070436 232.000000,228.493750 232.000000,227.875000C232.000000,227.165886 233.076507,226.965301 234.912021,227.332404C237.751820,227.900364 237.840954,227.791836 238.505988,222.956462C239.261074,217.466331 240.581843,217.254108 241.559564,222.465810C241.909929,224.333419 242.855881,226.114455 243.661678,226.423668C244.467475,226.732882 244.846685,227.439053 244.504365,227.992937C244.162046,228.546822 244.332042,229.000000 244.882134,229.000000C245.432226,229.000000 246.310592,227.087500 246.834059,224.750000C247.357525,222.412500 247.865635,221.400000 247.963193,222.500000L248.140571,224.500000 249.000000,222.500000 C249.828591,220.571764 249.861951,220.578617 249.929715,222.690983C249.968372,223.896024 250.430347,225.147935 250.956326,225.473008C251.482305,225.798081 251.681444,226.666570 251.398855,227.402983C251.116267,228.139396 251.563902,229.002412 252.393600,229.320797C253.517610,229.752120 254.142218,228.829129 254.843978,225.699839C255.361989,223.389928 255.834007,222.314058 255.892908,223.309017C255.951809,224.303976 256.395211,224.873780 256.878246,224.575248C257.860794,223.968000 259.283211,229.732737 258.473928,231.042185C258.189493,231.502410 258.835361,231.812776 259.909190,231.731887C260.983018,231.650998 261.797677,231.340733 261.719542,231.042408C261.350374,229.632894 263.054428,224.000000 263.850000,224.000000C264.345000,224.000000 265.018179,225.340893 265.345952,226.979762C265.774665,229.123325 266.370996,229.794866 267.470952,229.372773C268.311929,229.050060 269.000000,228.073159 269.000000,227.201882C269.000000,225.918459 269.278709,225.986226 270.468197,227.558870C271.861305,229.400724 271.938020,229.340923 271.968197,226.389571C272.023764,220.954952 273.240630,214.000000 274.135924,214.000000C274.611166,214.000000 275.000000,215.350000 275.000000,217.000000C275.000000,218.650000 275.388304,220.000000 275.862898,220.000000C276.337492,220.000000 276.733116,221.012500 276.742063,222.250000C276.797675,229.942065 277.093464,233.000000 277.781892,233.000000C278.211933,233.000000 278.662437,231.808001 278.783013,230.351113C278.903589,228.894225 279.532108,227.063775 280.179723,226.283447C281.170060,225.090164 281.561592,225.233030 282.643167,227.182334C283.350446,228.457050 283.945075,230.317824 283.964565,231.317388C283.992284,232.739064 284.489907,232.981888 286.250000,232.432606C289.618589,231.381354 290.057507,230.113174 289.514637,223.000000C289.241796,219.425000 288.786033,206.545383 288.501829,194.378630C288.096457,177.024663 288.263318,172.026355 289.276086,171.185832C290.095459,170.505813 291.102797,170.453228 292.033538,171.041890C293.271651,171.824952 293.236856,171.971759 291.810084,171.984687C290.387189,171.997580 290.185229,172.829545 290.531926,177.250000C291.085499,184.308166 291.449267,222.191357 291.025783,228.680783C290.730830,233.200611 290.377824,233.939340 288.258807,234.471180C285.106870,235.262265 282.000000,234.250321 282.000000,232.432612C282.000000,231.644676 281.550000,231.000000 281.000000,231.000000C280.450000,231.000000 280.000000,231.851855 280.000000,232.893011C280.000000,234.910690 278.303589,235.985693 276.250000,235.269359 Z"/>
<path d="M306.318539,235.199320 C303.534483,234.922956 303.147247,234.525853 303.218487,232.020272C303.291142,229.464882 303.462484,229.319627 304.812127,230.669270C306.103922,231.961064 306.118506,232.311810 304.912179,233.075438C303.769531,233.798756 303.834008,233.972297 305.250000,233.984687C306.730473,233.997642 307.001695,233.037402 307.011006,227.750000C307.023328,220.752325 307.941265,214.001128 308.880842,213.997821C309.221379,213.996623 309.357614,218.496623 309.183587,223.997821C308.894515,233.135691 309.024133,233.993178 310.683587,233.921053C311.733577,233.875417 311.972571,233.629283 311.250000,233.337719C310.437870,233.010018 310.000000,230.652553 310.000000,226.607796C310.000000,223.183751 310.562500,219.612995 311.250000,218.672782C312.284160,217.258484 312.500000,218.511670 312.500000,225.930398C312.500000,235.707616 312.434124,235.806394 306.318539,235.199320 Z"/>
<path d="M98.408292,232.851613 C98.165081,232.458090 99.211220,231.947915 100.733045,231.717890C102.254870,231.487866 100.125000,231.138209 96.000000,230.940874C91.875000,230.743540 86.925000,230.503656 85.000000,230.407800C83.075000,230.311943 80.692841,229.900286 79.706313,229.493005C78.719786,229.085724 76.410378,228.996275 74.574297,229.294230C72.738215,229.592185 70.786826,229.386826 70.237876,228.837876C69.573754,228.173754 67.944886,228.199331 65.369892,228.914315C63.241451,229.505307 60.600000,229.951118 59.500000,229.905006C58.400000,229.858893 59.750000,229.173384 62.500000,228.381652C67.731973,226.875353 73.269202,227.027598 92.290369,229.200731C99.744537,230.052356 102.361926,230.038074 103.259119,229.140881C104.163627,228.236373 103.728151,228.104370 101.385417,228.572917C99.234553,229.003089 98.279199,228.787166 98.150003,227.841667C97.780529,225.137748 97.254496,220.453846 97.128948,218.750000C97.058027,217.787500 96.298442,217.000000 95.440983,217.000000C94.583524,217.000000 94.148041,216.569482 94.473243,216.043294C94.833305,215.460702 92.998926,215.257926 89.782260,215.524743L84.500000,215.962898 88.500000,214.621684 C91.676589,213.556562 92.088295,213.172555 90.500000,212.756236C88.759386,212.299992 88.735702,212.216958 90.317388,212.116001C91.700087,212.027746 91.973441,211.491681 91.460254,209.874771C91.038421,208.545692 91.165197,207.984063 91.798668,208.375570C92.452315,208.779546 92.756340,206.409584 92.655802,201.693976C92.548103,196.642560 92.823160,194.688518 93.546683,195.365034C94.128933,195.909454 94.421574,198.757131 94.206201,201.782779C93.598544,210.319418 94.550185,213.660247 97.772715,214.303386C100.404558,214.828638 100.488012,215.042823 100.157450,220.423843C99.876259,225.001181 100.100163,226.000000 101.407450,226.000000C102.631304,226.000000 103.000000,224.944529 103.000000,221.440983C103.000000,218.852076 103.405982,217.132876 103.939479,217.462596C104.456193,217.781943 104.823897,217.246000 104.756600,216.271613C104.547085,213.238077 106.010781,208.888629 107.029317,209.518119C107.563193,209.848072 108.000000,211.243034 108.000000,212.618034C108.000000,214.030057 107.564809,214.849071 107.000000,214.500000C106.450000,214.160081 106.000000,214.358524 106.000000,214.940983C106.000000,215.523442 106.900000,216.000000 108.000000,216.000000C109.333333,216.000000 110.000000,215.333333 110.000000,214.000000C110.000000,212.756071 110.661562,212.005789 111.750000,212.015313C113.134058,212.027423 113.211823,212.213154 112.121885,212.903509C111.363921,213.383595 111.052979,214.276705 111.430902,214.888197C111.808824,215.499688 111.641476,216.000000 111.059017,216.000000C109.204081,216.000000 109.921717,217.746266 112.000000,218.289749C113.681539,218.729481 114.000000,218.320431 114.000000,215.720832C114.000000,213.922577 113.090259,211.660528 111.825686,210.314451C110.118151,208.496863 109.983374,208.000000 111.197878,208.000000C113.131052,208.000000 114.618968,200.218968 112.996120,198.596120C111.420607,197.020607 110.133071,199.584775 110.456011,203.654829C110.601993,205.494673 110.366202,207.000000 109.932030,207.000000C109.048876,207.000000 109.480978,200.085655 110.838186,192.500000C111.645242,187.989232 111.748960,187.842462 111.898191,191.000000C111.989169,192.925000 112.724295,195.373508 113.531803,196.441130C114.972314,198.345656 115.000000,198.342513 115.000000,196.274463C115.000000,195.115175 114.478927,193.992976 113.842059,193.780686C113.095718,193.531906 112.935725,192.392229 113.391956,190.574461C114.041982,187.984551 114.205503,187.898782 115.394116,189.524308C116.549413,191.104270 116.815304,190.790574 117.869538,186.603831C119.744760,179.156649 121.267752,182.164320 122.627468,196.000000C123.250984,202.344537 123.992961,203.903861 124.015313,198.916667C124.033045,194.960112 125.373182,192.176770 126.434017,193.893237C127.704067,195.948222 129.238375,195.027308 128.755249,192.500000C128.492401,191.125000 128.600358,190.000000 128.995153,190.000000C129.389948,190.000000 129.752000,188.762500 129.799714,187.250000C129.970860,181.824729 131.241899,177.000000 132.500000,177.000000C133.965526,177.000000 135.514255,184.342122 135.875000,193.000000C136.123071,198.953701 143.000000,195.530146 143.000000,189.452947C143.000000,188.653826 143.450000,188.000000 144.000000,188.000000C144.550000,188.000000 145.000000,188.873442 145.000000,189.940983C145.000000,191.008524 145.450000,192.160081 146.000000,192.500000C146.550000,192.839919 147.000000,194.216476 147.000000,195.559017C147.000000,196.901558 147.450000,198.000000 148.000000,198.000000C148.550000,198.000000 149.000000,197.325000 149.000000,196.500000C149.000000,195.675000 149.498784,195.000000 150.108408,195.000000C150.783649,195.000000 150.977843,194.047856 150.605322,192.563612C150.269000,191.223599 150.486162,187.831545 151.087905,185.025714C151.888373,181.293264 151.882351,179.563168 151.065468,178.578885C150.216384,177.555800 150.339202,177.083814 151.578231,176.608354C152.494897,176.256596 152.962541,175.344767 152.647428,174.523596C152.339384,173.720846 152.517695,172.798081 153.043674,172.473008C153.569653,172.147935 154.000000,171.008524 154.000000,169.940983C154.000000,168.873442 154.450000,168.000000 155.000000,168.000000C155.550000,168.000000 156.000000,169.350000 156.000000,171.000000C156.000000,172.650000 155.550000,174.000000 155.000000,174.000000C154.450000,174.000000 154.071441,174.337500 154.158759,174.750000C154.246076,175.162500 153.961324,176.317748 153.525976,177.317217C152.625749,179.383956 154.247525,181.583089 155.912868,180.553851C157.260630,179.720888 157.351369,177.000000 156.031385,177.000000C155.498646,177.000000 155.320800,176.327585 155.636170,175.505744C155.951540,174.683903 156.573982,174.236706 157.019375,174.511974C157.464767,174.787242 158.024934,174.447157 158.264189,173.756231C158.503444,173.065304 158.700375,174.750000 158.701812,177.500000C158.708520,190.330265 159.372142,191.683104 161.733567,183.680446L162.967133,179.500000 162.447508,184.762179 C161.846341,190.850126 161.166362,193.000000 159.841985,193.000000C158.381767,193.000000 156.039244,186.565936 156.649639,184.231780C157.043506,182.725632 156.759948,182.212200 155.626168,182.378603C153.113993,182.747312 152.994082,183.196745 152.684749,193.403246C152.443657,201.358079 152.672100,203.279519 153.945143,204.004481C155.174038,204.704300 155.028307,204.856851 153.250000,204.732159C151.473913,204.607622 150.975567,203.934672 150.883999,201.537196C150.819709,199.853945 150.564128,199.280129 150.310674,200.250000C149.430888,203.616607 146.788251,201.645263 145.618835,196.750000C144.611897,192.534879 142.730662,193.378521 143.157449,197.853811L143.524969,201.707623 140.249049,200.803098 C138.447294,200.305609 136.553508,200.157913 136.040637,200.474885C134.776891,201.255923 133.109006,194.880600 133.728827,191.638218C134.003272,190.202551 133.912534,187.347305 133.527187,185.293228C132.565712,180.168123 131.118764,182.898111 130.803502,190.432067C130.571688,195.971813 129.100559,198.798217 127.094331,197.558300C126.542261,197.217102 125.800425,198.546907 125.424258,200.552049C124.799972,203.879779 122.688823,206.022157 121.351609,204.684942C121.042434,204.375768 120.789474,200.856326 120.789474,196.863960C120.789474,190.514597 119.371081,182.717615 118.995065,187.000000C118.922625,187.825000 118.617452,190.750000 118.316903,193.500000C118.016353,196.250000 117.822390,200.525000 117.885874,203.000000C117.974754,206.465077 117.752566,207.155026 116.919766,206.000000C116.079618,204.834781 115.972131,205.113765 116.438168,207.250000C116.768133,208.762500 116.635781,210.000000 116.144052,210.000000C115.652323,210.000000 115.250000,211.116793 115.250000,212.481763C115.250000,213.846732 115.640186,214.722377 116.117080,214.427640C116.593974,214.132904 117.775224,214.400088 118.742080,215.021383C120.160392,215.932781 120.185463,216.054927 118.871855,215.653650C116.213438,214.841566 115.000000,217.068385 115.000000,222.759017C115.000000,226.274648 114.635883,227.892997 113.941454,227.463817C113.359254,227.103997 113.133456,225.614940 113.439680,224.154800C114.069310,221.152593 113.470770,220.042973 110.250000,218.241526C108.061389,217.017388 108.000000,217.107671 108.000000,221.550543C108.000000,224.340893 107.610915,225.877566 107.000000,225.500000C106.450000,225.160081 106.000000,225.358524 106.000000,225.940983C106.000000,226.523442 106.562500,227.006891 107.250000,227.015313C108.155184,227.026401 108.119843,227.271413 107.121885,227.903509C106.363921,228.383595 106.052979,229.276705 106.430902,229.888197C106.808824,230.499688 106.528976,231.006891 105.809017,231.015313C104.776125,231.027395 104.789089,231.213756 105.870476,231.898788C106.805373,232.491022 105.907580,232.894108 103.045723,233.167030C100.738346,233.387074 98.651502,233.245136 98.408292,232.851613 Z"/>
<path d="M199.797747,211.906434 C199.996357,201.296113 199.746642,196.000000 199.047747,196.000000C198.471486,196.000000 198.000000,195.301815 198.000000,194.448478C198.000000,193.297678 197.418878,193.516670 195.750000,195.296376C193.226008,197.987984 191.000000,197.810040 191.000000,194.916667C191.000000,193.862500 190.325000,193.000000 189.500000,193.000000C188.666667,193.000000 188.000000,192.111111 188.000000,191.000000C188.000000,189.900000 187.550000,189.000000 187.000000,189.000000C186.450000,189.000000 185.927983,187.312500 185.839963,185.250000C185.685720,181.635761 185.665471,181.615700 185.280643,184.695852C184.966814,187.207734 184.519524,187.754754 183.190680,187.251806C181.652525,186.669636 181.657876,186.771180 183.250000,188.377382C184.212500,189.348394 184.964474,190.898214 184.921053,191.821429C184.867796,192.953773 184.671468,193.073723 184.317731,192.190037C183.462587,190.053759 178.583106,185.243736 179.306359,187.250000C180.161918,189.623270 179.126815,189.452238 176.867295,186.846990C175.831140,185.652293 175.000000,183.177955 175.000000,181.287973C175.000000,178.984413 174.629393,178.111014 173.855011,178.589608C173.040110,179.093245 172.914543,178.461609 173.419451,176.398625C174.387833,172.441954 174.363297,171.202591 173.213582,166.000000L172.219131,161.500000 172.109566,165.190983 C172.049305,167.221024 171.534993,169.169356 170.966652,169.520610C170.398311,169.871864 170.029174,171.585922 170.146348,173.329627C170.501963,178.621662 170.044497,184.007026 169.250000,183.881579C168.837500,183.816447 167.600000,183.869689 166.500000,183.999894C165.005096,184.176842 165.257644,184.440826 167.500000,185.045176L170.500000,185.853723 167.500000,185.676861 C165.103183,185.535560 164.440995,184.997347 164.206530,183.000000C164.025959,181.461763 164.228465,180.960574 164.732923,181.697214C166.352453,184.062148 168.321669,181.226525 168.629120,176.086782C168.796738,173.284688 169.419566,170.084551 170.013184,168.975366C170.606801,167.866181 170.817632,166.513940 170.481697,165.970385C169.531401,164.432774 170.971874,161.000000 172.567388,161.000000C173.355324,161.000000 174.070301,161.562500 174.156225,162.250000C174.242148,162.937500 174.476354,164.625000 174.676682,166.000000C174.877010,167.375000 175.215431,170.300000 175.428729,172.500000C175.642028,174.700000 176.307822,177.766795 176.908272,179.315100C178.252035,182.780089 178.293780,184.001982 177.000000,182.000000C176.157315,180.696038 176.028624,180.713468 176.015313,182.133369C175.995826,184.211988 179.683399,185.267431 180.404032,183.389492C180.697291,182.625271 180.501354,182.000000 179.968615,182.000000C179.435877,182.000000 179.000000,180.650000 179.000000,179.000000C179.000000,177.350000 179.450000,176.000000 180.000000,176.000000C180.550000,176.000000 181.000000,177.151558 181.000000,178.559017C181.000000,179.966476 181.408034,180.865855 181.906741,180.557637C182.405449,180.249419 182.591246,180.847075 182.319623,181.885761C182.048001,182.924448 182.314967,184.076626 182.912882,184.446158C183.611111,184.877687 184.005478,183.934316 184.015313,181.809017C184.025979,179.504122 184.298696,178.923358 184.914036,179.895147C185.623843,181.016128 185.892810,180.917871 186.282722,179.395147C186.626682,178.051881 186.801778,178.300820 186.883999,180.250000C186.947799,181.762500 187.450000,183.000000 188.000000,183.000000C188.550000,183.000000 189.000000,183.675000 189.000000,184.500000C189.000000,185.325000 189.399919,186.000000 189.888709,186.000000C190.377499,186.000000 191.069929,187.559214 191.427441,189.464921C192.471540,195.030446 193.983848,194.666940 194.156225,188.809017C194.783622,167.488021 198.640213,163.358317 200.514934,182.000000C200.708524,183.925000 200.962866,193.712500 201.080139,203.750000C201.275469,220.468545 201.442021,222.000000 203.064894,222.000000C204.039236,222.000000 205.493011,222.251956 206.295505,222.559902C207.421359,222.991932 207.911627,221.862884 208.442215,217.616199C209.292227,210.812932 211.426216,210.916948 212.567787,217.817290C212.993869,220.392781 213.281134,222.790367 213.206154,223.145259C213.131174,223.500151 214.629116,224.083042 216.534914,224.440572C218.440711,224.798102 220.000000,225.508985 220.000000,226.020313C220.000000,226.839814 215.791312,226.527305 212.250000,225.444851C211.544224,225.229120 211.000000,223.452716 211.000000,221.364718C211.000000,217.164884 209.756144,217.491628 209.601159,221.732174C209.505168,224.358611 209.282897,224.483782 205.250000,224.182519C201.987980,223.938842 201.000000,224.215705 201.000000,225.373502C201.000000,226.203157 200.662500,227.091419 200.250000,227.347417C199.837500,227.603415 199.633986,220.654973 199.797747,211.906434 Z"/>
<path d="M222.666667,227.333333 C222.300000,226.966667 222.000000,225.180790 222.000000,223.364718C222.000000,220.840495 221.646697,220.198345 220.500000,220.638374C219.675000,220.954956 219.000000,220.715833 219.000000,220.106989C219.000000,219.498145 219.387598,219.000000 219.861328,219.000000C220.335059,219.000000 220.507599,217.875000 220.244751,216.500000C219.969785,215.061609 220.232903,214.000000 220.864371,214.000000C222.055349,214.000000 222.949522,216.768887 223.286391,221.500000C223.517102,224.740189 224.564835,225.960624 227.136456,225.984687C228.313000,225.995696 228.962564,224.735312 229.447729,221.500000C230.287049,215.903013 231.607356,215.716485 232.511351,221.067185C233.069537,224.371062 232.851440,225.397304 231.349249,226.535382C229.432735,227.987354 223.835123,228.501789 222.666667,227.333333 Z"/>
<path d="M73.199254,214.013559 C68.501238,212.900925 68.131670,212.107967 71.251830,209.835090C73.757502,208.009834 75.367200,203.036990 72.973480,204.516390C72.408894,204.865324 72.071394,205.888068 72.223480,206.789156C72.383040,207.734524 71.698084,208.591472 70.604091,208.815172C69.127808,209.117042 68.851686,208.793068 69.356545,207.351424C69.914610,205.757849 69.829974,205.708906 68.748837,207.000000C66.316225,209.905025 65.275088,208.954289 64.690941,203.294450C64.270126,199.217149 64.512260,197.106733 65.574949,195.589533C66.379910,194.440290 67.317037,193.574065 67.657454,193.664590C68.826291,193.975410 69.969389,196.502268 69.984687,198.809017C69.993109,200.078976 70.413966,200.862189 70.919925,200.549489C71.425884,200.236789 72.775884,201.170918 73.919925,202.625331C75.063966,204.079743 76.000000,204.696140 76.000000,203.995101C76.000000,203.294062 75.282018,202.195484 74.404484,201.553815C72.791860,200.374636 71.779757,191.998696 73.250000,191.999560C73.662500,191.999802 74.000000,191.126558 74.000000,190.059017C74.000000,188.991476 74.450000,187.839919 75.000000,187.500000C75.557682,187.155334 76.000000,187.915447 76.000000,189.218477C76.000000,192.028514 78.762406,196.264875 80.068422,195.457713C80.580790,195.141052 81.000000,195.610081 81.000000,196.500000C81.000000,197.389919 81.450000,197.839919 82.000000,197.500000C82.550000,197.160081 83.000000,197.406669 83.000000,198.047972C83.000000,198.689275 83.675000,198.954956 84.500000,198.638374C85.616809,198.209814 86.000000,198.789853 86.000000,200.908940C86.000000,202.474334 86.591641,204.246129 87.314758,204.846263C88.365237,205.718083 88.678010,204.988906 88.870765,201.218708C89.003451,198.623419 89.480703,196.128607 89.931325,195.674682C90.381946,195.220757 90.592474,196.795757 90.399165,199.174682C90.205855,201.553607 89.984594,205.138257 89.907473,207.140570C89.773263,210.625100 89.685339,210.711004 87.856143,209.144798C86.805033,208.244809 85.673051,205.807565 85.340627,203.728700C84.827189,200.517838 84.436259,200.044149 82.743264,200.581485C81.549162,200.960478 80.405651,200.670082 79.890467,199.857012C79.220533,198.799714 79.027244,198.886511 79.015313,200.250000C79.006891,201.212500 79.422033,202.000000 79.937851,202.000000C80.453669,202.000000 80.810472,202.865955 80.730746,203.924344C80.612109,205.499284 80.238340,205.662740 78.672218,204.824576C77.342109,204.112724 76.957224,204.121769 77.409917,204.854243C78.306044,206.304207 76.997989,211.116791 75.893326,210.434072C75.401997,210.130414 75.000000,210.358524 75.000000,210.940983C75.000000,212.141481 76.099714,212.282702 78.443736,211.383217C79.687803,210.905824 79.791612,210.453834 78.903079,209.383217C77.968567,208.257199 78.320211,208.000000 80.794222,208.000000C82.465733,208.000000 84.060307,207.437500 84.337719,206.750000C84.639036,206.003259 84.873890,206.204562 84.921053,207.250000C84.972001,208.379348 84.264679,209.000000 82.926676,209.000000C79.273438,209.000000 81.046978,212.427837 85.011353,213.029192L88.500000,213.558385 85.125000,214.279192 C81.081657,215.142740 77.643806,215.066165 73.199254,214.013559 Z"/>
<path d="M328.000000,165.404370 C328.000000,164.526774 327.152543,162.614274 326.116762,161.154370C325.080981,159.694467 324.008182,157.600000 323.732764,156.500000C323.348646,154.965864 323.204982,155.140563 323.116001,157.250000C323.049011,158.838108 323.528133,160.006470 324.250000,160.015313C325.165361,160.026526 325.135068,160.261831 324.136847,160.894262L322.773695,161.757898 324.136847,162.300002 C325.087256,162.677964 324.970124,162.866009 323.750000,162.921053C322.787500,162.964474 322.000000,162.523442 322.000000,161.940983C322.000000,161.358524 321.550000,161.160081 321.000000,161.500000C320.450000,161.839919 320.000000,161.678976 320.000000,161.142350C320.000000,160.605724 320.562500,159.955805 321.250000,159.698085C322.118612,159.372473 321.889779,158.732407 320.500000,157.600268C319.354041,156.666749 319.092836,156.083972 319.888309,156.235516C320.945018,156.436828 321.284497,155.066891 321.309605,150.500000C321.331534,146.511462 320.959425,144.580644 320.199639,144.740552C319.401510,144.908531 319.327799,144.268024 319.955317,142.617526C320.517702,141.138340 320.479034,139.879034 319.851974,139.251974C319.182675,138.582675 319.663015,138.250000 321.298692,138.250000C323.195385,138.250000 323.637516,138.670138 323.260002,140.113753C322.991942,141.138817 322.373780,141.731009 321.886310,141.429736C321.398839,141.128462 321.000000,141.310379 321.000000,141.833994C321.000000,143.080443 323.905860,144.176215 325.158416,143.402094C325.696278,143.069676 325.870368,142.104567 325.545281,141.257406C325.053124,139.974864 325.211119,139.930323 326.489439,140.991235C327.596068,141.909656 327.730394,142.619929 326.970593,143.535433C326.267232,144.382931 326.254640,144.921043 326.932745,145.152754C327.491667,145.343739 327.676309,146.537951 327.343062,147.806558C326.959406,149.267056 326.216103,149.913168 325.316641,149.568012C324.480416,149.247122 324.164755,149.457562 324.549213,150.079628C324.908411,150.660824 325.827933,150.896270 326.592594,150.602842C327.648211,150.197764 327.945874,151.013943 327.829128,153.993369C327.678662,157.833367 326.000000,158.735319 326.000000,154.976167C326.000000,153.927977 325.100000,152.588702 324.000000,152.000000C321.716080,150.777683 321.431862,151.238965 323.250000,153.217240C325.228324,155.369811 327.000000,158.832000 327.000000,160.545448C327.000000,161.410370 327.450000,161.839919 328.000000,161.500000C328.564393,161.151186 329.000000,156.287589 329.000000,150.334903C329.000000,140.217746 328.895952,139.705996 326.447338,137.779916C325.043373,136.675557 324.139469,135.527197 324.438662,135.228005C324.737854,134.928812 324.481452,134.080114 323.868879,133.342009C323.049645,132.354892 323.051939,132.000000 323.877555,132.000000C324.494900,132.000000 325.000000,132.450000 325.000000,133.000000C325.000000,133.550000 325.422033,134.000000 325.937851,134.000000C327.628226,134.000000 326.618644,130.013738 324.780514,129.430338C322.958447,128.852036 318.974877,121.316582 318.722904,117.971558C318.646963,116.963407 318.259336,116.339721 317.861513,116.585590C317.463689,116.831459 316.851008,116.567943 316.500000,116.000000C316.148992,115.432057 315.442898,115.226274 314.930902,115.542705C314.418906,115.859136 314.000000,115.121732 314.000000,113.904029C314.000000,111.767371 313.931431,111.752079 312.037245,113.466294C309.923052,115.379612 306.358452,114.847064 307.619703,112.806317C308.198847,111.869241 308.455886,111.867658 308.766418,112.799254C308.986555,113.459664 309.605724,114.000000 310.142350,114.000000C310.678976,114.000000 310.839919,113.550000 310.500000,113.000000C310.160081,112.450000 310.296121,112.000000 310.802311,112.000000C311.308501,112.000000 311.507599,110.875000 311.244751,109.500000C310.774950,107.042394 309.000000,105.940924 309.000000,108.106989C309.000000,108.715833 308.282563,108.938671 307.405696,108.602186C306.377698,108.207706 304.728729,109.146518 302.763400,111.245197C299.907140,114.295259 299.764290,114.342739 300.492485,112.000000C301.399455,109.082112 301.935491,108.671439 307.033018,106.989103C310.987075,105.684147 314.000000,106.133267 314.000000,108.027632C314.000000,108.627353 313.550000,108.839919 313.000000,108.500000C311.374802,107.495572 311.860011,109.638930 313.581201,111.067391C314.874714,112.140911 315.537894,112.145173 317.226187,111.090817C319.012654,109.975150 319.207520,110.016828 318.676371,111.400981C318.338890,112.280441 318.498646,113.000000 319.031385,113.000000C319.564123,113.000000 320.000000,114.023957 320.000000,115.275461C320.000000,117.520022 325.870122,130.439663 326.008654,128.500000C326.047936,127.950000 326.757021,128.748171 327.584399,130.273713C328.411778,131.799255 328.836420,133.455661 328.528050,133.954615C328.219679,134.453568 328.424717,135.144455 328.983688,135.489919C329.542660,135.835382 330.000000,137.843331 330.000000,139.952028C330.000000,142.595718 330.513346,143.983012 331.653497,144.420529C333.158905,144.998208 333.144537,145.173826 331.493076,146.381404C329.875933,147.563888 329.747895,148.754191 330.312788,157.353887C330.845936,165.470312 330.712795,167.000000 329.473209,167.000000C328.662944,167.000000 328.000000,166.281967 328.000000,165.404370 Z"/>
<path d="M297.636364,159.363636 C296.186364,157.913636 295.000000,156.375441 295.000000,155.945424C295.000000,153.920073 296.370815,151.993291 297.856989,151.929715C299.139930,151.874833 299.061695,151.671083 297.500000,151.000000C296.400000,150.527314 296.062500,150.108942 296.750000,150.070285C297.437500,150.031628 298.000000,149.523442 298.000000,148.940983C298.000000,148.358524 297.437500,148.219905 296.750000,148.632941C295.912079,149.136348 295.955819,148.822075 296.882679,147.679627C297.890710,146.437129 298.611721,146.262794 299.543651,147.036227C300.455430,147.792936 301.035133,147.752171 301.565481,146.894050C302.038478,146.128725 301.886373,145.952191 301.147446,146.408874C300.508581,146.803713 299.734990,146.472971 299.428354,145.673890C299.113144,144.852466 298.078713,144.428161 297.048276,144.697626C294.511588,145.360985 293.508331,143.290825 295.985479,142.504609C297.093466,142.152947 298.000000,141.220549 298.000000,140.432612C298.000000,138.690716 296.813873,138.586127 295.213125,140.186875C294.297292,141.102708 293.769456,140.637108 292.901763,138.148042C291.850688,135.132927 291.681772,135.039120 290.314418,136.711167C288.939926,138.391943 288.879834,138.366982 289.319622,136.297947C289.577056,135.086818 289.272955,133.910925 288.643842,133.684852C288.014729,133.458779 287.807561,132.942141 288.183469,132.536769C288.559377,132.131397 289.414017,132.137842 290.082668,132.551092C290.751320,132.964342 293.143759,133.432526 295.399200,133.591501C298.414554,133.804039 298.970617,133.650269 297.500000,133.010559C296.400000,132.532065 296.025696,132.108942 296.668213,132.070285C297.310729,132.031628 298.622050,131.698528 299.582257,131.330061C300.772544,130.873306 301.098002,131.032412 300.605028,131.830061C299.602558,133.452091 301.136849,133.292875 303.681035,131.510859C305.674076,130.114878 305.780552,130.161798 305.383015,132.260859C304.989206,134.340239 305.024479,134.357302 305.877380,132.500000C306.529511,131.079904 306.381973,130.171858 305.368546,129.368289C304.244179,128.476753 304.817754,128.224482 308.071244,128.179580C311.678099,128.129802 312.136991,128.368143 311.694223,130.061291C311.415382,131.127581 311.542626,132.000000 311.976988,132.000000C313.641477,132.000000 313.784128,127.975944 312.156997,126.922138C310.671221,125.959880 310.668240,125.900383 312.128145,126.346350C313.023625,126.619898 314.156386,126.443614 314.645392,125.954608C315.134398,125.465602 316.426732,125.307230 317.517247,125.602669C319.744932,126.206188 323.715480,131.000000 321.987668,131.000000C321.379532,131.000000 321.160081,131.450000 321.500000,132.000000C321.839919,132.550000 321.641476,133.000000 321.059017,133.000000C320.476558,133.000000 320.000000,132.100000 320.000000,131.000000C320.000000,129.900000 319.523442,129.000000 318.940983,129.000000C318.358524,129.000000 318.160081,128.550000 318.500000,128.000000C318.839919,127.450000 318.191476,127.000000 317.059017,127.000000C315.926558,127.000000 314.993855,127.562500 314.986345,128.250000C314.978835,128.937500 314.699602,130.519188 314.365827,131.764862C313.906438,133.479341 314.112264,133.894151 315.212815,133.471829C316.097520,133.132337 316.666667,133.517994 316.666667,134.456967C316.666667,135.305635 316.324663,136.000000 315.906657,136.000000C315.488652,136.000000 314.953238,136.562500 314.716848,137.250000C314.480457,137.937500 314.401006,137.729045 314.540289,136.786768C314.862292,134.608352 312.475903,132.420957 311.500000,134.000000C311.017345,134.780952 310.450532,134.788872 309.533115,134.027483C308.561470,133.221089 308.105714,133.487748 307.681222,135.111006C307.273203,136.671273 306.568959,137.120543 305.123662,136.742589C303.944943,136.434347 302.911080,136.789338 302.595968,137.610508C302.302709,138.374729 301.261146,139.014312 300.281385,139.031803C298.660236,139.060746 298.679901,139.207773 300.500000,140.666336C302.124359,141.968040 302.171314,142.155782 300.750000,141.665917C299.568587,141.258737 299.000000,141.574694 299.000000,142.638374C299.000000,143.746736 299.518958,144.000332 300.750000,143.493535C304.386766,141.996346 305.640141,141.912684 308.446803,142.979774L311.334251,144.077580 309.124168,145.625583 C307.264172,146.928375 306.643681,146.961831 305.207042,145.836793C303.659751,144.625102 303.631973,144.668030 304.910214,146.295509C305.685831,147.283039 306.908920,147.865192 307.628189,147.589183C308.347457,147.313174 309.178165,147.479260 309.474206,147.958264C309.770246,148.437267 309.603992,148.980114 309.104752,149.164590C308.605513,149.349065 308.827709,150.080242 309.598522,150.789427C311.038658,152.114420 311.100576,151.805443 311.346288,142.067943C311.380042,140.730312 310.753435,139.458553 309.953829,139.241812C308.931834,138.964791 308.851887,139.098664 309.684676,139.692514C310.410980,140.210431 309.250228,140.572574 306.684676,140.628483L302.500000,140.719677 306.000000,139.435917 C310.946951,137.621430 311.776158,137.713231 313.119966,140.224159C314.490264,142.784583 314.452171,149.750241 313.058690,151.429283C312.475867,152.131542 312.469436,153.128422 313.041890,154.033538C314.248026,155.940581 314.262324,159.000000 313.065100,159.000000C312.550904,159.000000 310.926994,158.542542 309.456409,157.983427C307.238234,157.140078 306.992405,156.714078 308.013754,155.483427C308.690879,154.667542 308.839798,154.000000 308.344686,154.000000C307.849573,154.000000 306.614638,154.969187 305.600384,156.153750C303.970958,158.056780 303.953544,158.231804 305.450792,157.657257C306.701507,157.177312 307.052623,157.464420 306.791441,158.753507C306.575876,159.817445 305.570448,160.468969 304.218792,160.420599C302.998456,160.376928 302.000000,160.714428 302.000000,161.170599C302.000000,162.719888 300.280633,162.007906 297.636364,159.363636 Z"/>
<path d="M314.503883,106.005778 C312.662390,103.265848 312.563489,103.242728 308.626450,104.631796C303.489675,106.444156 304.851688,105.014033 310.286900,102.888312C312.553390,102.001884 314.602441,100.692677 314.840346,99.978963C315.142772,99.071683 314.705389,98.897480 313.386450,99.399896C311.881366,99.973219 311.750655,99.865967 312.739877,98.869368C314.792988,96.800948 317.264153,96.881874 316.710409,98.999396C316.353568,100.363957 316.656501,100.713843 317.863185,100.330850C318.971287,99.979146 319.113284,100.092591 318.302786,100.682061C317.515178,101.254883 317.424406,102.056954 318.037474,103.026393C320.815768,107.419686 317.393506,110.305203 314.503883,106.005778 Z"/>
<path d="M0.241049,53.750000 L0.000000,0.000000 194.250000,0.247454 L388.500000,0.494908 194.758762,0.749985 L1.017524,1.005062 0.749811,54.252531 L0.482098,107.500000 Z"/>
</g></svg>
