<?xml version="1.0" standalone="no"?>
<!DOCTYPE svg PUBLIC "-//W3C//DTD SVG 20010904//EN" "http://www.w3.org/TR/2001/REC-SVG-20010904/DTD/svg10.dtd">
<svg version="1.0" xmlns="http://www.w3.org/2000/svg" width="206pt" height="300pt" viewBox="0 0 206 300" preserveAspectRatio="xMidYMid meet">
<g fill="#8903ff" stroke="none">
<path d="M54.000000,287.676936 C54.000000,287.370956 57.770365,285.945531 62.378590,284.509324C66.986814,283.073118 71.599314,281.246541 72.628590,280.450264C74.325029,279.137851 74.079263,279.047230 70.000000,279.481028L65.500000,279.959567 69.000000,278.720047 C70.925000,278.038312 73.549381,276.886838 74.831957,276.161218C76.863506,275.011865 77.337565,275.077531 78.511888,276.670954C79.803424,278.423422 79.948161,278.405798 81.968885,276.250000C83.128849,275.012500 84.536938,274.000000 85.097972,274.000000C85.659006,274.000000 85.796948,273.480471 85.404508,272.845492C84.995766,272.184132 85.127045,271.960484 85.711845,272.321910C86.273319,272.668920 87.558810,272.040003 88.568493,270.924316C90.382098,268.920305 90.370816,268.908518 87.634824,269.948740C86.111623,270.527860 83.995660,271.467139 82.932684,272.036026C80.845649,273.152974 80.319425,272.080575 82.087132,270.312868L83.174265,269.225735 82.087132,268.553851 C81.489210,268.184314 81.000000,267.431966 81.000000,266.881966C81.000000,266.331966 81.526472,266.207344 82.169939,266.605028C82.956593,267.091207 83.130681,266.782931 82.701324,265.664045C82.331952,264.701477 82.551659,264.000000 83.222514,264.000000C83.860374,264.000000 83.552502,263.393267 82.538354,262.651704C81.364229,261.793162 80.991151,260.823335 81.511270,259.981765C82.103652,259.023271 81.870859,258.835578 80.664045,259.298676C79.675445,259.678038 78.993784,259.442588 78.984687,258.718615C78.975003,257.947902 78.613081,258.051325 78.000000,259.000000L77.030626,260.500000 77.000000,259.000000 C76.980617,258.050649 76.699671,257.893876 76.234687,258.572942C75.119026,260.202259 71.753679,261.258878 72.522220,259.738546C72.866572,259.057346 72.439944,259.373508 71.574157,260.441130C70.708371,261.508751 70.000000,262.074227 70.000000,261.697743C70.000000,261.321259 68.871779,261.994202 67.492842,263.193173C65.884667,264.591463 65.380889,265.617368 66.087863,266.054302C66.720268,266.445150 66.066553,267.017464 64.554123,267.397060C62.951389,267.799321 62.190778,268.499668 62.613610,269.183825C63.010990,269.826799 62.862794,270.033236 62.267815,269.665519C61.695154,269.311595 60.670525,269.692066 59.990862,270.511010C59.133010,271.544659 59.098360,272.000000 59.877555,272.000000C60.494900,272.000000 61.000000,272.597063 61.000000,273.326807C61.000000,274.224374 62.051419,274.547437 64.250000,274.325414L67.500000,273.997214 64.000000,275.378979 C62.075000,276.138951 60.581361,277.171161 60.680803,277.672781C60.780244,278.174400 59.958728,278.652828 58.855211,278.735953C57.310738,278.852295 57.098458,278.586292 57.933153,277.580545C58.787180,276.551506 58.498911,276.373133 56.575927,276.740735C55.233067,276.997439 53.938739,277.723288 53.699642,278.353734C53.028131,280.124358 60.993451,280.234311 63.653863,278.491142C66.966633,276.320532 67.694688,276.665718 64.727129,279.000000C63.328706,280.100000 60.902549,281.000000 59.335669,281.000000C57.768789,281.000000 54.989169,281.429514 53.158736,281.954475C50.309620,282.771591 50.002978,282.701338 51.027962,281.466308C51.979825,280.319383 51.894689,279.896819 50.612624,279.404844C49.725681,279.064492 48.212500,279.060052 47.250000,279.394977C45.944953,279.849100 46.057854,279.529245 47.694042,278.136985L49.888085,276.270038 47.396989,275.135019 C46.026887,274.510759 43.914568,274.002306 42.702947,274.005123C40.225159,274.010886 31.659185,278.911503 34.000000,278.984103L35.500000,279.030626 34.000000,280.069069 C32.767081,280.922614 32.856108,281.042853 34.500000,280.744366C35.600000,280.544636 36.405078,279.898180 36.289062,279.307797C36.072393,278.205207 41.916292,276.582959 42.826389,277.493056C43.641877,278.308543 42.228910,279.260721 40.018846,279.385018C38.894397,279.448258 38.092655,279.950000 38.237197,280.500000C38.381739,281.050000 39.235596,281.469846 40.134659,281.432991C41.071113,281.394604 41.670922,282.035292 41.538951,282.932991C41.354814,284.185535 39.923043,284.494004 34.404292,284.470122C24.756382,284.428370 5.260199,282.263288 3.208212,281.005747C1.948735,280.233888 2.550771,280.160731 5.500000,280.727258C14.149729,282.388812 28.789973,279.948757 34.009512,275.975645L36.500000,274.079885 34.000000,274.626652 C32.625000,274.927374 33.766397,274.074628 36.536437,272.731660C39.306477,271.388692 44.256477,267.815813 47.536437,264.791929C50.816397,261.768045 54.850000,258.527866 56.500000,257.591532L59.500000,255.889107 56.000000,256.422158 C52.859006,256.900533 52.718097,256.829291 54.626257,255.727605C56.959851,254.380292 62.607452,248.000000 61.466449,248.000000C61.075213,248.000000 61.282062,247.365062 61.926114,246.589028C62.740417,245.607852 62.772746,244.977583 62.032246,244.519929C61.446568,244.157960 61.239779,243.421046 61.572716,242.882343C61.961186,242.253785 62.636017,242.282958 63.456349,242.963773C64.694995,243.991758 66.692360,242.713294 66.914963,240.750000C66.961733,240.337500 67.155837,240.112500 67.346305,240.250000C67.897228,240.647715 71.026969,237.818100 71.956119,236.082244C72.674952,234.739306 72.062029,234.500000 67.903592,234.500000C65.208893,234.500000 63.003207,234.864058 63.002069,235.309017C63.000931,235.753976 62.615412,235.880345 62.145360,235.589837C61.675308,235.299329 60.286828,236.130234 59.059850,237.436293C56.966364,239.664707 56.942016,239.846961 58.664490,240.395779C59.855586,240.775289 60.577061,242.080901 60.719496,244.114605L60.938992,247.248596 55.881784,246.762663 C51.583239,246.349627 50.394929,246.638254 47.960562,248.686638C45.250979,250.966602 45.188307,251.193234 46.798274,252.889646C47.734223,253.875850 48.870721,254.482037 49.323825,254.236729C49.776928,253.991421 49.556182,254.737803 48.833278,255.895357C48.068519,257.119930 46.469562,258.004217 45.009453,258.010085C43.629254,258.015631 38.029008,259.582139 32.564461,261.491213C20.993804,265.533495 18.466064,265.509735 29.192666,261.459518C34.598302,259.418425 37.410858,257.652776 40.000000,254.674958C41.925000,252.460981 44.967889,249.265898 46.761976,247.574773C48.556063,245.883648 52.961148,241.683340 56.551054,238.240756C61.474074,233.519767 63.621507,232.091186 65.289079,232.427782C71.698726,233.721558 75.936229,233.912201 76.540795,232.933993C76.904623,232.345306 77.808866,232.096413 78.550223,232.380899C79.451705,232.726830 79.698760,232.378555 79.296147,231.329364C78.810481,230.063739 77.677308,229.880094 73.432156,230.379028C70.538060,230.719172 67.344376,231.248340 66.335082,231.554956C65.122040,231.923469 65.347428,231.509524 67.000000,230.333778C68.375000,229.355515 70.996318,226.924083 72.825151,224.930596C75.288544,222.245420 76.755235,221.421716 78.484473,221.752281C80.679325,222.171853 82.862006,226.000000 80.906380,226.000000C80.407871,226.000000 80.000000,226.435877 80.000000,226.968615C80.000000,227.501354 80.748820,227.649881 81.664045,227.298676C82.872295,226.835027 83.103882,227.022899 82.509536,227.984570C81.960832,228.872391 82.076963,229.070468 82.861803,228.585410C83.505755,228.187426 83.810895,227.503039 83.539893,227.064549C83.268891,226.626058 84.049051,225.419653 85.273581,224.383647L87.500000,222.500000 85.595012,224.750000 C83.454241,227.278487 83.803874,227.502114 87.362684,225.880612C88.864161,225.196493 90.470002,223.057840 91.492445,220.380612C92.424477,217.940119 93.819255,216.000000 94.641725,216.000000C95.453695,216.000000 95.827736,215.530288 95.472927,214.956195C95.118118,214.382102 95.414466,213.205525 96.131477,212.341580C97.233715,211.013464 97.067139,210.472784 95.053333,208.842103C93.363999,207.474164 92.463741,207.249651 91.956817,208.069872C91.439383,208.907098 91.092466,208.850038 90.699998,207.863153C90.275777,206.796421 90.140727,206.784649 90.078947,207.809017C90.035526,208.528976 89.550000,208.839919 89.000000,208.500000C88.450000,208.160081 88.000000,208.385081 88.000000,209.000000C88.000000,209.614919 87.489205,209.802345 86.864900,209.416504C86.131939,208.963509 86.574783,208.246603 88.114900,207.392922C91.057054,205.762098 94.478379,205.650470 97.181443,207.097106C98.771908,207.948296 99.135423,207.906268 98.803202,206.909606C98.567691,206.203072 97.134659,205.211553 95.618687,204.706229C93.420198,203.973399 91.853485,204.310888 87.877266,206.373824L82.892159,208.960190 84.904691,206.133850 C87.943299,201.866517 93.941394,196.793801 99.250000,194.001717C102.466003,192.310246 104.010271,190.856986 104.031803,189.501717C104.069259,187.144252 106.409985,183.743318 107.348877,184.682210C108.456957,185.790290 108.065212,187.158337 106.854157,186.409864C106.043754,185.909007 105.909115,186.501749 106.394239,188.434636C106.773889,189.947284 106.686028,190.923989 106.197468,190.622042C105.271307,190.049643 106.607967,200.556661 107.682489,202.295274C108.015339,202.833836 108.846233,201.975219 109.528921,200.387238C110.712056,197.635182 110.746191,197.710692 110.257968,202.000000L109.745763,206.500000 112.037594,204.115015 C114.217939,201.846048 114.393875,201.818171 115.654327,203.541942C116.870942,205.205762 117.032479,205.087604 117.630747,202.096266C117.989081,200.304593 118.583412,199.325946 118.951481,199.921494C119.738898,201.195562 123.333397,196.694361 124.494185,192.980659C124.920643,191.616296 125.771411,190.162500 126.384781,189.750000C127.165129,189.225206 127.049589,188.671400 126.000000,187.905668C124.757770,186.999393 124.823776,186.916919 126.384100,187.425742C128.068099,187.974895 128.204544,187.639747 127.668830,184.270074C126.247162,175.327699 115.400874,171.764236 109.129223,178.179032C107.419772,179.927499 105.761052,182.177499 105.443178,183.179032C104.210051,187.064269 102.822907,184.873049 103.157450,179.568355C103.458799,174.790008 103.319510,174.300400 101.999373,175.497663C100.887572,176.505980 100.009446,176.584790 98.610353,175.801819C95.504014,174.063424 91.928684,170.688692 89.815066,167.500000L87.826522,164.500000 89.918908,166.867758 C91.743825,168.932845 92.234275,169.060675 93.755647,167.867758C95.340562,166.625016 95.372722,166.662163 94.107499,168.274166C92.388269,170.464614 93.393988,171.747835 95.475834,170.020056C97.571537,168.280777 97.385048,166.721560 94.895357,165.166722C93.737803,164.443818 93.070144,164.304478 93.411669,164.857077C93.753194,165.409677 93.462783,166.190044 92.766312,166.591227C92.069840,166.992410 91.819553,166.966451 92.210118,166.533541C93.194938,165.441945 90.138163,159.796577 88.957412,160.526321C88.430835,160.851763 87.994430,161.653976 87.987621,162.309017C87.980813,162.964058 86.293313,164.599544 84.237621,165.943431C81.323046,167.848805 78.683301,168.510644 72.250000,168.948977C67.712500,169.258140 64.000000,169.366513 64.000000,169.189805C64.000000,168.893469 66.039861,164.797664 66.451686,164.267102C66.551114,164.139007 68.041710,164.438370 69.764123,164.932351C73.323950,165.953296 74.719209,164.855557 74.444500,161.250000C74.350214,160.012500 74.661630,159.000000 75.136536,159.000000C75.611441,159.000000 76.000000,159.461138 76.000000,160.024751C76.000000,160.588364 77.179736,161.498037 78.621637,162.046246C81.366980,163.090024 84.030483,161.885416 83.969591,159.627555C83.952867,159.007400 83.480506,159.287500 82.919901,160.250000C82.359296,161.212500 81.360480,161.997850 80.700310,161.995222C79.590612,161.990806 84.028322,157.487878 88.562752,154.017233C90.391997,152.617131 90.388499,152.667089 88.500000,154.913333C87.057499,156.629092 86.918124,157.159774 88.000000,156.817131C88.825000,156.555843 90.035639,155.276557 90.690308,153.974273C91.661080,152.043191 91.575205,151.089463 90.224701,148.803242C89.313947,147.261459 88.268292,146.000000 87.901024,146.000000C87.533755,146.000000 86.997745,145.099379 86.709890,143.998620C86.422035,142.897861 86.553942,142.224321 87.003017,142.501864C87.452091,142.779408 88.526884,142.735046 89.391444,142.403283C90.569035,141.951399 90.719109,141.343667 89.989676,139.980709C89.303037,138.697713 89.382139,138.013426 90.257990,137.659618C91.028967,137.348174 90.873411,137.127954 89.847825,137.078947C88.931896,137.035181 87.706435,135.596635 87.097825,133.850777C85.561646,129.444091 85.710825,128.691116 88.001380,129.290110C89.102139,129.577965 89.750581,129.405449 89.442363,128.906741C89.134145,128.408034 88.233524,128.000000 87.440983,128.000000C86.648442,128.000000 86.000000,127.538444 86.000000,126.974320C86.000000,126.390231 84.708395,126.616554 83.000000,127.500000C79.702968,129.204961 79.187844,131.330701 81.509191,133.652048C83.062538,135.205395 82.592738,137.484366 80.930902,136.457295C80.418906,136.140864 80.000000,136.358524 80.000000,136.940983C80.000000,137.523442 80.450000,138.000000 81.000000,138.000000C81.550000,138.000000 82.000000,138.701558 82.000000,139.559017C82.000000,140.416476 82.430347,140.852065 82.956326,140.526992C83.482305,140.201919 83.623052,139.162861 83.269095,138.217975C82.706757,136.716812 82.838471,136.673206 84.312769,137.872445C86.065717,139.298345 86.704443,141.553404 85.069098,140.542705C84.557102,140.226274 83.867691,140.405063 83.537073,140.940014C83.206455,141.474965 82.162861,141.669639 81.217975,141.372623C79.895449,140.956900 79.993116,141.271500 81.642278,142.739361C83.440385,144.339795 83.551212,144.795047 82.332116,145.573064C81.089084,146.366357 81.188751,147.196823 83.023396,151.333109C84.202441,153.991319 84.980192,156.353141 84.751731,156.581602C84.523270,156.810064 83.769043,155.760165 83.075671,154.248493C82.382299,152.736822 81.181621,150.226032 80.407498,148.668960C79.633374,147.111889 79.000000,144.947831 79.000000,143.859943C79.000000,142.772056 78.581903,142.140364 78.070896,142.456184C77.548021,142.779338 77.310416,141.698009 77.527459,139.983029C77.752030,138.208572 77.513561,137.182602 76.956563,137.526845C76.430453,137.851999 76.000000,137.218034 76.000000,136.118034C76.000000,135.018034 76.450000,133.839919 77.000000,133.500000C77.550000,133.160081 78.000000,132.454710 78.000000,131.932509C78.000000,131.410308 77.155292,131.510581 76.122871,132.155338C73.604456,133.728115 67.337679,130.236504 67.825016,127.532088C68.057678,126.240958 67.702488,125.900189 66.575016,126.332840C65.582269,126.713793 65.000000,126.394296 65.000000,125.468615C65.000000,124.660877 64.422023,124.000000 63.715608,124.000000C61.205233,124.000000 57.854257,116.000391 56.305078,106.309232C55.943925,104.049978 57.462844,98.247395 61.507918,86.433313C65.944777,73.474978 67.089742,68.940439 66.633985,66.131940C66.311227,64.143018 65.586544,62.362181 65.023576,62.174525C63.196803,61.565601 63.942293,60.000000 66.059017,60.000000C67.360757,60.000000 67.855610,59.575388 67.404508,58.845492C66.952151,58.113562 67.131336,57.963136 67.894050,58.434519C68.760413,58.969961 68.796512,59.540262 68.023035,60.472245C67.232144,61.425209 67.351171,61.920779 68.474477,62.351832C69.313514,62.673801 70.000000,63.427911 70.000000,64.027632C70.000000,64.627353 69.437500,64.800459 68.750000,64.412313C67.810640,63.881971 67.780138,64.010761 68.627263,64.930559C69.380819,65.748760 69.471608,67.372103 68.901120,69.827263C67.899779,74.136653 67.766150,76.567184 68.575035,75.758298C69.268075,75.065258 69.819434,72.354065 69.923489,69.127555C69.988802,67.102347 70.226471,66.943065 71.547334,68.039284C72.398368,68.745579 72.708206,69.588180 72.235864,69.911729C71.763521,70.235278 70.917550,72.075000 70.355929,74.000000C69.794307,75.925000 68.862960,77.405330 68.286267,77.289622C67.263035,77.084321 65.323862,82.998636 64.774571,88.000000C64.623557,89.375000 64.050000,90.830609 63.500000,91.234687C62.880693,91.689684 62.975867,91.975204 63.750000,91.984687C64.448735,91.993247 65.000000,93.234833 65.000000,94.800000C65.000000,96.340000 64.437500,98.166661 63.750000,98.859246C62.748728,99.867924 62.798473,100.010638 64.000000,99.576465C65.060558,99.193231 66.134993,100.482034 67.667498,103.975690C69.420941,107.973021 70.233531,108.840191 71.921257,108.515165C74.966459,107.928712 76.123016,107.008061 75.361803,105.776393C74.961424,105.128565 75.156422,104.978640 75.845492,105.404508C76.908854,106.061703 77.378366,104.729518 77.281825,101.329080C77.263542,100.685074 77.856087,100.391281 78.598592,100.676207C80.335412,101.342687 83.078732,98.604903 83.274197,96.010036C83.445813,93.731780 84.097055,93.497055 85.726250,95.126250C86.345688,95.745688 88.710575,96.301222 90.981554,96.360769C94.348369,96.449050 95.028501,96.783009 94.665840,98.169826C94.421219,99.105260 94.841446,100.756320 95.599678,101.838848C96.858546,103.636134 96.791938,103.758351 94.832769,103.246017C93.364287,102.862001 92.913002,103.050217 93.402645,103.842476C94.379573,105.423179 98.000000,105.310979 98.000000,103.700000C98.000000,102.985000 97.485177,101.885177 96.855950,101.255950C95.997216,100.397216 96.218461,100.244368 97.743091,100.643068C100.193018,101.283738 101.600948,99.429024 100.067386,97.581195C99.196207,96.531488 99.507666,96.250000 101.540318,96.250000C103.512829,96.250000 103.969397,96.631528 103.484930,97.875000C102.747870,99.766799 102.724842,99.933777 102.881579,102.250000C102.946711,103.212500 103.562500,104.024898 104.250000,104.055329C104.937500,104.085760 106.616169,105.548260 107.980376,107.305329C109.344583,109.062398 109.682083,109.882400 108.730376,109.127555C107.230748,107.938128 107.000000,107.980990 107.000000,109.448984C107.000000,110.380614 107.730130,111.872987 108.622511,112.765368C110.119192,114.262050 110.099804,114.441850 108.372511,115.083806C106.716916,115.699116 106.818566,115.905467 109.250000,116.865116C112.057408,117.973156 112.852725,119.549092 110.928244,120.190585C110.307068,120.397644 110.775410,121.716057 112.042249,123.326581C114.531740,126.491456 114.133781,127.677149 111.122885,126.065766C109.875274,125.398065 109.302800,124.374490 109.658520,123.447500C109.979743,122.610405 109.499470,121.104402 108.591247,120.100827C107.683023,119.097251 106.768575,116.922161 106.559139,115.267293C106.349704,113.612424 105.575719,111.286561 104.839174,110.098708C103.703785,108.267626 103.723993,107.799632 104.971975,107.023282C106.202756,106.257633 106.120828,105.991941 104.471975,105.401795C103.387389,105.013608 101.600000,103.976901 100.500000,103.098000C98.574497,101.559523 98.559519,101.574497 100.097896,103.500000C103.230996,107.421533 103.315624,108.070498 100.557149,107.021728C98.530512,106.251202 98.000000,106.355560 98.000000,107.524751C98.000000,108.336138 97.534167,109.000000 96.964816,109.000000C96.277136,109.000000 96.304334,109.700135 97.045837,111.085646C97.659749,112.232752 97.911456,113.421877 97.605186,113.728147C96.641547,114.691787 93.883947,111.744812 94.426439,110.331102C95.095757,108.586885 93.355734,104.000000 92.024751,104.000000C90.595328,104.000000 90.742897,107.303354 92.250000,109.042250C92.937500,109.835488 92.037500,109.166297 90.250000,107.555159C86.670547,104.328870 85.712136,101.240389 88.803882,102.895041C92.141201,104.681120 93.113224,102.665246 90.457368,99.465886L87.995323,96.500000 89.060572,99.500000 C89.907248,101.884445 89.871573,102.248401 88.886704,101.273794C87.942069,100.339000 87.314869,100.323719 86.247578,101.209491C85.168468,102.105074 84.648290,102.048955 83.978158,100.964658C82.532281,98.625181 81.589475,100.803579 82.850264,103.570710C84.323068,106.803163 83.226778,109.030622 81.395594,106.526330C80.184008,104.869387 79.883748,104.962406 76.939289,107.906865C74.445388,110.400766 73.489860,110.821511 72.391051,109.909581C70.191206,108.083871 70.772569,110.484202 73.023634,112.521389C74.150906,113.541556 74.617234,114.618528 74.076421,114.952769C73.489002,115.315814 73.459387,116.125270 74.001434,117.002321C74.719747,118.164576 75.093099,117.961157 75.885262,115.975928C76.620443,114.133500 76.889446,113.962861 76.936614,115.309017C76.971476,116.303976 77.412676,116.862986 77.917057,116.551261C78.421439,116.239536 79.620704,118.350479 80.582092,121.242244C81.543479,124.134010 82.514548,125.948766 82.740022,125.275037C82.965497,124.601307 81.686428,121.077186 79.897647,117.443656C77.859586,113.303767 77.028901,110.587608 77.672715,110.168620C78.237783,109.800879 78.920048,108.825000 79.188858,108.000000C79.528014,106.959103 80.206732,107.519530 81.406395,109.831051C82.357230,111.663129 83.681961,112.952285 84.350242,112.695841C85.797579,112.140446 89.362052,114.961667 89.832385,117.034867C90.050035,117.994258 89.353804,117.738728 87.815404,116.294596C86.523253,115.081624 84.537908,114.159106 83.403526,114.244556L81.341014,114.399921 83.388017,119.600654 C84.928657,123.514893 85.875951,124.716472 87.217510,124.458111C88.197879,124.269309 89.000000,124.539497 89.000000,125.058529C89.000000,125.577560 90.864227,127.811393 93.142727,130.022602C96.960529,133.727653 97.453282,133.933018 99.425212,132.640960C101.376432,131.362471 101.667554,131.456315 102.729249,133.706030C103.961141,136.316387 104.124086,136.288999 99.238659,134.292725C98.371314,133.938313 98.185231,134.358732 98.642930,135.638659C99.133948,137.011760 98.415582,136.713083 95.904271,134.500000L92.500000,131.500000 95.500000,134.995004 C97.150000,136.917256 98.593092,138.660349 98.706872,138.868543C98.820651,139.076737 99.720651,138.897479 100.706872,138.470191C102.550071,137.671612 103.537057,137.416675 105.809017,137.152314C106.528976,137.068541 106.865855,136.591966 106.557637,136.093259C106.249419,135.594551 106.892800,135.420712 107.987373,135.706949C109.081946,135.993186 109.726472,136.633560 109.419654,137.130002C109.112836,137.626444 108.490051,137.802868 108.035686,137.522055C107.581322,137.241243 106.954174,137.677038 106.642023,138.490489C105.922857,140.364605 109.590796,142.597606 110.340382,140.742010C110.636281,140.009516 110.874492,140.217911 110.921053,141.250000C111.006940,143.153843 111.474517,143.261629 114.500000,142.075020C115.932429,141.513215 117.422303,141.992521 119.750000,143.763994C121.537500,145.124355 123.000000,145.759485 123.000000,145.175393C123.000000,144.591301 122.014650,143.423242 120.810332,142.579705C119.606015,141.736168 118.927111,140.739556 119.301656,140.365010C119.676202,139.990465 119.456712,138.967614 118.813902,138.092009C118.171091,137.216404 118.914601,137.787535 120.466147,139.361189L123.287139,142.222378 124.609585,139.077205 C125.414273,137.163416 127.217763,135.373388 129.216015,134.505157C131.232339,133.629075 131.799100,133.063174 130.684259,133.039142C128.404266,132.989992 124.876499,134.836309 123.281803,136.913343C122.611795,137.786004 122.012737,138.275000 121.950562,138.000000C121.888387,137.725000 121.681128,136.375000 121.489987,135.000000C120.808835,130.100060 119.685894,126.489587 118.629931,125.804373C118.040325,125.421778 117.919181,124.747486 118.360721,124.305945C118.802262,123.864405 119.692608,124.226713 120.339269,125.111074C122.336880,127.842970 129.662273,130.922639 131.073043,129.623661C131.978384,128.790061 132.127951,128.795625 131.652448,129.645215C130.658385,131.421324 133.762849,132.094294 135.399633,130.457510C136.201263,129.655880 137.739433,129.000000 138.817787,129.000000C139.896142,129.000000 141.636993,128.212500 142.686346,127.250000C143.735699,126.287500 144.101843,125.725000 143.500000,126.000000C142.898157,126.275000 143.206676,125.759162 144.185598,124.853693C145.882348,123.284259 145.845477,123.128772 143.395965,121.523790C141.982744,120.597813 141.087757,119.578909 141.407105,119.259561C141.726454,118.940213 142.917970,119.520776 144.054919,120.549701C145.675015,122.015868 146.295284,122.140255 146.922853,121.124826C147.363268,120.412221 148.123295,119.929069 148.611803,120.051157C149.100312,120.173245 149.944208,119.311679 150.487128,118.136567C151.161831,116.676223 152.387459,116.000000 154.359573,116.000000C156.490719,116.000000 157.004960,116.326728 156.326966,117.250000C155.822107,117.937500 154.150645,120.383874 152.612604,122.686387C150.535361,125.796108 147.819105,127.911759 142.051013,130.912650C137.780179,133.134582 133.996541,134.663208 133.642930,134.309597C133.289318,133.955985 133.000000,134.368522 133.000000,135.226345C133.000000,136.084167 132.347917,137.036250 131.550928,137.342084C130.540943,137.729651 130.286215,137.417711 130.710277,136.312623C131.124612,135.232884 130.869114,134.884712 129.909350,135.221179C129.134207,135.492922 128.552500,136.394325 128.616667,137.224295C128.680833,138.054266 128.005833,138.680833 127.116667,138.616667C126.078879,138.541775 125.563780,139.210913 125.678123,140.485405C125.776091,141.577378 125.326091,142.823430 124.678123,143.254409C123.809462,143.832176 123.903572,144.361357 125.036399,145.269003C125.881418,145.946051 126.405421,147.316067 126.200849,148.313482C125.934878,149.610256 126.345502,150.037645 127.642008,149.813482C128.719810,149.627133 129.464218,150.108325 129.477558,151.000000C129.489901,151.825000 129.950000,152.518862 130.500000,152.541916C131.050000,152.564969 132.954745,153.360015 134.732766,154.308684C136.510788,155.257353 140.050700,156.319340 142.599238,156.668656C147.144822,157.291698 147.210391,157.261637 146.047078,155.087966C145.148951,153.409800 145.141579,152.534334 146.016696,151.479883C146.652212,150.714133 146.885067,149.623052 146.534152,149.055259C146.158912,148.448108 146.511246,148.258953 147.389591,148.596006C148.210998,148.911209 149.021870,150.075773 149.191529,151.183927C149.390646,152.484490 150.811727,153.647431 153.200188,154.464413C156.863907,155.717600 156.906738,155.701105 157.545957,152.790758C157.901028,151.174133 159.467262,148.398473 161.026479,146.622623C163.152554,144.201157 163.605112,143.032013 162.836377,141.946903C161.969727,140.723578 161.887755,140.742872 162.305888,142.071766C162.586293,142.962937 161.932308,144.185691 160.795577,144.895591C159.692902,145.584223 159.060219,145.711581 159.389613,145.178609C160.069967,144.077774 157.529251,142.804082 156.568821,143.764512C155.308207,145.025127 152.682975,144.825832 151.215237,143.358094C150.387007,142.529865 149.437258,142.222973 149.104683,142.676111C147.585979,144.745367 144.553576,143.843221 140.515115,140.120698L136.175311,136.120406 139.029004,135.493630 C140.598535,135.148903 142.863395,135.391707 144.062025,136.033195C145.549144,136.829077 146.025466,136.850222 145.561660,136.099768C143.749361,133.167407 155.211325,136.054663 163.525944,140.624951L170.137330,144.259025 166.134982,146.050929 C163.721324,147.131556 161.490449,149.084684 160.514792,150.971396C158.938058,154.020463 159.231232,158.000000 161.032591,158.000000C162.619443,158.000000 169.002039,164.154562 173.565556,170.085194C178.309579,176.250408 179.484696,179.355377 175.695954,175.714267C174.428729,174.496420 173.612983,172.825000 173.883185,172.000000C174.293670,170.746680 174.112984,170.712430 172.784477,171.791738L171.194492,173.083476 170.673377,171.791738 C170.267563,170.785807 169.917548,170.831886 169.091444,172.000000C168.372247,173.016947 168.025694,173.097456 168.015313,172.250000C167.991338,170.292925 165.001871,170.786135 164.984687,172.750000C164.972577,174.134058 164.786846,174.211823 164.096491,173.121885C163.616405,172.363921 162.715955,172.057516 162.095492,172.440983C161.475028,172.824450 161.200338,173.515136 161.485068,173.975840C161.769799,174.436543 161.102139,174.577965 160.001380,174.290110C158.900621,174.002255 158.000000,173.605777 158.000000,173.409049C158.000000,172.307640 164.449402,169.988599 167.700340,169.921053C169.790153,169.877632 170.934696,169.614197 170.243769,169.335642C169.552843,169.057088 169.222683,168.448708 169.510081,167.983688C169.797480,167.518668 169.505755,166.812574 168.861803,166.414590C168.076963,165.929532 167.960832,166.127609 168.509536,167.015430C169.112718,167.991399 168.865358,168.162311 167.569407,167.665007C164.758961,166.586538 157.296564,170.465012 155.030410,174.181971C151.887340,179.337255 152.825482,187.500000 156.561049,187.500000C157.144625,187.500000 159.169625,189.292904 161.061049,191.484230L164.500000,195.468461 160.356096,192.234230 C156.332671,189.094032 154.000000,188.190694 154.000000,189.772804C154.000000,190.908684 161.018669,201.382299 162.324889,202.195627C162.939344,202.578222 163.173606,203.159728 162.845472,203.487862C162.517337,203.815996 160.995418,202.602964 159.463430,200.792235C157.931441,198.981506 156.316641,197.607102 155.874986,197.738004C155.433331,197.868906 155.325127,197.316308 155.634534,196.510007C156.164401,195.129195 148.850029,186.505781 147.911277,187.404531C147.685074,187.621094 146.919758,187.168668 146.210573,186.399141C145.501389,185.629613 145.327448,185.000000 145.824038,185.000000C146.320628,185.000000 146.657638,183.987500 146.572950,182.750000C146.488262,181.512500 145.855432,180.618923 145.166663,180.764274C144.214894,180.965126 144.173063,180.545145 144.992361,179.014274C146.355184,176.467815 146.829101,176.491208 149.767934,179.250000C151.086193,180.487500 152.074407,181.050000 151.963964,180.500000C151.430286,177.842321 152.104416,171.946499 152.886693,172.429973C153.374374,172.731376 154.380268,172.246731 155.122013,171.352983C155.863758,170.459235 158.216457,168.625901 160.350234,167.278907C163.111539,165.535771 163.920671,164.520671 163.157295,163.757295C162.393919,162.993919 161.685714,163.015945 160.700372,163.833706C159.938957,164.465624 159.034622,164.701289 158.690739,164.357406C158.346856,164.013522 157.038260,163.608655 155.782748,163.457701C154.527237,163.306747 152.634376,162.838886 151.576391,162.418011C150.101225,161.831177 149.787591,162.004089 150.231050,163.159725C150.577783,164.063294 150.244672,164.666667 149.399096,164.666667C148.623473,164.666667 148.044694,164.179167 148.112919,163.583333C148.423505,160.870889 147.899654,159.824529 146.500000,160.361626C145.586289,160.712250 145.000000,160.363208 145.000000,159.468615C145.000000,157.689878 143.012750,157.475910 142.969591,159.250000C142.952867,159.937500 142.450292,159.658510 141.852758,158.630023C140.971818,157.113729 140.595700,157.019160 139.864164,158.130023C139.128517,159.247129 138.698064,159.154606 137.532105,157.628765C134.003108,153.010515 126.856261,159.820014 127.171841,167.500000L127.336206,171.500000 127.729091,167.739559 C128.089357,164.291322 128.254912,164.112054 129.723167,165.580310C131.075565,166.932708 131.106233,167.316311 129.920538,168.049110C128.853147,168.708794 128.795553,169.195553 129.680214,170.080214C130.320137,170.720137 130.605730,171.863875 130.314866,172.621855C130.024002,173.379835 130.284167,174.000000 130.893011,174.000000C131.501855,174.000000 132.023226,174.562500 132.051614,175.250000C132.080002,175.937500 133.928664,177.962500 136.159752,179.750000C138.390841,181.537500 139.749757,183.000000 139.179567,183.000000C138.609377,183.000000 137.427790,182.284933 136.553819,181.410962C135.101769,179.958912 134.798922,180.023568 133.040823,182.160962C131.982645,183.447433 130.547478,185.625000 129.851562,187.000000C129.155646,188.375000 127.891851,190.363867 127.043130,191.419704C125.816844,192.945244 126.159246,192.861260 128.710733,191.010677C130.476636,189.729875 131.758601,188.416008 131.559545,188.090973C130.633718,186.579211 143.041614,186.996278 146.657443,188.598459C149.337261,189.785892 149.987230,190.425803 148.805426,190.713202C147.694745,190.983305 147.330586,191.697919 147.748565,192.787153C148.242145,194.073403 147.747108,193.946235 145.558280,192.224503C143.529417,190.628599 141.377173,190.000000 137.941867,190.000000C132.306640,190.000000 128.084261,192.954349 124.956150,199.085953C122.894927,203.126284 122.279714,208.563195 124.004364,207.497303C124.644569,207.101634 124.796925,208.209298 124.424566,210.552275C124.103276,212.573912 124.112374,215.311597 124.444782,216.636018C124.938202,218.601958 125.383709,218.865012 126.871385,218.068833C128.101376,217.410562 129.054629,217.454629 129.804423,218.204423C131.518805,219.918805 133.979063,217.308570 134.118315,213.627555L134.236630,210.500000 134.930136,213.500000 C135.518375,216.044634 135.133162,216.964647 132.392311,219.561144L129.160981,222.622288 132.264547,223.793754 C133.971509,224.438060 135.622788,224.686438 135.934057,224.345705C136.245326,224.004972 135.941518,223.526637 135.258929,223.282738C134.310540,222.943865 134.352652,222.504491 135.437500,221.419643C137.651830,219.205313 137.886437,219.647958 137.315127,224.962260C136.927774,228.565392 137.185231,230.328088 138.255117,231.397974C139.354802,232.497659 140.016667,232.583333 140.864286,231.735714C141.711905,230.888095 142.000000,231.062297 142.000000,232.422445C142.000000,235.620443 144.931215,232.194207 148.541108,224.776679C150.908225,219.912780 151.447294,218.000000 150.450944,218.000000C149.623224,218.000000 149.296918,217.389819 149.642725,216.488659C150.058927,215.404056 149.764507,215.153137 148.600000,215.600000C147.403391,216.059182 147.139675,215.799587 147.595648,214.611341C147.935729,213.725103 147.753333,213.000000 147.190322,213.000000C146.627312,213.000000 145.939693,213.562500 145.662281,214.250000C145.369663,214.975184 145.124748,214.740479 145.078947,213.690983C145.035526,212.696024 144.542660,212.164618 143.983688,212.510081C143.424717,212.855545 143.226274,213.557102 143.542705,214.069098C143.859136,214.581094 143.689621,215.000000 143.166006,215.000000C141.356453,215.000000 140.991922,212.006532 142.781385,211.841556C146.742829,211.476340 148.622711,212.164640 150.745033,214.757365C152.878863,217.364150 152.990312,217.392147 152.995033,215.322580C153.000452,212.946807 148.697542,208.996311 146.115141,209.006161C145.226814,209.009549 143.248547,209.665102 141.718992,210.462945L138.937985,211.913568 140.706586,208.919564 C141.679317,207.272863 142.604254,206.312761 142.762002,206.786005C142.919750,207.259250 144.448850,207.440968 146.160002,207.189825C148.458160,206.852526 149.540137,207.213786 150.300370,208.572248C151.289226,210.339236 151.359526,210.334667 152.094491,208.455648C152.728726,206.834158 152.871439,206.996370 152.929715,209.404988C152.994488,212.082173 153.137231,212.190822 154.750000,210.790508C156.263431,209.476446 156.939342,209.455882 159.750000,210.638388C161.537500,211.390429 163.000000,212.317322 163.000000,212.698149C163.000000,213.078976 161.838101,214.603323 160.418003,216.085587C158.534171,218.051883 158.170354,218.987250 159.072511,219.544814C159.919964,220.068569 160.054469,219.897149 159.500000,219.000000C158.931187,218.079641 159.078745,217.930633 159.996982,218.498135C161.059286,219.154675 161.041468,219.510724 159.901490,220.406260C159.130671,221.011796 158.355357,222.180606 158.178571,223.003617C157.440733,226.438562 156.481575,225.639002 156.839363,221.887244C157.052347,219.653893 156.786692,217.386692 156.249018,216.849018C154.972627,215.572627 152.000000,218.485351 152.000000,221.012412C152.000000,222.040667 151.550000,223.160081 151.000000,223.500000C149.336198,224.528286 149.876736,226.000000 151.918213,226.000000C155.225350,226.000000 157.000000,227.139140 157.000000,229.261976C157.000000,231.182703 156.886353,231.207126 155.171259,229.654988C154.165452,228.744744 152.477952,228.006891 151.421259,228.015313C149.264987,228.032499 145.673193,229.959246 147.750000,229.984687C148.437500,229.993109 149.000000,230.750000 149.000000,231.666667C149.000000,232.583333 148.706995,233.040328 148.348877,232.682210C147.990759,232.324092 147.057388,232.811592 146.274719,233.765544C145.492051,234.719495 145.136614,234.937500 145.484860,234.250000C146.584758,232.078602 145.124262,232.899297 143.935416,235.120677C143.020742,236.829760 143.062435,237.106496 144.150232,236.546520C145.010198,236.103826 144.955682,236.333506 144.000000,237.179460C143.175000,237.909736 142.420841,238.955606 142.324092,239.503617C142.227342,240.051628 141.813370,241.361320 141.404153,242.414045C140.840047,243.865228 140.984357,244.127702 142.000910,243.499438C142.738342,243.043679 142.477315,243.855718 141.420848,245.303968C139.286814,248.229395 138.000000,248.719550 138.000000,246.606989C138.000000,244.784168 134.864540,243.601145 133.951000,245.079283C133.442391,245.902230 133.088938,245.841165 132.699998,244.863153C132.275777,243.796421 132.140727,243.784649 132.078947,244.809017C132.035526,245.528976 131.662500,245.916515 131.250000,245.670215C130.837500,245.423914 128.580390,247.084856 126.234201,249.361198L121.968401,253.500000 125.020675,253.500000 C126.699426,253.500000 128.499645,252.825000 129.021162,252.000000C130.438634,249.757667 130.193154,251.601954 128.551027,255.532119C126.645916,260.091691 128.053753,259.913411 133.484689,254.907349C137.807054,250.923131 137.882358,250.750088 136.326887,248.376140C135.448095,247.034934 134.973952,245.692715 135.273235,245.393431C135.572519,245.094147 136.090523,245.709853 136.424355,246.761665C136.758188,247.813477 138.571595,249.146774 140.454150,249.724547C143.714537,250.725188 144.095527,250.565635 148.482086,246.362572C151.014896,243.935713 152.816019,241.511329 152.484581,240.975051C152.153143,240.438773 152.583524,240.000000 153.440983,240.000000C154.298442,240.000000 155.000000,239.550000 155.000000,239.000000C155.000000,238.450000 154.463992,238.000000 153.808870,238.000000C153.153749,238.000000 153.491249,237.288264 154.558870,236.418365C156.137332,235.132233 156.182556,234.935884 154.800928,235.367437C153.550908,235.757883 153.265455,235.471810 153.720866,234.285028C154.130345,233.217943 153.947736,232.914267 153.181393,233.387893C152.424501,233.855678 152.229353,233.565892 152.618443,232.551938C152.945987,231.698372 152.753333,231.000000 152.190322,231.000000C151.627312,231.000000 150.939693,231.562500 150.662281,232.250000C150.360964,232.996741 150.126110,232.795438 150.078947,231.750000C149.974926,229.444182 152.254556,229.518813 154.401829,231.891522C155.350168,232.939425 156.918788,233.572492 157.918911,233.310954C158.993757,233.029876 159.978146,233.500666 160.351849,234.474521C160.894048,235.887468 161.559585,235.706291 165.239755,233.143905C170.352796,229.583856 172.777039,226.831118 172.233978,225.201934C172.013623,224.540870 172.320833,224.000000 172.916667,224.000000C173.512500,224.000000 174.000000,223.523442 174.000000,222.940983C174.000000,222.358524 173.555154,222.156896 173.011454,222.492921C172.424267,222.855822 172.290259,222.407171 172.681393,221.387893C173.125152,220.231476 172.962107,219.905385 172.181393,220.387893C171.403842,220.868446 171.236435,220.547434 171.672281,219.411639C172.271540,217.849995 172.425000,217.860737 173.660827,219.550831C174.397372,220.558116 175.000000,221.821251 175.000000,222.357796C175.000000,222.894342 175.258181,223.075152 175.573736,222.759597C175.889291,222.444042 175.438991,220.815808 174.573068,219.141298L172.998664,216.096736 170.283904,218.612690 L167.569145,221.128645 165.642967,218.484428 C164.326073,216.676624 163.484803,216.215572 162.983394,217.026868C162.496727,217.814313 162.034854,217.865412 161.610479,217.178759C161.258743,216.609638 161.910037,215.845941 163.057801,215.481655C164.315015,215.082631 164.929592,214.258904 164.603706,213.409658C164.306191,212.634346 164.498646,212.000000 165.031385,212.000000C165.564123,212.000000 166.000000,212.955100 166.000000,214.122445C166.000000,215.770119 166.296120,215.999132 167.323794,215.146238C168.290490,214.343951 168.964872,214.364872 169.823794,215.223794C170.725402,216.125402 171.014798,215.361100 171.063386,211.950000C171.121762,207.851778 171.213162,207.697628 172.219601,210.000000C172.820656,211.375000 173.242132,212.837500 173.156214,213.250000C172.994888,214.024544 176.620993,218.000000 177.488798,218.000000C177.757638,218.000000 177.978429,216.987500 177.979446,215.750000C177.980464,214.512500 178.141776,211.475000 178.337918,209.000000C178.743739,203.879178 177.696716,200.289941 175.210685,198.279716C173.654181,197.021114 173.703232,196.952387 175.754926,197.517172C177.299092,197.942246 178.199624,197.643364 178.611915,196.568951C179.656343,193.847214 182.680427,194.806778 184.386059,198.401129C186.249400,202.327830 186.405276,203.368508 185.000000,202.500000C183.251136,201.419142 181.773326,203.021948 183.073886,204.589028C183.738086,205.389339 183.818617,206.000000 183.259958,206.000000C182.718246,206.000000 182.398308,207.123063 182.548985,208.495697C182.699662,209.868330 182.412781,211.244887 181.911471,211.554714C181.410162,211.864540 181.000000,211.566476 181.000000,210.892350C181.000000,210.218224 180.710875,209.955792 180.357499,210.309167C180.004124,210.662543 180.264670,211.613982 180.936491,212.423476C181.783169,213.443660 181.854415,214.437729 181.168677,215.663075C180.370840,217.088730 180.749130,217.777358 183.123266,219.221157C186.110525,221.037817 187.746676,223.586657 186.637543,224.695790C186.302299,225.031034 185.089046,224.111627 183.941424,222.652662C181.142736,219.094707 178.588907,219.311060 176.113846,223.315794C174.986745,225.139480 173.150044,227.459225 172.032286,228.470781C170.914529,229.482338 170.000000,231.420331 170.000000,232.777432C170.000000,234.824356 169.751818,235.038917 168.543805,234.036355C167.006191,232.760249 165.000000,233.399758 165.000000,235.166006C165.000000,235.742390 165.644163,235.966789 166.431474,235.664669C170.750972,234.007123 163.933859,245.378663 157.604993,250.388011C155.442546,252.099605 150.542331,256.425000 146.715625,260.000000L139.757978,266.500000 143.878989,260.584217 C148.074348,254.561707 148.993881,252.320843 146.750000,253.587687C145.750000,254.152265 145.750000,254.024068 146.750000,252.946704C147.437500,252.206017 147.993109,250.902500 147.984687,250.050000C147.975336,249.103467 147.683336,248.908091 147.234687,249.548180C146.830609,250.124678 145.037500,251.617821 143.250000,252.866274C141.462500,254.114727 140.000000,255.780546 140.000000,256.568094C140.000000,258.442501 140.925500,258.377397 143.171259,256.345012C146.243604,253.564579 145.203441,255.430909 141.936098,258.561222C139.927060,260.486002 139.108578,260.880624 139.558779,259.707419C139.936400,258.723356 139.852656,257.989904 139.372681,258.077527C137.319257,258.452396 136.611847,257.897093 138.000000,257.000000C138.948675,256.386919 139.052098,256.024997 138.281385,256.015313C137.611146,256.006891 137.321791,255.325000 137.638374,254.500000C138.578668,252.049631 137.330704,252.753387 132.790400,257.233886C130.430680,259.562524 128.179552,261.368208 127.787893,261.246517C127.396234,261.124827 125.868024,262.144578 124.391870,263.512631C122.915717,264.880684 120.986165,266.006891 120.103977,266.015313C118.866953,266.027122 118.799622,266.220644 119.809668,266.861207C121.427653,267.887320 117.680501,270.593258 113.354158,271.522935C110.630472,272.108222 110.588734,272.064575 112.441130,270.568129C113.508751,269.705658 113.958751,268.993109 113.441130,268.984687C112.923508,268.976265 113.175000,268.533156 114.000000,268.000000C115.115707,267.278975 115.160049,267.026702 114.173077,267.015313C113.443269,267.006891 111.418269,268.434832 109.673077,270.188516C106.124857,273.754001 100.210934,278.000000 98.793065,278.000000C98.282753,278.000000 98.116395,276.987500 98.423381,275.750000C98.730368,274.512500 98.722257,274.065304 98.405359,274.756231C98.088460,275.447157 97.459581,275.784036 97.007849,275.504851C96.556116,275.225665 96.409464,275.849790 96.681955,276.891796C97.316382,279.317850 93.581064,280.600070 82.000000,281.931660C74.905246,282.747414 67.667545,284.347731 55.750000,287.735757C54.787500,288.009385 54.000000,287.982916 54.000000,287.676936 Z"/>
<path d="M45.404988,283.169565 C47.638229,280.626156 48.666667,280.415036 48.666667,282.500000C48.666667,283.325000 48.328471,284.000000 47.915121,284.000000C47.501771,284.000000 46.339271,284.301304 45.331787,284.669565C43.601303,285.302102 43.605351,285.219148 45.404988,283.169565 Z"/>
<path d="M77.449923,273.918973 C77.071990,273.307465 75.634796,273.108624 74.140906,273.461160C71.581869,274.065054 71.595133,274.024937 74.568781,272.167091C76.256610,271.112586 78.596106,269.945579 79.767659,269.573742C81.833386,268.918106 81.851759,268.989881 80.375637,271.948838C78.696045,275.315660 78.425653,275.497738 77.449923,273.918973 Z"/>
<path d="M68.000000,272.181462 C68.000000,271.596576 68.498043,270.810226 69.106763,270.434017C69.881485,269.955212 69.815171,269.503803 68.885723,268.929373C68.155432,268.478028 67.906856,267.759810 68.333333,267.333333C68.759810,266.906856 69.527387,267.219889 70.039060,268.028960C70.940591,269.454486 71.110450,269.302467 71.375000,266.833333C71.443750,266.191667 72.121762,265.459413 72.881693,265.206102C73.884811,264.871730 73.747814,265.623446 72.381693,267.949653C70.184642,271.690755 68.000000,273.800667 68.000000,272.181462 Z"/>
<path d="M124.564964,266.022788 C122.850138,265.421260 122.824436,265.281348 124.323115,264.706251C125.279146,264.339387 126.000000,264.545780 126.000000,265.186372C126.000000,265.824127 126.790752,265.594355 127.828741,264.654988C128.834548,263.744744 130.211106,263.000000 130.887758,263.000000C131.564410,263.000000 131.812172,262.505104 131.438340,261.900232C130.974658,261.149979 131.451426,261.171228 132.938514,261.967094C134.819433,262.973731 135.075979,262.889529 134.809191,261.353114C134.625658,260.296160 135.211216,259.426369 136.250000,259.212928C138.801651,258.688635 138.414572,261.454910 135.750000,262.786196C130.326222,265.496048 126.346400,266.647682 124.564964,266.022788 Z"/>
<path d="M167.216862,255.742830 C168.318335,252.309274 169.282643,246.698654 169.359770,243.274787C169.436896,239.850920 169.657950,237.512271 169.851001,238.077790C170.044051,238.643308 170.864922,238.294654 171.675158,237.303003C172.485394,236.311351 172.893054,236.014497 172.581068,236.643326C172.260659,237.289134 173.098690,238.058938 174.506911,238.412379C175.878110,238.756528 177.000000,239.529383 177.000000,240.129836C177.000000,240.730289 177.939033,240.159215 179.086739,238.860784L181.173478,236.500000 179.152449,239.500000 C178.040883,241.150000 175.856459,243.676911 174.298174,245.115357C172.669361,246.618907 170.467538,250.555944 169.118719,254.376639C166.116060,262.882035 164.570458,263.992312 167.216862,255.742830 Z"/>
<path d="M51.404508,254.154508 C51.796948,253.519529 51.586376,253.000000 50.936572,253.000000C50.056147,253.000000 50.072308,252.617800 51.000000,251.500000C52.380738,249.836313 55.485109,249.406060 54.489919,251.016312C54.144455,251.575283 53.366425,251.726463 52.760963,251.352267C52.056911,250.917139 51.885855,251.260158 52.286387,252.303930C52.630833,253.201541 52.412777,254.244890 51.801818,254.622483C51.129164,255.038206 50.972441,254.853609 51.404508,254.154508 Z"/>
<path d="M142.065294,246.421326 C143.385572,244.830488 145.000000,244.534549 145.000000,245.883369C145.000000,246.369221 144.074282,247.008818 142.942849,247.304694C141.254881,247.746108 141.097392,247.587576 142.065294,246.421326 Z"/>
<path d="M188.728111,230.690646 C189.208588,224.850762 188.996359,223.486350 187.237461,221.107312C185.755170,219.102407 185.564379,218.333333 186.549296,218.333333C187.298796,218.333333 187.680260,218.708333 187.396994,219.166667C186.430438,220.730587 188.129229,220.003215 191.566722,217.381311C195.709815,214.221220 196.026227,215.494833 192.879904,222.667095C191.713851,225.325193 190.176622,229.750000 189.463839,232.500000L188.167870,237.500000 Z"/>
<path d="M183.167640,230.948953 C183.752620,229.270878 184.416801,228.083468 184.643598,228.310265C185.138809,228.805475 183.251869,234.000000 182.576770,234.000000C182.316768,234.000000 182.582659,232.627029 183.167640,230.948953 Z"/>
<path d="M78.906268,216.032591 C81.473178,210.205337 86.000000,206.712409 86.000000,210.559017C86.000000,211.416476 85.550000,211.839919 85.000000,211.500000C84.450000,211.160081 84.000000,211.385081 84.000000,212.000000C84.000000,212.614919 83.550000,212.839919 83.000000,212.500000C82.450000,212.160081 81.983817,212.471024 81.964037,213.190983C81.944257,213.910942 80.805391,215.850000 79.433222,217.500000L76.938371,220.500000 Z"/>
<path d="M137.000000,217.934259 C137.000000,216.224441 138.983433,213.000000 140.035184,213.000000C140.565833,213.000000 141.000000,213.926558 141.000000,215.059017C141.000000,216.191476 140.550000,216.839919 140.000000,216.500000C139.450000,216.160081 139.000000,216.583524 139.000000,217.440983C139.000000,218.298442 138.550000,219.000000 138.000000,219.000000C137.450000,219.000000 137.000000,218.520416 137.000000,217.934259 Z"/>
<path d="M159.753835,208.166667 C159.462136,207.051207 159.808034,206.333333 160.637204,206.333333C161.386742,206.333333 162.000000,207.158333 162.000000,208.166667C162.000000,209.175000 161.602484,210.000000 161.116631,210.000000C160.630779,210.000000 160.017520,209.175000 159.753835,208.166667 Z"/>
<path d="M187.428571,205.073419 C187.428571,204.013799 187.812431,203.384076 188.281594,203.674035C188.750756,203.963993 189.370932,203.297559 189.659762,202.193070C190.634520,198.465591 197.000000,198.442121 197.000000,202.166006C197.000000,203.239621 196.542660,203.835382 195.983688,203.489919C195.424717,203.144455 195.226274,202.442898 195.542705,201.930902C196.899110,199.736193 193.563951,201.255282 191.000000,204.000000C187.701193,207.531385 187.428571,207.613323 187.428571,205.073419 Z"/>
<path d="M125.000000,202.450340 C125.000000,200.466344 128.611390,195.597972 131.298549,193.959516C136.486114,190.796472 145.744852,191.895371 144.357977,195.509511C144.045826,196.322962 143.380243,196.735003 142.878903,196.425158C142.377563,196.115313 142.273537,195.366425 142.647733,194.760963C143.089670,194.045894 142.726751,193.890878 141.612107,194.318607C140.592829,194.709741 140.144178,194.575733 140.507079,193.988546C140.843104,193.444846 140.678976,193.000000 140.142350,193.000000C139.605724,193.000000 138.938426,193.562500 138.659464,194.250000C138.277774,195.190676 137.889752,195.128811 137.091444,194.000000C136.303709,192.886141 136.026684,192.839131 136.015313,193.817388C136.004949,194.709024 135.304756,194.914113 133.848728,194.451988C132.111421,193.900588 131.821569,194.092632 132.342436,195.449991C132.862572,196.805444 132.573172,196.999305 130.847303,196.451536C129.033138,195.875742 128.791381,196.094240 129.259975,197.886145C129.642853,199.350272 129.347602,200.000000 128.299392,200.000000C127.365017,200.000000 127.006241,200.573880 127.361626,201.500000C127.712250,202.413711 127.363208,203.000000 126.468615,203.000000C125.660877,203.000000 125.000000,202.752653 125.000000,202.450340 Z"/>
<path d="M145.070285,198.250000 C145.031628,196.462500 145.450000,195.000000 146.000000,195.000000C147.187174,195.000000 147.187174,196.737298 146.000000,199.500000C145.279791,201.176017 145.129185,200.973527 145.070285,198.250000 Z"/>
<path d="M191.000000,197.299690 C191.000000,196.639520 190.403565,195.739520 189.674589,195.299690C188.945613,194.859861 188.035311,193.648850 187.651697,192.608556C187.059709,191.003192 187.184551,190.908275 188.477108,191.981001C189.734539,193.024576 190.000000,192.962075 190.000000,191.622445C190.000000,190.730100 190.635182,190.000000 191.411516,190.000000C193.045253,190.000000 192.946987,188.524608 191.078498,185.000000L189.753181,182.500000 191.876591,184.708187 C193.044466,185.922689 194.000000,187.105233 194.000000,187.336063C194.000000,187.566892 194.748915,189.498208 195.664255,191.627876C198.252637,197.650109 198.085705,198.500000 194.314463,198.500000C192.402739,198.500000 191.000000,197.992008 191.000000,197.299690 Z"/>
<path d="M178.924314,188.257154 C177.158488,186.259316 177.065279,185.988290 178.581152,187.259336C179.725785,188.219101 180.963285,188.703382 181.331152,188.335515C181.699018,187.967648 182.000000,188.416667 182.000000,189.333333C182.000000,191.549531 181.760171,191.465615 178.924314,188.257154 Z"/>
<path d="M124.609738,183.583333 C124.961033,182.437500 124.891571,181.838482 124.455379,182.252182C123.372140,183.279565 119.887525,179.991005 120.687626,178.696414C121.080244,178.061146 120.684139,177.907229 119.664045,178.298676C118.675445,178.678038 117.993784,178.442588 117.984687,177.718615C117.974967,176.945042 117.609764,177.047804 116.984687,178.000000L116.000000,179.500000 115.015313,178.000000 C114.185030,176.735209 114.028224,176.793610 114.015313,178.372445C114.002251,179.969697 113.766481,180.051086 112.411103,178.926222C111.044363,177.791929 110.869589,177.879673 111.161103,179.553777C111.376835,180.792686 111.001128,181.394281 110.127319,181.209106C109.253751,181.023983 108.969636,181.478489 109.345934,182.459106C109.999109,184.161252 108.485247,184.594163 107.493160,182.988933C107.149480,182.432847 108.213307,180.632847 109.857220,178.988933C113.805465,175.040689 118.384286,174.955583 122.712200,178.750000C126.358306,181.946655 127.857677,185.666667 125.500000,185.666667C124.412911,185.666667 124.155616,185.064562 124.609738,183.583333 Z"/>
<path d="M155.000000,180.402874 C155.000000,178.044751 156.985691,174.873122 158.050173,175.531009C158.572578,175.853873 159.000000,176.568034 159.000000,177.118034C159.000000,177.668034 158.581094,177.859136 158.069098,177.542705C157.557102,177.226274 156.855545,177.424717 156.510081,177.983688C156.164618,178.542660 156.358524,179.000000 156.940983,179.000000C158.532291,179.000000 158.214133,180.703852 156.500000,181.361626C155.568310,181.719149 155.000000,181.355904 155.000000,180.402874 Z"/>
<path d="M194.000000,173.500000 C192.708255,172.125000 190.942313,171.006891 190.075686,171.015313C188.810268,171.027610 188.767160,171.199906 189.856763,171.890313C190.959543,172.589069 190.970591,172.900142 189.915780,173.552051C189.192701,173.998938 188.468345,173.905034 188.279997,173.339991C188.073280,172.719841 186.221447,172.586988 183.513131,172.998007C181.077275,173.367678 178.502834,173.301246 177.792151,172.850380C177.006905,172.352212 178.265331,172.018611 181.000000,172.000000C186.118839,171.965163 189.205631,170.676622 186.582032,169.669852C185.471282,169.243618 185.071792,167.996105 185.248187,165.504572L185.500000,161.947767 188.272222,165.223883 C193.991934,171.983244 197.155103,176.000000 196.758343,176.000000C196.533000,176.000000 195.291745,174.875000 194.000000,173.500000 Z"/>
<path d="M151.000000,170.081787 C151.000000,169.576771 150.726855,168.451771 150.393011,167.581787C150.059167,166.711804 150.186019,166.000000 150.674903,166.000000C151.163788,166.000000 151.656892,167.125000 151.770691,168.500000C151.884489,169.875000 151.757638,171.000000 151.488798,171.000000C151.219959,171.000000 151.000000,170.586804 151.000000,170.081787 Z"/>
<path d="M130.527180,163.088468 C128.659697,162.358671 128.707538,162.175546 131.423203,159.658753C134.890215,156.445636 136.000000,156.315591 136.000000,159.122445C136.000000,160.836160 135.728282,161.019384 134.589028,160.073886C132.906754,158.677724 131.711354,160.084225 132.603744,162.409758C133.281233,164.175264 133.295914,164.170466 130.527180,163.088468 Z"/>
<path d="M162.615352,151.559992 C163.298640,149.779372 167.422682,147.000000 169.381483,147.000000C170.180001,147.000000 171.004413,146.486761 171.213510,145.859470C171.438603,145.184191 172.755941,145.796080 174.442866,147.359470C176.395224,149.168854 176.807612,150.000000 175.753012,150.000000C174.906543,150.000000 173.954956,149.325000 173.638374,148.500000C172.854980,146.458509 171.000000,146.599125 171.000000,148.700000C171.000000,150.022222 170.733333,150.133333 169.800000,149.200000C168.097540,147.497540 166.675814,147.712801 167.386719,149.565391C167.857789,150.792980 167.524543,150.983871 165.842436,150.449991C164.138348,149.909135 163.824872,150.101239 164.317343,151.384601C164.710836,152.410026 164.412327,153.000000 163.500000,153.000000C162.659916,153.000000 162.292359,152.401699 162.615352,151.559992 Z"/>
<path d="M113.204344,137.955599 C111.954422,135.954156 111.991394,135.944189 114.963797,137.481279C118.414046,139.265472 118.786381,140.000000 116.240547,140.000000C115.272848,140.000000 113.906556,139.080019 113.204344,137.955599 Z"/>
<path d="M112.571429,134.428571 C111.707143,133.564286 111.000000,132.678787 111.000000,132.460796C111.000000,131.570831 115.426033,133.778100 115.781834,134.845503C116.338071,136.514213 114.406178,136.263321 112.571429,134.428571 Z"/>
<path d="M117.200000,134.800000 C115.379899,132.979899 115.765052,131.560121 117.653695,133.127555C118.563227,133.882400 119.564477,134.353750 119.878695,134.175000C120.192913,133.996250 120.611250,134.333750 120.808333,134.925000C121.293758,136.381274 118.691114,136.291114 117.200000,134.800000 Z"/>
<path d="M107.452024,134.234687 C106.875638,133.830609 106.339011,132.459706 106.259521,131.188236L106.114993,128.876472 108.057496,131.345965 C110.698645,134.703642 110.368405,136.279227 107.452024,134.234687 Z"/>
<path d="M112.151607,131.114860 C111.409991,130.644877 110.959991,129.446401 111.151607,128.451580C111.483411,126.728939 111.583326,126.726141 113.250000,128.392836C116.069319,131.212189 115.302770,133.111841 112.151607,131.114860 Z"/>
<path d="M93.000000,128.000000 C92.285871,126.665639 92.270433,126.000000 92.953615,126.000000C93.516805,126.000000 93.884489,124.875000 93.770691,123.500000C93.656892,122.125000 92.986933,121.000000 92.281892,121.000000C90.654830,121.000000 90.641244,122.230310 92.250000,123.888098C92.937500,124.596552 91.837924,124.207103 89.806497,123.022656C87.466696,121.658408 86.312179,120.350050 86.656458,119.452872C87.063523,118.392077 87.676795,118.291842 89.099961,119.053498C90.144983,119.612776 91.030370,119.942035 91.067489,119.785184C91.850224,116.477635 91.761993,112.418146 90.884388,111.360696C88.800380,108.849620 90.890059,109.968722 93.459531,112.739782C96.024810,115.506320 97.278804,119.678804 94.800000,117.200000C92.504820,114.904820 91.868234,116.017028 93.957126,118.672624C95.542537,120.688147 95.753110,121.534552 94.813590,122.115208C93.957250,122.644455 94.416908,123.208010 96.283884,123.917833C99.176983,125.017787 99.979280,127.000000 97.531385,127.000000C96.636792,127.000000 96.287750,127.586289 96.638374,128.500000C97.518561,130.793731 94.255145,130.345259 93.000000,128.000000 Z"/>
<path d="M100.004220,128.596804 C100.540472,128.059943 100.505506,126.944547 99.918012,125.846804C98.553550,123.297284 99.787236,123.529893 102.056438,126.250000C104.550864,129.240084 104.465135,129.815817 101.551024,129.644213C100.094188,129.558424 99.467540,129.134093 100.004220,128.596804 Z"/>
<path d="M116.750000,129.310674 C115.787500,129.059147 115.000000,128.436348 115.000000,127.926676C115.000000,126.513893 116.606473,126.820903 118.000000,128.500000C118.684689,129.325000 119.077289,129.947799 118.872445,129.883999C118.667600,129.820198 117.712500,129.562202 116.750000,129.310674 Z"/>
<path d="M105.676575,127.296534 C104.550512,127.005380 104.072454,126.253572 104.426575,125.330748C104.741959,124.508870 105.000000,123.578485 105.000000,123.263225C105.000000,122.947965 105.900000,123.504514 107.000000,124.500000C109.000560,126.310482 109.662493,128.102467 108.250000,127.883999C107.837500,127.820198 106.679459,127.555839 105.676575,127.296534 Z"/>
<path d="M131.341293,127.256794 C131.711451,126.657865 131.497436,124.892570 130.865703,123.333916C128.972509,118.662903 129.053310,116.958163 131.115587,118.061860C133.683810,119.436332 134.386835,121.000000 132.436572,121.000000C131.055322,121.000000 130.977376,121.267813 132.000000,122.500000C133.507294,124.316178 137.006283,124.491688 136.984027,122.750000C136.975242,122.062500 135.625242,119.976521 133.984027,118.114491C130.645801,114.327128 130.018846,112.802093 132.855382,115.369123C133.937977,116.348858 135.499893,116.798474 136.605382,116.448605C138.345639,115.897842 138.357795,115.940454 136.754591,116.971616C134.889459,118.171246 135.125045,118.704603 139.438561,123.048007C141.358233,124.980979 141.348220,125.000000 138.411068,125.000000C136.779737,125.000000 134.370247,125.752795 133.056645,126.672878C131.743043,127.592961 130.971134,127.855723 131.341293,127.256794 Z"/>
<path d="M122.675343,126.342009 C122.313448,125.980114 122.468997,125.139820 123.021007,124.474688C123.715130,123.638321 123.558251,122.878271 122.512331,122.010234C121.648654,121.293445 121.000000,121.190041 121.000000,121.769147C121.000000,122.326867 119.856596,123.070160 118.459102,123.420909C116.922091,123.806674 116.192953,124.503187 116.613610,125.183825C117.041455,125.876093 116.858537,126.030605 116.138197,125.585410C115.494245,125.187426 115.197132,124.490051 115.477945,124.035686C115.758757,123.581322 115.251690,122.926824 114.351128,122.581246C113.450567,122.235668 113.004730,121.661937 113.360379,121.306287C113.716029,120.950638 113.320063,119.611230 112.480455,118.329826C110.049434,114.619620 112.213205,115.703985 115.387027,119.786444C117.599979,122.632942 118.147177,122.974660 117.730647,121.250000C117.146833,118.832695 117.418716,118.704743 120.500000,119.946701C121.633625,120.403625 123.035968,120.324715 123.737265,119.764540C125.204050,118.592915 128.000000,119.453779 128.000000,121.077023C128.000000,121.796367 127.068884,121.983121 125.475841,121.583293C123.145237,120.998348 123.048661,121.105057 124.216388,122.974885C124.911976,124.088698 126.047848,125.000000 126.740547,125.000000C127.433246,125.000000 128.000000,125.465833 128.000000,126.035184L128.000000,127.070368 126.065741,126.035184 C123.624932,124.728902 122.706636,124.716310 123.500000,126.000000C124.196687,127.127263 123.676382,127.343049 122.675343,126.342009 Z"/>
<path d="M100.192560,122.422321 C98.929192,121.537424 98.083227,120.292898 98.312636,119.656708C98.542046,119.020519 98.324720,117.712500 97.829689,116.750000C97.225508,115.575278 97.308269,115.000000 98.081448,115.000000C98.740933,115.000000 99.009708,114.145124 98.710251,113.000000C98.422595,111.900000 98.595110,111.000000 99.093620,111.000000C99.592129,111.000000 100.000000,110.309167 100.000000,109.464816C100.000000,108.239510 100.403701,108.145687 102.000000,109.000000C104.466790,110.320186 104.604400,111.989016 102.250000,112.031803C100.591157,112.061950 100.590347,112.132213 102.234456,113.380680C104.208599,114.879761 103.571520,116.156543 101.286835,115.279827C100.111537,114.828823 99.923219,115.182724 100.451988,116.848728C100.859677,118.133241 100.704719,119.000000 100.067388,119.000000C99.480324,119.000000 99.000000,119.450000 99.000000,120.000000C99.000000,120.550000 99.952484,121.000000 101.116631,121.000000C102.687071,121.000000 103.107873,120.520510 102.747347,119.141854C102.295818,117.415205 102.464483,117.385004 105.130715,118.715096C108.632824,120.462178 108.844717,122.000000 105.583333,122.000000C104.254167,122.000000 103.014325,122.457026 102.828129,123.015612C102.629990,123.610030 101.536967,123.363980 100.192560,122.422321 Z"/>
<path d="M113.295424,115.485519 C110.954394,113.283358 110.337441,112.072044 111.005939,110.990390C111.784495,109.730661 112.145982,109.807423 113.428712,111.504871C114.257936,112.602192 114.950705,114.035942 114.968197,114.690983C114.985688,115.346024 115.498210,116.189877 116.107134,116.566212C116.851671,117.026362 116.994010,116.556487 116.541743,115.131521C115.668933,112.381540 118.250913,113.207803 120.299254,116.333968C121.629735,118.364537 121.555312,118.500000 119.109247,118.500000C117.582672,118.500000 115.170304,117.249182 113.295424,115.485519 Z"/>
<path d="M121.555773,116.090242 C121.246529,115.589875 121.275571,114.445448 121.620311,113.547070C122.197479,112.042996 122.393826,112.046433 124.099974,113.590475C125.119049,114.512725 125.711891,115.657153 125.417402,116.133647C124.713613,117.272400 122.269408,117.244927 121.555773,116.090242 Z"/>
<path d="M127.200000,114.800000 C126.540000,114.140000 126.000000,112.940000 126.000000,112.133333C126.000000,110.742693 127.483028,111.427780 127.515313,112.833333C127.523735,113.200000 127.887792,114.062500 128.324330,114.750000C129.330646,116.334841 128.760209,116.360209 127.200000,114.800000 Z"/>
<path d="M87.570197,111.477476 C84.972880,109.070364 84.476346,106.918387 86.488686,106.790210C87.004964,106.757326 87.711272,107.353576 88.058260,108.115210C88.405249,108.876845 89.212903,110.512500 89.853048,111.750000C91.344780,114.633751 90.921329,114.583200 87.570197,111.477476 Z"/>
<path d="M128.523104,111.025529 C127.540325,109.939571 125.895580,108.784246 124.868116,108.458142C123.076506,107.889507 122.197449,105.975172 123.750000,106.023203C124.886512,106.058363 132.364044,113.000000 131.265406,113.000000C130.739919,113.000000 129.505883,112.111488 128.523104,111.025529 Z"/>
<path d="M114.270479,110.069276 C113.514463,108.853920 113.411634,107.863630 114.003469,107.497856C115.296923,106.698457 121.871594,107.983217 122.611181,109.179894C123.636572,110.839012 121.986491,111.472657 119.950954,110.201443C118.443480,109.260010 118.051219,109.255054 118.246433,110.179908C118.680649,112.237071 115.565034,112.150377 114.270479,110.069276 Z"/>
<path d="M106.879032,102.750000 C104.969499,100.000530 104.920510,99.746107 106.560938,101.098000C107.627422,101.976901 109.287500,102.975278 110.250000,103.316616C112.353835,104.062713 112.583485,106.000000 110.568094,106.000000C109.780546,106.000000 108.120468,104.537500 106.879032,102.750000 Z"/>
<path d="M70.238541,104.277719 C69.544738,104.029105 68.499305,102.932960 67.915356,101.841842C66.897501,99.939961 66.954121,99.923833 69.285673,101.451524C71.512746,102.910759 71.830070,102.909679 73.050869,101.438707C75.131797,98.931342 73.007119,96.424755 69.140427,96.825366C66.952084,97.052092 66.000000,96.723657 66.000000,95.742033C66.000000,94.870207 67.048061,94.336051 68.750000,94.340465C71.873738,94.348567 76.537141,99.157850 75.653682,101.460108C74.963354,103.259073 71.877149,104.864891 70.238541,104.277719 Z"/>
<path d="M113.542116,104.068145 C112.433004,102.273565 114.606060,101.218802 116.891972,102.442185L119.270502,103.715136 116.611384,104.223459 C115.148869,104.503036 113.767698,104.433145 113.542116,104.068145 Z"/>
<path d="M76.580774,98.130695 C76.245375,97.588009 76.877493,96.856270 77.985479,96.504609C79.093466,96.152947 80.000000,94.995549 80.000000,93.932612C80.000000,92.869676 80.505100,92.000000 81.122445,92.000000C81.863698,92.000000 81.784648,91.405686 80.889678,90.250000C79.786425,88.825357 79.949578,88.854172 81.767233,90.404988C84.012699,92.320810 84.800344,93.612674 83.071494,92.544186C82.560816,92.228570 81.998316,92.937942 81.821494,94.120570C81.447691,96.620657 77.509794,99.633880 76.580774,98.130695 Z"/>
<path d="M72.599961,93.399899 C71.747797,91.179195 71.828376,90.996911 73.396245,91.598559C74.164180,91.893243 75.467197,91.171071 76.291838,89.993731C77.272389,88.593798 78.030107,88.239697 78.481682,88.970361C79.253093,90.218531 77.565645,92.626909 74.932205,94.036283C73.672651,94.710376 73.036197,94.536711 72.599961,93.399899 Z"/>
<path d="M66.000000,88.698188 C66.000000,87.891186 67.356481,87.357926 69.568810,87.295215C71.776030,87.232649 73.671520,86.489367 74.537006,85.347027C75.783035,83.702414 75.939879,83.683953 75.968197,85.178571C76.001316,86.926583 73.479380,90.000000 72.011905,90.000000C71.547024,90.000000 70.939693,89.437500 70.662281,88.750000L70.157895,87.500000 70.078947,88.750000 C69.973686,90.416640 66.000000,90.366165 66.000000,88.698188 Z"/>
<path d="M67.681695,84.348362 C67.306763,83.973429 67.000000,82.811342 67.000000,81.765946C67.000000,80.283074 67.467120,80.013483 69.124846,80.539625C70.377345,80.937152 71.551850,80.725123 71.985682,80.023166C72.517149,79.163235 72.888942,79.268203 73.323598,80.400900C73.695815,81.370880 73.176488,82.370363 71.962762,83.019929C70.883243,83.597670 69.993109,83.717035 69.984687,83.285184C69.976265,82.853333 69.608028,83.069263 69.166382,83.765028C68.724736,84.460794 68.056627,84.723294 67.681695,84.348362 Z"/>
<path d="M75.142296,80.755761 L73.088189,77.511521 75.138411,76.753095 C76.266034,76.335960 77.415535,75.126997 77.692858,74.066509C77.970182,73.006021 78.715240,71.939579 79.348542,71.696636C80.879236,71.109443 81.323192,80.905651 79.846522,82.684929C78.212251,84.654106 77.399528,84.320814 75.142296,80.755761 Z"/>
<path d="M72.000000,73.067388 C72.000000,72.554451 72.890859,71.852028 73.979687,71.506447C75.068514,71.160867 75.894697,70.568042 75.815649,70.189060C75.736601,69.810077 76.012565,68.290232 76.428903,66.811628C77.258660,63.864784 74.383704,57.638985 72.522714,58.352662C71.960221,58.568374 71.435104,57.677271 71.355787,56.372433C71.276469,55.067595 71.544225,54.000000 71.950799,54.000000C73.369112,54.000000 76.190752,57.882340 75.538944,58.936987C75.177606,59.521644 75.372647,60.000000 75.972368,60.000000C79.420102,60.000000 76.281068,51.291158 72.009297,49.004975C70.478383,48.185655 69.600414,48.961766 66.348674,54.008879C64.231903,57.294374 62.135942,59.986443 61.690983,59.991254C61.246024,59.996064 61.203052,60.519529 61.595492,61.154508C62.022025,61.844654 61.871372,62.038538 61.220934,61.636545C60.622489,61.266685 58.208031,61.627227 55.855473,62.437750C53.502914,63.248272 51.397271,63.730605 51.176267,63.509600C50.546236,62.879569 57.319359,59.007909 59.058870,59.003738C61.118401,58.998799 64.685233,56.351900 63.810758,55.477425C63.433405,55.100071 61.677475,55.513279 59.908692,56.395664C56.183164,58.254202 56.000000,58.289051 56.000000,57.139325C56.000000,56.665954 58.700000,54.839566 62.000000,53.080684C66.298923,50.789382 68.000000,49.309791 68.000000,47.861903C68.000000,46.104132 67.578867,45.933586 64.764667,46.551688C62.985234,46.942517 60.548019,47.905268 59.348635,48.691135C56.824817,50.344804 55.520132,53.000000 57.231385,53.000000C58.114580,53.000000 58.110985,53.289015 57.216667,54.183333C54.986449,56.413551 54.547254,53.882216 56.523911,50.190578C57.671811,48.046740 59.862091,45.900484 61.750000,45.069533C65.175187,43.561958 66.091477,40.491477 63.800000,38.200000C62.866667,37.266667 62.872222,37.000000 63.825000,37.000000C64.498750,37.000000 65.318539,38.342696 65.646754,39.983769C65.974968,41.624842 66.638718,42.723284 67.121754,42.424752C68.353617,41.663419 68.215605,37.288095 66.877593,34.684259C65.952407,32.883802 65.987550,32.719641 67.077593,33.750000C69.368271,35.915254 70.281329,35.121052 69.690077,31.477592C69.351021,29.388237 69.501209,28.191730 70.059234,28.536609C71.545064,29.454902 71.154998,37.799588 69.474320,41.049660C67.723681,44.435021 67.985154,44.576158 72.082356,42.457412C73.810536,41.563736 74.776310,40.447079 74.378188,39.802904C73.965050,39.134433 74.145413,38.971836 74.830434,39.395202C76.769832,40.593817 74.972163,33.823818 72.448580,30.425173C70.975836,28.441751 70.463974,26.867308 71.006505,25.989475C72.258764,23.963277 75.235246,26.683445 74.455190,29.141183C74.130709,30.163532 74.345549,31.000000 74.932612,31.000000C75.519676,31.000000 75.946711,31.337500 75.881579,31.750000C75.816447,32.162500 75.823338,33.850000 75.896892,35.500000C76.119826,40.500995 77.967021,36.240226 77.984687,30.684259C78.003027,24.916520 76.642172,22.000000 73.932592,22.000000C71.574106,22.000000 69.845431,18.246947 71.099852,15.849961C71.714145,14.676153 71.463576,13.980942 70.231686,13.441203C69.279259,13.023907 68.205660,12.739538 67.845912,12.809271C66.608219,13.049184 64.608149,9.862299 65.564302,9.173785C66.078936,8.803203 66.500000,7.825000 66.500000,7.000000C66.500000,5.056561 72.153308,4.959923 72.797450,6.892350C73.105186,7.815557 72.830623,8.013353 71.975223,7.484687C71.101089,6.944443 70.936032,7.087481 71.458350,7.932610C71.880403,8.615504 73.100649,8.945436 74.170010,8.665792C75.643432,8.280484 75.862057,8.461285 75.072743,9.412350C74.344310,10.290058 74.402287,11.466588 75.265592,13.325874C76.453320,15.883863 78.000000,16.915137 78.000000,15.149086C78.000000,13.805953 83.288246,14.358516 83.750981,15.750000C83.979608,16.437500 83.652609,17.000000 83.024316,17.000000C82.396024,17.000000 82.160081,16.550000 82.500000,16.000000C82.839919,15.450000 82.632903,15.000000 82.039965,15.000000C81.429611,15.000000 81.194742,15.976152 81.498599,17.250000C81.793786,18.487500 81.626664,21.525000 81.127217,24.000000C80.627770,26.475000 80.169827,27.761642 80.109566,26.859204C79.985573,25.002363 76.055907,15.972639 76.021962,17.466567C75.990325,18.858958 79.173521,27.275046 80.285503,28.738990C80.803114,29.420434 81.562368,29.770471 81.972735,29.516851C82.383102,29.263230 82.573902,30.280685 82.396736,31.777861C82.017934,34.978985 82.837011,38.218767 83.864561,37.583706C84.260873,37.338772 84.687741,38.485036 84.813156,40.130960C84.938571,41.776884 85.144417,43.433251 85.270592,43.811775C85.396766,44.190299 85.162500,44.612500 84.750000,44.750000C82.515513,45.494829 81.872767,44.698194 82.146330,41.522948C82.311091,39.610569 81.895569,37.495569 81.222948,36.822948C80.550326,36.150326 79.968292,34.902500 79.929538,34.050000C79.890784,33.197500 79.212613,34.300000 78.422492,36.500000C77.632371,38.700000 75.783178,41.481412 74.313175,42.680916C71.968658,44.594011 71.811191,45.067573 73.030892,46.537222C74.081450,47.803068 75.491118,48.092034 78.797636,47.719342C81.749661,47.386606 82.844585,47.555415 82.161965,48.238035C81.605384,48.794616 80.066250,49.250000 78.741667,49.250000C77.403490,49.250000 76.333333,49.841442 76.333333,50.581011C76.333333,51.313068 76.699033,51.686008 77.146000,51.409767C77.592967,51.133527 78.867967,51.394154 79.979333,51.988940C82.730095,53.461102 85.788845,51.727303 86.626451,48.221135C87.583642,44.214393 87.858865,43.978511 90.285711,45.084953C91.573710,45.672174 92.557681,47.078021 92.637886,48.445617C92.755298,50.447635 91.985855,51.045208 87.456013,52.470018C83.275081,53.785082 81.675183,53.896531 79.982480,52.990624C77.349249,51.581361 76.518314,52.218430 77.799418,54.664354C79.386576,57.694603 78.619879,68.167654 76.585240,71.250000C74.844550,73.887031 72.000000,75.014486 72.000000,73.067388 Z"/>
<path d="M71.831314,66.497980 C71.010977,65.677643 72.013626,62.000000 73.057614,62.000000C73.511008,62.000000 74.119109,62.383705 74.408950,62.852678C75.071827,63.925236 72.663887,67.330554 71.831314,66.497980 Z"/>
<path d="M49.030409,62.896023 C48.993221,60.934490 53.844629,55.511296 54.790444,56.457110C55.164265,56.830932 54.522966,57.893509 53.365334,58.818393C52.207702,59.743277 50.765609,61.400000 50.160683,62.500000C49.307435,64.051550 49.053999,64.140348 49.030409,62.896023 Z"/>
<path d="M53.555773,36.090242 C53.246529,35.589875 53.282595,34.427145 53.635919,33.506396C54.147906,32.172180 54.449984,32.103104 55.123851,33.166154C55.802425,34.236630 55.975422,34.203823 56.000000,33.000000C56.019105,32.064276 56.307003,31.897989 56.765313,32.557964C57.169391,33.139845 58.612628,34.377345 59.972506,35.307964L62.445012,37.000000 58.281523,37.000000 C55.991604,37.000000 53.865016,36.590609 53.555773,36.090242 Z"/>
<path d="M61.232290,34.550909 C57.995018,32.762195 57.477374,32.050569 59.868328,32.675818C61.004712,32.972989 62.454324,33.842500 63.089686,34.608065C64.438226,36.232956 64.266976,36.227686 61.232290,34.550909 Z"/>
<path d="M68.000000,32.166667 C68.000000,31.525000 67.662500,31.053289 67.250000,31.118421C66.837500,31.183553 66.275000,31.156992 66.000000,31.059397C65.725000,30.961802 63.790491,30.751504 61.701092,30.592068C57.137482,30.243831 54.748948,28.402119 57.008359,26.973672C58.138491,26.259179 57.772930,26.023605 55.500000,26.001658C51.002775,25.958234 48.208772,24.986434 47.535305,23.231408C47.203631,22.367078 47.510002,21.293313 48.216130,20.845262C49.207685,20.216104 49.158476,20.023653 48.000000,20.000000C46.700916,19.973477 46.694521,19.846320 47.952254,19.050670C48.750994,18.545383 49.767300,18.356184 50.210713,18.630228C50.654125,18.904272 51.434587,18.087079 51.945072,16.814245C52.790596,14.706031 52.885899,14.678054 53.015561,16.500000C53.098668,17.667781 53.373291,17.963313 53.675538,17.210227C54.039643,16.303015 54.977117,16.704390 56.836160,18.563432C59.453624,21.180896 59.484065,21.185537 59.989569,19.044188C60.675001,16.140648 62.085757,15.999530 63.097061,18.733345C63.596708,20.084018 64.480236,20.752947 65.332572,20.425874C66.110538,20.127341 67.033978,20.646162 67.393850,21.583973C67.941192,23.010323 67.801460,23.080116 66.522892,22.018999C65.280425,20.987843 65.000000,21.017039 65.000000,22.177555C65.000000,24.203974 67.000659,25.936978 68.621855,25.314866C69.379835,25.024002 70.000000,25.209167 70.000000,25.726345C70.000000,27.440857 68.702976,27.998381 67.342009,26.868879C65.523842,25.359935 65.652161,26.539497 67.635458,29.566392C68.534960,30.939205 68.984960,32.348373 68.635458,32.697875C68.285956,33.047377 68.000000,32.808333 68.000000,32.166667 Z"/>
<path d="M86.715608,29.095708 C84.590606,25.498366 84.484305,22.000000 86.500000,22.000000C87.325000,22.000000 88.000000,22.675000 88.000000,23.500000C88.000000,24.325000 88.476558,25.000000 89.059017,25.000000C89.641476,25.000000 89.796948,24.480471 89.404508,23.845492C88.996249,23.184913 89.127005,22.960459 89.710137,23.320855C90.270672,23.667285 90.622632,24.974314 90.492269,26.225364C90.361907,27.476414 90.197816,29.287500 90.127623,30.250000C89.940107,32.821268 88.660666,32.388430 86.715608,29.095708 Z"/>
</g></svg>
