<?xml version="1.0" standalone="no"?>
<!DOCTYPE svg PUBLIC "-//W3C//DTD SVG 20010904//EN" "http://www.w3.org/TR/2001/REC-SVG-20010904/DTD/svg10.dtd">
<svg version="1.0" xmlns="http://www.w3.org/2000/svg" width="400pt" height="266pt" viewBox="0 0 400 266" preserveAspectRatio="xMidYMid meet">
<g fill="#fff" stroke="none">
<path d="M356.190053,213.379511 C355.469582,212.596616 354.387553,212.260479 353.785544,212.632541C353.099321,213.056650 352.978884,212.843184 353.462709,212.060339C353.887158,211.373566 355.306686,211.016635 356.617217,211.267158C357.927748,211.517682 359.000000,211.308501 359.000000,210.802311C359.000000,210.296121 359.450000,210.160081 360.000000,210.500000C361.478040,211.413479 361.213620,213.000000 359.583333,213.000000C358.804167,213.000000 358.016667,213.405665 357.833333,213.901478C357.650000,214.397291 356.910524,214.162406 356.190053,213.379511 Z"/>
<path d="M363.487343,213.979521 C363.154386,213.440785 363.246024,212.993109 363.690983,212.984687C364.135942,212.976265 363.825000,212.488379 363.000000,211.900495C361.857544,211.086396 362.274678,210.964906 364.750000,211.390808C367.247272,211.820486 368.000000,211.594708 368.000000,210.415983C368.000000,209.572274 368.393750,209.125317 368.875000,209.422746C369.356250,209.720175 369.750000,211.144775 369.750000,212.588525C369.750000,214.420670 369.494931,214.803729 368.905513,213.856763C368.225638,212.764469 367.674262,212.739666 366.076873,213.729521C364.828754,214.502944 363.868153,214.595683 363.487343,213.979521 Z"/>
<path d="M378.608582,213.422364 C378.286462,212.582932 378.429320,212.147300 378.926044,212.454293C379.422769,212.761285 380.031007,212.447157 380.277685,211.756231C380.524363,211.065304 381.066369,210.816071 381.482143,211.202381C381.897917,211.588690 381.553231,212.589626 380.716175,213.426682C379.353614,214.789243 379.132929,214.788790 378.608582,213.422364 Z"/>
<path d="M363.302786,206.208294 C362.644319,205.789700 362.434783,204.914541 362.837151,204.263496C363.350396,203.433047 363.934052,203.664754 364.792838,205.039889C366.050900,207.054366 365.416374,207.551922 363.302786,206.208294 Z"/>
<path d="M374.000000,205.940983 C374.000000,205.358524 373.480471,205.203052 372.845492,205.595492C372.130192,206.037571 371.962429,205.869808 372.404508,205.154508C373.430333,203.494690 375.666667,203.731538 375.666667,205.500000C375.666667,206.325000 375.291667,207.000000 374.833333,207.000000C374.375000,207.000000 374.000000,206.523442 374.000000,205.940983 Z"/>
<path d="M365.035184,203.065741 C363.602271,200.388320 363.627317,200.332402 367.016840,198.641486C368.676102,197.813737 369.798298,197.517343 369.510609,197.982834C369.222921,198.448324 369.396008,198.980114 369.895248,199.164590C370.394487,199.349065 370.172291,200.080242 369.401478,200.789427C368.592065,201.534126 368.000000,201.639740 368.000000,201.039427C368.000000,200.467742 367.625000,200.000000 367.166667,200.000000C366.708333,200.000000 366.333333,200.716250 366.333333,201.591667C366.333333,202.806046 367.004945,203.049011 369.166667,202.616667C370.816379,202.286724 372.000000,202.481959 372.000000,203.084017C372.000000,203.652726 371.581094,203.859136 371.069098,203.542705C370.557102,203.226274 369.855545,203.424717 369.510081,203.983688C368.492377,205.630368 366.150647,205.150003 365.035184,203.065741 Z"/>
<path d="M280.420411,196.871223 C280.124266,196.392050 280.696024,195.929564 281.690983,195.843476C287.682041,195.325105 289.013901,195.386099 288.255877,196.144123C287.046149,197.353851 281.061895,197.909166 280.420411,196.871223 Z"/>
<path d="M112.430902,195.888197 C111.677056,194.668449 113.922961,192.834354 115.202254,193.625000C115.641014,193.896169 116.000000,194.766476 116.000000,195.559017C116.000000,197.255937 113.423099,197.493606 112.430902,195.888197 Z"/>
<path d="M117.000000,195.475249 C117.000000,194.161435 119.764187,192.425366 122.285714,192.155515C123.912411,191.981427 126.099140,188.969429 125.409249,187.853162C124.978859,187.156777 125.126008,186.959843 125.776393,187.361803C126.373369,187.730755 127.144455,187.575283 127.489919,187.016312C127.835382,186.457340 128.653976,186.013684 129.309017,186.030409C129.964058,186.047133 129.674645,186.540678 128.665879,187.127175C127.392662,187.867423 127.007609,188.894180 127.406780,190.484603C127.897786,192.440929 127.508281,192.871070 124.740901,193.428598C122.958405,193.787707 120.712500,194.159609 119.750000,194.255047C118.787500,194.350486 118.000000,194.841022 118.000000,195.345128C118.000000,195.849234 119.687500,195.990559 121.750000,195.659184C124.323345,195.245732 125.029338,195.356760 124.000000,196.013029C121.567089,197.564165 117.000000,197.213295 117.000000,195.475249 Z"/>
<path d="M135.000000,193.152779 C135.000000,192.599407 134.212500,191.940853 133.250000,191.689326C132.196822,191.414101 132.618506,191.185813 134.309017,191.116001C135.950694,191.048207 136.861198,191.415569 136.500000,192.000000C135.742241,193.226080 135.725209,193.225994 139.939150,192.017451C141.823421,191.477050 142.945450,191.429641 142.432549,191.912099C140.954080,193.302810 135.000000,194.296697 135.000000,193.152779 Z"/>
<path d="M322.500000,192.000000 C322.839919,191.450000 323.724348,191.000000 324.465397,191.000000C325.344547,191.000000 325.620699,190.265556 325.260072,188.886514C324.765770,186.996303 324.932616,186.893570 326.839412,187.914056C328.858162,188.994458 328.918758,188.907507 327.979889,186.277542C327.112835,183.848743 327.158433,183.717775 328.343046,185.234456C329.088135,186.188408 330.062457,186.638408 330.508206,186.234456C330.953955,185.830505 331.047240,186.258427 330.715506,187.185392C330.383773,188.112358 330.424574,189.051105 330.806177,189.271497C331.187780,189.491889 330.966221,189.546107 330.313824,189.391981C329.661427,189.237855 328.015448,189.986608 326.656094,191.055876C324.050337,193.105565 321.451914,193.695839 322.500000,192.000000 Z"/>
<path d="M272.000000,191.000000 C272.000000,190.450000 272.675000,190.000000 273.500000,190.000000C274.325000,190.000000 275.000000,190.450000 275.000000,191.000000C275.000000,191.550000 274.325000,192.000000 273.500000,192.000000C272.675000,192.000000 272.000000,191.550000 272.000000,191.000000 Z"/>
<path d="M314.632289,190.515857 C314.897748,189.824082 314.363976,188.969912 313.446130,188.617702C312.234822,188.152879 311.936313,188.391652 312.357275,189.488659C312.676250,190.319897 312.501354,191.000000 311.968615,191.000000C311.435877,191.000000 311.000000,190.325000 311.000000,189.500000C311.000000,187.422586 309.248007,187.612141 308.689326,189.750000C308.393477,190.882100 308.191044,190.575329 308.116001,188.881173C308.013792,186.573707 308.336722,186.301551 310.832124,186.592097C314.987401,187.075907 319.202070,188.864028 318.575758,189.877421C317.659840,191.359407 314.086598,191.937905 314.632289,190.515857 Z"/>
<path d="M177.485185,185.447845 C177.126458,183.826530 176.659663,181.937500 176.447862,181.250000C176.236061,180.562500 176.750204,180.000000 177.590402,180.000000C178.430599,180.000000 178.845666,180.440700 178.512773,180.979333C178.179879,181.517967 178.346922,182.779713 178.883980,183.783215C179.446087,184.833521 179.494867,186.199289 178.998933,187.001727C178.361110,188.033746 177.968064,187.630279 177.485185,185.447845 Z"/>
<path d="M184.078947,186.225249 C184.035526,185.524136 185.068811,184.544137 186.375135,184.047474C188.284845,183.321403 188.661418,182.591414 188.296846,180.322225C188.034266,178.687865 188.192046,177.977431 188.671711,178.634318C189.127270,179.258193 190.400000,179.993492 191.500000,180.268316C193.354908,180.731747 193.340937,180.776413 191.307418,180.883999C189.678590,180.970174 189.213868,181.514238 189.500000,183.000000C189.797287,184.543687 189.346886,185.000000 187.525916,185.000000C186.228329,185.000000 184.939693,185.562500 184.662281,186.250000C184.265466,187.233411 184.141058,187.228133 184.078947,186.225249 Z"/>
<path d="M269.000000,185.000000 C269.000000,184.450000 269.675000,184.000000 270.500000,184.000000C271.325000,184.000000 272.000000,184.450000 272.000000,185.000000C272.000000,185.550000 271.325000,186.000000 270.500000,186.000000C269.675000,186.000000 269.000000,185.550000 269.000000,185.000000 Z"/>
<path d="M344.000000,185.192716 C335.121480,184.696676 335.368106,182.902032 344.271709,183.215552C348.522269,183.365225 352.000000,183.779811 352.000000,184.136854C352.000000,185.220504 349.768622,185.515008 344.000000,185.192716 Z"/>
<path d="M99.541119,183.933469 C99.903652,183.346877 100.448215,183.114882 100.751259,183.417925C101.054302,183.720968 101.872448,183.189115 102.569362,182.236029C103.266276,181.282942 104.177920,180.844587 104.595238,181.261905C105.465578,182.132244 102.152185,184.920548 100.190983,184.968197C99.471024,184.985688 99.178585,184.520061 99.541119,183.933469 Z"/>
<path d="M292.510484,184.264548 C291.416250,183.987651 289.922960,182.907323 289.192062,181.863819C288.461164,180.820316 287.443946,180.225626 286.931578,180.542287C286.419210,180.858948 286.000000,180.468960 286.000000,179.675648C286.000000,178.882336 285.100000,177.997907 284.000000,177.710251C281.544059,177.068008 281.314067,175.045659 283.750000,175.511973C284.712500,175.696225 289.212500,175.881408 293.750000,175.923489C300.382662,175.985001 302.000000,176.294062 302.000000,177.500000C302.000000,178.325000 301.325000,179.000000 300.500000,179.000000C299.675000,179.000000 299.000000,179.450000 299.000000,180.000000C299.000000,180.550000 299.675000,181.000000 300.500000,181.000000C302.202789,181.000000 302.509871,182.566848 300.991051,183.505531C299.585475,184.374224 295.845450,183.059085 296.537417,181.939458C296.848969,181.435356 296.405504,181.290899 295.551938,181.618443C293.485071,182.411574 293.583126,183.744411 295.750000,184.310674C296.880376,184.606073 296.968893,184.767997 296.000000,184.767997C295.175000,184.767997 293.604718,184.541445 292.510484,184.264548 Z"/>
<path d="M276.000000,182.000000 C276.000000,181.450000 277.125000,181.000000 278.500000,181.000000C279.875000,181.000000 281.000000,181.450000 281.000000,182.000000C281.000000,182.550000 279.875000,183.000000 278.500000,183.000000C277.125000,183.000000 276.000000,182.550000 276.000000,182.000000 Z"/>
<path d="M203.500000,181.000000 C202.769000,179.817217 203.747516,179.817217 206.500000,181.000000C208.428236,181.828591 208.421383,181.861951 206.309017,181.929715C205.103976,181.968372 203.839919,181.550000 203.500000,181.000000 Z"/>
<path d="M335.000000,178.200000 C335.000000,176.660000 335.489210,174.910790 336.087132,174.312868C336.869975,173.530025 336.826728,173.010946 335.932624,172.458359C335.067104,171.923439 334.933689,172.116441 335.492196,173.095492C336.139271,174.229799 336.035049,174.260245 334.950451,173.253747C332.988559,171.433128 336.791975,168.642359 338.997165,170.284456C340.223151,171.197387 340.278350,171.153934 339.296804,170.048576C337.601579,168.139514 339.454009,164.853253 341.732497,165.727591C343.218603,166.297863 343.253803,166.187284 342.010009,164.855799C340.733614,163.489414 340.306655,163.490946 337.902853,164.870539C336.243800,165.822705 335.433795,166.966877 335.780025,167.869138C336.140676,168.808980 335.923601,169.070817 335.169939,168.605028C334.526472,168.207344 334.000000,168.385081 334.000000,169.000000C334.000000,169.614919 333.520686,169.821802 332.934857,169.459740C332.237608,169.028816 332.463837,168.144947 333.589845,166.900723C334.535916,165.855325 334.816788,165.000000 334.214005,165.000000C333.611221,165.000000 332.839919,165.450000 332.500000,166.000000C331.749703,167.214007 330.000000,167.326348 330.000000,166.160515C330.000000,165.698798 331.146174,164.798798 332.547053,164.160515C335.667389,162.738795 336.300745,162.704367 335.500000,164.000000C334.600845,165.454863 335.723263,165.227431 338.535183,163.384990C339.890832,162.496735 341.000000,162.101835 341.000000,162.507435C341.000000,162.913035 341.606567,162.741483 342.347927,162.126209C343.428932,161.229055 343.713966,161.644534 343.787315,164.224334C343.837619,165.993577 343.343552,168.103264 342.689388,168.912528C341.732898,170.095799 341.773916,170.218850 342.898864,169.540938C344.060168,168.841117 344.177349,169.605425 343.588879,174.041530C342.687779,180.834353 342.565233,181.000000 338.440983,181.000000C335.338954,181.000000 335.000000,180.724186 335.000000,178.200000 Z"/>
<path d="M345.000000,174.200000 C345.000000,170.244444 345.501961,166.898039 346.200000,166.200000L347.400000,165.000000 346.200000,165.000000 C345.540000,165.000000 345.014221,163.987500 345.031601,162.750000C345.062278,160.565824 345.135834,160.582569 347.545889,163.322374C348.911366,164.874680 349.727617,166.631708 349.359779,167.226882C348.986357,167.831093 349.152562,168.023746 349.736107,167.663095C350.310926,167.307837 351.540762,168.176361 352.469076,169.593148C354.008513,171.942626 354.018131,172.322484 352.578460,173.913303C351.710307,174.872601 351.000000,176.859548 351.000000,178.328741C351.000000,180.630140 350.584623,181.000000 348.000000,181.000000L345.000000,181.000000 Z"/>
<path d="M103.250000,175.267795 C96.160703,174.629273 98.495631,173.000000 106.500000,173.000000C112.500000,173.000000 114.000000,173.300000 114.000000,174.500000C114.000000,176.037794 112.772466,176.125468 103.250000,175.267795 Z"/>
<path d="M93.000000,174.000000 C93.000000,173.450000 93.675000,173.000000 94.500000,173.000000C95.325000,173.000000 96.000000,173.450000 96.000000,174.000000C96.000000,174.550000 95.325000,175.000000 94.500000,175.000000C93.675000,175.000000 93.000000,174.550000 93.000000,174.000000 Z"/>
<path d="M175.404168,173.844940 C174.600214,172.544116 174.880580,172.377217 179.172019,171.601976C183.030772,170.904899 185.232983,172.274821 182.244256,173.513111C179.331260,174.720025 176.043572,174.879519 175.404168,173.844940 Z"/>
<path d="M221.333333,169.500000 C221.333333,168.675000 221.919210,168.000000 222.635282,168.000000C223.381727,168.000000 223.691637,168.640006 223.361626,169.500000C223.045044,170.325000 222.459167,171.000000 222.059678,171.000000C221.660188,171.000000 221.333333,170.325000 221.333333,169.500000 Z"/>
<path d="M178.000000,168.911516 C178.000000,167.115760 177.675509,166.481262 176.099234,165.194834C174.747400,164.091575 174.856811,164.063020 176.806487,165.010248C178.075054,165.626568 179.359708,166.773808 179.661271,167.559671C179.962835,168.345534 180.724916,168.693951 181.354785,168.333931C181.984653,167.973911 182.149475,168.064521 181.721056,168.535286C180.624292,169.740455 178.000000,170.005793 178.000000,168.911516 Z"/>
<path d="M350.575528,164.828846 C347.628764,161.009954 347.192785,160.032808 348.825528,160.906626C350.021488,161.546684 351.000000,161.813702 351.000000,161.500000C351.000000,161.186298 351.895521,161.408901 352.990048,161.994674C354.084574,162.580446 354.872074,163.608779 354.740048,164.279857C354.494722,165.526829 355.341430,165.600128 358.002057,164.562248C358.902362,164.211049 360.034680,164.825884 360.828483,166.096965C361.920508,167.845575 361.921713,168.140571 360.835355,167.778452C360.110731,167.536910 358.919196,167.937946 358.187500,168.669643C356.014538,170.842605 354.706727,170.182718 350.575528,164.828846 Z"/>
<path d="M183.553194,166.278025 C182.987140,164.802911 182.758958,164.767072 181.961518,166.028025C181.165796,167.286262 181.028402,167.262827 181.015313,165.866631C181.006891,164.968279 181.900000,163.997907 183.000000,163.710251C184.590813,163.294244 185.000000,163.679569 185.000000,165.593620C185.000000,168.426301 184.473193,168.675505 183.553194,166.278025 Z"/>
<path d="M112.666667,165.333333 C111.896060,164.562726 111.753474,160.000000 112.500000,160.000000C113.596082,160.000000 117.125110,164.208223 116.528960,164.804373C116.178222,165.155111 115.472613,164.780111 114.960940,163.971040C114.122451,162.645197 113.573078,163.296162 113.881579,165.250000C114.028153,166.178301 113.544790,166.211456 112.666667,165.333333 Z"/>
<path d="M265.000000,164.500000 C265.684689,163.675000 266.891347,163.000000 267.681462,163.000000C268.471576,163.000000 268.843104,162.555154 268.507079,162.011454C268.152294,161.437400 268.569630,161.281357 269.502408,161.639298C270.779366,162.129312 270.477524,162.639522 268.030176,164.127843C264.310621,166.389840 263.331803,166.510055 265.000000,164.500000 Z"/>
<path d="M215.000000,164.212804 C215.000000,163.779847 215.900000,163.357814 217.000000,163.274953C218.100000,163.192093 219.000000,163.546331 219.000000,164.062149C219.000000,164.577967 218.100000,165.000000 217.000000,165.000000C215.900000,165.000000 215.000000,164.645762 215.000000,164.212804 Z"/>
<path d="M259.000000,163.000000 C259.000000,161.133333 259.266667,160.866667 260.200000,161.800000L261.400000,163.000000 260.200000,164.200000 C259.266667,165.133333 259.000000,164.866667 259.000000,163.000000 Z"/>
<path d="M182.750000,160.919901 C180.451146,159.580942 180.523676,157.325289 182.906589,156.049992C184.684195,155.098646 184.718949,154.716521 183.420316,150.401489C182.433701,147.123217 182.329041,145.296000 183.061476,144.136680C183.901026,142.807817 183.979807,142.923167 183.480362,144.750000C183.121604,146.062234 183.310096,147.000000 183.932612,147.000000C184.519676,147.000000 185.000000,146.100000 185.000000,145.000000C185.000000,143.900000 185.393750,143.000000 185.875000,143.000000C186.991867,143.000000 188.038650,148.185708 187.868359,152.875000L187.736718,156.500000 187.000000,153.000000 C186.345308,149.889689 185.941771,150.064630 185.582615,153.614465C185.520599,154.227420 184.850490,155.475222 184.093486,156.387357C182.898123,157.827681 182.932983,157.962947 184.358556,157.415903C185.460830,156.992921 186.000000,157.313875 186.000000,158.393011C186.000000,159.276855 185.523442,160.000000 184.940983,160.000000C184.358524,160.000000 184.160081,160.450000 184.500000,161.000000C185.261372,162.231926 184.980541,162.219072 182.750000,160.919901 Z"/>
<path d="M220.811289,158.490732 C221.240778,154.811846 222.425263,153.261039 223.489919,154.983688C223.835382,155.542660 223.641476,156.000000 223.059017,156.000000C222.476558,156.000000 222.000000,157.350000 222.000000,159.000000C222.000000,160.650000 221.640360,162.000000 221.200801,162.000000C220.761241,162.000000 220.585961,160.420829 220.811289,158.490732 Z"/>
<path d="M336.397639,160.834376 C335.962267,160.129930 336.134198,159.964905 336.845492,160.404508C337.529596,160.827309 338.000000,160.482814 338.000000,159.559017C338.000000,158.536749 338.918097,158.000000 340.666667,158.000000C342.133333,158.000000 343.145833,158.136197 342.916667,158.302660C339.213001,160.992942 337.021612,161.843986 336.397639,160.834376 Z"/>
<path d="M238.500000,153.500000 C238.500000,149.925000 238.837500,147.000000 239.250000,147.000000C239.662500,147.000000 240.000000,149.925000 240.000000,153.500000C240.000000,157.075000 239.662500,160.000000 239.250000,160.000000C238.837500,160.000000 238.500000,157.075000 238.500000,153.500000 Z"/>
<path d="M172.261188,152.999346 C172.071988,148.246361 172.331675,147.000000 173.511188,147.000000C174.330034,147.000000 175.337500,146.994239 175.750000,146.987197C176.448113,146.975280 176.654869,147.833327 177.377824,153.742767C177.528731,154.976289 177.955456,156.288789 178.326101,156.659434C178.696745,157.030079 178.993109,157.820833 178.984687,158.416667C178.976265,159.012500 178.492006,158.825000 177.908556,158.000000C177.110248,156.871189 176.722226,156.809324 176.340536,157.750000C176.061574,158.437500 175.083333,158.999706 174.166667,158.999346C172.822940,158.998819 172.453727,157.836234 172.261188,152.999346 Z"/>
<path d="M235.000000,157.500000 C235.000000,156.675000 235.450000,156.000000 236.000000,156.000000C236.550000,156.000000 237.000000,156.675000 237.000000,157.500000C237.000000,158.325000 236.550000,159.000000 236.000000,159.000000C235.450000,159.000000 235.000000,158.325000 235.000000,157.500000 Z"/>
<path d="M267.259956,155.447904 C266.577931,154.709707 266.414443,153.861894 266.896649,153.563874C267.378855,153.265855 268.296226,153.652004 268.935251,154.421983C270.448257,156.245043 268.882383,157.203956 267.259956,155.447904 Z"/>
<path d="M230.234105,155.432561 C230.546196,155.120470 230.381058,153.342248 229.867131,151.480957C228.858395,147.827619 230.888923,141.000000 232.984157,141.000000C233.693211,141.000000 233.759346,140.392361 233.174626,139.250000C231.877893,136.716586 232.919711,130.000000 234.609406,130.000000C235.374233,130.000000 236.000000,130.476558 236.000000,131.059017C236.000000,131.641476 235.501790,131.810123 234.892866,131.433788C234.144195,130.971083 234.009057,131.453175 234.475484,132.922758C234.856947,134.124640 234.659649,135.705171 234.034060,136.458960C233.256026,137.396434 233.230233,138.024258 233.951442,138.469989C235.590181,139.482786 235.180949,142.000000 233.377555,142.000000C232.263412,142.000000 232.038751,142.391617 232.660463,143.250000C233.158407,143.937500 233.628137,146.975000 233.704308,150.000000L233.842802,155.500000 233.063529,150.500000 C232.634929,147.750000 232.471856,145.162500 232.701145,144.750000C232.930434,144.337500 232.693960,144.000000 232.175648,144.000000C231.657336,144.000000 230.997745,144.900621 230.709890,146.001380C230.422035,147.102139 230.594551,147.750581 231.093259,147.442363C231.591966,147.134145 232.000000,148.933524 232.000000,151.440983C232.000000,154.247853 231.551620,156.000000 230.833333,156.000000C230.191667,156.000000 229.922014,155.744653 230.234105,155.432561 Z"/>
<path d="M200.500000,150.083333 C200.500000,148.479167 200.837500,146.829167 201.250000,146.416667C201.662500,146.004167 202.000000,147.316667 202.000000,149.333333C202.000000,151.350000 201.662500,153.000000 201.250000,153.000000C200.837500,153.000000 200.500000,151.687500 200.500000,150.083333 Z"/>
<path d="M191.200000,147.533333 C191.200000,145.626667 191.492500,144.104956 191.850000,144.151754C193.780025,144.404403 194.319153,143.848365 193.000000,142.965684C191.693470,142.091449 191.734303,141.782721 193.316589,140.572063C194.315713,139.807601 195.065713,138.878653 194.983256,138.507733C194.900798,138.136813 195.095833,137.570833 195.416667,137.250000C195.737500,136.929167 196.000000,137.641667 196.000000,138.833333C196.000000,140.129046 195.373308,141.000000 194.440983,141.000000C193.460275,141.000000 193.164506,141.457159 193.643643,142.232419C194.701645,143.944303 194.838891,147.018463 193.829464,146.394603C193.373259,146.112653 193.000000,147.033524 193.000000,148.440983C193.000000,149.848442 192.595000,151.000000 192.100000,151.000000C191.605000,151.000000 191.200000,149.440000 191.200000,147.533333 Z"/>
<path d="M306.000000,150.031385 C306.000000,149.498646 306.619079,149.300333 307.375732,149.590688C308.400056,149.983758 308.660478,149.337157 308.395262,147.059303C308.042944,144.033371 309.239870,142.961067 310.569098,145.111803C310.947021,145.723295 310.733337,146.546773 310.094246,146.941753C309.455154,147.336733 309.220647,148.411422 309.573119,149.329950C310.046812,150.564373 309.664377,151.000000 308.106989,151.000000C306.948145,151.000000 306.000000,150.564123 306.000000,150.031385 Z"/>
<path d="M115.393110,148.750000 C115.692376,147.787500 115.474796,147.000000 114.909598,147.000000C114.344401,147.000000 114.184314,146.510790 114.553851,145.912868C114.997595,145.194874 115.562150,145.162150 116.216492,145.816492C116.870835,146.470835 116.806872,147.434191 116.028119,148.653625C114.998936,150.265202 114.918183,150.277458 115.393110,148.750000 Z"/>
<path d="M254.215681,149.000000 C254.206705,148.175000 254.517416,146.375000 254.906150,145.000000C255.611161,142.506296 255.614452,142.505667 256.212851,144.750000C256.542801,145.987500 256.437885,147.000000 255.979705,147.000000C255.521524,147.000000 254.940853,147.787500 254.689326,148.750000C254.388325,149.901813 254.226424,149.987268 254.215681,149.000000 Z"/>
<path d="M102.000000,147.000000 C102.000000,145.133333 102.266667,144.866667 103.200000,145.800000L104.400000,147.000000 103.200000,148.200000 C102.266667,149.133333 102.000000,148.866667 102.000000,147.000000 Z"/>
<path d="M207.261382,145.500000 C206.386660,142.649896 206.448348,142.000000 207.593601,142.000000C208.534248,142.000000 209.000000,143.159083 209.000000,145.500000C209.000000,147.425000 208.850502,149.000000 208.667781,149.000000C208.485061,149.000000 207.852181,147.425000 207.261382,145.500000 Z"/>
<path d="M321.546467,146.853595 C322.124455,145.032518 321.907315,144.790975 320.113855,145.259975C317.918955,145.833955 317.203981,144.610001 319.063013,143.461056C319.647671,143.099718 320.928012,143.529864 321.908216,144.416937C322.912475,145.325779 325.722237,146.118226 328.345203,146.232382C330.905341,146.343805 333.000000,146.813658 333.000000,147.276501C333.000000,147.739344 332.550000,147.839919 332.000000,147.500000C331.450000,147.160081 331.000000,147.385081 331.000000,148.000000C331.000000,148.614919 330.522419,148.822873 329.938709,148.462120C327.951353,147.233867 323.000000,146.861259 323.000000,147.939957C323.000000,148.522981 322.519676,149.000000 321.932612,149.000000C321.296031,149.000000 321.140180,148.133694 321.546467,146.853595 Z"/>
<path d="M363.889309,142.161516 C363.741281,133.253009 364.000601,130.735951 365.219520,129.250000C365.921075,128.394753 365.918177,128.000000 365.210343,128.000000C364.641342,128.000000 363.872514,126.204894 363.501837,124.010874C362.924795,120.595393 362.574680,120.157257 361.067135,120.964070C358.750247,122.204031 357.000000,120.437466 357.000000,116.859017C357.000000,115.351476 356.550000,113.839919 356.000000,113.500000C354.230306,112.406269 354.935879,110.844874 356.915843,111.473290C357.969557,111.807725 359.117929,111.618204 359.467781,111.052132C359.845485,110.440994 359.476881,110.263509 358.560367,110.615209C357.639176,110.968703 356.759841,110.537730 356.379387,109.546284C356.028778,108.632610 355.106908,108.128734 354.330788,108.426559C353.399765,108.783826 353.018385,108.378096 353.209831,107.234030C353.411922,106.026346 352.938346,105.596186 351.649648,105.816882C350.538949,106.007094 350.062870,105.707292 350.458665,105.066882C350.848832,104.435578 350.227405,104.000000 348.936572,104.000000C347.225019,104.000000 346.995027,104.289082 347.868879,105.342009C348.481452,106.080114 348.649052,107.052261 348.241324,107.502335C347.833596,107.952408 348.062500,107.996947 348.750000,107.601308C349.437500,107.205670 350.000000,107.283524 350.000000,107.774316C350.000000,109.713464 348.564491,109.918801 346.659257,108.252182C345.557582,107.288482 344.985122,107.062500 345.387123,107.750000C345.832358,108.511439 345.551065,109.000000 344.667425,109.000000C341.456933,109.000000 341.661902,119.931311 344.875000,120.070285C346.343189,120.133788 346.346493,120.206162 344.909236,120.820285C341.411299,122.314912 336.786172,127.142682 336.808630,129.275805C336.821509,130.499112 337.236464,134.305872 337.730752,137.735272C338.608715,143.826635 338.050726,146.000000 335.608870,146.000000C335.063749,146.000000 335.491249,145.311212 336.558870,144.469360C338.433775,142.990942 338.414708,142.948295 336.000000,143.219360C334.423093,143.396377 333.592309,143.038454 333.750000,142.250000C333.887500,141.562500 333.589818,141.000000 333.088484,141.000000C332.071820,141.000000 332.223578,138.443089 333.304389,137.362278C334.875698,135.790968 333.769990,135.288631 329.750000,135.747476C327.412500,136.014279 325.225124,136.667975 324.889163,137.200132C324.553203,137.732290 324.004827,137.454961 323.670548,136.583846C323.336270,135.712731 323.530851,135.000000 324.102950,135.000000C324.675050,135.000000 325.045092,133.987500 324.925267,132.750000C324.805442,131.512500 325.157046,129.389166 325.706610,128.031480C326.431374,126.240964 326.358676,125.215819 325.441928,124.299071C324.746789,123.603932 324.298395,122.239766 324.445496,121.267591C324.592597,120.295416 324.519543,120.062500 324.283152,120.750000C323.596239,122.747768 322.177075,122.197154 321.705733,119.750000C321.276729,117.522661 321.270993,117.523835 321.136182,119.866577C321.022423,121.843491 320.578813,122.152639 318.441968,121.744155C316.800897,121.430445 316.038241,121.657504 316.314401,122.377578C316.551156,122.994910 315.693759,123.563869 314.409072,123.641932C312.358803,123.766515 312.252158,123.604985 313.536639,122.320504C314.341488,121.515655 314.947799,120.101786 314.883999,119.178571C314.780699,117.683801 314.717921,117.691622 314.310674,119.250000C313.751993,121.387859 312.000000,121.577414 312.000000,119.500000C312.000000,118.675000 311.534167,118.000000 310.964816,118.000000C310.259040,118.000000 310.251991,118.602332 310.942663,119.892865C311.829588,121.550099 311.504578,121.870360 308.331802,122.465576C306.338661,122.839492 304.436130,122.730897 304.103955,122.224254C303.436329,121.205973 299.384440,121.282227 298.333822,122.332845C297.966886,122.699780 298.979167,123.006891 300.583333,123.015313C302.187500,123.023735 304.175000,123.502768 305.000000,124.079830C306.109193,124.855678 305.457849,124.982303 302.500000,124.565847C300.300000,124.256093 297.957295,123.927060 297.293989,123.834662C296.630682,123.742265 296.319740,123.291667 296.603006,122.833333C297.117462,122.000925 296.700177,121.877384 292.000000,121.470570C290.625000,121.351560 286.575000,120.982319 283.000000,120.650035C277.310607,120.121224 255.697176,118.741082 252.250000,118.686470C251.562500,118.675578 250.999887,118.404167 250.999750,118.083333C250.999612,117.762500 248.992286,117.457268 246.539024,117.405040C244.085763,117.352811 241.456971,116.794215 240.697265,116.163715C239.937559,115.533215 238.947739,115.350948 238.497665,115.758676C238.047592,116.166404 238.002008,115.939192 238.396368,115.253759C238.790729,114.568327 239.290830,113.086135 239.507703,111.959999C240.045715,109.166328 235.951612,107.245387 232.657912,108.746097C231.242618,109.390948 229.758695,109.460525 228.907912,108.921925C228.133560,108.431710 227.725000,108.000867 228.000000,107.964496C228.275000,107.928125 230.525000,107.647153 233.000000,107.340113C238.317476,106.680445 238.800221,106.368698 237.036629,104.733333C235.963640,103.738359 235.862561,103.789896 236.513621,105.000000C236.973562,105.854878 236.941909,106.154371 236.440022,105.696363C235.955676,105.254363 235.650061,103.229363 235.760878,101.196363C235.920500,98.267995 235.773106,97.915541 235.051467,99.500000C234.189215,101.393193 234.136817,101.375392 234.070285,99.166667C233.972358,95.915669 236.416451,96.948484 236.816422,100.327119C236.990455,101.797203 237.627955,103.000000 238.233089,103.000000C238.838223,103.000000 239.037238,102.703904 238.675343,102.342009C238.313448,101.980114 238.426240,101.191339 238.925992,100.589174C240.405248,98.806780 237.631669,96.076970 234.034898,95.775265L230.753332,95.500000 230.626666,100.900670 C230.514411,105.686886 230.244009,106.340370 228.250000,106.644395C226.186353,106.959038 225.998732,106.594558 225.984687,102.243725C225.974679,99.143296 225.666342,97.978455 225.094608,98.881162C224.525737,99.779347 224.241589,98.642856 224.282034,95.631162C224.316887,93.035915 224.818080,90.993268 225.422114,90.984687C226.014951,90.976265 225.830674,90.546185 225.012608,90.028954C223.843644,89.289863 224.004207,89.124615 225.762608,89.257071C227.842779,89.413766 229.075022,91.000000 227.116577,91.000000C226.630695,91.000000 226.018097,92.125000 225.755249,93.500000C225.492401,94.875000 225.664941,96.000000 226.138672,96.000000C226.612402,96.000000 226.946711,96.337500 226.881579,96.750000C226.816447,97.162500 226.816447,99.187500 226.881579,101.250000C226.972086,104.116072 227.412500,104.996391 228.750000,104.984687C230.245547,104.971601 230.281897,104.828426 229.000000,104.000000C228.000000,103.353750 227.916667,103.025521 228.750000,103.015313C230.250106,102.996936 230.450667,97.396562 228.983688,96.489919C227.005084,95.267074 229.029649,94.235165 233.315293,94.282125C235.703512,94.308294 238.297069,93.944140 239.078754,93.472894C240.216360,92.787078 240.267037,92.904422 239.332684,94.060876C238.436554,95.170022 238.468308,95.919964 239.469370,97.288998C240.675864,98.938976 242.296047,99.021585 261.136685,98.393747C279.427549,97.784229 281.798574,97.505872 284.433700,95.658684C286.456271,94.240889 287.491515,93.974546 287.767033,94.801100C287.986959,95.460876 289.927922,96.000000 292.083333,96.000000C294.237500,96.000000 296.000000,96.485761 296.000000,97.079469C296.000000,98.902947 328.739876,97.104524 333.500000,95.019570C338.735223,92.726520 356.532935,90.435255 357.459827,91.934998C358.321364,93.328995 364.033838,96.000000 366.153638,96.000000C367.169137,96.000000 368.000000,96.396578 368.000000,96.881285C368.000000,98.345445 376.443864,100.000000 383.916069,100.000000C389.119962,100.000000 392.122567,100.571379 395.473249,102.199266C399.970290,104.384097 400.000000,104.432283 400.000000,109.540978L400.000000,114.683425 395.750000,115.939893 C389.455481,117.800802 374.587157,124.055081 373.927733,125.119309C373.612986,125.627272 373.250601,128.395730 373.122433,131.271439C372.994264,134.147147 372.576784,136.612034 372.194699,136.748964C371.812615,136.885893 371.567654,139.023393 371.650342,141.498964C371.775212,145.237394 371.492831,146.000000 369.983676,146.000000C368.984321,146.000000 367.992273,146.523182 367.779124,147.162627C367.565976,147.802072 366.628476,148.437254 365.695791,148.574143C364.255282,148.785565 363.983337,147.820219 363.889309,142.161516 Z"/>
<path d="M265.030409,141.750000 C265.057566,139.740598 265.169812,139.687132 266.080099,141.250000C267.474035,143.643244 269.354469,143.463494 268.709890,140.998620C268.422035,139.897861 268.594551,139.249419 269.093259,139.557637C269.591966,139.865855 270.000000,140.991476 270.000000,142.059017C270.000000,143.462732 269.307995,144.000000 267.500000,144.000000C265.565064,144.000000 265.006873,143.491442 265.030409,141.750000 Z"/>
<path d="M312.606309,142.416440 C312.232583,141.442526 312.456070,140.985357 313.186820,141.228940C314.681657,141.727219 315.504714,144.000000 314.190322,144.000000C313.653333,144.000000 312.940527,143.287398 312.606309,142.416440 Z"/>
<path d="M261.361626,141.500000 C261.045044,140.675000 260.185725,140.000000 259.452028,140.000000C258.718331,140.000000 257.865855,139.591966 257.557637,139.093259C257.249419,138.594551 257.912111,138.425762 259.030288,138.718171C260.837304,139.190717 263.927477,143.000000 262.503799,143.000000C262.192186,143.000000 261.678209,142.325000 261.361626,141.500000 Z"/>
<path d="M277.000000,142.319481 C277.000000,141.761862 275.987500,140.828014 274.750000,140.244262L272.500000,139.182896 274.723918,139.302287 C276.833700,139.415552 278.646550,141.686783 277.523539,142.809795C277.235592,143.097741 277.000000,142.877100 277.000000,142.319481 Z"/>
<path d="M304.819752,136.250000 C304.669000,130.604605 304.578047,130.281330 304.263959,134.274535C303.907788,138.802744 302.000000,140.157292 302.000000,135.881966C302.000000,134.781966 301.550000,134.160081 301.000000,134.500000C300.450000,134.839919 300.000000,134.341476 300.000000,133.392350C300.000000,132.443224 300.280864,131.947531 300.624142,132.290809C300.967420,132.634087 302.058988,131.921587 303.049850,130.707475C304.502988,128.926932 304.948594,128.790104 305.353884,130.000000C306.293250,132.804257 306.668445,143.000000 305.832273,143.000000C305.374523,143.000000 304.918888,139.962500 304.819752,136.250000 Z"/>
<path d="M349.696917,141.606872 C349.287720,140.565651 349.188515,139.478151 349.476461,139.190205C350.388521,138.278145 351.191022,139.772769 350.808853,141.671731C350.458610,143.412056 350.405124,143.408936 349.696917,141.606872 Z"/>
<path d="M175.650175,139.742320 C175.271621,138.234044 174.520469,137.000000 173.980948,137.000000C173.441427,137.000000 173.000000,136.523442 173.000000,135.940983C173.000000,135.358524 173.488910,135.184129 174.086468,135.553440C174.840773,136.019626 175.070068,134.049756 174.836468,129.110204C174.651410,125.197114 174.866883,121.996508 175.315295,121.997747C175.763707,121.998986 176.052490,125.262500 175.957033,129.250000C175.861577,133.237500 176.099642,137.272655 176.486068,138.217011C176.872493,139.161367 176.997363,140.507911 176.763556,141.209331C176.529750,141.910751 176.028728,141.250596 175.650175,139.742320 Z"/>
<path d="M180.510081,140.983688 C180.855545,140.424717 181.463057,140.168151 181.860108,140.413542C182.257160,140.658934 182.395788,139.264495 182.168171,137.314790C181.900033,135.017997 182.237683,133.463687 183.127161,132.900249C184.125213,132.268034 184.158748,132.026445 183.250000,132.015313C182.562500,132.006891 182.000000,131.377484 182.000000,130.616631C182.000000,129.855779 180.987500,128.932801 179.750000,128.565570L177.500000,127.897878 179.750000,126.981163 C181.834439,126.131903 182.497423,124.870042 182.061997,122.580727C181.965832,122.075127 182.488495,122.160525 183.223470,122.770501C184.904464,124.165601 185.353404,132.869248 183.838522,134.694569C182.267822,136.587147 184.455370,141.422972 186.523244,140.629454C187.335460,140.317778 188.000000,140.498646 188.000000,141.031385C188.000000,141.564123 186.173442,142.000000 183.940983,142.000000C181.446184,142.000000 180.124022,141.608345 180.510081,140.983688 Z"/>
<path d="M210.666667,141.333333 C209.675152,140.341819 209.860017,137.000000 210.906380,137.000000C211.404890,137.000000 211.559004,137.970367 211.248857,139.156372C210.862495,140.633824 211.049392,141.087508 211.842476,140.597355C212.479114,140.203891 213.000000,140.358524 213.000000,140.940983C213.000000,142.128416 211.683174,142.349841 210.666667,141.333333 Z"/>
<path d="M217.005900,139.484482 C218.363624,135.913398 216.840093,129.460561 214.681330,129.638889C213.756599,129.715278 213.000000,129.377778 213.000000,128.888889C213.000000,128.081657 213.716193,127.866376 215.710957,128.074000C216.101983,128.114699 216.745354,127.327199 217.140671,126.324000C217.800648,124.649172 217.865178,124.643120 217.929715,126.250000C217.968372,127.212500 218.403778,128.000000 218.897284,128.000000C219.390790,128.000000 219.708839,129.687500 219.604059,131.750000C219.499279,133.812500 219.995501,136.094643 220.706775,136.821429C221.418049,137.548214 222.000000,138.646723 222.000000,139.262558C222.000000,139.878394 221.393689,139.553080 220.652643,138.539639C219.911597,137.526198 219.041289,137.124175 218.718626,137.646255C217.980906,138.839912 219.041912,140.525734 221.000000,141.271109C221.825000,141.585157 221.048638,141.877632 219.274751,141.921053C216.233172,141.995504 216.103966,141.856747 217.005900,139.484482 Z"/>
<path d="M340.116001,139.250000 C340.204913,137.142210 340.348694,136.967062 340.731684,138.500000C341.006508,139.600000 341.741807,140.830609 342.365682,141.234687C343.085560,141.700945 342.860611,141.974969 341.750000,141.984687C340.476133,141.995834 340.031561,141.251791 340.116001,139.250000 Z"/>
<path d="M150.349024,140.234687 C149.715987,139.830609 149.198487,137.813754 149.199024,135.752786C149.199561,133.691819 149.605000,132.255877 150.100000,132.561803C150.595000,132.867730 151.000000,132.389919 151.000000,131.500000C151.000000,130.610081 150.550000,130.160081 150.000000,130.500000C148.577183,131.379349 148.757583,128.642417 150.218750,127.181250C151.177083,126.222917 150.696314,126.101600 147.968750,126.613487C145.269463,127.120067 144.751700,126.994532 145.634665,126.047572C146.258731,125.378276 147.823777,124.981269 149.112546,125.165335C150.976977,125.431619 151.511331,126.194251 151.727724,128.897726C151.877303,130.766476 151.494656,132.903976 150.877398,133.647726C150.219450,134.440505 150.162140,135.000000 150.738883,135.000000C151.279958,135.000000 151.576221,136.237500 151.397244,137.750000C151.218267,139.262500 151.313666,139.712500 151.609240,138.750000C152.342484,136.362286 154.000000,136.535611 154.000000,139.000000C154.000000,141.033448 152.431415,141.563912 150.349024,140.234687 Z"/>
<path d="M159.929632,139.131483 C160.479632,138.103799 160.832965,137.088555 160.714816,136.875387C160.596667,136.662219 161.277494,137.390551 162.227764,138.493904C163.535499,140.012307 163.953202,140.135342 163.945961,139.000000C163.933481,137.043461 161.490859,133.842475 160.651123,134.682210C160.293005,135.040328 160.000000,134.808333 160.000000,134.166667C160.000000,132.605356 162.687460,132.671452 163.388325,134.250000C163.693570,134.937500 163.843570,132.461556 163.721658,128.747902C163.599746,125.034248 163.873052,121.996748 164.329004,121.997902C164.784956,121.999056 165.009956,125.376047 164.829004,129.502328C164.648052,133.628608 164.741738,137.003608 165.037196,137.002328C165.332653,137.001047 165.642186,137.900000 165.725047,139.000000C165.848962,140.645009 165.259254,141.000000 162.402667,141.000000C159.320973,141.000000 159.042312,140.789456 159.929632,139.131483 Z"/>
<path d="M170.990862,139.511010 C172.239896,138.006016 174.000000,138.326556 174.000000,140.059017C174.000000,140.576558 173.044900,141.000000 171.877555,141.000000C170.111296,141.000000 169.962492,140.750120 170.990862,139.511010 Z"/>
<path d="M199.099680,138.950000 C199.044856,137.547500 199.421591,135.972500 199.936868,135.450000C200.452146,134.927500 201.065894,132.700000 201.300752,130.500000C201.580809,127.876616 201.660260,128.306809 201.531612,131.750000C201.423725,134.637500 201.614215,137.000000 201.954923,137.000000C202.295631,137.000000 202.642186,137.900000 202.725047,139.000000C202.807907,140.100000 202.453669,141.000000 201.937851,141.000000C201.422033,141.000000 201.053289,140.662500 201.118421,140.250000C201.503432,137.811596 200.676559,136.887443 200.000000,139.000000L199.199360,141.500000 Z"/>
<path d="M111.000000,139.142350 C111.000000,138.578976 111.389651,137.877217 111.865891,137.582884C112.342130,137.288552 112.505521,135.864129 112.228980,134.417500C111.929646,132.851633 112.251877,131.462365 113.025269,130.984383C114.044410,130.354519 113.927680,129.784827 112.483587,128.340751C110.803907,126.661091 110.789715,126.471705 112.321407,126.176676C115.571993,125.550560 113.954360,124.405358 110.250000,124.710224C106.968720,124.980272 106.792775,124.892435 108.842353,124.007484C110.130648,123.451234 111.596954,123.250904 112.100812,123.562305C112.604670,123.873706 113.425326,123.087079 113.924493,121.814245C114.580471,120.141554 114.765908,121.371233 114.593412,126.250000C114.400164,131.715693 114.642774,133.000000 115.868508,133.000000C117.170567,133.000000 117.157559,133.174808 115.775489,134.250000C114.891766,134.937500 114.018258,136.362710 113.834360,137.417134C113.485505,139.417375 111.000000,140.930251 111.000000,139.142350 Z"/>
<path d="M115.000000,137.500000 C115.000000,136.125000 115.444959,135.000000 115.988798,135.000000C116.532638,135.000000 116.884489,136.125000 116.770691,137.500000C116.656892,138.875000 116.211933,140.000000 115.781892,140.000000C115.351851,140.000000 115.000000,138.875000 115.000000,137.500000 Z"/>
<path d="M124.856738,137.923399 C126.475063,136.186330 126.693771,135.296323 125.877231,133.770604C125.305632,132.702561 125.062959,131.603707 125.337959,131.328707C125.612959,131.053707 126.303744,131.699034 126.873037,132.762767C128.249902,135.335463 126.961577,139.420936 124.648487,139.817148C122.933987,140.110827 122.949398,139.970688 124.856738,137.923399 Z"/>
<path d="M128.274953,138.000000 C128.192093,136.900000 128.546331,136.000000 129.062149,136.000000C129.577967,136.000000 130.000000,136.900000 130.000000,138.000000C130.000000,139.100000 129.645762,140.000000 129.212804,140.000000C128.779847,140.000000 128.357814,139.100000 128.274953,138.000000 Z"/>
<path d="M135.750000,139.314747 C136.459666,139.041433 137.000000,137.114776 137.000000,134.857650C137.000000,132.461838 137.397384,131.127563 138.000000,131.500000C140.064494,132.775928 138.891846,130.613168 136.043030,127.890686C134.416696,126.336475 133.489870,124.815278 133.983416,124.510249C134.476963,124.205221 135.873971,124.978130 137.087878,126.227826C138.768030,127.957511 139.147886,128.082182 138.678876,126.750000C138.340018,125.787500 138.498646,125.000000 139.031385,125.000000C140.342514,125.000000 140.261462,130.642937 138.914173,133.160370C137.938937,134.982614 138.066249,135.124445 140.164173,134.552913C142.420320,133.938277 142.430217,133.960633 140.454309,135.208285C139.329179,135.918728 138.556024,137.190657 138.736188,138.034794C138.950677,139.039759 138.276026,139.608696 136.781879,139.682875C135.526846,139.745182 135.062500,139.579524 135.750000,139.314747 Z"/>
<path d="M140.015313,138.250000 C140.006891,137.012500 140.450000,136.000000 141.000000,136.000000C142.252922,136.000000 142.252922,137.061241 141.000000,139.000000C140.216126,140.212959 140.027695,140.069438 140.015313,138.250000 Z"/>
<path d="M291.232003,137.000000 C291.232003,135.075000 291.437798,134.287500 291.689326,135.250000L292.146648,137.000000 291.689326,138.750000 C291.437798,139.712500 291.232003,138.925000 291.232003,137.000000 Z"/>
<path d="M298.232003,137.000000 C298.232003,135.075000 298.437798,134.287500 298.689326,135.250000L299.146648,137.000000 298.689326,138.750000 C298.437798,139.712500 298.232003,138.925000 298.232003,137.000000 Z"/>
<path d="M185.696997,137.569198 C184.665527,136.787046 184.359517,136.046828 184.981878,135.839374C185.586019,135.637994 186.100266,132.922901 186.138363,129.733435C186.176093,126.574614 186.634811,123.725699 187.157735,123.402515C187.734623,123.045978 188.031805,125.997231 187.913458,130.907453C187.806182,135.358354 187.669269,138.985688 187.609205,138.968197C187.549142,138.950705 186.688649,138.321155 185.696997,137.569198 Z"/>
<path d="M265.250475,135.718433 C265.416479,133.577279 265.081598,132.583680 264.250000,132.750000C262.098660,133.180268 262.901472,131.552900 265.415364,130.387709C267.753544,129.303960 267.813451,129.386166 267.749881,133.591228C267.710013,136.228433 267.162735,138.107311 266.342793,138.421952C265.364049,138.797532 265.068471,138.065967 265.250475,135.718433 Z"/>
<path d="M288.432606,136.750000 C288.046414,135.512500 287.228589,134.162500 286.615219,133.750000C285.837068,133.226683 285.953366,132.702384 287.000000,132.015313C289.527546,130.356085 289.991648,130.845751 289.828868,135.000000C289.648969,139.591160 289.411963,139.888210 288.432606,136.750000 Z"/>
<path d="M295.666667,138.333333 C295.300000,137.966667 295.000000,136.879167 295.000000,135.916667C295.000000,134.954167 294.441518,133.980506 293.758929,133.752976C292.857528,133.452509 292.976924,132.880219 294.195171,131.661972C296.282507,129.574636 297.142502,130.814323 296.829660,135.459597C296.566637,139.365119 296.604613,139.271280 295.666667,138.333333 Z"/>
<path d="M319.666667,138.333333 C319.300000,137.966667 319.000000,136.879167 319.000000,135.916667C319.000000,134.954167 318.449106,133.983035 317.775790,133.758597C317.102475,133.534158 317.596986,133.077147 318.874704,132.743017C320.808031,132.237440 321.113088,132.459550 320.692794,134.066757C320.415025,135.128945 320.595514,136.250014 321.093880,136.558021C321.592246,136.866028 322.000000,137.541476 322.000000,138.059017C322.000000,139.147479 320.640626,139.307293 319.666667,138.333333 Z"/>
<path d="M191.000000,128.178417 C191.000000,119.862011 191.271481,118.109801 192.641444,117.584097C193.959951,117.078138 194.053299,117.230852 193.115920,118.360325C192.206419,119.456207 192.285526,119.895589 193.474477,120.351832C194.490021,120.741533 195.000000,122.274422 195.000000,124.937230C195.000000,128.081943 195.320733,128.814154 196.500000,128.361626C197.325000,128.045044 198.000000,128.284167 198.000000,128.893011C198.000000,129.501855 197.493750,129.887500 196.875000,129.750000C196.256250,129.612500 195.522871,130.125138 195.245268,130.889196C194.936145,131.740008 195.178365,132.007799 195.870268,131.580179C196.570194,131.147601 197.000000,131.665319 197.000000,132.940983C197.000000,134.073442 196.357143,135.000000 195.571429,135.000000C194.785714,135.000000 193.435714,135.707143 192.571429,136.571429C191.142857,138.000000 191.000000,137.236999 191.000000,128.178417 Z"/>
<path d="M273.000000,135.500000 C273.000000,134.125000 272.550000,133.000000 272.000000,133.000000C271.450000,133.000000 271.000000,132.550000 271.000000,132.000000C271.000000,131.450000 271.630979,131.000000 272.402175,131.000000C273.868800,131.000000 276.267210,136.399456 275.251679,137.414988C273.969898,138.696768 273.000000,137.871897 273.000000,135.500000 Z"/>
<path d="M57.735196,135.140721 C56.977853,134.238325 56.282652,132.262500 56.190306,130.750000C56.056861,128.564362 56.456202,128.000000 58.136202,128.000000C59.945383,128.000000 60.164652,128.426739 59.657755,130.961227C59.332020,132.589901 59.500770,134.191459 60.032755,134.520244C60.564740,134.849028 61.000000,134.378976 61.000000,133.475684C61.000000,131.227585 63.430499,132.189554 63.785928,134.578328C64.157307,137.074303 59.705255,137.488105 57.735196,135.140721 Z"/>
<path d="M65.015313,135.819551 C65.023735,135.093798 65.428319,133.871927 65.914388,133.104283C67.111039,131.214423 70.236064,132.530930 69.813691,134.746976C69.419667,136.814285 64.992285,137.803932 65.015313,135.819551 Z"/>
<path d="M258.244751,134.500000 C258.620323,132.535323 258.311454,132.000000 256.802311,132.000000C255.746121,132.000000 255.164618,131.542660 255.510081,130.983688C255.855545,130.424717 256.557102,130.226274 257.069098,130.542705C257.581094,130.859136 258.000000,130.641476 258.000000,130.059017C258.000000,129.476558 258.468229,129.000000 259.040510,129.000000C259.627107,129.000000 259.978059,130.744961 259.845002,133.000000C259.715192,135.200000 259.194503,137.000000 258.687915,137.000000C258.181327,137.000000 257.981903,135.875000 258.244751,134.500000 Z"/>
<path d="M210.729167,135.395833 C210.328125,134.994792 210.000000,133.976667 210.000000,133.133333C210.000000,132.007740 210.295833,131.895833 211.112500,132.712500C211.724375,133.324375 212.052500,134.342500 211.841667,134.975000C211.630833,135.607500 211.130208,135.796875 210.729167,135.395833 Z"/>
<path d="M314.810207,132.500000 C314.585474,130.575000 314.761241,129.000000 315.200801,129.000000C315.640360,129.000000 316.000000,130.575000 316.000000,132.500000C316.000000,134.425000 315.824233,136.000000 315.609406,136.000000C315.394579,136.000000 315.034940,134.425000 314.810207,132.500000 Z"/>
<path d="M227.187142,132.750000 C227.422209,131.059457 226.940543,130.420544 225.250000,130.180449C222.464469,129.784841 222.259827,128.000000 225.000000,128.000000C226.200000,128.000000 227.000000,127.333333 227.000000,126.333333C227.000000,125.416667 227.262500,124.929167 227.583333,125.250000C228.467625,126.134292 232.160732,122.069088 231.477458,120.963525C231.149937,120.433586 231.331966,120.000000 231.881966,120.000000C233.652544,120.000000 233.858831,121.463123 232.447699,124.012549C231.612623,125.521242 231.044963,125.909782 231.005027,125.000000C230.953565,123.827657 230.712661,123.889185 229.902176,125.281673C229.331823,126.261593 228.945318,128.061593 229.043276,129.281673C229.361263,133.242229 229.021245,135.000000 227.937142,135.000000C227.352570,135.000000 227.015070,133.987500 227.187142,132.750000 Z"/>
<path d="M279.558870,133.468197 C278.491249,132.660688 278.116945,132.000000 278.727083,132.000000C279.337221,132.000000 280.548229,131.726855 281.418213,131.393011C282.552162,130.957874 283.000000,131.382556 283.000000,132.893011C283.000000,135.356355 282.226235,135.485690 279.558870,133.468197 Z"/>
<path d="M275.710511,131.000996 C275.422998,129.901544 275.595514,128.749986 276.093880,128.441979C276.592246,128.133972 277.000000,129.033524 277.000000,130.440983C277.000000,133.505025 276.430058,133.752546 275.710511,131.000996 Z"/>
<path d="M172.196091,130.358149 C172.570533,128.926282 172.171638,128.363210 170.704533,128.252696C169.603051,128.169724 168.206424,127.569418 167.600919,126.918682C166.762230,126.017344 167.289245,125.883189 169.813483,126.355460C172.878559,126.928918 173.079811,126.807637 172.497976,124.737697C172.004824,122.983257 172.095788,122.823943 172.919181,124.000000C174.328821,126.013401 174.281423,130.708037 172.842476,131.597355C172.066223,132.077106 171.853314,131.668931 172.196091,130.358149 Z"/>
<path d="M160.642857,129.500000 C159.817857,128.675000 158.660714,128.000000 158.071429,128.000000C157.482143,128.000000 157.000000,127.550000 157.000000,127.000000C157.000000,126.450000 157.926558,126.000000 159.059017,126.000000C160.191476,126.000000 160.859136,126.418906 160.542705,126.930902C160.226274,127.442898 160.394090,128.125527 160.915630,128.447856C161.437169,128.770185 162.052085,127.788780 162.282110,126.266955C162.621645,124.020610 162.728527,124.205573 162.850168,127.250000C163.017228,131.431188 162.797759,131.654902 160.642857,129.500000 Z"/>
<path d="M98.158445,125.882102 C97.209776,124.363043 97.141761,123.458239 97.917898,122.682102C98.694034,121.905966 99.004330,122.009990 99.015313,123.050000C99.028336,124.283190 99.175570,124.275714 100.000000,123.000000C100.533156,122.175000 100.976265,121.972500 100.984687,122.550000C100.993109,123.127500 100.460000,124.140000 99.800000,124.800000L98.600000,126.000000 99.800000,126.000000 C100.460000,126.000000 101.000000,126.450000 101.000000,127.000000C101.000000,128.684240 99.552863,128.114921 98.158445,125.882102 Z"/>
<path d="M60.160037,126.190983 C60.072017,125.471024 59.505104,125.187828 58.900232,125.561660C58.198576,125.995307 58.251250,125.383177 59.045741,123.870677C60.258996,121.560962 60.240132,121.545108 58.312176,123.254156C56.661579,124.717338 56.333333,124.758807 56.333333,123.504156C56.333333,122.676870 56.708333,122.000000 57.166667,122.000000C57.625000,122.000000 58.000000,121.597390 58.000000,121.105311C58.000000,120.599118 56.480213,120.553389 54.500000,121.000000C51.961946,121.572424 51.000000,121.449652 51.000000,120.553299C51.000000,119.718272 52.479490,119.393347 55.559910,119.551853C58.067860,119.680901 60.349598,120.016265 60.630439,120.297105C60.911279,120.577946 60.956336,122.313486 60.730566,124.153862C60.504795,125.994238 60.248057,126.910942 60.160037,126.190983 Z"/>
<path d="M319.764831,124.292323 C321.010488,124.052902 321.774616,123.444338 321.462893,122.939960C321.151170,122.435582 321.594496,122.290899 322.448062,122.618443C325.148804,123.654815 324.127471,125.005341 320.750000,124.863818C318.373945,124.764256 318.109027,124.610578 319.764831,124.292323 Z"/>
<path d="M66.756463,121.506350 C66.494283,120.134842 66.798891,118.581869 67.433371,118.055297C68.277526,117.354711 68.478898,118.023613 68.184079,120.548948C67.705354,124.649573 67.396875,124.856448 66.756463,121.506350 Z"/>
<path d="M283.639654,122.503338 C283.378475,121.822715 284.469880,121.573202 286.613525,121.823460C288.476086,122.040904 290.000000,122.626727 290.000000,123.125290C290.000000,124.391903 284.144649,123.819332 283.639654,122.503338 Z"/>
<path d="M268.872445,121.308042 C268.117600,120.377464 267.964754,119.893612 268.532788,120.232814C269.100821,120.572016 271.762891,121.107968 274.448500,121.423818C281.040575,122.199101 281.467712,123.000000 275.289111,123.000000C271.758448,123.000000 269.833076,122.492314 268.872445,121.308042 Z"/>
<path d="M254.500000,121.000000 C252.895627,120.310577 253.241801,120.126667 256.250000,120.070285C258.312500,120.031628 260.000000,120.450000 260.000000,121.000000C260.000000,122.194130 257.278890,122.194130 254.500000,121.000000 Z"/>
<path d="M182.475228,119.959918 C182.053611,119.277728 182.807527,119.154085 184.666211,119.600595C188.497624,120.521011 188.860261,121.000000 185.725684,121.000000C184.291476,121.000000 182.828771,120.531963 182.475228,119.959918 Z"/>
<path d="M235.250000,118.294267 C232.890360,117.839781 232.825352,117.712605 232.625000,113.158996C232.526301,110.915762 232.868214,110.414282 234.250000,110.775627C235.212500,111.027327 236.068541,111.743279 236.152314,112.366631C236.236087,112.989984 236.409180,113.950000 236.536965,114.500000C236.664749,115.050000 236.821208,116.110645 236.884650,116.856989C236.952565,117.655948 237.638197,117.969078 238.551938,117.618443C239.441863,117.276947 239.843260,117.444594 239.492921,118.011454C239.156896,118.555154 238.571024,118.938718 238.190983,118.863818C237.810942,118.788918 236.487500,118.532620 235.250000,118.294267 Z"/>
<path d="M219.750000,117.294267 L222.000000,116.860898 224.250000,117.294267 C225.487500,117.532620 224.475000,117.727636 222.000000,117.727636C219.525000,117.727636 218.512500,117.532620 219.750000,117.294267 Z"/>
<path d="M176.750000,116.310674 C174.401500,115.696947 174.520501,114.428571 176.926581,114.428571C177.986201,114.428571 178.598563,114.840522 178.287385,115.344018C177.976208,115.847513 178.267997,116.077334 178.935804,115.854732C179.603612,115.632129 180.089692,115.011250 180.015983,114.475000C179.815177,113.014098 184.258236,112.214136 186.165277,113.367834C187.638907,114.259332 187.539439,114.526304 185.300970,115.687636C182.788178,116.991288 180.103089,117.186928 176.750000,116.310674 Z"/>
<path d="M207.547550,116.076937 C207.233783,115.569253 204.625299,115.406699 201.750919,115.715708C196.744728,116.253895 196.585994,116.198047 197.979418,114.388771C198.779474,113.349947 199.052287,112.821613 198.585671,113.214695C197.219797,114.365320 193.558678,111.197182 193.528065,108.838112C193.512629,107.648633 192.874862,106.465074 192.110804,106.207980C191.184175,105.896183 190.985892,106.168155 191.515313,107.024777C192.024455,107.848586 191.910879,108.062954 191.198527,107.622696C190.587757,107.245220 188.424136,107.631598 186.390478,108.481314C184.356821,109.331031 182.571155,109.904488 182.422330,109.755664C182.273506,109.606840 182.005099,108.138433 181.825871,106.492537C181.646642,104.846642 181.050000,103.169391 180.500000,102.765313C179.935297,102.350433 180.261770,102.023960 181.250000,102.015313C182.355011,102.005644 183.000000,102.758882 183.000000,104.059017C183.000000,105.191476 183.450000,105.839919 184.000000,105.500000C184.550000,105.160081 185.000000,105.433524 185.000000,106.107650C185.000000,106.781776 185.289125,107.044208 185.642501,106.690833C185.995876,106.337457 185.658376,105.276076 184.892501,104.332208C183.890333,103.097132 183.861537,102.833480 184.789771,103.391638C185.801020,103.999715 186.046862,102.583527 185.928207,96.833597C185.844973,92.800119 186.114361,87.747448 186.526847,85.605441C187.116729,82.542224 187.000831,81.881452 185.983902,82.509949C185.108310,83.051095 184.934566,82.914891 185.445627,82.087977C185.860681,81.416406 186.452818,81.119485 186.761487,81.428154C187.070156,81.736822 188.360067,80.462751 189.627957,78.596883C190.895846,76.731016 193.523238,74.221706 195.466605,73.020639C197.738091,71.616784 199.005469,70.062449 199.015313,68.668441C199.023735,67.475798 199.361235,66.048372 199.765313,65.496383C200.740679,64.163988 206.000000,63.591162 206.000000,64.817323C206.000000,65.345573 205.437500,65.715278 204.750000,65.638889C204.062500,65.562500 203.387500,65.837500 203.250000,66.250000C202.466366,68.600901 203.409752,69.806189 206.837198,70.833077C210.408839,71.903167 215.541079,76.000000 213.309975,76.000000C212.759975,76.000000 211.518569,75.125506 210.551295,74.056681C209.584021,72.987855 207.434661,71.815104 205.774939,71.450568C204.018129,71.064708 202.550329,69.996458 202.262000,68.893888C201.989606,67.852249 201.411350,67.000000 200.976988,67.000000C200.542626,67.000000 200.409744,67.850860 200.681694,68.890799C201.048735,70.294366 200.121951,71.410246 197.085130,73.221188C194.835069,74.562962 193.332936,76.034249 193.747055,76.490714C194.161175,76.947179 193.937500,76.996947 193.250000,76.601308C191.799931,75.766832 191.522067,77.586587 192.963525,78.477458C193.493465,78.804978 194.843465,78.156535 195.963525,77.036475C198.558486,74.441514 199.307357,74.456243 198.472759,77.085827C197.893409,78.911198 198.055881,79.040461 199.773889,78.121011C202.115066,76.868051 203.000000,77.543474 203.000000,80.583333C203.000000,81.820833 203.562500,83.027402 204.250000,83.264598C204.937500,83.501793 203.722982,83.593908 201.551072,83.469297C197.463371,83.234771 192.000000,84.642996 192.000000,85.931158C192.000000,86.335688 191.332144,86.666667 190.515876,86.666667C189.417697,86.666667 189.310060,86.331327 190.101966,85.377138C191.265713,83.974909 190.389745,81.641091 189.017914,82.488928C187.381007,83.500593 186.680824,91.183122 188.141197,92.108426C189.139493,92.740954 189.168360,92.973437 188.250000,92.984687C187.368692,92.995483 187.000000,95.096231 187.000000,100.106989C187.000000,106.489270 187.178449,107.138925 188.750000,106.477960C190.409197,105.780133 192.979589,105.268027 195.750000,105.083333C196.437500,105.037500 196.887500,104.581762 196.750000,104.070582C196.612500,103.559402 197.400000,102.401031 198.500000,101.496425C199.600000,100.591818 199.937500,100.136614 199.250000,100.484860C198.562500,100.833105 198.000000,100.641476 198.000000,100.059017C198.000000,98.718058 200.677777,98.669615 201.497371,99.995747C201.835844,100.543407 200.976512,101.509210 199.587745,102.141974C198.198978,102.774739 197.304697,103.683994 197.600455,104.162540C197.896213,104.641086 198.551948,104.776911 199.057644,104.464374C199.563340,104.151837 199.694622,104.632227 199.349382,105.531908C198.975513,106.506194 198.463983,106.750740 198.084443,106.136632C197.715561,105.539768 196.876293,105.458421 196.091479,105.943463C195.049627,106.587363 195.229379,106.938027 196.867872,107.458064C198.040542,107.830255 199.053289,108.666951 199.118421,109.317388L199.236842,110.500000 199.118421,111.250000 C198.925240,112.473481 200.032574,112.110283 201.758924,110.383933C203.067916,109.074941 204.716967,108.879665 210.437496,109.356240C214.321873,109.679846 219.637500,109.957076 222.250000,109.972307C224.909039,109.987810 227.000000,110.466182 227.000000,111.059017C227.000000,111.641476 226.581094,111.859136 226.069098,111.542705C225.557102,111.226274 224.855545,111.424717 224.510081,111.983688C224.164618,112.542660 222.446024,113.019860 220.690983,113.044133C218.935942,113.068406 215.250000,113.689224 212.500000,114.423728C208.333251,115.536636 207.916626,115.839887 210.000000,116.243413C212.227967,116.674946 212.261592,116.742454 210.309017,116.863818C209.103976,116.938718 207.861316,116.584622 207.547550,116.076937 Z"/>
<path d="M221.500000,115.986025 L213.500000,115.472051 219.000000,114.778335 C225.744315,113.927675 231.000000,114.071906 231.000000,115.107650C231.000000,116.408506 229.801176,116.519350 221.500000,115.986025 Z"/>
<path d="M165.250000,115.337719 C164.562500,115.060307 164.000000,114.394276 164.000000,113.857650C164.000000,113.321024 164.491926,113.185993 165.093168,113.557581C165.694411,113.929169 167.944411,114.208933 170.093168,114.179278C172.241926,114.149623 174.000000,114.547153 174.000000,115.062680C174.000000,116.028835 167.471343,116.234051 165.250000,115.337719 Z"/>
<path d="M150.500000,114.014659 C154.491026,112.979614 163.000000,112.803647 163.000000,113.756157C163.000000,114.172044 159.512500,114.575399 155.250000,114.652501C149.879468,114.749647 148.421085,114.553812 150.500000,114.014659 Z"/>
<path d="M133.457866,112.931826 C133.094774,112.344331 132.091694,112.134572 131.228799,112.465696C130.365904,112.796820 129.252163,112.489998 128.753819,111.783870C128.035770,110.766431 127.742482,110.759403 127.340536,111.750000C126.734219,113.244266 120.385790,113.433239 119.489919,111.983688C119.144455,111.424717 118.392586,111.257368 117.819098,111.611803C117.245610,111.966238 116.342446,111.636079 115.812066,110.878115C115.066304,109.812351 114.732780,109.783314 114.340536,110.750000C113.787793,112.112234 107.698818,112.328567 104.553552,111.097719C102.713313,110.377571 102.730914,110.303630 104.876110,109.742649C106.124064,109.416302 108.687465,109.399579 110.572558,109.705488C112.783126,110.064213 114.000000,109.860192 114.000000,109.130842C114.000000,108.460353 112.201397,108.000000 109.581787,108.000000C107.151771,108.000000 104.377950,107.698528 103.417743,107.330061C102.226172,106.872813 101.901833,107.032146 102.396129,107.831934C103.858630,110.198309 93.381115,112.161812 90.166154,110.123851C88.009466,108.756728 91.120985,108.047191 96.670072,108.640726C99.788263,108.974250 101.145598,108.815067 100.500000,108.191567C99.139278,106.877419 88.061216,106.075632 88.307499,107.309121C88.763415,109.592548 77.058733,110.676200 76.306728,108.420185C76.084363,107.753089 78.031844,107.506106 81.729884,107.732410C85.900369,107.987625 87.084160,107.800681 86.000000,107.058071C85.175000,106.492976 82.925000,106.017590 81.000000,106.001658C75.935310,105.959741 73.063862,104.997153 73.626868,103.529984C74.146815,102.175023 81.201329,102.082960 84.130191,103.392913C85.026796,103.793926 90.201796,104.207071 95.630191,104.311014C101.058586,104.414956 105.871759,104.950000 106.326131,105.500000C106.861338,106.147848 107.330874,106.059810 107.659464,105.250000C107.938426,104.562500 108.605724,104.000000 109.142350,104.000000C109.678976,104.000000 109.839919,104.450000 109.500000,105.000000C109.132197,105.595118 110.322949,106.000000 112.440983,106.000000C114.398442,106.000000 116.000000,105.550000 116.000000,105.000000C116.000000,104.450000 116.450000,104.000000 117.000000,104.000000C117.550000,104.000000 117.946711,104.337500 117.881579,104.750000C117.539303,106.917748 118.168384,107.174621 119.574157,105.441130C120.439944,104.373508 120.893054,104.014497 120.581068,104.643326C120.000502,105.813499 124.772519,107.560814 125.784665,106.548668C126.086433,106.246901 125.508333,106.000000 124.500000,106.000000C123.491667,106.000000 122.959570,105.707097 123.317563,105.349104C124.490032,104.176634 133.780315,104.411223 133.323007,105.601751C133.090095,106.208099 131.685788,106.483867 130.199900,106.215045C128.714955,105.946393 127.782287,106.032893 128.127305,106.407266C128.472323,106.781639 130.011716,107.315901 131.548178,107.594514C134.796650,108.183575 140.759415,106.087378 138.974055,104.983965C137.440302,104.036054 148.821266,104.434499 151.875229,105.435633C153.517192,105.973892 154.039222,105.872480 153.566212,105.107134C153.173592,104.471861 153.571573,104.000000 154.500000,104.000000C155.389919,104.000000 155.839919,104.450000 155.500000,105.000000C155.160081,105.550000 155.556966,106.000000 156.381966,106.000000C157.206966,106.000000 158.195796,105.492213 158.579366,104.871584C159.056176,104.100088 159.565013,104.258239 160.188073,105.371584C161.425268,107.582329 166.569947,107.497321 167.546358,105.250000C167.964543,104.287500 168.350188,102.825000 168.403347,102.000000C168.456506,101.175000 169.287500,100.562500 170.250000,100.638889C171.326774,100.724347 172.000000,100.077317 172.000000,98.956983C172.000000,97.955546 173.244365,96.250123 174.765255,95.167154C177.261763,93.389482 177.796290,93.337375 180.265255,94.630997C181.769365,95.419079 183.000000,96.526060 183.000000,97.090954C183.000000,97.655848 183.354536,97.898918 183.787859,97.631110C184.221181,97.363303 184.663248,98.349245 184.770229,99.822093C184.961810,102.459650 184.941052,102.452123 183.392600,99.322541C182.527922,97.574938 181.150097,95.887839 180.330766,95.573433C178.398170,94.831826 174.000000,95.939220 174.000000,97.167425C174.000000,97.690260 174.562500,97.789124 175.250000,97.387123C175.937500,96.985122 175.711518,97.557582 174.747818,98.659257C173.784118,99.760932 173.334118,101.026589 173.747818,101.471828C174.161518,101.917067 173.290348,101.991464 171.811884,101.637156C169.548122,101.094655 169.147592,101.309242 169.274688,102.996480C169.357694,104.098416 169.746851,105.000000 170.139480,105.000000C170.532109,105.000000 171.059147,105.787500 171.310674,106.750000C171.592036,107.826662 171.812631,107.441897 171.883999,105.750000C171.947799,104.237500 172.349392,103.000000 172.776426,103.000000C173.203460,103.000000 173.433763,104.912500 173.288211,107.250000C173.142658,109.587500 173.281701,110.934696 173.597195,110.243769C173.912689,109.552843 174.515045,109.200281 174.935764,109.460300C175.356484,109.720319 175.651643,107.473123 175.591674,104.466531L175.482640,99.000000 179.241320,99.000000 C181.308594,99.000000 183.000000,99.450000 183.000000,100.000000C183.000000,100.550000 182.190000,101.000000 181.200000,101.000000C178.502493,101.000000 177.000000,103.018558 177.000000,106.642582C177.000000,109.346886 177.332006,109.821226 179.000000,109.500000C181.794512,108.961826 181.573943,111.682073 178.750000,112.583223C175.490747,113.623285 168.733162,113.186281 167.927921,111.883374C167.480482,111.159402 166.662591,111.089443 165.599759,111.684234C164.620838,112.232066 161.654652,112.244796 158.230674,111.715860C155.078803,111.228959 150.325445,110.867369 147.667655,110.912328C144.214627,110.970738 142.960248,110.638123 143.273022,109.747035C143.545164,108.971708 145.124518,108.615324 147.448300,108.804876C149.677701,108.986731 150.944094,108.718559 150.586702,108.140287C150.257162,107.607080 150.552843,106.957718 151.243769,106.697259C151.934696,106.436800 150.475000,106.390945 148.000000,106.595359C144.472540,106.886698 144.040300,106.776008 146.000000,106.083191C148.074291,105.349862 148.159433,105.190067 146.500000,105.144784C145.400000,105.114767 143.150000,105.726421 141.500000,106.504015L138.500000,107.917823 141.500000,107.293038 C144.097049,106.752172 144.332376,106.871863 143.252028,108.184146C142.329463,109.304772 140.189132,109.660310 135.043620,109.547671C129.962383,109.436440 128.336813,109.700908 129.022611,110.527245C129.539296,111.149812 131.384502,111.450413 133.123068,111.195245C135.314498,110.873612 136.069055,111.079249 135.583031,111.865652C135.170633,112.532927 135.548199,113.000000 136.500000,113.000000C137.389919,113.000000 137.878240,112.612005 137.585159,112.137790C137.130406,111.401984 140.505370,111.280091 142.000000,111.978339C142.275000,112.106812 143.850000,112.194709 145.500000,112.173667L148.500000,112.135408 145.500000,112.949389 C141.037583,114.160164 134.210867,114.150207 133.457866,112.931826 Z"/>
<path d="M350.542705,111.069098 C349.540765,109.447926 351.717994,108.955277 353.009138,110.511010C354.013904,111.721679 353.952655,112.000000 352.681462,112.000000C351.821576,112.000000 350.859136,111.581094 350.542705,111.069098 Z"/>
<path d="M223.500000,108.268316 C221.521773,107.774075 220.044973,106.258012 220.015313,104.690983C220.006891,104.246024 220.444846,104.156896 220.988546,104.492921C221.546745,104.837907 221.727982,104.454708 221.404864,103.612676C221.090140,102.792517 221.207794,101.465585 221.666319,100.663940C222.379140,99.417702 222.686929,99.408897 223.789427,100.603201C224.533631,101.409377 224.639342,102.000000 224.039427,102.000000C223.467742,102.000000 223.000000,102.476558 223.000000,103.059017C223.000000,103.641476 223.450000,103.839919 224.000000,103.500000C224.563809,103.151547 225.000000,103.961838 225.000000,105.357650C225.000000,106.719276 225.562500,108.060307 226.250000,108.337719C227.822369,108.972184 226.148149,108.929931 223.500000,108.268316 Z"/>
<path d="M214.750000,107.337719 C215.437500,107.060307 216.000000,106.434956 216.000000,105.948051C216.000000,105.461146 215.306598,105.328853 214.459106,105.654066C213.611615,105.979279 212.989904,105.852656 213.077527,105.372681C213.165150,104.892707 213.151002,104.275000 213.046087,104.000000C212.941172,103.725000 212.775383,101.859704 212.677666,99.854898C212.531269,96.851322 212.812695,96.270133 214.276710,96.552625C215.253901,96.741180 215.789843,96.468976 215.467693,95.947726C215.145543,95.426477 214.233524,95.000000 213.440983,95.000000C212.502845,95.000000 212.000000,93.940842 212.000000,91.964816C212.000000,89.201740 212.186256,89.029313 214.077559,90.041508C215.267417,90.678301 215.921749,91.761537 215.608944,92.576692C215.308548,93.359511 215.498646,94.000000 216.031385,94.000000C216.564123,94.000000 217.000000,97.150000 217.000000,101.000000C217.000000,107.030075 216.757519,107.989061 215.250000,107.921053C214.204562,107.873890 214.003259,107.639036 214.750000,107.337719 Z"/>
<path d="M58.571959,105.883567 C59.058054,105.097050 57.779776,104.980148 54.150885,105.479248C47.923318,106.335757 44.539246,104.262179 44.392771,99.500000C44.336831,97.681268 44.462285,97.364356 44.711379,98.695157C44.997402,100.223250 45.635475,100.726374 46.811130,100.350825C48.222918,99.899846 48.258656,99.981955 47.028960,100.851295C44.651096,102.532339 46.421238,103.184282 53.623777,103.280165C60.247899,103.368348 60.406900,103.310075 61.152866,100.520806C61.571998,98.953612 61.639538,97.225777 61.302954,96.681173C60.959346,96.125203 61.198870,96.004874 61.849162,96.406777C63.101681,97.180877 62.421817,101.615234 60.719612,103.774166C60.167075,104.474957 60.028592,105.361925 60.411872,105.745206C60.795153,106.128486 61.421778,105.967250 61.804373,105.386903C62.795585,103.883363 70.264610,104.213418 70.586876,105.775000C70.731594,106.476250 70.622448,106.592345 70.344330,106.032990C70.040912,105.422752 69.170980,105.356418 68.169330,105.867142C65.573545,107.190688 57.755845,107.204068 58.571959,105.883567 Z"/>
<path d="M209.000000,106.000000 C208.000000,105.353750 207.916667,105.025521 208.750000,105.015313C209.437500,105.006891 210.000000,104.298442 210.000000,103.440983C210.000000,102.583524 210.421366,102.142384 210.936368,102.460673C211.903506,103.058397 211.991618,107.011893 211.037196,106.984687C210.741738,106.976265 209.825000,106.533156 209.000000,106.000000 Z"/>
<path d="M37.361626,103.500000 C37.045044,102.675000 36.357610,102.000000 35.833994,102.000000C35.310379,102.000000 35.203052,102.519529 35.595492,103.154508C36.055440,103.898722 35.867756,104.036303 35.067376,103.541641C34.165568,102.984293 34.126321,102.473679 34.923979,101.676021C35.721637,100.878363 36.627396,101.182951 38.233333,102.788889C39.496416,104.051971 39.906952,105.000000 39.190837,105.000000C38.501354,105.000000 37.678209,104.325000 37.361626,103.500000 Z"/>
<path d="M190.216130,103.154738 C188.713060,102.201014 189.651209,99.000000 191.433796,99.000000C192.816759,99.000000 192.342977,93.330005 190.884704,92.428743C190.398117,92.128016 190.000000,91.358396 190.000000,90.718477C190.000000,90.078558 190.606717,90.442615 191.348260,91.527494C193.165139,94.185591 194.241017,100.000000 192.915983,100.000000C192.347274,100.000000 192.156896,100.444846 192.492921,100.988546C192.856097,101.576177 192.373083,101.719267 191.301938,101.341367C190.062224,100.903996 189.812011,101.033290 190.500000,101.755757C191.050000,102.333319 192.400000,103.022349 193.500000,103.286934L195.500000,103.767997 193.500000,103.868686 C192.400000,103.924065 190.922259,103.602788 190.216130,103.154738 Z"/>
<path d="M206.977122,101.439826 C206.441765,100.031730 205.643917,99.102037 205.204127,99.373843C204.764337,99.645648 203.750994,99.405277 202.952254,98.839685C201.768262,98.001294 201.823262,97.915324 203.250000,98.374283C204.514674,98.781109 205.000000,98.391276 205.000000,96.968615C205.000000,95.876233 205.674722,95.000000 206.515884,95.000000C207.539087,95.000000 207.983268,95.893786 207.882540,97.750000C207.800464,99.262500 208.066461,101.287500 208.473644,102.250000C208.880828,103.212500 208.929695,104.000000 208.582238,104.000000C208.234781,104.000000 207.512479,102.847922 206.977122,101.439826 Z"/>
<path d="M67.781969,100.360222 C68.033228,99.045845 68.629919,97.728723 69.107948,97.433285C69.585977,97.137847 69.680773,97.668317 69.318607,98.612107C68.836488,99.868488 69.014857,100.108852 69.984570,99.509536C70.907538,98.939110 71.071781,99.074839 70.526393,99.957295C70.082078,100.676211 70.277577,101.553518 70.978647,101.986803C71.754628,102.466386 71.305229,102.750000 69.769330,102.750000C67.731475,102.750000 67.401082,102.352706 67.781969,100.360222 Z"/>
<path d="M196.720623,95.039663 C196.383039,93.748740 196.671026,93.000000 197.505136,93.000000C198.229979,93.000000 198.725875,93.661975 198.607127,94.471056C198.248332,96.915687 197.286987,97.205443 196.720623,95.039663 Z"/>
<path d="M204.850000,93.000000 C204.417136,90.114243 204.716608,89.639121 207.175967,89.309768C210.049892,88.924898 211.786227,90.396051 209.861803,91.585410C209.130576,92.037333 208.958881,91.875548 209.404508,91.154508C209.796948,90.519529 209.668034,90.000000 209.118034,90.000000C208.568034,90.000000 207.835382,90.457340 207.489919,91.016312C207.144455,91.575283 206.373369,91.730755 205.776393,91.361803C205.123168,90.958088 204.979107,91.157177 205.414590,91.861803C205.812574,92.505755 206.557102,92.773726 207.069098,92.457295C207.581094,92.140864 208.000000,92.358524 208.000000,92.940983C208.000000,94.286693 205.051291,94.341939 204.850000,93.000000 Z"/>
<path d="M228.599798,91.100405 C229.450475,89.395182 230.296396,88.000000 230.479622,88.000000C231.294563,88.000000 229.648684,92.046677 228.418491,93.067646C227.386399,93.924207 227.430655,93.444007 228.599798,91.100405 Z"/>
<path d="M234.404988,90.854491 C232.510213,88.720484 232.512063,88.715312 234.750000,89.889675C235.987500,90.539056 237.000000,91.504535 237.000000,92.035184C237.000000,93.455823 236.521322,93.238031 234.404988,90.854491 Z"/>
<path d="M197.500000,91.068100 C196.400000,90.632869 194.825000,90.511196 194.000000,90.797715C193.175000,91.084234 192.823258,90.961203 193.218351,90.524312C193.613444,90.087421 194.963444,89.659991 196.218351,89.574468C197.473258,89.488945 198.387500,88.874703 198.250000,88.209486C197.951535,86.765529 200.889309,86.635967 203.000000,88.000000C204.161429,88.750573 203.855138,88.972831 201.643011,88.984687C199.517650,88.996079 198.933425,89.384125 199.361626,90.500000C199.678209,91.325000 199.838854,91.968372 199.718615,91.929715C199.598377,91.891058 198.600000,91.503331 197.500000,91.068100 Z"/>
<path d="M207.750000,87.283746 C204.896285,86.851444 204.188797,85.619385 206.111803,84.430902C206.723295,84.052979 207.623295,84.363921 208.111803,85.121885C208.860383,86.283371 209.138164,86.285723 209.878949,85.136847C210.501962,84.170623 210.871497,84.114491 211.148025,84.944076C211.659837,86.479511 215.000000,85.190986 215.000000,83.458111C215.000000,82.727760 214.561138,80.975904 214.024751,79.565100C213.262424,77.560028 213.358702,77.000000 214.465734,77.000000C216.271476,77.000000 217.720896,79.259701 216.233228,79.755591C215.616747,79.961084 215.360606,80.776148 215.664024,81.566844C215.967442,82.357539 215.933589,84.128466 215.588795,85.502236C214.946273,88.062248 214.123467,88.249245 207.750000,87.283746 Z"/>
<path d="M204.272364,78.000000 C204.272364,75.525000 204.467380,74.512500 204.705733,75.750000L205.139102,78.000000 204.705733,80.250000 C204.467380,81.487500 204.272364,80.475000 204.272364,78.000000 Z"/>
</g></svg>
