<?xml version="1.0" standalone="no"?>
<!DOCTYPE svg PUBLIC "-//W3C//DTD SVG 20010904//EN" "http://www.w3.org/TR/2001/REC-SVG-20010904/DTD/svg10.dtd">
<svg version="1.0" xmlns="http://www.w3.org/2000/svg" width="200pt" height="133pt" viewBox="0 0 200 133" preserveAspectRatio="xMidYMid meet">
<g fill="#fff" stroke="none">
<path d="M182.966008,105.243677 C181.054859,101.825421 181.491634,99.366203 184.132551,98.675588C185.655951,98.277210 186.011659,98.527233 185.567650,99.684304C185.183061,100.686527 185.432768,101.047909 186.284131,100.721210C187.053732,100.425887 187.649474,100.996745 187.733323,102.109870C187.811632,103.149441 187.427112,104.000000 186.878834,104.000000C186.330557,104.000000 186.160081,103.550000 186.500000,103.000000C186.839919,102.450000 186.191476,102.000000 185.059017,102.000000C182.236001,102.000000 182.468882,103.800884 185.468643,105.167667C186.826397,105.786301 187.699839,106.676653 187.409626,107.146228C186.397212,108.784348 184.488750,107.967233 182.966008,105.243677 Z"/>
<path d="M57.500000,98.000000 C54.642937,97.273001 54.622041,97.230992 57.061439,97.118315C58.470230,97.053242 60.512502,96.171189 61.599821,95.158197C63.700716,93.200915 70.524413,92.342466 69.389882,94.178175C69.034520,94.753162 69.363921,95.616405 70.121885,96.096491C71.184974,96.769840 71.060816,96.972875 69.578741,96.984687C68.522048,96.993109 66.834548,96.255256 65.828741,95.345012C64.105881,93.785846 63.995429,93.829269 63.921053,96.095012C63.877632,97.417756 63.623558,97.962780 63.356445,97.306177C63.089332,96.649574 62.227443,96.359228 61.441136,96.660962C60.654829,96.962696 60.260460,97.612416 60.564761,98.104785C60.869061,98.597153 60.978976,98.946758 60.809017,98.881685C60.639058,98.816612 59.150000,98.419854 57.500000,98.000000 Z"/>
<path d="M162.000000,96.029902 C162.000000,95.496348 160.361527,95.158848 158.358949,95.279902C156.356371,95.400956 154.551014,95.033929 154.347044,94.464286C153.811549,92.968763 165.211701,93.121954 166.750000,94.630952C168.652142,96.496863 168.280478,97.000000 165.000000,97.000000C163.350000,97.000000 162.000000,96.563456 162.000000,96.029902 Z"/>
<path d="M145.099680,93.758474 C145.042300,92.180349 144.151275,90.486910 143.000000,89.767927C140.533079,88.227309 140.404040,87.062882 142.750000,87.511973C143.712500,87.696225 145.962500,87.881408 147.750000,87.923489C150.307830,87.983705 151.000000,88.425951 151.000000,90.000000C151.000000,91.904871 150.642911,92.168567 147.750000,92.400000C147.062500,92.455000 146.207356,93.400000 145.849680,94.500000C145.308808,96.163402 145.182584,96.038603 145.099680,93.758474 Z"/>
<path d="M90.455281,93.661826 C89.880685,93.022822 89.027168,91.825000 88.558576,91.000000C87.888574,89.820398 87.978648,89.751400 88.980269,90.676974C89.862988,91.492672 91.024926,91.560822 92.765662,90.898995C96.135723,89.617700 96.459267,90.225659 93.746057,92.741216C92.069160,94.295954 91.235264,94.529241 90.455281,93.661826 Z"/>
<path d="M168.011369,89.042222 C167.425224,86.865444 166.507879,84.813886 165.972825,84.483205C164.484121,83.563136 164.815969,82.000000 166.500000,82.000000C167.325000,82.000000 168.000000,81.325000 168.000000,80.500000C168.000000,79.675000 168.701558,79.000000 169.559017,79.000000C170.416476,79.000000 170.867463,79.405432 170.561210,79.900961C170.254956,80.396489 171.465899,80.785853 173.252193,80.766213C175.038487,80.746574 177.830975,81.265543 179.457723,81.919478L182.415446,83.108450 179.957723,84.333490 C178.605975,85.007261 176.911914,86.785012 176.193142,88.284046C175.100379,90.563058 174.445083,90.905717 172.193142,90.375673C170.335724,89.938489 169.810316,90.065887 170.500000,90.786216C171.050000,91.360653 172.625000,92.032470 174.000000,92.279142C175.840305,92.609288 175.520628,92.763571 172.788544,92.863818C169.274183,92.992768 169.020494,92.789825 168.011369,89.042222 Z"/>
<path d="M50.000000,87.000000 C50.000000,86.450000 51.575000,86.000000 53.500000,86.000000C55.425000,86.000000 57.000000,86.450000 57.000000,87.000000C57.000000,87.550000 55.425000,88.000000 53.500000,88.000000C51.575000,88.000000 50.000000,87.550000 50.000000,87.000000 Z"/>
<path d="M88.000000,87.000000 C88.000000,86.450000 88.562500,85.993109 89.250000,85.984687C90.096516,85.974317 90.025167,85.669081 89.028960,85.039060C88.219889,84.527387 87.919181,83.747486 88.360721,83.305945C88.802262,82.864405 89.801696,83.375900 90.581687,84.442601C91.699818,85.971735 91.735411,86.549968 90.749926,87.175716C89.039673,88.261665 88.000000,88.195232 88.000000,87.000000 Z"/>
<path d="M90.894037,81.250000 C90.835758,80.287500 90.876074,78.201474 90.983629,76.614388C91.091183,75.027301 90.580128,73.358539 89.847951,72.906028C88.787745,72.250785 88.769505,71.830495 89.758359,70.841641C91.248033,69.351967 91.399944,65.365213 90.000000,64.500000C89.450000,64.160081 89.000000,63.431966 89.000000,62.881966C89.000000,62.331966 89.526472,62.207344 90.169939,62.605028C90.956593,63.091207 91.130681,62.782931 90.701324,61.664045C90.228276,60.431302 90.637810,59.977722 92.281385,59.914047C98.141474,59.687018 88.517570,58.235670 76.778298,57.576079C69.822545,57.185259 62.639393,56.707005 60.815737,56.513292C58.992082,56.319579 53.450000,55.856382 48.500000,55.483965C42.336612,55.020258 38.902389,54.285720 37.603901,53.153422C36.223355,51.949569 35.591153,51.833167 35.278794,52.725320C34.978368,53.583388 33.148916,53.795970 29.174893,53.434590C19.054362,52.514276 16.798635,51.967131 17.337337,50.563298C17.630457,49.799438 17.186833,49.301253 16.278549,49.374291C15.418739,49.443431 14.492922,48.865793 14.221179,48.090650C13.892012,47.151709 14.232637,46.875293 15.241695,47.262506C16.074722,47.582168 17.221915,47.378085 17.791013,46.808987C19.084907,45.515093 21.277173,46.742508 20.350451,48.241976C19.975255,48.849055 20.670723,48.643615 21.895934,47.785444C23.693545,46.526348 24.801495,46.433187 27.635167,47.302866C30.301076,48.121056 31.329704,48.084562 31.906476,47.151324C32.473064,46.234566 39.802300,45.868401 60.735835,45.711025C76.174129,45.594961 88.597674,45.162500 88.343713,44.750000C88.089752,44.337500 88.471024,43.993109 89.190983,43.984687C90.147814,43.973494 90.096430,43.696275 89.000000,42.954310C87.894518,42.206220 88.289036,42.100015 90.500000,42.550507C92.785559,43.016197 93.142779,42.908004 92.000000,42.096196C90.912431,41.323608 90.856881,41.026415 91.797966,41.015313C93.353373,40.996963 97.441415,36.610775 99.608546,32.635098C100.790563,30.466646 101.451349,30.051349 102.326739,30.926739C103.202129,31.802129 103.120668,32.316256 101.991641,33.041641C101.056058,33.642740 100.872783,34.279587 101.500000,34.750000C102.050000,35.162500 102.558978,36.625000 102.631062,38.000000C102.703147,39.375000 102.815647,40.889960 102.881062,41.366577C102.946478,41.843195 104.125000,42.018097 105.500000,41.755249C107.176411,41.434783 108.000000,41.725814 108.000000,42.638672C108.000000,43.428408 106.845335,44.049678 105.250000,44.118315L102.500000,44.236630 105.462074,44.871566 C108.232233,45.465365 108.426605,45.814005 108.462074,50.252602C108.494612,54.324412 108.784144,54.996617 110.500000,54.984038C111.982220,54.973171 112.153510,54.749753 111.161633,54.121057C109.655457,53.166374 109.822653,45.920119 111.375761,44.840751C111.897490,44.478164 112.958521,44.815664 113.733608,45.590751C115.734389,47.591532 117.571429,47.335275 117.571429,45.055397C117.571429,43.552111 117.270024,43.360937 116.243333,44.213015C115.292750,45.001928 114.608395,45.008395 113.835763,44.235763C113.242053,43.642053 112.117723,43.401331 111.337251,43.700826C110.556780,44.000321 110.049115,43.794356 110.209106,43.243127C110.369098,42.691897 109.262500,41.083178 107.750000,39.668195C106.237500,38.253211 105.000000,36.639177 105.000000,36.081452C105.000000,35.523728 106.298494,36.336725 107.885541,37.888113C110.129844,40.081988 111.574305,40.654999 114.385541,40.466631C116.555632,40.321223 118.006119,40.679108 118.015313,41.362221C118.025083,42.088167 118.296555,42.138038 118.765313,41.500000C119.169391,40.950000 122.200000,40.358748 125.500000,40.186107C128.800000,40.013466 133.041691,39.389932 134.925979,38.800476C136.864875,38.193938 147.757197,37.679096 160.019972,37.614370C177.930204,37.519835 182.001833,37.760138 183.497687,39.000000C184.743948,40.032983 187.594624,40.500000 192.653695,40.500000L200.000000,40.500000 200.000000,49.250000 C200.000000,54.189315 199.580830,58.000000 199.037513,58.000000C198.508145,58.000000 195.622974,58.917430 192.626023,60.038733C187.181482,62.075797 187.176441,62.081684 186.468318,67.230354C185.839046,71.805712 184.236941,75.000000 182.571429,75.000000C182.257143,75.000000 182.000000,71.850000 182.000000,68.000000C182.000000,62.686807 181.664665,61.000000 180.608408,61.000000C179.843032,61.000000 178.934459,59.875000 178.589356,58.500000C178.166746,56.816187 177.233548,55.967457 175.730948,55.900320C173.610835,55.805592 173.624202,55.760864 176.000000,55.000000L178.500000,54.199360 175.872445,54.099680 C172.763540,53.981739 170.705607,56.069249 171.609261,58.424133C172.000329,59.443241 171.449751,60.964985 170.206624,62.300881C168.776144,63.838113 168.321015,65.324182 168.694460,67.238345C168.988291,68.744435 169.627241,69.730378 170.114349,69.429328C171.408497,68.629501 171.195970,69.874626 169.779528,71.390932C169.108269,72.109518 167.769020,72.490852 166.803420,72.238342C165.394145,71.869808 165.255070,71.391915 166.098475,69.815997C167.040053,68.056644 166.855833,67.886369 164.324584,68.176381C162.140552,68.426610 161.449257,69.066944 161.276241,71.000000C161.153174,72.375000 161.303174,72.937500 161.609575,72.250000C161.915975,71.562500 162.605724,71.000000 163.142350,71.000000C163.678976,71.000000 163.839919,71.450000 163.500000,72.000000C163.160081,72.550000 163.921024,73.053242 165.190983,73.118315C167.091237,73.215684 166.968913,73.360600 164.500000,73.936911C162.850000,74.322065 161.011832,74.275414 160.415182,73.833240C158.767691,72.612295 159.195700,65.500000 160.916667,65.500000C164.064496,65.500000 162.960467,63.083210 159.517585,62.437321C155.243656,61.635527 154.333997,62.191140 156.452381,64.309524C158.443831,66.300973 158.475190,71.603675 156.500000,72.361626C155.675000,72.678209 155.000000,73.626354 155.000000,74.468615C155.000000,76.690651 153.324184,76.347682 152.710251,74.000000C152.357383,72.650629 151.346235,72.000000 149.602038,72.000000C147.278577,72.000000 147.053109,71.670952 147.375100,68.750000C147.612308,66.598163 148.272283,65.496078 149.328288,65.488394C150.205496,65.482011 151.435788,64.964212 152.062269,64.337731C153.682640,62.717360 151.539313,62.282819 138.000000,61.486728C131.675000,61.114828 126.050000,60.447081 125.500000,60.002847C124.417650,59.128635 121.718067,58.702152 118.423193,58.884846C116.696747,58.980573 116.421407,59.511151 116.791082,62.029907C117.199130,64.810119 117.347057,64.913132 118.586085,63.279907C119.781004,61.704826 119.940053,62.046615 119.968197,66.250000C119.999272,70.891210 118.599702,72.733662 117.689326,69.250000C117.437798,68.287500 117.179802,69.862500 117.116001,72.750000C117.024531,76.889783 116.655126,78.000000 115.369158,78.000000C114.063819,78.000000 113.851678,77.301426 114.306287,74.500000C114.618672,72.575000 114.501783,71.000000 114.046535,71.000000C112.597574,71.000000 112.296985,63.998414 113.696096,62.837255C116.104937,60.838094 115.174650,59.000382 111.750000,58.992891C109.962500,58.988981 105.350000,58.755939 101.500000,58.475020C97.650000,58.194102 95.175000,58.309801 96.000000,58.732129C96.825000,59.154458 97.545000,60.062500 97.600000,60.750000C97.863774,64.047179 98.095076,64.256558 99.468197,62.441130C100.821299,60.652168 100.938886,60.902845 100.968197,65.638889C100.994692,69.920094 100.709469,70.754597 99.259257,70.638889C97.879817,70.528827 97.583319,71.166882 97.830743,73.713006C98.096593,76.448750 97.761002,77.021881 95.571486,77.571414C93.706226,78.039565 93.000000,78.873637 93.000000,80.608408C93.000000,83.332815 91.056012,83.925060 90.894037,81.250000 Z"/>
<path d="M109.016316,78.392491 C109.935761,72.334027 111.000000,71.708394 111.000000,77.226345C111.000000,80.092020 110.507143,81.975149 109.673396,82.295088C108.636234,82.693085 108.492871,81.841608 109.016316,78.392491 Z"/>
<path d="M86.000000,76.583333 C86.000000,74.000272 86.436405,73.000000 87.563358,73.000000C88.718536,73.000000 89.044901,73.828443 88.813358,76.172988C88.360618,80.757328 86.000000,81.101638 86.000000,76.583333 Z"/>
<path d="M103.403178,72.750000 C103.740465,70.412500 104.109160,67.712500 104.222499,66.750000C104.335839,65.787500 104.837243,65.000000 105.336730,65.000000C105.836218,65.000000 105.684689,64.325000 105.000000,63.500000C104.248404,62.594383 104.166864,62.000000 104.794222,62.000000C105.365733,62.000000 106.067564,62.562500 106.353845,63.250000C106.733475,64.161674 107.256449,64.030551 108.286056,62.765544C110.212734,60.398366 111.000000,61.530011 111.000000,66.666667C111.000000,69.600454 110.571478,71.000000 109.673193,71.000000C108.767783,71.000000 108.486228,70.047191 108.786692,68.000000C109.106904,65.818258 108.822826,65.000000 107.745168,65.000000C106.363825,65.000000 104.857511,70.371702 104.870899,75.250000C104.873541,76.212500 104.406403,77.000000 103.832816,77.000000C103.176361,77.000000 103.017163,75.425202 103.403178,72.750000 Z"/>
<path d="M129.000000,69.000000 C129.000000,67.350000 128.966250,65.673750 128.925000,65.275000C128.883750,64.876250 129.333750,64.388750 129.925000,64.191667C130.574660,63.975113 131.000000,65.448966 131.000000,67.916667C131.000000,70.162500 130.550000,72.000000 130.000000,72.000000C129.450000,72.000000 129.000000,70.650000 129.000000,69.000000 Z"/>
<path d="M132.349029,68.319250 C132.685237,63.063799 135.000000,62.712273 135.000000,67.916667C135.000000,70.808231 134.578779,72.000000 133.556780,72.000000C132.517903,72.000000 132.179530,70.968772 132.349029,68.319250 Z"/>
<path d="M137.290865,70.483737 C136.138303,69.233283 136.279118,65.387549 137.523013,64.143654C137.845166,63.821500 138.534278,64.219889 139.054373,65.028960C139.840607,66.252045 140.147488,66.271307 140.875000,65.143237C141.514084,64.152282 141.942515,64.097970 142.464028,64.941796C143.002886,65.813686 143.524204,65.809839 144.589028,64.926114C145.764850,63.950267 146.000000,64.442148 146.000000,67.877555C146.000000,70.144900 145.550000,72.000000 145.000000,72.000000C144.450000,72.000000 144.000000,70.848442 144.000000,69.440983C144.000000,67.922932 143.576670,67.143599 142.959323,67.525140C142.386950,67.878886 142.192275,69.030443 142.526710,70.084157C142.961548,71.454210 142.655043,72.000000 141.450811,72.000000C140.193807,72.000000 139.888016,71.366137 140.244751,69.500000C140.507599,68.125000 140.364949,67.000000 139.927750,67.000000C139.490552,67.000000 138.990455,68.079003 138.816422,69.397784C138.560741,71.335286 138.267892,71.543747 137.290865,70.483737 Z"/>
<path d="M68.474955,69.959476 C68.110172,69.369245 68.081675,67.810719 68.411627,66.496084C68.831651,64.822574 68.485057,63.799230 67.255770,63.083328C65.587210,62.111606 65.586923,62.059307 67.250000,62.030409C68.212500,62.013684 69.000000,61.550000 69.000000,61.000000C69.000000,60.450000 69.450000,60.000000 70.000000,60.000000C71.262365,60.000000 71.326329,69.680284 70.069098,70.457295C69.557102,70.773726 68.839738,70.549707 68.474955,69.959476 Z"/>
<path d="M75.066907,70.041351 C74.194799,69.502359 73.957041,68.307300 74.383705,66.607334C74.873800,64.654640 74.656706,64.000000 73.519052,64.000000C72.683573,64.000000 72.000000,63.550000 72.000000,63.000000C72.000000,62.450000 72.413196,62.000000 72.918213,62.000000C73.423229,62.000000 74.500543,61.745154 75.312244,61.433675C76.455180,60.995089 76.871536,61.916893 77.158138,65.520448C77.554969,70.509938 77.170375,71.341366 75.066907,70.041351 Z"/>
<path d="M80.168192,67.959544 C80.357526,66.154529 79.926921,64.572868 79.108458,64.067031C78.010616,63.388527 78.151304,62.989392 79.799159,62.107487C82.889152,60.453773 83.000000,60.588575 83.000000,66.000000C83.000000,69.884090 82.648407,71.000000 81.424634,71.000000C80.266306,71.000000 79.933694,70.195116 80.168192,67.959544 Z"/>
<path d="M85.489223,68.061171 C85.773985,66.444815 85.551951,64.841124 84.995815,64.497413C84.360852,64.104985 84.519003,63.338140 85.420901,62.436242C87.833654,60.023489 88.499683,60.793166 88.507430,66.003096C88.513553,70.121488 88.203376,71.000000 86.743167,71.000000C85.332032,71.000000 85.076842,70.401919 85.489223,68.061171 Z"/>
<path d="M55.658437,66.957814 C56.113546,64.682269 55.792242,63.529567 54.383437,62.383657C53.347547,61.541072 53.092441,61.155118 53.816535,61.525980C54.561014,61.907283 55.742114,61.396361 56.534731,60.350138C57.305645,59.332562 57.976718,58.725000 58.026004,59.000000C58.075289,59.275000 58.235526,61.862500 58.382085,64.750000C58.609821,69.236841 58.387007,70.000000 56.849278,70.000000C55.377869,70.000000 55.160871,69.445645 55.658437,66.957814 Z"/>
<path d="M62.343579,67.032106 C62.781027,64.844866 62.485114,63.800732 61.218579,63.062515C59.602126,62.120343 59.603993,62.059010 61.250000,62.030409C62.212500,62.013684 63.000000,61.550000 63.000000,61.000000C63.000000,60.450000 63.450000,60.000000 64.000000,60.000000C64.550000,60.000000 65.000000,62.250000 65.000000,65.000000C65.000000,68.948718 64.658333,70.000000 63.375000,70.000000C62.106684,70.000000 61.880289,69.348553 62.343579,67.032106 Z"/>
<path d="M27.210938,66.563614 C26.285895,64.533366 26.378888,64.073681 27.768792,63.806010C29.179050,63.534419 29.064881,63.138356 27.029807,61.242397C24.778042,59.144558 24.751071,59.000000 26.611439,59.000000C27.705147,59.000000 29.140000,58.460000 29.800000,57.800000C30.733333,56.866667 31.022545,57.144444 31.101453,59.050000C31.157252,60.397500 31.356701,63.187500 31.544673,65.250000C31.823444,68.308779 31.557843,69.000000 30.103735,69.000000C29.123247,69.000000 27.821489,67.903626 27.210938,66.563614 Z"/>
<path d="M33.898152,68.750000 C33.226409,67.101123 33.360911,57.894979 34.063084,57.461012C34.592351,57.133907 35.000000,58.829991 35.000000,61.359196C35.000000,63.821672 35.273145,66.548229 35.606989,67.418213C35.940833,68.288196 35.715833,69.000000 35.106989,69.000000C34.498145,69.000000 33.954168,68.887500 33.898152,68.750000 Z"/>
<path d="M49.520400,64.064275 C49.182494,62.999627 48.139669,61.926827 47.203012,61.680277C45.978338,61.357913 46.131975,61.199420 47.750000,61.116001C48.987500,61.052201 50.000000,60.550000 50.000000,60.000000C50.000000,59.450000 50.450000,59.000000 51.000000,59.000000C51.550000,59.000000 52.000000,60.575000 52.000000,62.500000C52.000000,66.276451 50.519044,67.210724 49.520400,64.064275 Z"/>
</g></svg>
