<?xml version="1.0" standalone="no"?>
<!DOCTYPE svg PUBLIC "-//W3C//DTD SVG 20010904//EN" "http://www.w3.org/TR/2001/REC-SVG-20010904/DTD/svg10.dtd">
<svg version="1.0" xmlns="http://www.w3.org/2000/svg" width="400pt" height="189pt" viewBox="0 0 400 189" preserveAspectRatio="xMidYMid meet">
<g fill="orange" stroke="none">
<path d="M142.200159,171.822657 C141.815071,171.450119 137.900000,170.920847 133.500000,170.646497C120.971487,169.865317 107.028281,168.085503 105.020970,167.011223C103.823885,166.370562 101.309880,166.380338 97.744037,167.039520C93.564659,167.812120 90.224058,167.678873 83.398022,166.467298C74.165997,164.828677 73.275960,164.682594 61.218233,162.826891C51.935204,161.398219 50.232549,159.467734 59.110463,160.437084C62.624708,160.820793 71.125000,161.298751 78.000000,161.499213C87.797981,161.784903 91.240474,161.526029 93.925561,160.301618C96.631981,159.067478 99.223729,158.880910 106.271113,159.412917C111.247037,159.788550 115.701555,159.685593 116.345552,159.180068C119.457205,156.737481 143.140994,156.023477 174.863070,157.415919C187.557724,157.973151 193.498727,157.786112 201.363070,156.581624C216.129963,154.319956 218.889520,154.136289 225.040547,155.005731C228.092150,155.437073 234.393909,155.372457 239.044458,154.862141C248.316497,153.844698 261.787255,153.077641 278.000000,152.643920C286.835409,152.407557 293.000000,151.140139 293.000000,149.559973C293.000000,149.356660 291.200000,149.431744 289.000000,149.726826C284.168977,150.374802 283.487153,148.488318 288.250000,147.651710C292.744110,146.862307 304.472775,146.563436 305.585377,147.209967C306.088420,147.502285 309.402968,147.388013 312.951041,146.956030C320.156139,146.078799 322.035003,144.524161 321.867583,139.578169C321.760511,136.415018 322.750771,129.662400 323.712150,127.000000C324.777981,124.048335 324.639322,110.349385 323.459104,102.000000C322.516895,95.334398 322.520598,93.176283 323.476261,92.000000C324.146527,91.175000 325.260950,86.450000 325.952756,81.500000C327.213241,72.480998 329.745873,64.893127 331.950464,63.530615C332.813072,62.997494 332.947199,63.764531 332.452489,66.401565C331.929477,69.189455 332.104205,70.000000 333.228194,70.000000C334.026121,70.000000 335.218050,68.816848 335.876926,67.370774C337.770806,63.214158 338.428493,65.471825 336.631824,69.962143C335.741630,72.186957 334.799668,77.268127 334.538577,81.253630C334.277485,85.239134 334.307490,87.712500 334.605256,86.750000C334.903022,85.787500 335.625795,85.000000 336.211419,85.000000C337.418245,85.000000 336.545336,96.435458 335.035345,100.407035C334.536677,101.718632 334.036102,106.640944 333.922956,111.345507C333.649314,122.723423 332.637923,128.617480 329.719234,135.843425C326.540452,143.713298 327.154772,144.628801 334.655820,143.200267C337.870119,142.588122 343.200000,141.839697 346.500000,141.537101C349.800000,141.234506 355.650000,140.343490 359.500000,139.557066C372.130988,136.976986 377.077752,136.316788 377.588368,137.142983C377.865053,137.590668 376.608359,138.638035 374.795716,139.470464L371.500000,140.983972 375.250000,140.692787 C381.109756,140.237780 379.847487,142.657675 373.250000,144.526988C370.087500,145.423041 366.150000,146.534867 364.500000,146.997711C361.451161,147.852947 355.291102,148.922622 349.628456,149.580109C345.322030,150.080125 335.781760,151.551438 328.000000,152.915678C322.322097,153.911085 321.057333,154.559581 318.000000,158.043087C314.100300,162.486381 310.487244,163.738616 313.830691,159.488112C314.966277,158.044448 315.585445,156.130744 315.286640,154.988112C314.637869,152.507207 313.580668,152.475242 311.288955,154.867239C308.976318,157.281076 304.208077,158.668460 295.500000,159.461249C291.650000,159.811755 285.575000,160.741824 282.000000,161.528069C273.667266,163.360675 271.036000,163.827373 262.500000,164.986713C258.650000,165.509611 250.550000,166.633793 244.500000,167.484896C226.121166,170.070395 196.482552,172.072813 178.000000,171.977711C168.375000,171.928185 156.540071,172.025439 151.700159,172.193832C146.860246,172.362224 142.585246,172.195196 142.200159,171.822657 Z"/>
<path d="M276.010569,134.512735 C275.331693,133.694739 275.039605,132.339174 275.361485,131.500369C275.822189,130.299792 275.420418,130.107362 273.473360,130.596042C271.711758,131.038176 271.000000,130.808083 271.000000,129.796467C271.000000,128.136395 274.921333,125.068848 280.294051,122.525996C282.430424,121.514872 284.791574,119.369252 285.698192,117.615155C286.583741,115.901820 289.058107,112.130740 291.196782,109.234978C293.853651,105.637584 294.675855,103.831026 293.792641,103.531326C283.629866,100.082807 281.108571,99.839424 273.373710,101.560267C266.848981,103.011882 264.918442,103.077569 260.118356,102.011287C250.967017,99.978426 247.259026,98.104191 245.079165,94.409602C242.823951,90.587299 240.180355,90.038241 237.625349,92.861491C236.698805,93.885311 234.149771,95.530588 231.960830,96.517663C228.712901,97.982275 227.509972,98.097758 225.420166,97.145579C223.065595,96.072765 222.875416,95.516659 223.058362,90.239407C223.167795,87.082733 222.932993,82.858573 222.536582,80.852384C222.007169,78.173093 222.341133,76.017240 223.794601,72.731433C226.247273,67.186762 226.874153,66.796335 232.006439,67.617020C236.910159,68.401157 239.000000,70.217064 239.000000,73.693873C239.000000,75.848061 239.233336,76.051238 240.500000,75.000000C241.325000,74.315311 242.067928,74.147711 242.150951,74.627555C242.474912,76.499942 242.752793,79.644392 242.873637,82.805324C242.988638,85.813455 243.510930,86.344559 248.682472,88.712169C253.716856,91.016986 256.140427,91.392512 269.932472,92.004796C280.497327,92.473813 286.906153,93.226793 289.875727,94.347951C292.282376,95.256578 295.442544,96.000000 296.898323,96.000000C299.843635,96.000000 299.916806,95.886993 307.582020,79.500000C310.154712,74.000000 312.461903,70.057043 312.709112,70.737874C312.956321,71.418704 312.470880,73.354280 311.630354,75.039154C310.789828,76.724027 310.324626,78.682388 310.596572,79.391066C310.868517,80.099745 310.395539,81.256769 309.545509,81.962231C308.403792,82.909772 308.000000,85.197392 308.000000,90.718074C308.000000,96.454545 307.558907,98.810718 306.101948,100.856827C305.058020,102.322889 302.408282,107.342356 300.213643,112.011197C298.019003,116.680039 293.816627,123.328963 290.875029,126.786584C286.306264,132.156815 285.359446,132.844476 284.379443,131.504241C283.377493,130.133994 282.909104,130.319311 280.680668,132.967658C277.736894,136.466134 277.654398,136.493428 276.010569,134.512735 Z"/>
<path d="M38.457378,128.250000 C38.504698,121.866172 39.424666,120.170156 47.707042,111.197680C50.399018,108.281404 53.474239,104.231404 54.540864,102.197680C55.607490,100.163956 57.047142,98.140139 57.740092,97.700310C58.433041,97.260480 59.000000,95.979947 59.000000,94.854680C59.000000,93.729414 59.835319,91.614274 60.856265,90.154370C66.302529,82.366473 72.945874,64.070025 72.985219,56.750000C72.997786,54.412001 72.587999,54.000676 70.250000,54.004513C66.283095,54.011022 48.841280,62.493796 47.450146,65.093152C46.400406,67.054610 40.368529,69.947381 37.250000,69.984944C34.416882,70.019069 36.300913,67.252336 40.500000,65.212263C42.975000,64.009815 45.000000,62.619756 45.000000,62.123243C45.000000,61.626730 50.287500,58.662554 56.750000,55.536184C63.212500,52.409815 69.400000,49.053064 70.500000,48.076737C73.049853,45.813566 85.821442,40.771611 87.062089,41.538373C88.936748,42.696976 87.926740,45.976994 84.702289,49.201862C82.428686,51.475760 81.002295,54.208031 80.109192,58.000000C79.396730,61.025000 78.077984,65.975000 77.178647,69.000000C74.828989,76.903275 58.554896,109.118409 54.003014,114.876971C51.882618,117.559474 48.913957,122.172043 47.405990,125.127125C44.017275,131.767810 42.167296,134.000000 40.052390,134.000000C38.720473,134.000000 38.422713,132.926577 38.457378,128.250000 Z"/>
<path d="M141.031803,110.779937 C141.014312,109.833903 139.650000,108.061777 138.000000,106.841879C136.054459,105.403478 134.987653,103.723396 134.964871,102.061942C134.945550,100.652874 134.298054,96.575000 133.525992,93.000000C132.308635,87.363083 132.320786,85.039398 133.617505,75.500000C135.619032,60.775633 135.812001,60.000000 137.473739,60.000000C139.355686,60.000000 139.825209,63.367737 140.401516,81.000000C140.686876,89.730662 141.497053,97.675609 142.437723,100.967928C144.356620,107.684019 144.361097,108.140328 142.531803,110.558870C141.225346,112.286161 141.060103,112.310514 141.031803,110.779937 Z"/>
<path d="M345.413310,97.510621 C345.034092,95.999696 345.313922,91.636074 346.035155,87.813683C347.280343,81.214443 347.544405,80.762913 351.270150,78.862180C355.867252,76.516913 356.508107,76.790720 354.864566,80.397900C353.262919,83.913132 354.822531,85.700530 358.005191,83.997222C359.913155,82.976111 360.137363,82.260484 359.600733,78.904581C358.865838,74.308806 360.078691,73.866843 362.769181,77.750000C365.630667,81.879954 366.116092,83.917716 364.811262,86.322442C364.161402,87.520099 363.367899,90.075000 363.047924,92.000000C362.579340,94.819047 361.733288,95.845098 358.699341,97.273754C356.627595,98.249319 352.945840,99.319815 350.517663,99.652633C346.331217,100.226450 346.067124,100.115624 345.413310,97.510621 Z"/>
<path d="M171.708210,95.374876 C171.314836,94.981503 171.636965,93.676814 172.424052,92.475568C173.530580,90.786792 173.628987,89.408004 172.857984,86.395742C172.309560,84.253084 171.625269,81.542797 171.337338,80.372882C170.669467,77.659205 178.883968,64.194222 180.053200,66.086080C180.485728,66.785925 179.984488,68.901973 178.912340,70.902370C176.864605,74.723000 176.412261,78.000000 177.932612,78.000000C178.445549,78.000000 179.172270,79.012500 179.547547,80.250000C180.808063,84.406627 184.075452,87.000000 188.051869,87.000000C191.659318,87.000000 194.704895,89.050438 193.644914,90.765524C193.054919,91.720157 180.369100,91.462603 177.709435,90.441994C176.769246,90.081210 175.989994,90.171667 175.977764,90.643011C175.936921,92.217160 172.433390,96.100056 171.708210,95.374876 Z"/>
<path d="M206.434147,90.893448 C205.646123,89.618398 210.234817,85.000000 212.289689,85.000000C214.709483,85.000000 214.991501,86.205804 213.258042,89.140316C211.527203,92.070393 207.759736,93.038295 206.434147,90.893448 Z"/>
<path d="M93.041627,86.309017 C93.018732,85.103976 92.550000,83.839919 92.000000,83.500000C91.450000,83.160081 91.000000,82.163779 91.000000,81.285995C91.000000,79.915645 91.293558,79.955691 93.076541,81.569269C95.115857,83.414824 95.183860,83.407711 96.869897,81.172481C98.323027,79.246023 98.440621,78.013104 97.635536,73.145098C96.291211,65.016540 97.220807,62.000000 101.070079,62.000000C103.584626,62.000000 104.349331,61.408182 105.551027,58.532119C107.886396,52.942794 107.447115,46.356206 104.545455,43.454545C103.195455,42.104545 101.629192,41.000000 101.064872,41.000000C100.500552,41.000000 97.667597,39.483317 94.769417,37.629594C91.871238,35.775871 86.800000,33.473082 83.500000,32.512286C80.200000,31.551490 73.000000,29.288838 67.500000,27.484171C62.000000,25.679505 55.812500,23.911902 53.750000,23.556167C48.889695,22.717871 48.564013,20.000000 53.323865,20.000000C58.381942,20.000000 76.518433,22.787157 85.500000,24.944724C89.900000,26.001699 94.850000,27.156888 96.500000,27.511810C102.892108,28.886780 111.689526,33.819352 115.325169,38.066784C117.346326,40.428051 119.000000,42.673898 119.000000,43.057554C119.000000,44.679297 115.595855,46.507616 111.802020,46.923489C111.418130,46.965570 111.584790,48.379083 112.172374,50.064628C113.857308,54.898033 112.483534,59.756780 107.699062,65.885788C105.288628,68.973605 102.512024,73.629885 101.528831,76.233079C100.545639,78.836272 98.243169,82.661272 96.412231,84.733079C93.447038,88.088357 93.078704,88.260573 93.041627,86.309017 Z"/>
<path d="M138.117965,43.123869 C136.073261,41.551599 135.871673,40.884980 136.694470,38.416591C137.313374,36.559878 137.302198,34.611570 136.662928,32.917951C135.262654,29.208202 136.304022,27.144299 139.288256,27.714772C141.461562,28.130225 141.802747,28.838679 142.349709,34.071735C142.853835,38.894955 141.961536,45.073812 140.774751,44.977764C140.623638,44.965534 139.428084,44.131281 138.117965,43.123869 Z"/>
</g></svg>
